<svg width="360" height="800" viewBox="0 0 360 800" fill="none" xmlns="http://www.w3.org/2000/svg">
<g clip-path="url(#clip0_59_230)">
<rect width="360" height="800" rx="15" fill="#F2F2F2"/>
<g filter="url(#filter0_d_59_230)">
<g filter="url(#filter1_d_59_230)">
<path d="M0 0H360V271C360 271 339 180 245 237C151 294 213 182 173 190C133 198 109 249 83 229C57 209 0 271 0 271V0Z" fill="#060524"/>
<path d="M0 0H360V271C360 271 339 180 245 237C151 294 213 182 173 190C133 198 109 249 83 229C57 209 0 271 0 271V0Z" fill="#070707" fill-opacity="0.48"/>
<path d="M-1 -1H0H360H361V0V271L359.026 271.225L-1 -1ZM-1 -1V0M-1 -1V0M-1 0V271V273.565M-1 0V273.565M-1 273.565L0.736168 271.677M-1 273.565L0.736168 271.677M0.736168 271.677L0 271M0.736168 271.677L0 271M0 271C0.736168 271.677 0.736257 271.677 0.736562 271.676L0.738257 271.675L0.745528 271.667L0.775493 271.634C0.802282 271.605 0.842638 271.562 0.896227 271.504C1.00341 271.389 1.16351 271.218 1.37385 270.995C1.79454 270.549 2.41614 269.896 3.21718 269.072C4.81938 267.423 7.1388 265.088 10.0037 262.348C15.7361 256.865 23.6409 249.77 32.3463 243.303C41.0634 236.827 50.5264 231.024 59.3787 228.074C68.242 225.119 76.2744 225.088 82.3903 229.793C89.1713 235.009 95.8933 235.607 102.712 233.421C109.436 231.265 116.251 226.405 123.37 220.785C125.237 219.31 127.128 217.782 129.048 216.23C134.497 211.825 140.185 207.226 146.278 203.11C154.502 197.555 163.376 192.945 173.196 190.981C177.996 190.021 181.031 190.896 183.036 192.788C185.103 194.738 186.286 197.955 186.917 202.134C187.545 206.289 187.602 211.204 187.574 216.379C187.57 217.208 187.563 218.043 187.557 218.882C187.523 223.254 187.487 227.732 187.752 231.938C188.067 236.944 188.81 241.677 190.547 245.483C192.302 249.33 195.089 252.26 199.437 253.538C203.729 254.799 209.401 254.405 216.869 251.968C224.349 249.527 233.735 245 245.519 237.855C268.91 223.671 287.656 218.758 302.591 219.265C317.507 219.771 328.723 225.686 337.073 233.361C345.439 241.051 350.933 250.514 354.338 258.082C356.039 261.862 357.213 265.158 357.961 267.505C358.335 268.678 358.603 269.614 358.776 270.253C358.863 270.573 358.926 270.819 358.967 270.983C358.972 271.004 358.977 271.023 358.981 271.04C358.994 271.095 359.005 271.137 359.012 271.168L359.023 271.213L359.025 271.223L359.026 271.225L0 271Z" stroke="#E0C329" stroke-width="2"/>
</g>
</g>
<path d="M20.432 16.8V15.252H23.324V24H21.596V16.8H20.432ZM25.3677 17.556C25.4077 16.756 25.6877 16.14 26.2077 15.708C26.7357 15.268 27.4277 15.048 28.2837 15.048C28.8677 15.048 29.3677 15.152 29.7837 15.36C30.1997 15.56 30.5117 15.836 30.7197 16.188C30.9357 16.532 31.0437 16.924 31.0437 17.364C31.0437 17.868 30.9117 18.296 30.6477 18.648C30.3917 18.992 30.0837 19.224 29.7237 19.344V19.392C30.1877 19.536 30.5477 19.792 30.8037 20.16C31.0677 20.528 31.1997 21 31.1997 21.576C31.1997 22.056 31.0877 22.484 30.8637 22.86C30.6477 23.236 30.3237 23.532 29.8917 23.748C29.4677 23.956 28.9557 24.06 28.3557 24.06C27.4517 24.06 26.7157 23.832 26.1477 23.376C25.5797 22.92 25.2797 22.248 25.2477 21.36H26.8797C26.8957 21.752 27.0277 22.068 27.2757 22.308C27.5317 22.54 27.8797 22.656 28.3197 22.656C28.7277 22.656 29.0397 22.544 29.2557 22.32C29.4797 22.088 29.5917 21.792 29.5917 21.432C29.5917 20.952 29.4397 20.608 29.1357 20.4C28.8317 20.192 28.3597 20.088 27.7197 20.088H27.3717V18.708H27.7197C28.8557 18.708 29.4237 18.328 29.4237 17.568C29.4237 17.224 29.3197 16.956 29.1117 16.764C28.9117 16.572 28.6197 16.476 28.2357 16.476C27.8597 16.476 27.5677 16.58 27.3597 16.788C27.1597 16.988 27.0437 17.244 27.0117 17.556H25.3677ZM33.8233 24.084C33.5193 24.084 33.2673 23.992 33.0673 23.808C32.8753 23.616 32.7793 23.38 32.7793 23.1C32.7793 22.82 32.8753 22.588 33.0673 22.404C33.2673 22.212 33.5193 22.116 33.8233 22.116C34.1193 22.116 34.3633 22.212 34.5553 22.404C34.7473 22.588 34.8433 22.82 34.8433 23.1C34.8433 23.38 34.7473 23.616 34.5553 23.808C34.3633 23.992 34.1193 24.084 33.8233 24.084ZM33.8233 19.116C33.5193 19.116 33.2673 19.024 33.0673 18.84C32.8753 18.648 32.7793 18.412 32.7793 18.132C32.7793 17.852 32.8753 17.62 33.0673 17.436C33.2673 17.244 33.5193 17.148 33.8233 17.148C34.1193 17.148 34.3633 17.244 34.5553 17.436C34.7473 17.62 34.8433 17.852 34.8433 18.132C34.8433 18.412 34.7473 18.648 34.5553 18.84C34.3633 19.024 34.1193 19.116 33.8233 19.116ZM36.3996 19.512C36.3996 18.128 36.6476 17.044 37.1436 16.26C37.6476 15.476 38.4796 15.084 39.6396 15.084C40.7996 15.084 41.6276 15.476 42.1236 16.26C42.6276 17.044 42.8796 18.128 42.8796 19.512C42.8796 20.904 42.6276 21.996 42.1236 22.788C41.6276 23.58 40.7996 23.976 39.6396 23.976C38.4796 23.976 37.6476 23.58 37.1436 22.788C36.6476 21.996 36.3996 20.904 36.3996 19.512ZM41.2236 19.512C41.2236 18.92 41.1836 18.424 41.1036 18.024C41.0316 17.616 40.8796 17.284 40.6476 17.028C40.4236 16.772 40.0876 16.644 39.6396 16.644C39.1916 16.644 38.8516 16.772 38.6196 17.028C38.3956 17.284 38.2436 17.616 38.1636 18.024C38.0916 18.424 38.0556 18.92 38.0556 19.512C38.0556 20.12 38.0916 20.632 38.1636 21.048C38.2356 21.456 38.3876 21.788 38.6196 22.044C38.8516 22.292 39.1916 22.416 39.6396 22.416C40.0876 22.416 40.4276 22.292 40.6596 22.044C40.8916 21.788 41.0436 21.456 41.1156 21.048C41.1876 20.632 41.2236 20.12 41.2236 19.512ZM44.5174 19.512C44.5174 18.128 44.7654 17.044 45.2614 16.26C45.7654 15.476 46.5974 15.084 47.7574 15.084C48.9174 15.084 49.7454 15.476 50.2414 16.26C50.7454 17.044 50.9974 18.128 50.9974 19.512C50.9974 20.904 50.7454 21.996 50.2414 22.788C49.7454 23.58 48.9174 23.976 47.7574 23.976C46.5974 23.976 45.7654 23.58 45.2614 22.788C44.7654 21.996 44.5174 20.904 44.5174 19.512ZM49.3414 19.512C49.3414 18.92 49.3014 18.424 49.2214 18.024C49.1494 17.616 48.9974 17.284 48.7654 17.028C48.5414 16.772 48.2054 16.644 47.7574 16.644C47.3094 16.644 46.9694 16.772 46.7374 17.028C46.5134 17.284 46.3614 17.616 46.2814 18.024C46.2094 18.424 46.1734 18.92 46.1734 19.512C46.1734 20.12 46.2094 20.632 46.2814 21.048C46.3534 21.456 46.5054 21.788 46.7374 22.044C46.9694 22.292 47.3094 22.416 47.7574 22.416C48.2054 22.416 48.5454 22.292 48.7774 22.044C49.0094 21.788 49.1614 21.456 49.2334 21.048C49.3054 20.632 49.3414 20.12 49.3414 19.512Z" fill="white"/>
<path d="M74.0833 12H90.4166C91.5395 12 92.4583 12.9 92.4583 14V26C92.4583 27.1 91.5395 28 90.4166 28H74.0833C72.9604 28 72.0416 27.1 72.0416 26V14C72.0416 12.9 72.9604 12 74.0833 12Z" stroke="white" stroke-width="2" stroke-linecap="round" stroke-linejoin="round"/>
<path d="M92.4583 14L82.25 21L72.0416 14" stroke="white" stroke-width="2" stroke-linecap="round" stroke-linejoin="round"/>
<path d="M276.583 28V18" stroke="white" stroke-width="2" stroke-linecap="round" stroke-linejoin="round"/>
<path d="M282.125 28V12" stroke="white" stroke-width="2" stroke-linecap="round" stroke-linejoin="round"/>
<path d="M271.042 28V24" stroke="white" stroke-width="2" stroke-linecap="round" stroke-linejoin="round"/>
<path d="M302.75 28V18" stroke="white" stroke-width="2" stroke-linecap="round" stroke-linejoin="round"/>
<path d="M308.292 28V12" stroke="white" stroke-width="2" stroke-linecap="round" stroke-linejoin="round"/>
<path d="M297.208 28V24" stroke="white" stroke-width="2" stroke-linecap="round" stroke-linejoin="round"/>
<g clip-path="url(#clip1_59_230)">
<path d="M322.451 26H320.604C320.114 26 319.644 25.7893 319.298 25.4142C318.952 25.0391 318.757 24.5304 318.757 24V16C318.757 15.4696 318.952 14.9609 319.298 14.5858C319.644 14.2107 320.114 14 320.604 14H323.55M331.688 14H333.535C334.025 14 334.494 14.2107 334.841 14.5858C335.187 14.9609 335.382 15.4696 335.382 16V24C335.382 24.5304 335.187 25.0391 334.841 25.4142C334.494 25.7893 334.025 26 333.535 26H330.588" stroke="white" stroke-width="2" stroke-linecap="round" stroke-linejoin="round"/>
<path d="M339.076 21V19" stroke="white" stroke-width="2" stroke-linecap="round" stroke-linejoin="round"/>
<path d="M327.993 14L324.299 20H329.84L326.146 26" stroke="#2FFB0E" stroke-width="2" stroke-linecap="round" stroke-linejoin="round"/>
</g>
<path d="M31.03 158.53L28.105 169H25.63L23.665 161.545L21.61 169L19.15 169.015L16.33 158.53H18.58L20.425 166.66L22.555 158.53H24.895L26.905 166.615L28.765 158.53H31.03ZM36.0012 160.225V162.85H39.5262V164.515H36.0012V167.29H39.9762V169H33.9012V158.515H39.9762V160.225H36.0012ZM45.4846 167.335H48.9346V169H43.3846V158.53H45.4846V167.335ZM51.2594 163.75C51.2594 162.72 51.4894 161.8 51.9494 160.99C52.4194 160.17 53.0544 159.535 53.8544 159.085C54.6644 158.625 55.5694 158.395 56.5694 158.395C57.7394 158.395 58.7644 158.695 59.6444 159.295C60.5244 159.895 61.1394 160.725 61.4894 161.785H59.0744C58.8344 161.285 58.4944 160.91 58.0544 160.66C57.6244 160.41 57.1244 160.285 56.5544 160.285C55.9444 160.285 55.3994 160.43 54.9194 160.72C54.4494 161 54.0794 161.4 53.8094 161.92C53.5494 162.44 53.4194 163.05 53.4194 163.75C53.4194 164.44 53.5494 165.05 53.8094 165.58C54.0794 166.1 54.4494 166.505 54.9194 166.795C55.3994 167.075 55.9444 167.215 56.5544 167.215C57.1244 167.215 57.6244 167.09 58.0544 166.84C58.4944 166.58 58.8344 166.2 59.0744 165.7H61.4894C61.1394 166.77 60.5244 167.605 59.6444 168.205C58.7744 168.795 57.7494 169.09 56.5694 169.09C55.5694 169.09 54.6644 168.865 53.8544 168.415C53.0544 167.955 52.4194 167.32 51.9494 166.51C51.4894 165.7 51.2594 164.78 51.2594 163.75ZM69.643 169.105C68.663 169.105 67.763 168.875 66.943 168.415C66.123 167.955 65.473 167.32 64.993 166.51C64.513 165.69 64.273 164.765 64.273 163.735C64.273 162.715 64.513 161.8 64.993 160.99C65.473 160.17 66.123 159.53 66.943 159.07C67.763 158.61 68.663 158.38 69.643 158.38C70.633 158.38 71.533 158.61 72.343 159.07C73.163 159.53 73.808 160.17 74.278 160.99C74.758 161.8 74.998 162.715 74.998 163.735C74.998 164.765 74.758 165.69 74.278 166.51C73.808 167.32 73.163 167.955 72.343 168.415C71.523 168.875 70.623 169.105 69.643 169.105ZM69.643 167.23C70.273 167.23 70.828 167.09 71.308 166.81C71.788 166.52 72.163 166.11 72.433 165.58C72.703 165.05 72.838 164.435 72.838 163.735C72.838 163.035 72.703 162.425 72.433 161.905C72.163 161.375 71.788 160.97 71.308 160.69C70.828 160.41 70.273 160.27 69.643 160.27C69.013 160.27 68.453 160.41 67.963 160.69C67.483 160.97 67.108 161.375 66.838 161.905C66.568 162.425 66.433 163.035 66.433 163.735C66.433 164.435 66.568 165.05 66.838 165.58C67.108 166.11 67.483 166.52 67.963 166.81C68.453 167.09 69.013 167.23 69.643 167.23ZM89.4754 158.53V169H87.3754V162.19L84.5704 169H82.9804L80.1604 162.19V169H78.0604V158.53H80.4454L83.7754 166.315L87.1054 158.53H89.4754ZM95.1516 160.225V162.85H98.6766V164.515H95.1516V167.29H99.1266V169H93.0516V158.515H99.1266V160.225H95.1516ZM105.25 158.35L105.01 165.595H103.24L102.985 158.35H105.25ZM104.17 169.105C103.79 169.105 103.475 168.99 103.225 168.76C102.985 168.52 102.865 168.225 102.865 167.875C102.865 167.525 102.985 167.235 103.225 167.005C103.475 166.765 103.79 166.645 104.17 166.645C104.54 166.645 104.845 166.765 105.085 167.005C105.325 167.235 105.445 167.525 105.445 167.875C105.445 168.225 105.325 168.52 105.085 168.76C104.845 168.99 104.54 169.105 104.17 169.105Z" fill="#E0C329"/>
<path d="M79.24 399L76.028 393.17H75.126V399H71.364V383.556H77.678C78.8953 383.556 79.9293 383.769 80.78 384.194C81.6453 384.619 82.2907 385.206 82.716 385.954C83.1413 386.687 83.354 387.509 83.354 388.418C83.354 389.445 83.0607 390.361 82.474 391.168C81.902 391.975 81.0513 392.547 79.922 392.884L83.486 399H79.24ZM75.126 390.508H77.458C78.1473 390.508 78.6607 390.339 78.998 390.002C79.35 389.665 79.526 389.188 79.526 388.572C79.526 387.985 79.35 387.523 78.998 387.186C78.6607 386.849 78.1473 386.68 77.458 386.68H75.126V390.508ZM97.9476 392.664C97.9476 393.016 97.9256 393.383 97.8816 393.764H89.3676C89.4262 394.527 89.6682 395.113 90.0936 395.524C90.5336 395.92 91.0689 396.118 91.6996 396.118C92.6382 396.118 93.2909 395.722 93.6576 394.93H97.6616C97.4562 395.737 97.0822 396.463 96.5396 397.108C96.0116 397.753 95.3442 398.259 94.5376 398.626C93.7309 398.993 92.8289 399.176 91.8316 399.176C90.6289 399.176 89.5582 398.919 88.6196 398.406C87.6809 397.893 86.9476 397.159 86.4196 396.206C85.8916 395.253 85.6276 394.138 85.6276 392.862C85.6276 391.586 85.8842 390.471 86.3976 389.518C86.9256 388.565 87.6589 387.831 88.5976 387.318C89.5362 386.805 90.6142 386.548 91.8316 386.548C93.0196 386.548 94.0756 386.797 94.9996 387.296C95.9236 387.795 96.6422 388.506 97.1556 389.43C97.6836 390.354 97.9476 391.432 97.9476 392.664ZM94.0976 391.674C94.0976 391.029 93.8776 390.515 93.4376 390.134C92.9976 389.753 92.4476 389.562 91.7876 389.562C91.1569 389.562 90.6216 389.745 90.1816 390.112C89.7562 390.479 89.4922 390.999 89.3896 391.674H94.0976ZM99.8442 392.862C99.8442 391.586 100.101 390.471 100.614 389.518C101.142 388.565 101.868 387.831 102.792 387.318C103.731 386.805 104.802 386.548 106.004 386.548C107.544 386.548 108.828 386.951 109.854 387.758C110.896 388.565 111.578 389.701 111.9 391.168H107.896C107.559 390.229 106.906 389.76 105.938 389.76C105.249 389.76 104.699 390.031 104.288 390.574C103.878 391.102 103.672 391.865 103.672 392.862C103.672 393.859 103.878 394.629 104.288 395.172C104.699 395.7 105.249 395.964 105.938 395.964C106.906 395.964 107.559 395.495 107.896 394.556H111.9C111.578 395.993 110.896 397.123 109.854 397.944C108.813 398.765 107.53 399.176 106.004 399.176C104.802 399.176 103.731 398.919 102.792 398.406C101.868 397.893 101.142 397.159 100.614 396.206C100.101 395.253 99.8442 394.138 99.8442 392.862ZM120.161 399.176C118.958 399.176 117.873 398.919 116.905 398.406C115.951 397.893 115.196 397.159 114.639 396.206C114.096 395.253 113.825 394.138 113.825 392.862C113.825 391.601 114.103 390.493 114.661 389.54C115.218 388.572 115.981 387.831 116.949 387.318C117.917 386.805 119.002 386.548 120.205 386.548C121.407 386.548 122.493 386.805 123.461 387.318C124.429 387.831 125.191 388.572 125.749 389.54C126.306 390.493 126.585 391.601 126.585 392.862C126.585 394.123 126.299 395.238 125.727 396.206C125.169 397.159 124.399 397.893 123.417 398.406C122.449 398.919 121.363 399.176 120.161 399.176ZM120.161 395.92C120.879 395.92 121.488 395.656 121.987 395.128C122.5 394.6 122.757 393.845 122.757 392.862C122.757 391.879 122.507 391.124 122.009 390.596C121.525 390.068 120.923 389.804 120.205 389.804C119.471 389.804 118.863 390.068 118.379 390.596C117.895 391.109 117.653 391.865 117.653 392.862C117.653 393.845 117.887 394.6 118.357 395.128C118.841 395.656 119.442 395.92 120.161 395.92ZM134.762 395.48L137.424 386.724H141.428L137.072 399H132.43L128.074 386.724H132.1L134.762 395.48ZM155.244 392.664C155.244 393.016 155.222 393.383 155.178 393.764H146.664C146.722 394.527 146.964 395.113 147.39 395.524C147.83 395.92 148.365 396.118 148.996 396.118C149.934 396.118 150.587 395.722 150.954 394.93H154.958C154.752 395.737 154.378 396.463 153.836 397.108C153.308 397.753 152.64 398.259 151.834 398.626C151.027 398.993 150.125 399.176 149.128 399.176C147.925 399.176 146.854 398.919 145.916 398.406C144.977 397.893 144.244 397.159 143.716 396.206C143.188 395.253 142.924 394.138 142.924 392.862C142.924 391.586 143.18 390.471 143.694 389.518C144.222 388.565 144.955 387.831 145.894 387.318C146.832 386.805 147.91 386.548 149.128 386.548C150.316 386.548 151.372 386.797 152.296 387.296C153.22 387.795 153.938 388.506 154.452 389.43C154.98 390.354 155.244 391.432 155.244 392.664ZM151.394 391.674C151.394 391.029 151.174 390.515 150.734 390.134C150.294 389.753 149.744 389.562 149.084 389.562C148.453 389.562 147.918 389.745 147.478 390.112C147.052 390.479 146.788 390.999 146.686 391.674H151.394ZM161.65 388.77C162.09 388.095 162.64 387.567 163.3 387.186C163.96 386.79 164.694 386.592 165.5 386.592V390.574H164.466C163.528 390.574 162.824 390.779 162.354 391.19C161.885 391.586 161.65 392.29 161.65 393.302V399H157.888V386.724H161.65V388.77ZM177.043 388.462C177.409 387.89 177.915 387.428 178.561 387.076C179.206 386.724 179.961 386.548 180.827 386.548C181.839 386.548 182.755 386.805 183.577 387.318C184.398 387.831 185.043 388.565 185.513 389.518C185.997 390.471 186.239 391.579 186.239 392.84C186.239 394.101 185.997 395.216 185.513 396.184C185.043 397.137 184.398 397.878 183.577 398.406C182.755 398.919 181.839 399.176 180.827 399.176C179.976 399.176 179.221 399 178.561 398.648C177.915 398.296 177.409 397.841 177.043 397.284V404.852H173.281V386.724H177.043V388.462ZM182.411 392.84C182.411 391.901 182.147 391.168 181.619 390.64C181.105 390.097 180.467 389.826 179.705 389.826C178.957 389.826 178.319 390.097 177.791 390.64C177.277 391.183 177.021 391.923 177.021 392.862C177.021 393.801 177.277 394.541 177.791 395.084C178.319 395.627 178.957 395.898 179.705 395.898C180.453 395.898 181.091 395.627 181.619 395.084C182.147 394.527 182.411 393.779 182.411 392.84ZM188.124 392.84C188.124 391.579 188.359 390.471 188.828 389.518C189.312 388.565 189.965 387.831 190.786 387.318C191.608 386.805 192.524 386.548 193.536 386.548C194.402 386.548 195.157 386.724 195.802 387.076C196.462 387.428 196.968 387.89 197.32 388.462V386.724H201.082V399H197.32V397.262C196.954 397.834 196.44 398.296 195.78 398.648C195.135 399 194.38 399.176 193.514 399.176C192.517 399.176 191.608 398.919 190.786 398.406C189.965 397.878 189.312 397.137 188.828 396.184C188.359 395.216 188.124 394.101 188.124 392.84ZM197.32 392.862C197.32 391.923 197.056 391.183 196.528 390.64C196.015 390.097 195.384 389.826 194.636 389.826C193.888 389.826 193.25 390.097 192.722 390.64C192.209 391.168 191.952 391.901 191.952 392.84C191.952 393.779 192.209 394.527 192.722 395.084C193.25 395.627 193.888 395.898 194.636 395.898C195.384 395.898 196.015 395.627 196.528 395.084C197.056 394.541 197.32 393.801 197.32 392.862ZM209.458 399.176C208.387 399.176 207.434 398.993 206.598 398.626C205.762 398.259 205.102 397.761 204.618 397.13C204.134 396.485 203.863 395.766 203.804 394.974H207.522C207.566 395.399 207.764 395.744 208.116 396.008C208.468 396.272 208.901 396.404 209.414 396.404C209.883 396.404 210.243 396.316 210.492 396.14C210.756 395.949 210.888 395.707 210.888 395.414C210.888 395.062 210.705 394.805 210.338 394.644C209.971 394.468 209.377 394.277 208.556 394.072C207.676 393.867 206.943 393.654 206.356 393.434C205.769 393.199 205.263 392.84 204.838 392.356C204.413 391.857 204.2 391.19 204.2 390.354C204.2 389.65 204.391 389.012 204.772 388.44C205.168 387.853 205.74 387.391 206.488 387.054C207.251 386.717 208.153 386.548 209.194 386.548C210.734 386.548 211.944 386.929 212.824 387.692C213.719 388.455 214.232 389.467 214.364 390.728H210.888C210.829 390.303 210.639 389.965 210.316 389.716C210.008 389.467 209.597 389.342 209.084 389.342C208.644 389.342 208.307 389.43 208.072 389.606C207.837 389.767 207.72 389.995 207.72 390.288C207.72 390.64 207.903 390.904 208.27 391.08C208.651 391.256 209.238 391.432 210.03 391.608C210.939 391.843 211.68 392.077 212.252 392.312C212.824 392.532 213.323 392.899 213.748 393.412C214.188 393.911 214.415 394.585 214.43 395.436C214.43 396.155 214.225 396.8 213.814 397.372C213.418 397.929 212.839 398.369 212.076 398.692C211.328 399.015 210.455 399.176 209.458 399.176ZM222.386 399.176C221.315 399.176 220.362 398.993 219.526 398.626C218.69 398.259 218.03 397.761 217.546 397.13C217.062 396.485 216.79 395.766 216.732 394.974H220.45C220.494 395.399 220.692 395.744 221.044 396.008C221.396 396.272 221.828 396.404 222.342 396.404C222.811 396.404 223.17 396.316 223.42 396.14C223.684 395.949 223.816 395.707 223.816 395.414C223.816 395.062 223.632 394.805 223.266 394.644C222.899 394.468 222.305 394.277 221.484 394.072C220.604 393.867 219.87 393.654 219.284 393.434C218.697 393.199 218.191 392.84 217.766 392.356C217.34 391.857 217.128 391.19 217.128 390.354C217.128 389.65 217.318 389.012 217.7 388.44C218.096 387.853 218.668 387.391 219.416 387.054C220.178 386.717 221.08 386.548 222.122 386.548C223.662 386.548 224.872 386.929 225.752 387.692C226.646 388.455 227.16 389.467 227.292 390.728H223.816C223.757 390.303 223.566 389.965 223.244 389.716C222.936 389.467 222.525 389.342 222.012 389.342C221.572 389.342 221.234 389.43 221 389.606C220.765 389.767 220.648 389.995 220.648 390.288C220.648 390.64 220.831 390.904 221.198 391.08C221.579 391.256 222.166 391.432 222.958 391.608C223.867 391.843 224.608 392.077 225.18 392.312C225.752 392.532 226.25 392.899 226.676 393.412C227.116 393.911 227.343 394.585 227.358 395.436C227.358 396.155 227.152 396.8 226.742 397.372C226.346 397.929 225.766 398.369 225.004 398.692C224.256 399.015 223.383 399.176 222.386 399.176ZM247.941 386.724L244.619 399H240.461L238.525 391.036L236.523 399H232.387L229.043 386.724H232.805L234.543 395.502L236.611 386.724H240.593L242.683 395.458L244.399 386.724H247.941ZM255.624 399.176C254.421 399.176 253.336 398.919 252.368 398.406C251.414 397.893 250.659 397.159 250.102 396.206C249.559 395.253 249.288 394.138 249.288 392.862C249.288 391.601 249.566 390.493 250.124 389.54C250.681 388.572 251.444 387.831 252.412 387.318C253.38 386.805 254.465 386.548 255.668 386.548C256.87 386.548 257.956 386.805 258.924 387.318C259.892 387.831 260.654 388.572 261.212 389.54C261.769 390.493 262.048 391.601 262.048 392.862C262.048 394.123 261.762 395.238 261.19 396.206C260.632 397.159 259.862 397.893 258.88 398.406C257.912 398.919 256.826 399.176 255.624 399.176ZM255.624 395.92C256.342 395.92 256.951 395.656 257.45 395.128C257.963 394.6 258.22 393.845 258.22 392.862C258.22 391.879 257.97 391.124 257.472 390.596C256.988 390.068 256.386 389.804 255.668 389.804C254.934 389.804 254.326 390.068 253.842 390.596C253.358 391.109 253.116 391.865 253.116 392.862C253.116 393.845 253.35 394.6 253.82 395.128C254.304 395.656 254.905 395.92 255.624 395.92ZM268.466 388.77C268.906 388.095 269.456 387.567 270.116 387.186C270.776 386.79 271.509 386.592 272.316 386.592V390.574H271.282C270.343 390.574 269.639 390.779 269.17 391.19C268.7 391.586 268.466 392.29 268.466 393.302V399H264.704V386.724H268.466V388.77ZM274.026 392.84C274.026 391.579 274.26 390.471 274.73 389.518C275.214 388.565 275.866 387.831 276.688 387.318C277.509 386.805 278.426 386.548 279.438 386.548C280.244 386.548 280.978 386.717 281.638 387.054C282.312 387.391 282.84 387.846 283.222 388.418V382.72H286.984V399H283.222V397.24C282.87 397.827 282.364 398.296 281.704 398.648C281.058 399 280.303 399.176 279.438 399.176C278.426 399.176 277.509 398.919 276.688 398.406C275.866 397.878 275.214 397.137 274.73 396.184C274.26 395.216 274.026 394.101 274.026 392.84ZM283.222 392.862C283.222 391.923 282.958 391.183 282.43 390.64C281.916 390.097 281.286 389.826 280.538 389.826C279.79 389.826 279.152 390.097 278.624 390.64C278.11 391.168 277.854 391.901 277.854 392.84C277.854 393.779 278.11 394.527 278.624 395.084C279.152 395.627 279.79 395.898 280.538 395.898C281.286 395.898 281.916 395.627 282.43 395.084C282.958 394.541 283.222 393.801 283.222 392.862Z" fill="#060524"/>
<path d="M79.24 399L76.028 393.17H75.126V399H71.364V383.556H77.678C78.8953 383.556 79.9293 383.769 80.78 384.194C81.6453 384.619 82.2907 385.206 82.716 385.954C83.1413 386.687 83.354 387.509 83.354 388.418C83.354 389.445 83.0607 390.361 82.474 391.168C81.902 391.975 81.0513 392.547 79.922 392.884L83.486 399H79.24ZM75.126 390.508H77.458C78.1473 390.508 78.6607 390.339 78.998 390.002C79.35 389.665 79.526 389.188 79.526 388.572C79.526 387.985 79.35 387.523 78.998 387.186C78.6607 386.849 78.1473 386.68 77.458 386.68H75.126V390.508ZM97.9476 392.664C97.9476 393.016 97.9256 393.383 97.8816 393.764H89.3676C89.4262 394.527 89.6682 395.113 90.0936 395.524C90.5336 395.92 91.0689 396.118 91.6996 396.118C92.6382 396.118 93.2909 395.722 93.6576 394.93H97.6616C97.4562 395.737 97.0822 396.463 96.5396 397.108C96.0116 397.753 95.3442 398.259 94.5376 398.626C93.7309 398.993 92.8289 399.176 91.8316 399.176C90.6289 399.176 89.5582 398.919 88.6196 398.406C87.6809 397.893 86.9476 397.159 86.4196 396.206C85.8916 395.253 85.6276 394.138 85.6276 392.862C85.6276 391.586 85.8842 390.471 86.3976 389.518C86.9256 388.565 87.6589 387.831 88.5976 387.318C89.5362 386.805 90.6142 386.548 91.8316 386.548C93.0196 386.548 94.0756 386.797 94.9996 387.296C95.9236 387.795 96.6422 388.506 97.1556 389.43C97.6836 390.354 97.9476 391.432 97.9476 392.664ZM94.0976 391.674C94.0976 391.029 93.8776 390.515 93.4376 390.134C92.9976 389.753 92.4476 389.562 91.7876 389.562C91.1569 389.562 90.6216 389.745 90.1816 390.112C89.7562 390.479 89.4922 390.999 89.3896 391.674H94.0976ZM99.8442 392.862C99.8442 391.586 100.101 390.471 100.614 389.518C101.142 388.565 101.868 387.831 102.792 387.318C103.731 386.805 104.802 386.548 106.004 386.548C107.544 386.548 108.828 386.951 109.854 387.758C110.896 388.565 111.578 389.701 111.9 391.168H107.896C107.559 390.229 106.906 389.76 105.938 389.76C105.249 389.76 104.699 390.031 104.288 390.574C103.878 391.102 103.672 391.865 103.672 392.862C103.672 393.859 103.878 394.629 104.288 395.172C104.699 395.7 105.249 395.964 105.938 395.964C106.906 395.964 107.559 395.495 107.896 394.556H111.9C111.578 395.993 110.896 397.123 109.854 397.944C108.813 398.765 107.53 399.176 106.004 399.176C104.802 399.176 103.731 398.919 102.792 398.406C101.868 397.893 101.142 397.159 100.614 396.206C100.101 395.253 99.8442 394.138 99.8442 392.862ZM120.161 399.176C118.958 399.176 117.873 398.919 116.905 398.406C115.951 397.893 115.196 397.159 114.639 396.206C114.096 395.253 113.825 394.138 113.825 392.862C113.825 391.601 114.103 390.493 114.661 389.54C115.218 388.572 115.981 387.831 116.949 387.318C117.917 386.805 119.002 386.548 120.205 386.548C121.407 386.548 122.493 386.805 123.461 387.318C124.429 387.831 125.191 388.572 125.749 389.54C126.306 390.493 126.585 391.601 126.585 392.862C126.585 394.123 126.299 395.238 125.727 396.206C125.169 397.159 124.399 397.893 123.417 398.406C122.449 398.919 121.363 399.176 120.161 399.176ZM120.161 395.92C120.879 395.92 121.488 395.656 121.987 395.128C122.5 394.6 122.757 393.845 122.757 392.862C122.757 391.879 122.507 391.124 122.009 390.596C121.525 390.068 120.923 389.804 120.205 389.804C119.471 389.804 118.863 390.068 118.379 390.596C117.895 391.109 117.653 391.865 117.653 392.862C117.653 393.845 117.887 394.6 118.357 395.128C118.841 395.656 119.442 395.92 120.161 395.92ZM134.762 395.48L137.424 386.724H141.428L137.072 399H132.43L128.074 386.724H132.1L134.762 395.48ZM155.244 392.664C155.244 393.016 155.222 393.383 155.178 393.764H146.664C146.722 394.527 146.964 395.113 147.39 395.524C147.83 395.92 148.365 396.118 148.996 396.118C149.934 396.118 150.587 395.722 150.954 394.93H154.958C154.752 395.737 154.378 396.463 153.836 397.108C153.308 397.753 152.64 398.259 151.834 398.626C151.027 398.993 150.125 399.176 149.128 399.176C147.925 399.176 146.854 398.919 145.916 398.406C144.977 397.893 144.244 397.159 143.716 396.206C143.188 395.253 142.924 394.138 142.924 392.862C142.924 391.586 143.18 390.471 143.694 389.518C144.222 388.565 144.955 387.831 145.894 387.318C146.832 386.805 147.91 386.548 149.128 386.548C150.316 386.548 151.372 386.797 152.296 387.296C153.22 387.795 153.938 388.506 154.452 389.43C154.98 390.354 155.244 391.432 155.244 392.664ZM151.394 391.674C151.394 391.029 151.174 390.515 150.734 390.134C150.294 389.753 149.744 389.562 149.084 389.562C148.453 389.562 147.918 389.745 147.478 390.112C147.052 390.479 146.788 390.999 146.686 391.674H151.394ZM161.65 388.77C162.09 388.095 162.64 387.567 163.3 387.186C163.96 386.79 164.694 386.592 165.5 386.592V390.574H164.466C163.528 390.574 162.824 390.779 162.354 391.19C161.885 391.586 161.65 392.29 161.65 393.302V399H157.888V386.724H161.65V388.77ZM177.043 388.462C177.409 387.89 177.915 387.428 178.561 387.076C179.206 386.724 179.961 386.548 180.827 386.548C181.839 386.548 182.755 386.805 183.577 387.318C184.398 387.831 185.043 388.565 185.513 389.518C185.997 390.471 186.239 391.579 186.239 392.84C186.239 394.101 185.997 395.216 185.513 396.184C185.043 397.137 184.398 397.878 183.577 398.406C182.755 398.919 181.839 399.176 180.827 399.176C179.976 399.176 179.221 399 178.561 398.648C177.915 398.296 177.409 397.841 177.043 397.284V404.852H173.281V386.724H177.043V388.462ZM182.411 392.84C182.411 391.901 182.147 391.168 181.619 390.64C181.105 390.097 180.467 389.826 179.705 389.826C178.957 389.826 178.319 390.097 177.791 390.64C177.277 391.183 177.021 391.923 177.021 392.862C177.021 393.801 177.277 394.541 177.791 395.084C178.319 395.627 178.957 395.898 179.705 395.898C180.453 395.898 181.091 395.627 181.619 395.084C182.147 394.527 182.411 393.779 182.411 392.84ZM188.124 392.84C188.124 391.579 188.359 390.471 188.828 389.518C189.312 388.565 189.965 387.831 190.786 387.318C191.608 386.805 192.524 386.548 193.536 386.548C194.402 386.548 195.157 386.724 195.802 387.076C196.462 387.428 196.968 387.89 197.32 388.462V386.724H201.082V399H197.32V397.262C196.954 397.834 196.44 398.296 195.78 398.648C195.135 399 194.38 399.176 193.514 399.176C192.517 399.176 191.608 398.919 190.786 398.406C189.965 397.878 189.312 397.137 188.828 396.184C188.359 395.216 188.124 394.101 188.124 392.84ZM197.32 392.862C197.32 391.923 197.056 391.183 196.528 390.64C196.015 390.097 195.384 389.826 194.636 389.826C193.888 389.826 193.25 390.097 192.722 390.64C192.209 391.168 191.952 391.901 191.952 392.84C191.952 393.779 192.209 394.527 192.722 395.084C193.25 395.627 193.888 395.898 194.636 395.898C195.384 395.898 196.015 395.627 196.528 395.084C197.056 394.541 197.32 393.801 197.32 392.862ZM209.458 399.176C208.387 399.176 207.434 398.993 206.598 398.626C205.762 398.259 205.102 397.761 204.618 397.13C204.134 396.485 203.863 395.766 203.804 394.974H207.522C207.566 395.399 207.764 395.744 208.116 396.008C208.468 396.272 208.901 396.404 209.414 396.404C209.883 396.404 210.243 396.316 210.492 396.14C210.756 395.949 210.888 395.707 210.888 395.414C210.888 395.062 210.705 394.805 210.338 394.644C209.971 394.468 209.377 394.277 208.556 394.072C207.676 393.867 206.943 393.654 206.356 393.434C205.769 393.199 205.263 392.84 204.838 392.356C204.413 391.857 204.2 391.19 204.2 390.354C204.2 389.65 204.391 389.012 204.772 388.44C205.168 387.853 205.74 387.391 206.488 387.054C207.251 386.717 208.153 386.548 209.194 386.548C210.734 386.548 211.944 386.929 212.824 387.692C213.719 388.455 214.232 389.467 214.364 390.728H210.888C210.829 390.303 210.639 389.965 210.316 389.716C210.008 389.467 209.597 389.342 209.084 389.342C208.644 389.342 208.307 389.43 208.072 389.606C207.837 389.767 207.72 389.995 207.72 390.288C207.72 390.64 207.903 390.904 208.27 391.08C208.651 391.256 209.238 391.432 210.03 391.608C210.939 391.843 211.68 392.077 212.252 392.312C212.824 392.532 213.323 392.899 213.748 393.412C214.188 393.911 214.415 394.585 214.43 395.436C214.43 396.155 214.225 396.8 213.814 397.372C213.418 397.929 212.839 398.369 212.076 398.692C211.328 399.015 210.455 399.176 209.458 399.176ZM222.386 399.176C221.315 399.176 220.362 398.993 219.526 398.626C218.69 398.259 218.03 397.761 217.546 397.13C217.062 396.485 216.79 395.766 216.732 394.974H220.45C220.494 395.399 220.692 395.744 221.044 396.008C221.396 396.272 221.828 396.404 222.342 396.404C222.811 396.404 223.17 396.316 223.42 396.14C223.684 395.949 223.816 395.707 223.816 395.414C223.816 395.062 223.632 394.805 223.266 394.644C222.899 394.468 222.305 394.277 221.484 394.072C220.604 393.867 219.87 393.654 219.284 393.434C218.697 393.199 218.191 392.84 217.766 392.356C217.34 391.857 217.128 391.19 217.128 390.354C217.128 389.65 217.318 389.012 217.7 388.44C218.096 387.853 218.668 387.391 219.416 387.054C220.178 386.717 221.08 386.548 222.122 386.548C223.662 386.548 224.872 386.929 225.752 387.692C226.646 388.455 227.16 389.467 227.292 390.728H223.816C223.757 390.303 223.566 389.965 223.244 389.716C222.936 389.467 222.525 389.342 222.012 389.342C221.572 389.342 221.234 389.43 221 389.606C220.765 389.767 220.648 389.995 220.648 390.288C220.648 390.64 220.831 390.904 221.198 391.08C221.579 391.256 222.166 391.432 222.958 391.608C223.867 391.843 224.608 392.077 225.18 392.312C225.752 392.532 226.25 392.899 226.676 393.412C227.116 393.911 227.343 394.585 227.358 395.436C227.358 396.155 227.152 396.8 226.742 397.372C226.346 397.929 225.766 398.369 225.004 398.692C224.256 399.015 223.383 399.176 222.386 399.176ZM247.941 386.724L244.619 399H240.461L238.525 391.036L236.523 399H232.387L229.043 386.724H232.805L234.543 395.502L236.611 386.724H240.593L242.683 395.458L244.399 386.724H247.941ZM255.624 399.176C254.421 399.176 253.336 398.919 252.368 398.406C251.414 397.893 250.659 397.159 250.102 396.206C249.559 395.253 249.288 394.138 249.288 392.862C249.288 391.601 249.566 390.493 250.124 389.54C250.681 388.572 251.444 387.831 252.412 387.318C253.38 386.805 254.465 386.548 255.668 386.548C256.87 386.548 257.956 386.805 258.924 387.318C259.892 387.831 260.654 388.572 261.212 389.54C261.769 390.493 262.048 391.601 262.048 392.862C262.048 394.123 261.762 395.238 261.19 396.206C260.632 397.159 259.862 397.893 258.88 398.406C257.912 398.919 256.826 399.176 255.624 399.176ZM255.624 395.92C256.342 395.92 256.951 395.656 257.45 395.128C257.963 394.6 258.22 393.845 258.22 392.862C258.22 391.879 257.97 391.124 257.472 390.596C256.988 390.068 256.386 389.804 255.668 389.804C254.934 389.804 254.326 390.068 253.842 390.596C253.358 391.109 253.116 391.865 253.116 392.862C253.116 393.845 253.35 394.6 253.82 395.128C254.304 395.656 254.905 395.92 255.624 395.92ZM268.466 388.77C268.906 388.095 269.456 387.567 270.116 387.186C270.776 386.79 271.509 386.592 272.316 386.592V390.574H271.282C270.343 390.574 269.639 390.779 269.17 391.19C268.7 391.586 268.466 392.29 268.466 393.302V399H264.704V386.724H268.466V388.77ZM274.026 392.84C274.026 391.579 274.26 390.471 274.73 389.518C275.214 388.565 275.866 387.831 276.688 387.318C277.509 386.805 278.426 386.548 279.438 386.548C280.244 386.548 280.978 386.717 281.638 387.054C282.312 387.391 282.84 387.846 283.222 388.418V382.72H286.984V399H283.222V397.24C282.87 397.827 282.364 398.296 281.704 398.648C281.058 399 280.303 399.176 279.438 399.176C278.426 399.176 277.509 398.919 276.688 398.406C275.866 397.878 275.214 397.137 274.73 396.184C274.26 395.216 274.026 394.101 274.026 392.84ZM283.222 392.862C283.222 391.923 282.958 391.183 282.43 390.64C281.916 390.097 281.286 389.826 280.538 389.826C279.79 389.826 279.152 390.097 278.624 390.64C278.11 391.168 277.854 391.901 277.854 392.84C277.854 393.779 278.11 394.527 278.624 395.084C279.152 395.627 279.79 395.898 280.538 395.898C281.286 395.898 281.916 395.627 282.43 395.084C282.958 394.541 283.222 393.801 283.222 392.862Z" fill="#070707" fill-opacity="0.48"/>
<g filter="url(#filter2_d_59_230)">
<rect x="16" y="440" width="328" height="48" rx="24" fill="#BAB8B8" shape-rendering="crispEdges"/>
<rect x="15.5" y="439.5" width="329" height="49" rx="24.5" stroke="#E0C329" shape-rendering="crispEdges"/>
<path d="M37.74 464.49C37.74 464.73 37.7333 464.913 37.72 465.04H33.19C33.21 465.453 33.31 465.807 33.49 466.1C33.67 466.393 33.9067 466.617 34.2 466.77C34.4933 466.917 34.8133 466.99 35.16 466.99C35.6133 466.99 35.9933 466.88 36.3 466.66C36.6133 466.44 36.82 466.143 36.92 465.77H37.66C37.5267 466.303 37.24 466.74 36.8 467.08C36.3667 467.413 35.82 467.58 35.16 467.58C34.6467 467.58 34.1867 467.467 33.78 467.24C33.3733 467.007 33.0533 466.68 32.82 466.26C32.5933 465.833 32.48 465.337 32.48 464.77C32.48 464.203 32.5933 463.707 32.82 463.28C33.0467 462.853 33.3633 462.527 33.77 462.3C34.1767 462.073 34.64 461.96 35.16 461.96C35.68 461.96 36.1333 462.073 36.52 462.3C36.9133 462.527 37.2133 462.833 37.42 463.22C37.6333 463.6 37.74 464.023 37.74 464.49ZM37.03 464.47C37.0367 464.063 36.9533 463.717 36.78 463.43C36.6133 463.143 36.3833 462.927 36.09 462.78C35.7967 462.633 35.4767 462.56 35.13 462.56C34.61 462.56 34.1667 462.727 33.8 463.06C33.4333 463.393 33.23 463.863 33.19 464.47H37.03ZM45.8207 461.94C46.4607 461.94 46.9807 462.143 47.3807 462.55C47.7874 462.95 47.9907 463.533 47.9907 464.3V467.5H47.3007V464.38C47.3007 463.787 47.1574 463.333 46.8707 463.02C46.584 462.707 46.194 462.55 45.7007 462.55C45.1874 462.55 44.7774 462.72 44.4707 463.06C44.164 463.4 44.0107 463.893 44.0107 464.54V467.5H43.3207V464.38C43.3207 463.787 43.1774 463.333 42.8907 463.02C42.604 462.707 42.2107 462.55 41.7107 462.55C41.1974 462.55 40.7874 462.72 40.4807 463.06C40.174 463.4 40.0207 463.893 40.0207 464.54V467.5H39.3207V462.04H40.0207V462.98C40.194 462.64 40.4407 462.383 40.7607 462.21C41.0807 462.03 41.4374 461.94 41.8307 461.94C42.304 461.94 42.7174 462.053 43.0707 462.28C43.4307 462.507 43.6907 462.84 43.8507 463.28C43.9974 462.847 44.2474 462.517 44.6007 462.29C44.9607 462.057 45.3674 461.94 45.8207 461.94ZM49.5253 464.76C49.5253 464.2 49.6353 463.71 49.8553 463.29C50.082 462.863 50.392 462.537 50.7853 462.31C51.1853 462.077 51.6353 461.96 52.1353 461.96C52.6553 461.96 53.102 462.08 53.4753 462.32C53.8553 462.56 54.1286 462.867 54.2953 463.24V462.04H54.9953V467.5H54.2953V466.29C54.122 466.663 53.8453 466.973 53.4653 467.22C53.092 467.46 52.6453 467.58 52.1253 467.58C51.632 467.58 51.1853 467.463 50.7853 467.23C50.392 466.997 50.082 466.667 49.8553 466.24C49.6353 465.813 49.5253 465.32 49.5253 464.76ZM54.2953 464.77C54.2953 464.33 54.2053 463.943 54.0253 463.61C53.8453 463.277 53.5986 463.02 53.2853 462.84C52.9786 462.66 52.6386 462.57 52.2653 462.57C51.8786 462.57 51.532 462.657 51.2253 462.83C50.9186 463.003 50.6753 463.257 50.4953 463.59C50.322 463.917 50.2353 464.307 50.2353 464.76C50.2353 465.207 50.322 465.6 50.4953 465.94C50.6753 466.273 50.9186 466.53 51.2253 466.71C51.532 466.883 51.8786 466.97 52.2653 466.97C52.6386 466.97 52.9786 466.88 53.2853 466.7C53.5986 466.52 53.8453 466.263 54.0253 465.93C54.2053 465.597 54.2953 465.21 54.2953 464.77ZM57.2434 461.01C57.1034 461.01 56.9834 460.96 56.8834 460.86C56.7834 460.76 56.7334 460.637 56.7334 460.49C56.7334 460.343 56.7834 460.223 56.8834 460.13C56.9834 460.03 57.1034 459.98 57.2434 459.98C57.3834 459.98 57.5034 460.03 57.6034 460.13C57.7034 460.223 57.7534 460.343 57.7534 460.49C57.7534 460.637 57.7034 460.76 57.6034 460.86C57.5034 460.96 57.3834 461.01 57.2434 461.01ZM57.5934 462.04V467.5H56.8934V462.04H57.5934ZM60.1785 460.1V467.5H59.4785V460.1H60.1785Z" fill="#888888"/>
<path d="M324.667 463.333H315.333C314.597 463.333 314 463.93 314 464.667V469.333C314 470.07 314.597 470.667 315.333 470.667H324.667C325.403 470.667 326 470.07 326 469.333V464.667C326 463.93 325.403 463.333 324.667 463.333Z" stroke="#888888" stroke-width="2" stroke-linecap="round" stroke-linejoin="round"/>
<path d="M316.667 463.333V460.667C316.666 459.84 316.972 459.043 317.526 458.429C318.08 457.816 318.843 457.43 319.665 457.347C320.487 457.264 321.311 457.489 321.977 457.98C322.642 458.47 323.102 459.19 323.267 460" stroke="#888888" stroke-width="2" stroke-linecap="round" stroke-linejoin="round"/>
</g>
<g filter="url(#filter3_d_59_230)">
<rect x="15" y="512" width="328" height="48" rx="24" fill="#060524" shape-rendering="crispEdges"/>
<rect x="15" y="512" width="328" height="48" rx="24" fill="#070707" fill-opacity="0.48" shape-rendering="crispEdges"/>
<path d="M118.861 542L116.397 537.648H115.341V542H113.101V530.832H117.293C118.157 530.832 118.893 530.987 119.501 531.296C120.109 531.595 120.563 532.005 120.861 532.528C121.171 533.04 121.325 533.616 121.325 534.256C121.325 534.992 121.112 535.659 120.685 536.256C120.259 536.843 119.624 537.248 118.781 537.472L121.453 542H118.861ZM115.341 535.968H117.213C117.821 535.968 118.275 535.824 118.573 535.536C118.872 535.237 119.021 534.827 119.021 534.304C119.021 533.792 118.872 533.397 118.573 533.12C118.275 532.832 117.821 532.688 117.213 532.688H115.341V535.968ZM132.071 537.376C132.071 537.696 132.05 537.984 132.007 538.24H125.527C125.581 538.88 125.805 539.381 126.199 539.744C126.594 540.107 127.079 540.288 127.655 540.288C128.487 540.288 129.079 539.931 129.431 539.216H131.847C131.591 540.069 131.101 540.773 130.375 541.328C129.65 541.872 128.759 542.144 127.703 542.144C126.85 542.144 126.082 541.957 125.399 541.584C124.727 541.2 124.199 540.661 123.815 539.968C123.442 539.275 123.255 538.475 123.255 537.568C123.255 536.651 123.442 535.845 123.815 535.152C124.189 534.459 124.711 533.925 125.383 533.552C126.055 533.179 126.829 532.992 127.703 532.992C128.546 532.992 129.298 533.173 129.959 533.536C130.631 533.899 131.149 534.416 131.511 535.088C131.885 535.749 132.071 536.512 132.071 537.376ZM129.751 536.736C129.741 536.16 129.533 535.701 129.127 535.36C128.722 535.008 128.226 534.832 127.639 534.832C127.085 534.832 126.615 535.003 126.231 535.344C125.858 535.675 125.629 536.139 125.543 536.736H129.751ZM137.578 542.144C136.853 542.144 136.202 542.016 135.626 541.76C135.05 541.493 134.592 541.136 134.25 540.688C133.92 540.24 133.738 539.744 133.706 539.2H135.962C136.005 539.541 136.17 539.824 136.458 540.048C136.757 540.272 137.125 540.384 137.562 540.384C137.989 540.384 138.32 540.299 138.554 540.128C138.8 539.957 138.922 539.739 138.922 539.472C138.922 539.184 138.773 538.971 138.474 538.832C138.186 538.683 137.722 538.523 137.082 538.352C136.421 538.192 135.877 538.027 135.45 537.856C135.034 537.685 134.672 537.424 134.362 537.072C134.064 536.72 133.914 536.245 133.914 535.648C133.914 535.157 134.053 534.709 134.33 534.304C134.618 533.899 135.024 533.579 135.546 533.344C136.08 533.109 136.704 532.992 137.418 532.992C138.474 532.992 139.317 533.259 139.946 533.792C140.576 534.315 140.922 535.024 140.986 535.92H138.842C138.81 535.568 138.661 535.291 138.394 535.088C138.138 534.875 137.792 534.768 137.354 534.768C136.949 534.768 136.634 534.843 136.41 534.992C136.197 535.141 136.09 535.349 136.09 535.616C136.09 535.915 136.24 536.144 136.538 536.304C136.837 536.453 137.301 536.608 137.93 536.768C138.57 536.928 139.098 537.093 139.514 537.264C139.93 537.435 140.288 537.701 140.586 538.064C140.896 538.416 141.056 538.885 141.066 539.472C141.066 539.984 140.922 540.443 140.634 540.848C140.357 541.253 139.952 541.573 139.418 541.808C138.896 542.032 138.282 542.144 137.578 542.144ZM151.625 537.376C151.625 537.696 151.604 537.984 151.561 538.24H145.081C145.134 538.88 145.358 539.381 145.753 539.744C146.148 540.107 146.633 540.288 147.209 540.288C148.041 540.288 148.633 539.931 148.985 539.216H151.401C151.145 540.069 150.654 540.773 149.929 541.328C149.204 541.872 148.313 542.144 147.257 542.144C146.404 542.144 145.636 541.957 144.953 541.584C144.281 541.2 143.753 540.661 143.369 539.968C142.996 539.275 142.809 538.475 142.809 537.568C142.809 536.651 142.996 535.845 143.369 535.152C143.742 534.459 144.265 533.925 144.937 533.552C145.609 533.179 146.382 532.992 147.257 532.992C148.1 532.992 148.852 533.173 149.513 533.536C150.185 533.899 150.702 534.416 151.065 535.088C151.438 535.749 151.625 536.512 151.625 537.376ZM149.305 536.736C149.294 536.16 149.086 535.701 148.681 535.36C148.276 535.008 147.78 534.832 147.193 534.832C146.638 534.832 146.169 535.003 145.785 535.344C145.412 535.675 145.182 536.139 145.097 536.736H149.305ZM156.348 534.976V539.264C156.348 539.563 156.417 539.781 156.556 539.92C156.705 540.048 156.951 540.112 157.292 540.112H158.332V542H156.924C155.036 542 154.092 541.083 154.092 539.248V534.976H153.036V533.136H154.092V530.944H156.348V533.136H158.332V534.976H156.348ZM172.86 534.288C172.86 534.885 172.716 535.445 172.428 535.968C172.15 536.491 171.708 536.912 171.1 537.232C170.502 537.552 169.745 537.712 168.828 537.712H166.956V542H164.716V530.832H168.828C169.692 530.832 170.428 530.981 171.036 531.28C171.644 531.579 172.097 531.989 172.396 532.512C172.705 533.035 172.86 533.627 172.86 534.288ZM168.732 535.904C169.35 535.904 169.809 535.765 170.108 535.488C170.406 535.2 170.556 534.8 170.556 534.288C170.556 533.2 169.948 532.656 168.732 532.656H166.956V535.904H168.732ZM174.354 537.536C174.354 536.64 174.53 535.845 174.882 535.152C175.245 534.459 175.73 533.925 176.338 533.552C176.957 533.179 177.645 532.992 178.402 532.992C179.063 532.992 179.639 533.125 180.13 533.392C180.631 533.659 181.031 533.995 181.33 534.4V533.136H183.586V542H181.33V540.704C181.042 541.12 180.642 541.467 180.13 541.744C179.629 542.011 179.047 542.144 178.386 542.144C177.639 542.144 176.957 541.952 176.338 541.568C175.73 541.184 175.245 540.645 174.882 539.952C174.53 539.248 174.354 538.443 174.354 537.536ZM181.33 537.568C181.33 537.024 181.223 536.56 181.01 536.176C180.797 535.781 180.509 535.483 180.146 535.28C179.783 535.067 179.394 534.96 178.978 534.96C178.562 534.96 178.178 535.061 177.826 535.264C177.474 535.467 177.186 535.765 176.962 536.16C176.749 536.544 176.642 537.003 176.642 537.536C176.642 538.069 176.749 538.539 176.962 538.944C177.186 539.339 177.474 539.643 177.826 539.856C178.189 540.069 178.573 540.176 178.978 540.176C179.394 540.176 179.783 540.075 180.146 539.872C180.509 539.659 180.797 539.36 181.01 538.976C181.223 538.581 181.33 538.112 181.33 537.568ZM189.646 542.144C188.92 542.144 188.27 542.016 187.694 541.76C187.118 541.493 186.659 541.136 186.318 540.688C185.987 540.24 185.806 539.744 185.774 539.2H188.03C188.072 539.541 188.238 539.824 188.526 540.048C188.824 540.272 189.192 540.384 189.63 540.384C190.056 540.384 190.387 540.299 190.622 540.128C190.867 539.957 190.99 539.739 190.99 539.472C190.99 539.184 190.84 538.971 190.542 538.832C190.254 538.683 189.79 538.523 189.15 538.352C188.488 538.192 187.944 538.027 187.518 537.856C187.102 537.685 186.739 537.424 186.43 537.072C186.131 536.72 185.982 536.245 185.982 535.648C185.982 535.157 186.12 534.709 186.398 534.304C186.686 533.899 187.091 533.579 187.614 533.344C188.147 533.109 188.771 532.992 189.486 532.992C190.542 532.992 191.384 533.259 192.014 533.792C192.643 534.315 192.99 535.024 193.054 535.92H190.91C190.878 535.568 190.728 535.291 190.462 535.088C190.206 534.875 189.859 534.768 189.422 534.768C189.016 534.768 188.702 534.843 188.478 534.992C188.264 535.141 188.158 535.349 188.158 535.616C188.158 535.915 188.307 536.144 188.606 536.304C188.904 536.453 189.368 536.608 189.998 536.768C190.638 536.928 191.166 537.093 191.582 537.264C191.998 537.435 192.355 537.701 192.654 538.064C192.963 538.416 193.123 538.885 193.134 539.472C193.134 539.984 192.99 540.443 192.702 540.848C192.424 541.253 192.019 541.573 191.486 541.808C190.963 542.032 190.35 542.144 189.646 542.144ZM198.844 542.144C198.119 542.144 197.468 542.016 196.892 541.76C196.316 541.493 195.858 541.136 195.516 540.688C195.186 540.24 195.004 539.744 194.972 539.2H197.228C197.271 539.541 197.436 539.824 197.724 540.048C198.023 540.272 198.391 540.384 198.828 540.384C199.255 540.384 199.586 540.299 199.82 540.128C200.066 539.957 200.188 539.739 200.188 539.472C200.188 539.184 200.039 538.971 199.74 538.832C199.452 538.683 198.988 538.523 198.348 538.352C197.687 538.192 197.143 538.027 196.716 537.856C196.3 537.685 195.938 537.424 195.628 537.072C195.33 536.72 195.18 536.245 195.18 535.648C195.18 535.157 195.319 534.709 195.596 534.304C195.884 533.899 196.29 533.579 196.812 533.344C197.346 533.109 197.97 532.992 198.684 532.992C199.74 532.992 200.583 533.259 201.212 533.792C201.842 534.315 202.188 535.024 202.252 535.92H200.108C200.076 535.568 199.927 535.291 199.66 535.088C199.404 534.875 199.058 534.768 198.62 534.768C198.215 534.768 197.9 534.843 197.676 534.992C197.463 535.141 197.356 535.349 197.356 535.616C197.356 535.915 197.506 536.144 197.804 536.304C198.103 536.453 198.567 536.608 199.196 536.768C199.836 536.928 200.364 537.093 200.78 537.264C201.196 537.435 201.554 537.701 201.852 538.064C202.162 538.416 202.322 538.885 202.332 539.472C202.332 539.984 202.188 540.443 201.9 540.848C201.623 541.253 201.218 541.573 200.684 541.808C200.162 542.032 199.548 542.144 198.844 542.144ZM216.939 533.136L214.347 542H211.931L210.315 535.808L208.699 542H206.267L203.659 533.136H205.931L207.499 539.888L209.195 533.136H211.563L213.227 539.872L214.795 533.136H216.939ZM222.567 542.144C221.714 542.144 220.946 541.957 220.263 541.584C219.581 541.2 219.042 540.661 218.647 539.968C218.263 539.275 218.071 538.475 218.071 537.568C218.071 536.661 218.269 535.861 218.663 535.168C219.069 534.475 219.618 533.941 220.311 533.568C221.005 533.184 221.778 532.992 222.631 532.992C223.485 532.992 224.258 533.184 224.951 533.568C225.645 533.941 226.189 534.475 226.583 535.168C226.989 535.861 227.191 536.661 227.191 537.568C227.191 538.475 226.983 539.275 226.567 539.968C226.162 540.661 225.607 541.2 224.903 541.584C224.21 541.957 223.431 542.144 222.567 542.144ZM222.567 540.192C222.973 540.192 223.351 540.096 223.703 539.904C224.066 539.701 224.354 539.403 224.567 539.008C224.781 538.613 224.887 538.133 224.887 537.568C224.887 536.725 224.663 536.08 224.215 535.632C223.778 535.173 223.239 534.944 222.599 534.944C221.959 534.944 221.421 535.173 220.983 535.632C220.557 536.08 220.343 536.725 220.343 537.568C220.343 538.411 220.551 539.061 220.967 539.52C221.394 539.968 221.927 540.192 222.567 540.192ZM231.554 534.512C231.842 534.043 232.216 533.675 232.674 533.408C233.144 533.141 233.677 533.008 234.274 533.008V535.36H233.682C232.978 535.36 232.445 535.525 232.082 535.856C231.73 536.187 231.554 536.763 231.554 537.584V542H229.314V533.136H231.554V534.512ZM235.687 537.536C235.687 536.64 235.863 535.845 236.215 535.152C236.578 534.459 237.068 533.925 237.687 533.552C238.306 533.179 238.994 532.992 239.751 532.992C240.327 532.992 240.876 533.12 241.399 533.376C241.922 533.621 242.338 533.952 242.647 534.368V530.16H244.919V542H242.647V540.688C242.37 541.125 241.98 541.477 241.479 541.744C240.978 542.011 240.396 542.144 239.735 542.144C238.988 542.144 238.306 541.952 237.687 541.568C237.068 541.184 236.578 540.645 236.215 539.952C235.863 539.248 235.687 538.443 235.687 537.536ZM242.663 537.568C242.663 537.024 242.556 536.56 242.343 536.176C242.13 535.781 241.842 535.483 241.479 535.28C241.116 535.067 240.727 534.96 240.311 534.96C239.895 534.96 239.511 535.061 239.159 535.264C238.807 535.467 238.519 535.765 238.295 536.16C238.082 536.544 237.975 537.003 237.975 537.536C237.975 538.069 238.082 538.539 238.295 538.944C238.519 539.339 238.807 539.643 239.159 539.856C239.522 540.069 239.906 540.176 240.311 540.176C240.727 540.176 241.116 540.075 241.479 539.872C241.842 539.659 242.13 539.36 242.343 538.976C242.556 538.581 242.663 538.112 242.663 537.568Z" fill="#E0C329"/>
</g>
<path d="M156.576 595.8C156.576 594.976 156.756 594.24 157.116 593.592C157.476 592.936 157.968 592.428 158.592 592.068C159.216 591.7 159.912 591.516 160.68 591.516C161.616 591.516 162.416 591.74 163.08 592.188C163.752 592.628 164.24 593.252 164.544 594.06H163.56C163.32 593.492 162.952 593.048 162.456 592.728C161.968 592.408 161.376 592.248 160.68 592.248C160.064 592.248 159.508 592.392 159.012 592.68C158.524 592.968 158.14 593.384 157.86 593.928C157.58 594.464 157.44 595.088 157.44 595.8C157.44 596.512 157.58 597.136 157.86 597.672C158.14 598.208 158.524 598.62 159.012 598.908C159.508 599.196 160.064 599.34 160.68 599.34C161.376 599.34 161.968 599.184 162.456 598.872C162.952 598.552 163.32 598.112 163.56 597.552H164.544C164.24 598.352 163.752 598.972 163.08 599.412C162.408 599.852 161.608 600.072 160.68 600.072C159.912 600.072 159.216 599.892 158.592 599.532C157.968 599.164 157.476 598.656 157.116 598.008C156.756 597.36 156.576 596.624 156.576 595.8ZM166.194 596.712C166.194 596.04 166.326 595.452 166.59 594.948C166.862 594.436 167.234 594.044 167.706 593.772C168.186 593.492 168.726 593.352 169.326 593.352C169.95 593.352 170.486 593.496 170.934 593.784C171.39 594.072 171.718 594.44 171.918 594.888V593.448H172.758V600H171.918V598.548C171.71 598.996 171.378 599.368 170.922 599.664C170.474 599.952 169.938 600.096 169.314 600.096C168.722 600.096 168.186 599.956 167.706 599.676C167.234 599.396 166.862 599 166.59 598.488C166.326 597.976 166.194 597.384 166.194 596.712ZM171.918 596.724C171.918 596.196 171.81 595.732 171.594 595.332C171.378 594.932 171.082 594.624 170.706 594.408C170.338 594.192 169.93 594.084 169.482 594.084C169.018 594.084 168.602 594.188 168.234 594.396C167.866 594.604 167.574 594.908 167.358 595.308C167.15 595.7 167.046 596.168 167.046 596.712C167.046 597.248 167.15 597.72 167.358 598.128C167.574 598.528 167.866 598.836 168.234 599.052C168.602 599.26 169.018 599.364 169.482 599.364C169.93 599.364 170.338 599.256 170.706 599.04C171.082 598.824 171.378 598.516 171.594 598.116C171.81 597.716 171.918 597.252 171.918 596.724ZM178.107 593.328C178.891 593.328 179.531 593.572 180.027 594.06C180.523 594.54 180.771 595.24 180.771 596.16V600H179.943V596.256C179.943 595.544 179.763 595 179.403 594.624C179.051 594.248 178.567 594.06 177.951 594.06C177.319 594.06 176.815 594.26 176.439 594.66C176.063 595.06 175.875 595.648 175.875 596.424V600H175.035V593.448H175.875V594.564C176.083 594.164 176.383 593.86 176.775 593.652C177.167 593.436 177.611 593.328 178.107 593.328ZM182.605 596.724C182.605 596.044 182.741 595.452 183.013 594.948C183.285 594.436 183.661 594.044 184.141 593.772C184.621 593.492 185.169 593.352 185.785 593.352C186.593 593.352 187.257 593.552 187.777 593.952C188.305 594.352 188.645 594.896 188.797 595.584H187.897C187.785 595.112 187.541 594.744 187.165 594.48C186.797 594.208 186.337 594.072 185.785 594.072C185.345 594.072 184.949 594.172 184.597 594.372C184.245 594.572 183.965 594.872 183.757 595.272C183.557 595.664 183.457 596.148 183.457 596.724C183.457 597.3 183.557 597.788 183.757 598.188C183.965 598.588 184.245 598.888 184.597 599.088C184.949 599.288 185.345 599.388 185.785 599.388C186.337 599.388 186.797 599.256 187.165 598.992C187.541 598.72 187.785 598.344 187.897 597.864H188.797C188.645 598.536 188.305 599.076 187.777 599.484C187.249 599.892 186.585 600.096 185.785 600.096C185.169 600.096 184.621 599.96 184.141 599.688C183.661 599.408 183.285 599.016 183.013 598.512C182.741 598 182.605 597.404 182.605 596.724ZM196.637 596.388C196.637 596.676 196.629 596.896 196.613 597.048H191.177C191.201 597.544 191.321 597.968 191.537 598.32C191.753 598.672 192.037 598.94 192.389 599.124C192.741 599.3 193.125 599.388 193.541 599.388C194.085 599.388 194.541 599.256 194.909 598.992C195.285 598.728 195.533 598.372 195.653 597.924H196.541C196.381 598.564 196.037 599.088 195.509 599.496C194.989 599.896 194.333 600.096 193.541 600.096C192.925 600.096 192.373 599.96 191.885 599.688C191.397 599.408 191.013 599.016 190.733 598.512C190.461 598 190.325 597.404 190.325 596.724C190.325 596.044 190.461 595.448 190.733 594.936C191.005 594.424 191.385 594.032 191.873 593.76C192.361 593.488 192.917 593.352 193.541 593.352C194.165 593.352 194.709 593.488 195.173 593.76C195.645 594.032 196.005 594.4 196.253 594.864C196.509 595.32 196.637 595.828 196.637 596.388ZM195.785 596.364C195.793 595.876 195.693 595.46 195.485 595.116C195.285 594.772 195.009 594.512 194.657 594.336C194.305 594.16 193.921 594.072 193.505 594.072C192.881 594.072 192.349 594.272 191.909 594.672C191.469 595.072 191.225 595.636 191.177 596.364H195.785ZM199.373 591.12V600H198.533V591.12H199.373Z" fill="#00529E" fill-opacity="0.75"/>
</g>
<defs>
<filter id="filter0_d_59_230" x="-6" y="-2" width="372" height="286.131" filterUnits="userSpaceOnUse" color-interpolation-filters="sRGB">
<feFlood flood-opacity="0" result="BackgroundImageFix"/>
<feColorMatrix in="SourceAlpha" type="matrix" values="0 0 0 0 0 0 0 0 0 0 0 0 0 0 0 0 0 0 127 0" result="hardAlpha"/>
<feOffset dy="4"/>
<feGaussianBlur stdDeviation="2"/>
<feComposite in2="hardAlpha" operator="out"/>
<feColorMatrix type="matrix" values="0 0 0 0 0 0 0 0 0 0 0 0 0 0 0 0 0 0 0.08 0"/>
<feBlend mode="normal" in2="BackgroundImageFix" result="effect1_dropShadow_59_230"/>
<feBlend mode="normal" in="SourceGraphic" in2="effect1_dropShadow_59_230" result="shape"/>
</filter>
<filter id="filter1_d_59_230" x="-6" y="-2" width="372" height="286.131" filterUnits="userSpaceOnUse" color-interpolation-filters="sRGB">
<feFlood flood-opacity="0" result="BackgroundImageFix"/>
<feColorMatrix in="SourceAlpha" type="matrix" values="0 0 0 0 0 0 0 0 0 0 0 0 0 0 0 0 0 0 127 0" result="hardAlpha"/>
<feOffset dy="4"/>
<feGaussianBlur stdDeviation="2"/>
<feComposite in2="hardAlpha" operator="out"/>
<feColorMatrix type="matrix" values="0 0 0 0 0 0 0 0 0 0 0 0 0 0 0 0 0 0 0.08 0"/>
<feBlend mode="normal" in2="BackgroundImageFix" result="effect1_dropShadow_59_230"/>
<feBlend mode="normal" in="SourceGraphic" in2="effect1_dropShadow_59_230" result="shape"/>
</filter>
<filter id="filter2_d_59_230" x="11" y="439" width="338" height="58" filterUnits="userSpaceOnUse" color-interpolation-filters="sRGB">
<feFlood flood-opacity="0" result="BackgroundImageFix"/>
<feColorMatrix in="SourceAlpha" type="matrix" values="0 0 0 0 0 0 0 0 0 0 0 0 0 0 0 0 0 0 127 0" result="hardAlpha"/>
<feOffset dy="4"/>
<feGaussianBlur stdDeviation="2"/>
<feComposite in2="hardAlpha" operator="out"/>
<feColorMatrix type="matrix" values="0 0 0 0 0 0 0 0 0 0 0 0 0 0 0 0 0 0 0.08 0"/>
<feBlend mode="normal" in2="BackgroundImageFix" result="effect1_dropShadow_59_230"/>
<feBlend mode="normal" in="SourceGraphic" in2="effect1_dropShadow_59_230" result="shape"/>
</filter>
<filter id="filter3_d_59_230" x="11" y="512" width="336" height="56" filterUnits="userSpaceOnUse" color-interpolation-filters="sRGB">
<feFlood flood-opacity="0" result="BackgroundImageFix"/>
<feColorMatrix in="SourceAlpha" type="matrix" values="0 0 0 0 0 0 0 0 0 0 0 0 0 0 0 0 0 0 127 0" result="hardAlpha"/>
<feOffset dy="4"/>
<feGaussianBlur stdDeviation="2"/>
<feComposite in2="hardAlpha" operator="out"/>
<feColorMatrix type="matrix" values="0 0 0 0 0 0 0 0 0 0 0 0 0 0 0 0 0 0 0.16 0"/>
<feBlend mode="normal" in2="BackgroundImageFix" result="effect1_dropShadow_59_230"/>
<feBlend mode="normal" in="SourceGraphic" in2="effect1_dropShadow_59_230" result="shape"/>
</filter>
<clipPath id="clip0_59_230">
<rect width="360" height="800" rx="15" fill="white"/>
</clipPath>
<clipPath id="clip1_59_230">
<rect width="22.1667" height="24" fill="white" transform="translate(317.833 8)"/>
</clipPath>
</defs>
</svg>
