<svg width="360" height="800" viewBox="0 0 360 800" fill="none" xmlns="http://www.w3.org/2000/svg">
<rect width="360" height="800" rx="15" fill="#F2F2F2"/>
<path d="M0 0H360V271C360 271 339 180 245 237C151 294 213 182 173 190C133 198 109 249 83 229C57 209 0 271 0 271V0Z" fill="#060524"/>
<path d="M0 0H360V271C360 271 339 180 245 237C151 294 213 182 173 190C133 198 109 249 83 229C57 209 0 271 0 271V0Z" fill="#070707" fill-opacity="0.48"/>
<path d="M303 105L297 99L303 93" stroke="white" stroke-width="2" stroke-linecap="round" stroke-linejoin="round"/>
<path d="M313.788 97.9C314.004 97.444 314.336 97.072 314.784 96.784C315.24 96.496 315.776 96.352 316.392 96.352C316.992 96.352 317.528 96.492 318 96.772C318.472 97.044 318.84 97.436 319.104 97.948C319.376 98.452 319.512 99.04 319.512 99.712C319.512 100.384 319.376 100.976 319.104 101.488C318.84 102 318.468 102.396 317.988 102.676C317.516 102.956 316.984 103.096 316.392 103.096C315.768 103.096 315.228 102.956 314.772 102.676C314.324 102.388 313.996 102.016 313.788 101.56V103H312.96V94.12H313.788V97.9ZM318.66 99.712C318.66 99.168 318.552 98.7 318.336 98.308C318.128 97.908 317.84 97.604 317.472 97.396C317.104 97.188 316.688 97.084 316.224 97.084C315.776 97.084 315.364 97.192 314.988 97.408C314.62 97.624 314.328 97.932 314.112 98.332C313.896 98.732 313.788 99.196 313.788 99.724C313.788 100.252 313.896 100.716 314.112 101.116C314.328 101.516 314.62 101.824 314.988 102.04C315.364 102.256 315.776 102.364 316.224 102.364C316.688 102.364 317.104 102.26 317.472 102.052C317.84 101.836 318.128 101.528 318.336 101.128C318.552 100.72 318.66 100.248 318.66 99.712ZM321.034 99.712C321.034 99.04 321.166 98.452 321.43 97.948C321.702 97.436 322.074 97.044 322.546 96.772C323.026 96.492 323.566 96.352 324.166 96.352C324.79 96.352 325.326 96.496 325.774 96.784C326.23 97.072 326.558 97.44 326.758 97.888V96.448H327.598V103H326.758V101.548C326.55 101.996 326.218 102.368 325.762 102.664C325.314 102.952 324.778 103.096 324.154 103.096C323.562 103.096 323.026 102.956 322.546 102.676C322.074 102.396 321.702 102 321.43 101.488C321.166 100.976 321.034 100.384 321.034 99.712ZM326.758 99.724C326.758 99.196 326.65 98.732 326.434 98.332C326.218 97.932 325.922 97.624 325.546 97.408C325.178 97.192 324.77 97.084 324.322 97.084C323.858 97.084 323.442 97.188 323.074 97.396C322.706 97.604 322.414 97.908 322.198 98.308C321.99 98.7 321.886 99.168 321.886 99.712C321.886 100.248 321.99 100.72 322.198 101.128C322.414 101.528 322.706 101.836 323.074 102.052C323.442 102.26 323.858 102.364 324.322 102.364C324.77 102.364 325.178 102.256 325.546 102.04C325.922 101.824 326.218 101.516 326.434 101.116C326.65 100.716 326.758 100.252 326.758 99.724ZM329.491 99.724C329.491 99.044 329.627 98.452 329.899 97.948C330.171 97.436 330.547 97.044 331.027 96.772C331.507 96.492 332.055 96.352 332.671 96.352C333.479 96.352 334.143 96.552 334.663 96.952C335.191 97.352 335.531 97.896 335.683 98.584H334.783C334.671 98.112 334.427 97.744 334.051 97.48C333.683 97.208 333.223 97.072 332.671 97.072C332.231 97.072 331.835 97.172 331.483 97.372C331.131 97.572 330.851 97.872 330.643 98.272C330.443 98.664 330.343 99.148 330.343 99.724C330.343 100.3 330.443 100.788 330.643 101.188C330.851 101.588 331.131 101.888 331.483 102.088C331.835 102.288 332.231 102.388 332.671 102.388C333.223 102.388 333.683 102.256 334.051 101.992C334.427 101.72 334.671 101.344 334.783 100.864H335.683C335.531 101.536 335.191 102.076 334.663 102.484C334.135 102.892 333.471 103.096 332.671 103.096C332.055 103.096 331.507 102.96 331.027 102.688C330.547 102.408 330.171 102.016 329.899 101.512C329.627 101 329.491 100.404 329.491 99.724ZM341.135 103L338.435 100.06V103H337.595V94.12H338.435V99.376L341.075 96.448H342.251L339.143 99.712L342.275 103H341.135Z" fill="white"/>
<path d="M20.432 16.8V15.252H23.324V24H21.596V16.8H20.432ZM25.3677 17.556C25.4077 16.756 25.6877 16.14 26.2077 15.708C26.7357 15.268 27.4277 15.048 28.2837 15.048C28.8677 15.048 29.3677 15.152 29.7837 15.36C30.1997 15.56 30.5117 15.836 30.7197 16.188C30.9357 16.532 31.0437 16.924 31.0437 17.364C31.0437 17.868 30.9117 18.296 30.6477 18.648C30.3917 18.992 30.0837 19.224 29.7237 19.344V19.392C30.1877 19.536 30.5477 19.792 30.8037 20.16C31.0677 20.528 31.1997 21 31.1997 21.576C31.1997 22.056 31.0877 22.484 30.8637 22.86C30.6477 23.236 30.3237 23.532 29.8917 23.748C29.4677 23.956 28.9557 24.06 28.3557 24.06C27.4517 24.06 26.7157 23.832 26.1477 23.376C25.5797 22.92 25.2797 22.248 25.2477 21.36H26.8797C26.8957 21.752 27.0277 22.068 27.2757 22.308C27.5317 22.54 27.8797 22.656 28.3197 22.656C28.7277 22.656 29.0397 22.544 29.2557 22.32C29.4797 22.088 29.5917 21.792 29.5917 21.432C29.5917 20.952 29.4397 20.608 29.1357 20.4C28.8317 20.192 28.3597 20.088 27.7197 20.088H27.3717V18.708H27.7197C28.8557 18.708 29.4237 18.328 29.4237 17.568C29.4237 17.224 29.3197 16.956 29.1117 16.764C28.9117 16.572 28.6197 16.476 28.2357 16.476C27.8597 16.476 27.5677 16.58 27.3597 16.788C27.1597 16.988 27.0437 17.244 27.0117 17.556H25.3677ZM33.8233 24.084C33.5193 24.084 33.2673 23.992 33.0673 23.808C32.8753 23.616 32.7793 23.38 32.7793 23.1C32.7793 22.82 32.8753 22.588 33.0673 22.404C33.2673 22.212 33.5193 22.116 33.8233 22.116C34.1193 22.116 34.3633 22.212 34.5553 22.404C34.7473 22.588 34.8433 22.82 34.8433 23.1C34.8433 23.38 34.7473 23.616 34.5553 23.808C34.3633 23.992 34.1193 24.084 33.8233 24.084ZM33.8233 19.116C33.5193 19.116 33.2673 19.024 33.0673 18.84C32.8753 18.648 32.7793 18.412 32.7793 18.132C32.7793 17.852 32.8753 17.62 33.0673 17.436C33.2673 17.244 33.5193 17.148 33.8233 17.148C34.1193 17.148 34.3633 17.244 34.5553 17.436C34.7473 17.62 34.8433 17.852 34.8433 18.132C34.8433 18.412 34.7473 18.648 34.5553 18.84C34.3633 19.024 34.1193 19.116 33.8233 19.116ZM36.3996 19.512C36.3996 18.128 36.6476 17.044 37.1436 16.26C37.6476 15.476 38.4796 15.084 39.6396 15.084C40.7996 15.084 41.6276 15.476 42.1236 16.26C42.6276 17.044 42.8796 18.128 42.8796 19.512C42.8796 20.904 42.6276 21.996 42.1236 22.788C41.6276 23.58 40.7996 23.976 39.6396 23.976C38.4796 23.976 37.6476 23.58 37.1436 22.788C36.6476 21.996 36.3996 20.904 36.3996 19.512ZM41.2236 19.512C41.2236 18.92 41.1836 18.424 41.1036 18.024C41.0316 17.616 40.8796 17.284 40.6476 17.028C40.4236 16.772 40.0876 16.644 39.6396 16.644C39.1916 16.644 38.8516 16.772 38.6196 17.028C38.3956 17.284 38.2436 17.616 38.1636 18.024C38.0916 18.424 38.0556 18.92 38.0556 19.512C38.0556 20.12 38.0916 20.632 38.1636 21.048C38.2356 21.456 38.3876 21.788 38.6196 22.044C38.8516 22.292 39.1916 22.416 39.6396 22.416C40.0876 22.416 40.4276 22.292 40.6596 22.044C40.8916 21.788 41.0436 21.456 41.1156 21.048C41.1876 20.632 41.2236 20.12 41.2236 19.512ZM44.5174 19.512C44.5174 18.128 44.7654 17.044 45.2614 16.26C45.7654 15.476 46.5974 15.084 47.7574 15.084C48.9174 15.084 49.7454 15.476 50.2414 16.26C50.7454 17.044 50.9974 18.128 50.9974 19.512C50.9974 20.904 50.7454 21.996 50.2414 22.788C49.7454 23.58 48.9174 23.976 47.7574 23.976C46.5974 23.976 45.7654 23.58 45.2614 22.788C44.7654 21.996 44.5174 20.904 44.5174 19.512ZM49.3414 19.512C49.3414 18.92 49.3014 18.424 49.2214 18.024C49.1494 17.616 48.9974 17.284 48.7654 17.028C48.5414 16.772 48.2054 16.644 47.7574 16.644C47.3094 16.644 46.9694 16.772 46.7374 17.028C46.5134 17.284 46.3614 17.616 46.2814 18.024C46.2094 18.424 46.1734 18.92 46.1734 19.512C46.1734 20.12 46.2094 20.632 46.2814 21.048C46.3534 21.456 46.5054 21.788 46.7374 22.044C46.9694 22.292 47.3094 22.416 47.7574 22.416C48.2054 22.416 48.5454 22.292 48.7774 22.044C49.0094 21.788 49.1614 21.456 49.2334 21.048C49.3054 20.632 49.3414 20.12 49.3414 19.512Z" fill="white"/>
<path d="M74.0834 12H90.4167C91.5396 12 92.4584 12.9 92.4584 14V26C92.4584 27.1 91.5396 28 90.4167 28H74.0834C72.9604 28 72.0417 27.1 72.0417 26V14C72.0417 12.9 72.9604 12 74.0834 12Z" stroke="white" stroke-width="2" stroke-linecap="round" stroke-linejoin="round"/>
<path d="M92.4584 14L82.25 21L72.0417 14" stroke="white" stroke-width="2" stroke-linecap="round" stroke-linejoin="round"/>
<path d="M276.583 28V18" stroke="white" stroke-width="2" stroke-linecap="round" stroke-linejoin="round"/>
<path d="M282.125 28V12" stroke="white" stroke-width="2" stroke-linecap="round" stroke-linejoin="round"/>
<path d="M271.042 28V24" stroke="white" stroke-width="2" stroke-linecap="round" stroke-linejoin="round"/>
<path d="M302.75 28V18" stroke="white" stroke-width="2" stroke-linecap="round" stroke-linejoin="round"/>
<path d="M308.292 28V12" stroke="white" stroke-width="2" stroke-linecap="round" stroke-linejoin="round"/>
<path d="M297.208 28V24" stroke="white" stroke-width="2" stroke-linecap="round" stroke-linejoin="round"/>
<g clip-path="url(#clip0_41_426)">
<path d="M322.451 26H320.604C320.114 26 319.644 25.7893 319.298 25.4142C318.952 25.0391 318.757 24.5304 318.757 24V16C318.757 15.4696 318.952 14.9609 319.298 14.5858C319.644 14.2107 320.114 14 320.604 14H323.55M331.688 14H333.535C334.025 14 334.494 14.2107 334.841 14.5858C335.187 14.9609 335.382 15.4696 335.382 16V24C335.382 24.5304 335.187 25.0391 334.841 25.4142C334.494 25.7893 334.025 26 333.535 26H330.588" stroke="white" stroke-width="2" stroke-linecap="round" stroke-linejoin="round"/>
<path d="M339.076 21V19" stroke="white" stroke-width="2" stroke-linecap="round" stroke-linejoin="round"/>
<path d="M327.993 14L324.299 20H329.84L326.146 26" stroke="#2FFB0E" stroke-width="2" stroke-linecap="round" stroke-linejoin="round"/>
</g>
<path d="M31.03 158.53L28.105 169H25.63L23.665 161.545L21.61 169L19.15 169.015L16.33 158.53H18.58L20.425 166.66L22.555 158.53H24.895L26.905 166.615L28.765 158.53H31.03ZM36.0012 160.225V162.85H39.5262V164.515H36.0012V167.29H39.9762V169H33.9012V158.515H39.9762V160.225H36.0012ZM45.4846 167.335H48.9346V169H43.3846V158.53H45.4846V167.335ZM51.2594 163.75C51.2594 162.72 51.4894 161.8 51.9494 160.99C52.4194 160.17 53.0544 159.535 53.8544 159.085C54.6644 158.625 55.5694 158.395 56.5694 158.395C57.7394 158.395 58.7644 158.695 59.6444 159.295C60.5244 159.895 61.1394 160.725 61.4894 161.785H59.0744C58.8344 161.285 58.4944 160.91 58.0544 160.66C57.6244 160.41 57.1244 160.285 56.5544 160.285C55.9444 160.285 55.3994 160.43 54.9194 160.72C54.4494 161 54.0794 161.4 53.8094 161.92C53.5494 162.44 53.4194 163.05 53.4194 163.75C53.4194 164.44 53.5494 165.05 53.8094 165.58C54.0794 166.1 54.4494 166.505 54.9194 166.795C55.3994 167.075 55.9444 167.215 56.5544 167.215C57.1244 167.215 57.6244 167.09 58.0544 166.84C58.4944 166.58 58.8344 166.2 59.0744 165.7H61.4894C61.1394 166.77 60.5244 167.605 59.6444 168.205C58.7744 168.795 57.7494 169.09 56.5694 169.09C55.5694 169.09 54.6644 168.865 53.8544 168.415C53.0544 167.955 52.4194 167.32 51.9494 166.51C51.4894 165.7 51.2594 164.78 51.2594 163.75ZM69.643 169.105C68.663 169.105 67.763 168.875 66.943 168.415C66.123 167.955 65.473 167.32 64.993 166.51C64.513 165.69 64.273 164.765 64.273 163.735C64.273 162.715 64.513 161.8 64.993 160.99C65.473 160.17 66.123 159.53 66.943 159.07C67.763 158.61 68.663 158.38 69.643 158.38C70.633 158.38 71.533 158.61 72.343 159.07C73.163 159.53 73.808 160.17 74.278 160.99C74.758 161.8 74.998 162.715 74.998 163.735C74.998 164.765 74.758 165.69 74.278 166.51C73.808 167.32 73.163 167.955 72.343 168.415C71.523 168.875 70.623 169.105 69.643 169.105ZM69.643 167.23C70.273 167.23 70.828 167.09 71.308 166.81C71.788 166.52 72.163 166.11 72.433 165.58C72.703 165.05 72.838 164.435 72.838 163.735C72.838 163.035 72.703 162.425 72.433 161.905C72.163 161.375 71.788 160.97 71.308 160.69C70.828 160.41 70.273 160.27 69.643 160.27C69.013 160.27 68.453 160.41 67.963 160.69C67.483 160.97 67.108 161.375 66.838 161.905C66.568 162.425 66.433 163.035 66.433 163.735C66.433 164.435 66.568 165.05 66.838 165.58C67.108 166.11 67.483 166.52 67.963 166.81C68.453 167.09 69.013 167.23 69.643 167.23ZM89.4754 158.53V169H87.3754V162.19L84.5704 169H82.9804L80.1604 162.19V169H78.0604V158.53H80.4454L83.7754 166.315L87.1054 158.53H89.4754ZM95.1516 160.225V162.85H98.6766V164.515H95.1516V167.29H99.1266V169H93.0516V158.515H99.1266V160.225H95.1516ZM105.25 158.35L105.01 165.595H103.24L102.985 158.35H105.25ZM104.17 169.105C103.79 169.105 103.475 168.99 103.225 168.76C102.985 168.52 102.865 168.225 102.865 167.875C102.865 167.525 102.985 167.235 103.225 167.005C103.475 166.765 103.79 166.645 104.17 166.645C104.54 166.645 104.845 166.765 105.085 167.005C105.325 167.235 105.445 167.525 105.445 167.875C105.445 168.225 105.325 168.52 105.085 168.76C104.845 168.99 104.54 169.105 104.17 169.105Z" fill="white"/>
<g filter="url(#filter0_d_41_426)">
<path d="M152.126 388.096H157.054V391H148.364V375.556H152.126V388.096ZM165.096 391.176C163.894 391.176 162.808 390.919 161.84 390.406C160.887 389.893 160.132 389.159 159.574 388.206C159.032 387.253 158.76 386.138 158.76 384.862C158.76 383.601 159.039 382.493 159.596 381.54C160.154 380.572 160.916 379.831 161.884 379.318C162.852 378.805 163.938 378.548 165.14 378.548C166.343 378.548 167.428 378.805 168.396 379.318C169.364 379.831 170.127 380.572 170.684 381.54C171.242 382.493 171.52 383.601 171.52 384.862C171.52 386.123 171.234 387.238 170.662 388.206C170.105 389.159 169.335 389.893 168.352 390.406C167.384 390.919 166.299 391.176 165.096 391.176ZM165.096 387.92C165.815 387.92 166.424 387.656 166.922 387.128C167.436 386.6 167.692 385.845 167.692 384.862C167.692 383.879 167.443 383.124 166.944 382.596C166.46 382.068 165.859 381.804 165.14 381.804C164.407 381.804 163.798 382.068 163.314 382.596C162.83 383.109 162.588 383.865 162.588 384.862C162.588 385.845 162.823 386.6 163.292 387.128C163.776 387.656 164.378 387.92 165.096 387.92ZM178.84 378.548C179.706 378.548 180.461 378.724 181.106 379.076C181.766 379.428 182.272 379.89 182.624 380.462V378.724H186.386V390.978C186.386 392.107 186.159 393.127 185.704 394.036C185.264 394.96 184.582 395.693 183.658 396.236C182.749 396.779 181.612 397.05 180.248 397.05C178.43 397.05 176.956 396.617 175.826 395.752C174.697 394.901 174.052 393.743 173.89 392.276H177.608C177.726 392.745 178.004 393.112 178.444 393.376C178.884 393.655 179.427 393.794 180.072 393.794C180.85 393.794 181.466 393.567 181.92 393.112C182.39 392.672 182.624 391.961 182.624 390.978V389.24C182.258 389.812 181.752 390.281 181.106 390.648C180.461 391 179.706 391.176 178.84 391.176C177.828 391.176 176.912 390.919 176.09 390.406C175.269 389.878 174.616 389.137 174.132 388.184C173.663 387.216 173.428 386.101 173.428 384.84C173.428 383.579 173.663 382.471 174.132 381.518C174.616 380.565 175.269 379.831 176.09 379.318C176.912 378.805 177.828 378.548 178.84 378.548ZM182.624 384.862C182.624 383.923 182.36 383.183 181.832 382.64C181.319 382.097 180.688 381.826 179.94 381.826C179.192 381.826 178.554 382.097 178.026 382.64C177.513 383.168 177.256 383.901 177.256 384.84C177.256 385.779 177.513 386.527 178.026 387.084C178.554 387.627 179.192 387.898 179.94 387.898C180.688 387.898 181.319 387.627 181.832 387.084C182.36 386.541 182.624 385.801 182.624 384.862ZM191.66 377.448C191 377.448 190.457 377.257 190.032 376.876C189.621 376.48 189.416 375.996 189.416 375.424C189.416 374.837 189.621 374.353 190.032 373.972C190.457 373.576 191 373.378 191.66 373.378C192.305 373.378 192.833 373.576 193.244 373.972C193.669 374.353 193.882 374.837 193.882 375.424C193.882 375.996 193.669 376.48 193.244 376.876C192.833 377.257 192.305 377.448 191.66 377.448ZM193.53 378.724V391H189.768V378.724H193.53ZM204.396 378.592C205.833 378.592 206.977 379.061 207.828 380C208.693 380.924 209.126 382.2 209.126 383.828V391H205.386V384.334C205.386 383.513 205.173 382.875 204.748 382.42C204.323 381.965 203.751 381.738 203.032 381.738C202.313 381.738 201.741 381.965 201.316 382.42C200.891 382.875 200.678 383.513 200.678 384.334V391H196.916V378.724H200.678V380.352C201.059 379.809 201.573 379.384 202.218 379.076C202.863 378.753 203.589 378.592 204.396 378.592Z" fill="#060524"/>
<path d="M152.126 388.096H157.054V391H148.364V375.556H152.126V388.096ZM165.096 391.176C163.894 391.176 162.808 390.919 161.84 390.406C160.887 389.893 160.132 389.159 159.574 388.206C159.032 387.253 158.76 386.138 158.76 384.862C158.76 383.601 159.039 382.493 159.596 381.54C160.154 380.572 160.916 379.831 161.884 379.318C162.852 378.805 163.938 378.548 165.14 378.548C166.343 378.548 167.428 378.805 168.396 379.318C169.364 379.831 170.127 380.572 170.684 381.54C171.242 382.493 171.52 383.601 171.52 384.862C171.52 386.123 171.234 387.238 170.662 388.206C170.105 389.159 169.335 389.893 168.352 390.406C167.384 390.919 166.299 391.176 165.096 391.176ZM165.096 387.92C165.815 387.92 166.424 387.656 166.922 387.128C167.436 386.6 167.692 385.845 167.692 384.862C167.692 383.879 167.443 383.124 166.944 382.596C166.46 382.068 165.859 381.804 165.14 381.804C164.407 381.804 163.798 382.068 163.314 382.596C162.83 383.109 162.588 383.865 162.588 384.862C162.588 385.845 162.823 386.6 163.292 387.128C163.776 387.656 164.378 387.92 165.096 387.92ZM178.84 378.548C179.706 378.548 180.461 378.724 181.106 379.076C181.766 379.428 182.272 379.89 182.624 380.462V378.724H186.386V390.978C186.386 392.107 186.159 393.127 185.704 394.036C185.264 394.96 184.582 395.693 183.658 396.236C182.749 396.779 181.612 397.05 180.248 397.05C178.43 397.05 176.956 396.617 175.826 395.752C174.697 394.901 174.052 393.743 173.89 392.276H177.608C177.726 392.745 178.004 393.112 178.444 393.376C178.884 393.655 179.427 393.794 180.072 393.794C180.85 393.794 181.466 393.567 181.92 393.112C182.39 392.672 182.624 391.961 182.624 390.978V389.24C182.258 389.812 181.752 390.281 181.106 390.648C180.461 391 179.706 391.176 178.84 391.176C177.828 391.176 176.912 390.919 176.09 390.406C175.269 389.878 174.616 389.137 174.132 388.184C173.663 387.216 173.428 386.101 173.428 384.84C173.428 383.579 173.663 382.471 174.132 381.518C174.616 380.565 175.269 379.831 176.09 379.318C176.912 378.805 177.828 378.548 178.84 378.548ZM182.624 384.862C182.624 383.923 182.36 383.183 181.832 382.64C181.319 382.097 180.688 381.826 179.94 381.826C179.192 381.826 178.554 382.097 178.026 382.64C177.513 383.168 177.256 383.901 177.256 384.84C177.256 385.779 177.513 386.527 178.026 387.084C178.554 387.627 179.192 387.898 179.94 387.898C180.688 387.898 181.319 387.627 181.832 387.084C182.36 386.541 182.624 385.801 182.624 384.862ZM191.66 377.448C191 377.448 190.457 377.257 190.032 376.876C189.621 376.48 189.416 375.996 189.416 375.424C189.416 374.837 189.621 374.353 190.032 373.972C190.457 373.576 191 373.378 191.66 373.378C192.305 373.378 192.833 373.576 193.244 373.972C193.669 374.353 193.882 374.837 193.882 375.424C193.882 375.996 193.669 376.48 193.244 376.876C192.833 377.257 192.305 377.448 191.66 377.448ZM193.53 378.724V391H189.768V378.724H193.53ZM204.396 378.592C205.833 378.592 206.977 379.061 207.828 380C208.693 380.924 209.126 382.2 209.126 383.828V391H205.386V384.334C205.386 383.513 205.173 382.875 204.748 382.42C204.323 381.965 203.751 381.738 203.032 381.738C202.313 381.738 201.741 381.965 201.316 382.42C200.891 382.875 200.678 383.513 200.678 384.334V391H196.916V378.724H200.678V380.352C201.059 379.809 201.573 379.384 202.218 379.076C202.863 378.753 203.589 378.592 204.396 378.592Z" fill="#070707" fill-opacity="0.48"/>
</g>
<g filter="url(#filter1_d_41_426)">
<rect x="16" y="456" width="328" height="32" rx="16" fill="#BAB8B8" shape-rendering="crispEdges"/>
<path d="M37.74 472.49C37.74 472.73 37.7333 472.913 37.72 473.04H33.19C33.21 473.453 33.31 473.807 33.49 474.1C33.67 474.393 33.9067 474.617 34.2 474.77C34.4933 474.917 34.8133 474.99 35.16 474.99C35.6133 474.99 35.9933 474.88 36.3 474.66C36.6133 474.44 36.82 474.143 36.92 473.77H37.66C37.5267 474.303 37.24 474.74 36.8 475.08C36.3667 475.413 35.82 475.58 35.16 475.58C34.6467 475.58 34.1867 475.467 33.78 475.24C33.3733 475.007 33.0533 474.68 32.82 474.26C32.5933 473.833 32.48 473.337 32.48 472.77C32.48 472.203 32.5933 471.707 32.82 471.28C33.0467 470.853 33.3633 470.527 33.77 470.3C34.1767 470.073 34.64 469.96 35.16 469.96C35.68 469.96 36.1333 470.073 36.52 470.3C36.9133 470.527 37.2133 470.833 37.42 471.22C37.6333 471.6 37.74 472.023 37.74 472.49ZM37.03 472.47C37.0367 472.063 36.9533 471.717 36.78 471.43C36.6133 471.143 36.3833 470.927 36.09 470.78C35.7967 470.633 35.4767 470.56 35.13 470.56C34.61 470.56 34.1667 470.727 33.8 471.06C33.4333 471.393 33.23 471.863 33.19 472.47H37.03ZM45.8207 469.94C46.4607 469.94 46.9807 470.143 47.3807 470.55C47.7874 470.95 47.9907 471.533 47.9907 472.3V475.5H47.3007V472.38C47.3007 471.787 47.1574 471.333 46.8707 471.02C46.584 470.707 46.194 470.55 45.7007 470.55C45.1874 470.55 44.7774 470.72 44.4707 471.06C44.164 471.4 44.0107 471.893 44.0107 472.54V475.5H43.3207V472.38C43.3207 471.787 43.1774 471.333 42.8907 471.02C42.604 470.707 42.2107 470.55 41.7107 470.55C41.1974 470.55 40.7874 470.72 40.4807 471.06C40.174 471.4 40.0207 471.893 40.0207 472.54V475.5H39.3207V470.04H40.0207V470.98C40.194 470.64 40.4407 470.383 40.7607 470.21C41.0807 470.03 41.4374 469.94 41.8307 469.94C42.304 469.94 42.7174 470.053 43.0707 470.28C43.4307 470.507 43.6907 470.84 43.8507 471.28C43.9974 470.847 44.2474 470.517 44.6007 470.29C44.9607 470.057 45.3674 469.94 45.8207 469.94ZM49.5253 472.76C49.5253 472.2 49.6353 471.71 49.8553 471.29C50.082 470.863 50.392 470.537 50.7853 470.31C51.1853 470.077 51.6353 469.96 52.1353 469.96C52.6553 469.96 53.102 470.08 53.4753 470.32C53.8553 470.56 54.1286 470.867 54.2953 471.24V470.04H54.9953V475.5H54.2953V474.29C54.122 474.663 53.8453 474.973 53.4653 475.22C53.092 475.46 52.6453 475.58 52.1253 475.58C51.632 475.58 51.1853 475.463 50.7853 475.23C50.392 474.997 50.082 474.667 49.8553 474.24C49.6353 473.813 49.5253 473.32 49.5253 472.76ZM54.2953 472.77C54.2953 472.33 54.2053 471.943 54.0253 471.61C53.8453 471.277 53.5986 471.02 53.2853 470.84C52.9786 470.66 52.6386 470.57 52.2653 470.57C51.8786 470.57 51.532 470.657 51.2253 470.83C50.9186 471.003 50.6753 471.257 50.4953 471.59C50.322 471.917 50.2353 472.307 50.2353 472.76C50.2353 473.207 50.322 473.6 50.4953 473.94C50.6753 474.273 50.9186 474.53 51.2253 474.71C51.532 474.883 51.8786 474.97 52.2653 474.97C52.6386 474.97 52.9786 474.88 53.2853 474.7C53.5986 474.52 53.8453 474.263 54.0253 473.93C54.2053 473.597 54.2953 473.21 54.2953 472.77ZM57.2434 469.01C57.1034 469.01 56.9834 468.96 56.8834 468.86C56.7834 468.76 56.7334 468.637 56.7334 468.49C56.7334 468.343 56.7834 468.223 56.8834 468.13C56.9834 468.03 57.1034 467.98 57.2434 467.98C57.3834 467.98 57.5034 468.03 57.6034 468.13C57.7034 468.223 57.7534 468.343 57.7534 468.49C57.7534 468.637 57.7034 468.76 57.6034 468.86C57.5034 468.96 57.3834 469.01 57.2434 469.01ZM57.5934 470.04V475.5H56.8934V470.04H57.5934ZM60.1785 468.1V475.5H59.4785V468.1H60.1785Z" fill="#888888"/>
<path d="M324.667 471.333H315.333C314.597 471.333 314 471.93 314 472.667V477.333C314 478.07 314.597 478.667 315.333 478.667H324.667C325.403 478.667 326 478.07 326 477.333V472.667C326 471.93 325.403 471.333 324.667 471.333Z" stroke="#888888" stroke-width="2" stroke-linecap="round" stroke-linejoin="round"/>
<path d="M316.667 471.333V468.667C316.666 467.84 316.972 467.043 317.526 466.429C318.08 465.816 318.843 465.43 319.665 465.347C320.487 465.264 321.311 465.489 321.977 465.98C322.642 466.47 323.102 467.19 323.267 468" stroke="#888888" stroke-width="2" stroke-linecap="round" stroke-linejoin="round"/>
</g>
<g filter="url(#filter2_d_41_426)">
<rect x="15" y="512" width="328" height="32" rx="16" fill="#BAB8B8" shape-rendering="crispEdges"/>
<path d="M32.49 527.24C32.6633 526.873 32.9367 526.57 33.31 526.33C33.69 526.083 34.14 525.96 34.66 525.96C35.1533 525.96 35.5967 526.077 35.99 526.31C36.39 526.537 36.7 526.863 36.92 527.29C37.1467 527.71 37.26 528.2 37.26 528.76C37.26 529.32 37.1467 529.813 36.92 530.24C36.7 530.667 36.39 530.997 35.99 531.23C35.5967 531.463 35.1533 531.58 34.66 531.58C34.1467 531.58 33.7 531.46 33.32 531.22C32.94 530.973 32.6633 530.667 32.49 530.3V534.08H31.8V526.04H32.49V527.24ZM36.55 528.76C36.55 528.307 36.46 527.917 36.28 527.59C36.1067 527.257 35.8667 527.003 35.56 526.83C35.2533 526.657 34.9067 526.57 34.52 526.57C34.1467 526.57 33.8033 526.66 33.49 526.84C33.1833 527.02 32.94 527.277 32.76 527.61C32.58 527.943 32.49 528.33 32.49 528.77C32.49 529.21 32.58 529.597 32.76 529.93C32.94 530.263 33.1833 530.52 33.49 530.7C33.8033 530.88 34.1467 530.97 34.52 530.97C34.9067 530.97 35.2533 530.883 35.56 530.71C35.8667 530.53 36.1067 530.273 36.28 529.94C36.46 529.6 36.55 529.207 36.55 528.76ZM38.528 528.76C38.528 528.2 38.638 527.71 38.858 527.29C39.0847 526.863 39.3947 526.537 39.788 526.31C40.188 526.077 40.638 525.96 41.138 525.96C41.658 525.96 42.1047 526.08 42.478 526.32C42.858 526.56 43.1314 526.867 43.298 527.24V526.04H43.998V531.5H43.298V530.29C43.1247 530.663 42.848 530.973 42.468 531.22C42.0947 531.46 41.648 531.58 41.128 531.58C40.6347 531.58 40.188 531.463 39.788 531.23C39.3947 530.997 39.0847 530.667 38.858 530.24C38.638 529.813 38.528 529.32 38.528 528.76ZM43.298 528.77C43.298 528.33 43.208 527.943 43.028 527.61C42.848 527.277 42.6014 527.02 42.288 526.84C41.9814 526.66 41.6414 526.57 41.268 526.57C40.8814 526.57 40.5347 526.657 40.228 526.83C39.9214 527.003 39.678 527.257 39.498 527.59C39.3247 527.917 39.238 528.307 39.238 528.76C39.238 529.207 39.3247 529.6 39.498 529.94C39.678 530.273 39.9214 530.53 40.228 530.71C40.5347 530.883 40.8814 530.97 41.268 530.97C41.6414 530.97 41.9814 530.88 42.288 530.7C42.6014 530.52 42.848 530.263 43.028 529.93C43.208 529.597 43.298 529.21 43.298 528.77ZM47.7761 531.58C47.1494 531.58 46.6361 531.437 46.2361 531.15C45.8428 530.857 45.6228 530.46 45.5761 529.96H46.2961C46.3294 530.267 46.4728 530.517 46.7261 530.71C46.9861 530.897 47.3328 530.99 47.7661 530.99C48.1461 530.99 48.4428 530.9 48.6561 530.72C48.8761 530.54 48.9861 530.317 48.9861 530.05C48.9861 529.863 48.9261 529.71 48.8061 529.59C48.6861 529.47 48.5328 529.377 48.3461 529.31C48.1661 529.237 47.9194 529.16 47.6061 529.08C47.1994 528.973 46.8694 528.867 46.6161 528.76C46.3628 528.653 46.1461 528.497 45.9661 528.29C45.7928 528.077 45.7061 527.793 45.7061 527.44C45.7061 527.173 45.7861 526.927 45.9461 526.7C46.1061 526.473 46.3328 526.293 46.6261 526.16C46.9194 526.027 47.2528 525.96 47.6261 525.96C48.2128 525.96 48.6861 526.11 49.0461 526.41C49.4061 526.703 49.5994 527.11 49.6261 527.63H48.9261C48.9061 527.31 48.7794 527.053 48.5461 526.86C48.3194 526.66 48.0061 526.56 47.6061 526.56C47.2528 526.56 46.9661 526.643 46.7461 526.81C46.5261 526.977 46.4161 527.183 46.4161 527.43C46.4161 527.643 46.4794 527.82 46.6061 527.96C46.7394 528.093 46.9028 528.2 47.0961 528.28C47.2894 528.353 47.5494 528.437 47.8761 528.53C48.2694 528.637 48.5828 528.74 48.8161 528.84C49.0494 528.94 49.2494 529.087 49.4161 529.28C49.5828 529.473 49.6694 529.73 49.6761 530.05C49.6761 530.343 49.5961 530.607 49.4361 530.84C49.2761 531.067 49.0528 531.247 48.7661 531.38C48.4794 531.513 48.1494 531.58 47.7761 531.58ZM53.1737 531.58C52.5471 531.58 52.0337 531.437 51.6337 531.15C51.2404 530.857 51.0204 530.46 50.9737 529.96H51.6937C51.7271 530.267 51.8704 530.517 52.1237 530.71C52.3837 530.897 52.7304 530.99 53.1637 530.99C53.5437 530.99 53.8404 530.9 54.0537 530.72C54.2737 530.54 54.3837 530.317 54.3837 530.05C54.3837 529.863 54.3237 529.71 54.2037 529.59C54.0837 529.47 53.9304 529.377 53.7437 529.31C53.5637 529.237 53.3171 529.16 53.0037 529.08C52.5971 528.973 52.2671 528.867 52.0137 528.76C51.7604 528.653 51.5437 528.497 51.3637 528.29C51.1904 528.077 51.1037 527.793 51.1037 527.44C51.1037 527.173 51.1837 526.927 51.3437 526.7C51.5037 526.473 51.7304 526.293 52.0237 526.16C52.3171 526.027 52.6504 525.96 53.0237 525.96C53.6104 525.96 54.0837 526.11 54.4437 526.41C54.8037 526.703 54.9971 527.11 55.0237 527.63H54.3237C54.3037 527.31 54.1771 527.053 53.9437 526.86C53.7171 526.66 53.4037 526.56 53.0037 526.56C52.6504 526.56 52.3637 526.643 52.1437 526.81C51.9237 526.977 51.8137 527.183 51.8137 527.43C51.8137 527.643 51.8771 527.82 52.0037 527.96C52.1371 528.093 52.3004 528.2 52.4937 528.28C52.6871 528.353 52.9471 528.437 53.2737 528.53C53.6671 528.637 53.9804 528.74 54.2137 528.84C54.4471 528.94 54.6471 529.087 54.8137 529.28C54.9804 529.473 55.0671 529.73 55.0737 530.05C55.0737 530.343 54.9937 530.607 54.8337 530.84C54.6737 531.067 54.4504 531.247 54.1637 531.38C53.8771 531.513 53.5471 531.58 53.1737 531.58ZM63.8914 526.04L62.1814 531.5H61.4814L59.9714 526.92L58.4614 531.5H57.7514L56.0414 526.04H56.7514L58.1114 530.79L59.6414 526.04H60.3414L61.8514 530.8L63.2014 526.04H63.8914ZM67.5357 531.58C67.0224 531.58 66.559 531.467 66.1457 531.24C65.739 531.007 65.4157 530.68 65.1757 530.26C64.9424 529.833 64.8257 529.337 64.8257 528.77C64.8257 528.203 64.9457 527.71 65.1857 527.29C65.4257 526.863 65.7524 526.537 66.1657 526.31C66.579 526.077 67.0424 525.96 67.5557 525.96C68.069 525.96 68.5324 526.077 68.9457 526.31C69.3657 526.537 69.6924 526.863 69.9257 527.29C70.1657 527.71 70.2857 528.203 70.2857 528.77C70.2857 529.33 70.1657 529.823 69.9257 530.25C69.6857 530.677 69.3557 531.007 68.9357 531.24C68.5157 531.467 68.049 531.58 67.5357 531.58ZM67.5357 530.97C67.8957 530.97 68.229 530.89 68.5357 530.73C68.8424 530.563 69.089 530.317 69.2757 529.99C69.469 529.657 69.5657 529.25 69.5657 528.77C69.5657 528.29 69.4724 527.887 69.2857 527.56C69.099 527.227 68.8524 526.98 68.5457 526.82C68.239 526.653 67.9057 526.57 67.5457 526.57C67.1857 526.57 66.8524 526.653 66.5457 526.82C66.239 526.98 65.9924 527.227 65.8057 527.56C65.6257 527.887 65.5357 528.29 65.5357 528.77C65.5357 529.25 65.6257 529.657 65.8057 529.99C65.9924 530.317 66.2357 530.563 66.5357 530.73C66.8424 530.89 67.1757 530.97 67.5357 530.97ZM72.5617 527.01C72.7151 526.67 72.9484 526.407 73.2617 526.22C73.5817 526.033 73.9717 525.94 74.4317 525.94V526.67H74.2417C73.7351 526.67 73.3284 526.807 73.0217 527.08C72.7151 527.353 72.5617 527.81 72.5617 528.45V531.5H71.8617V526.04H72.5617V527.01ZM75.4648 528.76C75.4648 528.2 75.5781 527.71 75.8048 527.29C76.0314 526.863 76.3414 526.537 76.7348 526.31C77.1348 526.077 77.5848 525.96 78.0848 525.96C78.5648 525.96 78.9981 526.077 79.3848 526.31C79.7714 526.543 80.0548 526.847 80.2348 527.22V524.1H80.9348V531.5H80.2348V530.28C80.0681 530.66 79.7948 530.973 79.4148 531.22C79.0348 531.46 78.5881 531.58 78.0748 531.58C77.5748 531.58 77.1248 531.463 76.7248 531.23C76.3314 530.997 76.0214 530.667 75.7948 530.24C75.5748 529.813 75.4648 529.32 75.4648 528.76ZM80.2348 528.77C80.2348 528.33 80.1448 527.943 79.9648 527.61C79.7848 527.277 79.5381 527.02 79.2248 526.84C78.9181 526.66 78.5781 526.57 78.2048 526.57C77.8181 526.57 77.4714 526.657 77.1648 526.83C76.8581 527.003 76.6148 527.257 76.4348 527.59C76.2614 527.917 76.1748 528.307 76.1748 528.76C76.1748 529.207 76.2614 529.6 76.4348 529.94C76.6148 530.273 76.8581 530.53 77.1648 530.71C77.4714 530.883 77.8181 530.97 78.2048 530.97C78.5781 530.97 78.9181 530.88 79.2248 530.7C79.5381 530.52 79.7848 530.263 79.9648 529.93C80.1448 529.597 80.2348 529.21 80.2348 528.77Z" fill="#888888"/>
<path d="M323.667 527.333H314.333C313.597 527.333 313 527.93 313 528.667V533.333C313 534.07 313.597 534.667 314.333 534.667H323.667C324.403 534.667 325 534.07 325 533.333V528.667C325 527.93 324.403 527.333 323.667 527.333Z" stroke="#888888" stroke-width="2" stroke-linecap="round" stroke-linejoin="round"/>
<path d="M315.667 527.333V524.667C315.666 523.84 315.972 523.043 316.526 522.429C317.08 521.816 317.843 521.43 318.665 521.347C319.487 521.264 320.311 521.489 320.977 521.98C321.642 522.47 322.102 523.19 322.267 524" stroke="#888888" stroke-width="2" stroke-linecap="round" stroke-linejoin="round"/>
</g>
<g filter="url(#filter3_d_41_426)">
<rect x="15" y="576" width="328" height="32" rx="16" fill="#060524" shape-rendering="crispEdges"/>
<rect x="15" y="576" width="328" height="32" rx="16" fill="#070707" fill-opacity="0.48" shape-rendering="crispEdges"/>
<path d="M159.673 596.224H163.353V598H157.433V586.832H159.673V596.224ZM169.193 598.144C168.339 598.144 167.571 597.957 166.889 597.584C166.206 597.2 165.667 596.661 165.273 595.968C164.889 595.275 164.697 594.475 164.697 593.568C164.697 592.661 164.894 591.861 165.289 591.168C165.694 590.475 166.243 589.941 166.937 589.568C167.63 589.184 168.403 588.992 169.257 588.992C170.11 588.992 170.883 589.184 171.577 589.568C172.27 589.941 172.814 590.475 173.209 591.168C173.614 591.861 173.817 592.661 173.817 593.568C173.817 594.475 173.609 595.275 173.193 595.968C172.787 596.661 172.233 597.2 171.529 597.584C170.835 597.957 170.057 598.144 169.193 598.144ZM169.193 596.192C169.598 596.192 169.977 596.096 170.329 595.904C170.691 595.701 170.979 595.403 171.193 595.008C171.406 594.613 171.513 594.133 171.513 593.568C171.513 592.725 171.289 592.08 170.841 591.632C170.403 591.173 169.865 590.944 169.225 590.944C168.585 590.944 168.046 591.173 167.609 591.632C167.182 592.08 166.969 592.725 166.969 593.568C166.969 594.411 167.177 595.061 167.593 595.52C168.019 595.968 168.553 596.192 169.193 596.192ZM179.412 588.992C180.073 588.992 180.655 589.125 181.156 589.392C181.657 589.648 182.052 589.984 182.34 590.4V589.136H184.596V598.064C184.596 598.885 184.431 599.616 184.1 600.256C183.769 600.907 183.273 601.419 182.612 601.792C181.951 602.176 181.151 602.368 180.212 602.368C178.953 602.368 177.919 602.075 177.108 601.488C176.308 600.901 175.855 600.101 175.748 599.088H177.972C178.089 599.493 178.34 599.813 178.724 600.048C179.119 600.293 179.593 600.416 180.148 600.416C180.799 600.416 181.327 600.219 181.732 599.824C182.137 599.44 182.34 598.853 182.34 598.064V596.688C182.052 597.104 181.652 597.451 181.14 597.728C180.639 598.005 180.063 598.144 179.412 598.144C178.665 598.144 177.983 597.952 177.364 597.568C176.745 597.184 176.255 596.645 175.892 595.952C175.54 595.248 175.364 594.443 175.364 593.536C175.364 592.64 175.54 591.845 175.892 591.152C176.255 590.459 176.74 589.925 177.348 589.552C177.967 589.179 178.655 588.992 179.412 588.992ZM182.34 593.568C182.34 593.024 182.233 592.56 182.02 592.176C181.807 591.781 181.519 591.483 181.156 591.28C180.793 591.067 180.404 590.96 179.988 590.96C179.572 590.96 179.188 591.061 178.836 591.264C178.484 591.467 178.196 591.765 177.972 592.16C177.759 592.544 177.652 593.003 177.652 593.536C177.652 594.069 177.759 594.539 177.972 594.944C178.196 595.339 178.484 595.643 178.836 595.856C179.199 596.069 179.583 596.176 179.988 596.176C180.404 596.176 180.793 596.075 181.156 595.872C181.519 595.659 181.807 595.36 182.02 594.976C182.233 594.581 182.34 594.112 182.34 593.568ZM188.4 588.08C188.005 588.08 187.674 587.957 187.408 587.712C187.152 587.456 187.024 587.141 187.024 586.768C187.024 586.395 187.152 586.085 187.408 585.84C187.674 585.584 188.005 585.456 188.4 585.456C188.794 585.456 189.12 585.584 189.376 585.84C189.642 586.085 189.776 586.395 189.776 586.768C189.776 587.141 189.642 587.456 189.376 587.712C189.12 587.957 188.794 588.08 188.4 588.08ZM189.504 589.136V598H187.264V589.136H189.504ZM197.109 589.008C198.165 589.008 199.018 589.344 199.669 590.016C200.319 590.677 200.645 591.605 200.645 592.8V598H198.405V593.104C198.405 592.4 198.229 591.861 197.877 591.488C197.525 591.104 197.045 590.912 196.437 590.912C195.818 590.912 195.327 591.104 194.965 591.488C194.613 591.861 194.437 592.4 194.437 593.104V598H192.197V589.136H194.437V590.24C194.735 589.856 195.114 589.557 195.573 589.344C196.042 589.12 196.554 589.008 197.109 589.008Z" fill="white"/>
</g>
<g filter="url(#filter4_d_41_426)">
<path d="M79.576 657.712C79.576 657.04 79.712 656.452 79.984 655.948C80.256 655.436 80.628 655.044 81.1 654.772C81.58 654.492 82.12 654.352 82.72 654.352C83.296 654.352 83.816 654.492 84.28 654.772C84.744 655.052 85.084 655.416 85.3 655.864V652.12H86.14V661H85.3V659.536C85.1 659.992 84.772 660.368 84.316 660.664C83.86 660.952 83.324 661.096 82.708 661.096C82.108 661.096 81.568 660.956 81.088 660.676C80.616 660.396 80.244 660 79.972 659.488C79.708 658.976 79.576 658.384 79.576 657.712ZM85.3 657.724C85.3 657.196 85.192 656.732 84.976 656.332C84.76 655.932 84.464 655.624 84.088 655.408C83.72 655.192 83.312 655.084 82.864 655.084C82.4 655.084 81.984 655.188 81.616 655.396C81.248 655.604 80.956 655.908 80.74 656.308C80.532 656.7 80.428 657.168 80.428 657.712C80.428 658.248 80.532 658.72 80.74 659.128C80.956 659.528 81.248 659.836 81.616 660.052C81.984 660.26 82.4 660.364 82.864 660.364C83.312 660.364 83.72 660.256 84.088 660.04C84.464 659.824 84.76 659.516 84.976 659.116C85.192 658.716 85.3 658.252 85.3 657.724ZM91.2857 661.096C90.6697 661.096 90.1137 660.96 89.6177 660.688C89.1297 660.408 88.7417 660.016 88.4537 659.512C88.1737 659 88.0337 658.404 88.0337 657.724C88.0337 657.044 88.1777 656.452 88.4657 655.948C88.7537 655.436 89.1457 655.044 89.6417 654.772C90.1377 654.492 90.6937 654.352 91.3097 654.352C91.9257 654.352 92.4817 654.492 92.9777 654.772C93.4817 655.044 93.8737 655.436 94.1537 655.948C94.4417 656.452 94.5857 657.044 94.5857 657.724C94.5857 658.396 94.4417 658.988 94.1537 659.5C93.8657 660.012 93.4697 660.408 92.9657 660.688C92.4617 660.96 91.9017 661.096 91.2857 661.096ZM91.2857 660.364C91.7177 660.364 92.1177 660.268 92.4857 660.076C92.8537 659.876 93.1497 659.58 93.3737 659.188C93.6057 658.788 93.7217 658.3 93.7217 657.724C93.7217 657.148 93.6097 656.664 93.3857 656.272C93.1617 655.872 92.8657 655.576 92.4977 655.384C92.1297 655.184 91.7297 655.084 91.2977 655.084C90.8657 655.084 90.4657 655.184 90.0977 655.384C89.7297 655.576 89.4337 655.872 89.2097 656.272C88.9937 656.664 88.8857 657.148 88.8857 657.724C88.8857 658.3 88.9937 658.788 89.2097 659.188C89.4337 659.58 89.7257 659.876 90.0857 660.076C90.4537 660.268 90.8537 660.364 91.2857 660.364ZM99.5489 654.328C100.333 654.328 100.973 654.572 101.469 655.06C101.965 655.54 102.213 656.24 102.213 657.16V661H101.385V657.256C101.385 656.544 101.205 656 100.845 655.624C100.493 655.248 100.009 655.06 99.3929 655.06C98.7609 655.06 98.2569 655.26 97.8809 655.66C97.5049 656.06 97.3169 656.648 97.3169 657.424V661H96.4769V654.448H97.3169V655.564C97.5249 655.164 97.8249 654.86 98.2169 654.652C98.6089 654.436 99.0529 654.328 99.5489 654.328ZM104.539 652.612H105.511L104.455 655.204H103.843L104.539 652.612ZM108.25 655.156V659.224C108.25 659.624 108.326 659.9 108.478 660.052C108.63 660.204 108.898 660.28 109.282 660.28H110.05V661H109.15C108.558 661 108.118 660.864 107.83 660.592C107.542 660.312 107.398 659.856 107.398 659.224V655.156H106.486V654.448H107.398V652.804H108.25V654.448H110.05V655.156H108.25ZM118.568 654.328C119.064 654.328 119.508 654.432 119.9 654.64C120.3 654.848 120.612 655.168 120.836 655.6C121.068 656.024 121.184 656.544 121.184 657.16V661H120.356V657.256C120.356 656.544 120.176 656 119.816 655.624C119.464 655.248 118.98 655.06 118.364 655.06C117.732 655.06 117.228 655.26 116.852 655.66C116.476 656.06 116.288 656.648 116.288 657.424V661H115.448V652.12H116.288V655.564C116.496 655.172 116.8 654.868 117.2 654.652C117.608 654.436 118.064 654.328 118.568 654.328ZM123.018 657.712C123.018 657.04 123.15 656.452 123.414 655.948C123.686 655.436 124.058 655.044 124.53 654.772C125.01 654.492 125.55 654.352 126.15 654.352C126.774 654.352 127.31 654.496 127.758 654.784C128.214 655.072 128.542 655.44 128.742 655.888V654.448H129.582V661H128.742V659.548C128.534 659.996 128.202 660.368 127.746 660.664C127.298 660.952 126.762 661.096 126.138 661.096C125.546 661.096 125.01 660.956 124.53 660.676C124.058 660.396 123.686 660 123.414 659.488C123.15 658.976 123.018 658.384 123.018 657.712ZM128.742 657.724C128.742 657.196 128.634 656.732 128.418 656.332C128.202 655.932 127.906 655.624 127.53 655.408C127.162 655.192 126.754 655.084 126.306 655.084C125.842 655.084 125.426 655.188 125.058 655.396C124.69 655.604 124.398 655.908 124.182 656.308C123.974 656.7 123.87 657.168 123.87 657.712C123.87 658.248 123.974 658.72 124.182 659.128C124.398 659.528 124.69 659.836 125.058 660.052C125.426 660.26 125.842 660.364 126.306 660.364C126.754 660.364 127.162 660.256 127.53 660.04C127.906 659.824 128.202 659.516 128.418 659.116C128.634 658.716 128.742 658.252 128.742 657.724ZM134.188 660.184L136.396 654.448H137.284L134.656 661H133.708L131.08 654.448H131.98L134.188 660.184ZM144.71 657.388C144.71 657.676 144.702 657.896 144.686 658.048H139.25C139.274 658.544 139.394 658.968 139.61 659.32C139.826 659.672 140.11 659.94 140.462 660.124C140.814 660.3 141.198 660.388 141.614 660.388C142.158 660.388 142.614 660.256 142.982 659.992C143.358 659.728 143.606 659.372 143.726 658.924H144.614C144.454 659.564 144.11 660.088 143.582 660.496C143.062 660.896 142.406 661.096 141.614 661.096C140.998 661.096 140.446 660.96 139.958 660.688C139.47 660.408 139.086 660.016 138.806 659.512C138.534 659 138.398 658.404 138.398 657.724C138.398 657.044 138.534 656.448 138.806 655.936C139.078 655.424 139.458 655.032 139.946 654.76C140.434 654.488 140.99 654.352 141.614 654.352C142.238 654.352 142.782 654.488 143.246 654.76C143.718 655.032 144.078 655.4 144.326 655.864C144.582 656.32 144.71 656.828 144.71 657.388ZM143.858 657.364C143.866 656.876 143.766 656.46 143.558 656.116C143.358 655.772 143.082 655.512 142.73 655.336C142.378 655.16 141.994 655.072 141.578 655.072C140.954 655.072 140.422 655.272 139.982 655.672C139.542 656.072 139.298 656.636 139.25 657.364H143.858ZM149.876 657.712C149.876 657.04 150.008 656.452 150.272 655.948C150.544 655.436 150.916 655.044 151.388 654.772C151.868 654.492 152.408 654.352 153.008 654.352C153.632 654.352 154.168 654.496 154.616 654.784C155.072 655.072 155.4 655.44 155.6 655.888V654.448H156.44V661H155.6V659.548C155.392 659.996 155.06 660.368 154.604 660.664C154.156 660.952 153.62 661.096 152.996 661.096C152.404 661.096 151.868 660.956 151.388 660.676C150.916 660.396 150.544 660 150.272 659.488C150.008 658.976 149.876 658.384 149.876 657.712ZM155.6 657.724C155.6 657.196 155.492 656.732 155.276 656.332C155.06 655.932 154.764 655.624 154.388 655.408C154.02 655.192 153.612 655.084 153.164 655.084C152.7 655.084 152.284 655.188 151.916 655.396C151.548 655.604 151.256 655.908 151.04 656.308C150.832 656.7 150.728 657.168 150.728 657.712C150.728 658.248 150.832 658.72 151.04 659.128C151.256 659.528 151.548 659.836 151.916 660.052C152.284 660.26 152.7 660.364 153.164 660.364C153.612 660.364 154.02 660.256 154.388 660.04C154.764 659.824 155.06 659.516 155.276 659.116C155.492 658.716 155.6 658.252 155.6 657.724ZM161.789 654.328C162.573 654.328 163.213 654.572 163.709 655.06C164.206 655.54 164.454 656.24 164.454 657.16V661H163.625V657.256C163.625 656.544 163.446 656 163.086 655.624C162.733 655.248 162.249 655.06 161.633 655.06C161.001 655.06 160.497 655.26 160.121 655.66C159.745 656.06 159.557 656.648 159.557 657.424V661H158.717V654.448H159.557V655.564C159.765 655.164 160.065 654.86 160.457 654.652C160.849 654.436 161.293 654.328 161.789 654.328ZM169.94 657.712C169.94 657.04 170.072 656.452 170.336 655.948C170.608 655.436 170.98 655.044 171.452 654.772C171.932 654.492 172.472 654.352 173.072 654.352C173.696 654.352 174.232 654.496 174.68 654.784C175.136 655.072 175.464 655.44 175.664 655.888V654.448H176.504V661H175.664V659.548C175.456 659.996 175.124 660.368 174.668 660.664C174.22 660.952 173.684 661.096 173.06 661.096C172.468 661.096 171.932 660.956 171.452 660.676C170.98 660.396 170.608 660 170.336 659.488C170.072 658.976 169.94 658.384 169.94 657.712ZM175.664 657.724C175.664 657.196 175.556 656.732 175.34 656.332C175.124 655.932 174.828 655.624 174.452 655.408C174.084 655.192 173.676 655.084 173.228 655.084C172.764 655.084 172.348 655.188 171.98 655.396C171.612 655.604 171.32 655.908 171.104 656.308C170.896 656.7 170.792 657.168 170.792 657.712C170.792 658.248 170.896 658.72 171.104 659.128C171.32 659.528 171.612 659.836 171.98 660.052C172.348 660.26 172.764 660.364 173.228 660.364C173.676 660.364 174.084 660.256 174.452 660.04C174.828 659.824 175.124 659.516 175.34 659.116C175.556 658.716 175.664 658.252 175.664 657.724ZM178.398 657.724C178.398 657.044 178.534 656.452 178.806 655.948C179.078 655.436 179.454 655.044 179.934 654.772C180.414 654.492 180.962 654.352 181.578 654.352C182.386 654.352 183.05 654.552 183.57 654.952C184.098 655.352 184.438 655.896 184.59 656.584H183.69C183.578 656.112 183.334 655.744 182.958 655.48C182.59 655.208 182.13 655.072 181.578 655.072C181.138 655.072 180.742 655.172 180.39 655.372C180.038 655.572 179.758 655.872 179.55 656.272C179.35 656.664 179.25 657.148 179.25 657.724C179.25 658.3 179.35 658.788 179.55 659.188C179.758 659.588 180.038 659.888 180.39 660.088C180.742 660.288 181.138 660.388 181.578 660.388C182.13 660.388 182.59 660.256 182.958 659.992C183.334 659.72 183.578 659.344 183.69 658.864H184.59C184.438 659.536 184.098 660.076 183.57 660.484C183.042 660.892 182.378 661.096 181.578 661.096C180.962 661.096 180.414 660.96 179.934 660.688C179.454 660.408 179.078 660.016 178.806 659.512C178.534 659 178.398 658.404 178.398 657.724ZM186.117 657.724C186.117 657.044 186.253 656.452 186.525 655.948C186.797 655.436 187.173 655.044 187.653 654.772C188.133 654.492 188.681 654.352 189.297 654.352C190.105 654.352 190.769 654.552 191.289 654.952C191.817 655.352 192.157 655.896 192.309 656.584H191.409C191.297 656.112 191.053 655.744 190.677 655.48C190.309 655.208 189.849 655.072 189.297 655.072C188.857 655.072 188.461 655.172 188.109 655.372C187.757 655.572 187.477 655.872 187.269 656.272C187.069 656.664 186.969 657.148 186.969 657.724C186.969 658.3 187.069 658.788 187.269 659.188C187.477 659.588 187.757 659.888 188.109 660.088C188.461 660.288 188.857 660.388 189.297 660.388C189.849 660.388 190.309 660.256 190.677 659.992C191.053 659.72 191.297 659.344 191.409 658.864H192.309C192.157 659.536 191.817 660.076 191.289 660.484C190.761 660.892 190.097 661.096 189.297 661.096C188.681 661.096 188.133 660.96 187.653 660.688C187.173 660.408 186.797 660.016 186.525 659.512C186.253 659 186.117 658.404 186.117 657.724ZM197.089 661.096C196.473 661.096 195.917 660.96 195.421 660.688C194.933 660.408 194.545 660.016 194.257 659.512C193.977 659 193.837 658.404 193.837 657.724C193.837 657.044 193.981 656.452 194.269 655.948C194.557 655.436 194.949 655.044 195.445 654.772C195.941 654.492 196.497 654.352 197.113 654.352C197.729 654.352 198.285 654.492 198.781 654.772C199.285 655.044 199.677 655.436 199.957 655.948C200.245 656.452 200.389 657.044 200.389 657.724C200.389 658.396 200.245 658.988 199.957 659.5C199.669 660.012 199.273 660.408 198.769 660.688C198.265 660.96 197.705 661.096 197.089 661.096ZM197.089 660.364C197.521 660.364 197.921 660.268 198.289 660.076C198.657 659.876 198.953 659.58 199.177 659.188C199.409 658.788 199.525 658.3 199.525 657.724C199.525 657.148 199.413 656.664 199.189 656.272C198.965 655.872 198.669 655.576 198.301 655.384C197.933 655.184 197.533 655.084 197.101 655.084C196.669 655.084 196.269 655.184 195.901 655.384C195.533 655.576 195.237 655.872 195.013 656.272C194.797 656.664 194.689 657.148 194.689 657.724C194.689 658.3 194.797 658.788 195.013 659.188C195.237 659.58 195.529 659.876 195.889 660.076C196.257 660.268 196.657 660.364 197.089 660.364ZM207.956 654.448V661H207.116V659.848C206.924 660.256 206.628 660.568 206.228 660.784C205.828 661 205.38 661.108 204.884 661.108C204.1 661.108 203.46 660.868 202.964 660.388C202.468 659.9 202.22 659.196 202.22 658.276V654.448H203.048V658.18C203.048 658.892 203.224 659.436 203.576 659.812C203.936 660.188 204.424 660.376 205.04 660.376C205.672 660.376 206.176 660.176 206.552 659.776C206.928 659.376 207.116 658.788 207.116 658.012V654.448H207.956ZM213.306 654.328C214.09 654.328 214.73 654.572 215.226 655.06C215.722 655.54 215.97 656.24 215.97 657.16V661H215.142V657.256C215.142 656.544 214.962 656 214.602 655.624C214.25 655.248 213.766 655.06 213.15 655.06C212.518 655.06 212.014 655.26 211.638 655.66C211.262 656.06 211.074 656.648 211.074 657.424V661H210.234V654.448H211.074V655.564C211.282 655.164 211.582 654.86 211.974 654.652C212.366 654.436 212.81 654.328 213.306 654.328ZM219.279 655.156V659.224C219.279 659.624 219.355 659.9 219.507 660.052C219.659 660.204 219.927 660.28 220.311 660.28H221.079V661H220.179C219.587 661 219.147 660.864 218.859 660.592C218.571 660.312 218.427 659.856 218.427 659.224V655.156H217.515V654.448H218.427V652.804H219.279V654.448H221.079V655.156H219.279ZM224.853 652.504C225.365 652.504 225.817 652.604 226.209 652.804C226.609 653.004 226.917 653.292 227.133 653.668C227.357 654.036 227.469 654.464 227.469 654.952C227.469 655.816 227.201 656.452 226.665 656.86C226.137 657.26 225.413 657.46 224.493 657.46L224.457 658.78H223.737L223.689 656.86H224.001C224.825 656.86 225.473 656.732 225.945 656.476C226.425 656.212 226.665 655.704 226.665 654.952C226.665 654.424 226.497 654.004 226.161 653.692C225.833 653.38 225.397 653.224 224.853 653.224C224.309 653.224 223.877 653.372 223.557 653.668C223.237 653.964 223.077 654.368 223.077 654.88H222.273C222.273 654.4 222.381 653.984 222.597 653.632C222.821 653.272 223.125 652.996 223.509 652.804C223.901 652.604 224.349 652.504 224.853 652.504ZM224.097 661.06C223.921 661.06 223.773 661 223.653 660.88C223.541 660.76 223.485 660.612 223.485 660.436C223.485 660.26 223.541 660.116 223.653 660.004C223.773 659.884 223.921 659.824 224.097 659.824C224.265 659.824 224.405 659.884 224.517 660.004C224.637 660.116 224.697 660.26 224.697 660.436C224.697 660.612 224.637 660.76 224.517 660.88C224.405 661 224.265 661.06 224.097 661.06Z" fill="#060524"/>
<path d="M79.576 657.712C79.576 657.04 79.712 656.452 79.984 655.948C80.256 655.436 80.628 655.044 81.1 654.772C81.58 654.492 82.12 654.352 82.72 654.352C83.296 654.352 83.816 654.492 84.28 654.772C84.744 655.052 85.084 655.416 85.3 655.864V652.12H86.14V661H85.3V659.536C85.1 659.992 84.772 660.368 84.316 660.664C83.86 660.952 83.324 661.096 82.708 661.096C82.108 661.096 81.568 660.956 81.088 660.676C80.616 660.396 80.244 660 79.972 659.488C79.708 658.976 79.576 658.384 79.576 657.712ZM85.3 657.724C85.3 657.196 85.192 656.732 84.976 656.332C84.76 655.932 84.464 655.624 84.088 655.408C83.72 655.192 83.312 655.084 82.864 655.084C82.4 655.084 81.984 655.188 81.616 655.396C81.248 655.604 80.956 655.908 80.74 656.308C80.532 656.7 80.428 657.168 80.428 657.712C80.428 658.248 80.532 658.72 80.74 659.128C80.956 659.528 81.248 659.836 81.616 660.052C81.984 660.26 82.4 660.364 82.864 660.364C83.312 660.364 83.72 660.256 84.088 660.04C84.464 659.824 84.76 659.516 84.976 659.116C85.192 658.716 85.3 658.252 85.3 657.724ZM91.2857 661.096C90.6697 661.096 90.1137 660.96 89.6177 660.688C89.1297 660.408 88.7417 660.016 88.4537 659.512C88.1737 659 88.0337 658.404 88.0337 657.724C88.0337 657.044 88.1777 656.452 88.4657 655.948C88.7537 655.436 89.1457 655.044 89.6417 654.772C90.1377 654.492 90.6937 654.352 91.3097 654.352C91.9257 654.352 92.4817 654.492 92.9777 654.772C93.4817 655.044 93.8737 655.436 94.1537 655.948C94.4417 656.452 94.5857 657.044 94.5857 657.724C94.5857 658.396 94.4417 658.988 94.1537 659.5C93.8657 660.012 93.4697 660.408 92.9657 660.688C92.4617 660.96 91.9017 661.096 91.2857 661.096ZM91.2857 660.364C91.7177 660.364 92.1177 660.268 92.4857 660.076C92.8537 659.876 93.1497 659.58 93.3737 659.188C93.6057 658.788 93.7217 658.3 93.7217 657.724C93.7217 657.148 93.6097 656.664 93.3857 656.272C93.1617 655.872 92.8657 655.576 92.4977 655.384C92.1297 655.184 91.7297 655.084 91.2977 655.084C90.8657 655.084 90.4657 655.184 90.0977 655.384C89.7297 655.576 89.4337 655.872 89.2097 656.272C88.9937 656.664 88.8857 657.148 88.8857 657.724C88.8857 658.3 88.9937 658.788 89.2097 659.188C89.4337 659.58 89.7257 659.876 90.0857 660.076C90.4537 660.268 90.8537 660.364 91.2857 660.364ZM99.5489 654.328C100.333 654.328 100.973 654.572 101.469 655.06C101.965 655.54 102.213 656.24 102.213 657.16V661H101.385V657.256C101.385 656.544 101.205 656 100.845 655.624C100.493 655.248 100.009 655.06 99.3929 655.06C98.7609 655.06 98.2569 655.26 97.8809 655.66C97.5049 656.06 97.3169 656.648 97.3169 657.424V661H96.4769V654.448H97.3169V655.564C97.5249 655.164 97.8249 654.86 98.2169 654.652C98.6089 654.436 99.0529 654.328 99.5489 654.328ZM104.539 652.612H105.511L104.455 655.204H103.843L104.539 652.612ZM108.25 655.156V659.224C108.25 659.624 108.326 659.9 108.478 660.052C108.63 660.204 108.898 660.28 109.282 660.28H110.05V661H109.15C108.558 661 108.118 660.864 107.83 660.592C107.542 660.312 107.398 659.856 107.398 659.224V655.156H106.486V654.448H107.398V652.804H108.25V654.448H110.05V655.156H108.25ZM118.568 654.328C119.064 654.328 119.508 654.432 119.9 654.64C120.3 654.848 120.612 655.168 120.836 655.6C121.068 656.024 121.184 656.544 121.184 657.16V661H120.356V657.256C120.356 656.544 120.176 656 119.816 655.624C119.464 655.248 118.98 655.06 118.364 655.06C117.732 655.06 117.228 655.26 116.852 655.66C116.476 656.06 116.288 656.648 116.288 657.424V661H115.448V652.12H116.288V655.564C116.496 655.172 116.8 654.868 117.2 654.652C117.608 654.436 118.064 654.328 118.568 654.328ZM123.018 657.712C123.018 657.04 123.15 656.452 123.414 655.948C123.686 655.436 124.058 655.044 124.53 654.772C125.01 654.492 125.55 654.352 126.15 654.352C126.774 654.352 127.31 654.496 127.758 654.784C128.214 655.072 128.542 655.44 128.742 655.888V654.448H129.582V661H128.742V659.548C128.534 659.996 128.202 660.368 127.746 660.664C127.298 660.952 126.762 661.096 126.138 661.096C125.546 661.096 125.01 660.956 124.53 660.676C124.058 660.396 123.686 660 123.414 659.488C123.15 658.976 123.018 658.384 123.018 657.712ZM128.742 657.724C128.742 657.196 128.634 656.732 128.418 656.332C128.202 655.932 127.906 655.624 127.53 655.408C127.162 655.192 126.754 655.084 126.306 655.084C125.842 655.084 125.426 655.188 125.058 655.396C124.69 655.604 124.398 655.908 124.182 656.308C123.974 656.7 123.87 657.168 123.87 657.712C123.87 658.248 123.974 658.72 124.182 659.128C124.398 659.528 124.69 659.836 125.058 660.052C125.426 660.26 125.842 660.364 126.306 660.364C126.754 660.364 127.162 660.256 127.53 660.04C127.906 659.824 128.202 659.516 128.418 659.116C128.634 658.716 128.742 658.252 128.742 657.724ZM134.188 660.184L136.396 654.448H137.284L134.656 661H133.708L131.08 654.448H131.98L134.188 660.184ZM144.71 657.388C144.71 657.676 144.702 657.896 144.686 658.048H139.25C139.274 658.544 139.394 658.968 139.61 659.32C139.826 659.672 140.11 659.94 140.462 660.124C140.814 660.3 141.198 660.388 141.614 660.388C142.158 660.388 142.614 660.256 142.982 659.992C143.358 659.728 143.606 659.372 143.726 658.924H144.614C144.454 659.564 144.11 660.088 143.582 660.496C143.062 660.896 142.406 661.096 141.614 661.096C140.998 661.096 140.446 660.96 139.958 660.688C139.47 660.408 139.086 660.016 138.806 659.512C138.534 659 138.398 658.404 138.398 657.724C138.398 657.044 138.534 656.448 138.806 655.936C139.078 655.424 139.458 655.032 139.946 654.76C140.434 654.488 140.99 654.352 141.614 654.352C142.238 654.352 142.782 654.488 143.246 654.76C143.718 655.032 144.078 655.4 144.326 655.864C144.582 656.32 144.71 656.828 144.71 657.388ZM143.858 657.364C143.866 656.876 143.766 656.46 143.558 656.116C143.358 655.772 143.082 655.512 142.73 655.336C142.378 655.16 141.994 655.072 141.578 655.072C140.954 655.072 140.422 655.272 139.982 655.672C139.542 656.072 139.298 656.636 139.25 657.364H143.858ZM149.876 657.712C149.876 657.04 150.008 656.452 150.272 655.948C150.544 655.436 150.916 655.044 151.388 654.772C151.868 654.492 152.408 654.352 153.008 654.352C153.632 654.352 154.168 654.496 154.616 654.784C155.072 655.072 155.4 655.44 155.6 655.888V654.448H156.44V661H155.6V659.548C155.392 659.996 155.06 660.368 154.604 660.664C154.156 660.952 153.62 661.096 152.996 661.096C152.404 661.096 151.868 660.956 151.388 660.676C150.916 660.396 150.544 660 150.272 659.488C150.008 658.976 149.876 658.384 149.876 657.712ZM155.6 657.724C155.6 657.196 155.492 656.732 155.276 656.332C155.06 655.932 154.764 655.624 154.388 655.408C154.02 655.192 153.612 655.084 153.164 655.084C152.7 655.084 152.284 655.188 151.916 655.396C151.548 655.604 151.256 655.908 151.04 656.308C150.832 656.7 150.728 657.168 150.728 657.712C150.728 658.248 150.832 658.72 151.04 659.128C151.256 659.528 151.548 659.836 151.916 660.052C152.284 660.26 152.7 660.364 153.164 660.364C153.612 660.364 154.02 660.256 154.388 660.04C154.764 659.824 155.06 659.516 155.276 659.116C155.492 658.716 155.6 658.252 155.6 657.724ZM161.789 654.328C162.573 654.328 163.213 654.572 163.709 655.06C164.206 655.54 164.454 656.24 164.454 657.16V661H163.625V657.256C163.625 656.544 163.446 656 163.086 655.624C162.733 655.248 162.249 655.06 161.633 655.06C161.001 655.06 160.497 655.26 160.121 655.66C159.745 656.06 159.557 656.648 159.557 657.424V661H158.717V654.448H159.557V655.564C159.765 655.164 160.065 654.86 160.457 654.652C160.849 654.436 161.293 654.328 161.789 654.328ZM169.94 657.712C169.94 657.04 170.072 656.452 170.336 655.948C170.608 655.436 170.98 655.044 171.452 654.772C171.932 654.492 172.472 654.352 173.072 654.352C173.696 654.352 174.232 654.496 174.68 654.784C175.136 655.072 175.464 655.44 175.664 655.888V654.448H176.504V661H175.664V659.548C175.456 659.996 175.124 660.368 174.668 660.664C174.22 660.952 173.684 661.096 173.06 661.096C172.468 661.096 171.932 660.956 171.452 660.676C170.98 660.396 170.608 660 170.336 659.488C170.072 658.976 169.94 658.384 169.94 657.712ZM175.664 657.724C175.664 657.196 175.556 656.732 175.34 656.332C175.124 655.932 174.828 655.624 174.452 655.408C174.084 655.192 173.676 655.084 173.228 655.084C172.764 655.084 172.348 655.188 171.98 655.396C171.612 655.604 171.32 655.908 171.104 656.308C170.896 656.7 170.792 657.168 170.792 657.712C170.792 658.248 170.896 658.72 171.104 659.128C171.32 659.528 171.612 659.836 171.98 660.052C172.348 660.26 172.764 660.364 173.228 660.364C173.676 660.364 174.084 660.256 174.452 660.04C174.828 659.824 175.124 659.516 175.34 659.116C175.556 658.716 175.664 658.252 175.664 657.724ZM178.398 657.724C178.398 657.044 178.534 656.452 178.806 655.948C179.078 655.436 179.454 655.044 179.934 654.772C180.414 654.492 180.962 654.352 181.578 654.352C182.386 654.352 183.05 654.552 183.57 654.952C184.098 655.352 184.438 655.896 184.59 656.584H183.69C183.578 656.112 183.334 655.744 182.958 655.48C182.59 655.208 182.13 655.072 181.578 655.072C181.138 655.072 180.742 655.172 180.39 655.372C180.038 655.572 179.758 655.872 179.55 656.272C179.35 656.664 179.25 657.148 179.25 657.724C179.25 658.3 179.35 658.788 179.55 659.188C179.758 659.588 180.038 659.888 180.39 660.088C180.742 660.288 181.138 660.388 181.578 660.388C182.13 660.388 182.59 660.256 182.958 659.992C183.334 659.72 183.578 659.344 183.69 658.864H184.59C184.438 659.536 184.098 660.076 183.57 660.484C183.042 660.892 182.378 661.096 181.578 661.096C180.962 661.096 180.414 660.96 179.934 660.688C179.454 660.408 179.078 660.016 178.806 659.512C178.534 659 178.398 658.404 178.398 657.724ZM186.117 657.724C186.117 657.044 186.253 656.452 186.525 655.948C186.797 655.436 187.173 655.044 187.653 654.772C188.133 654.492 188.681 654.352 189.297 654.352C190.105 654.352 190.769 654.552 191.289 654.952C191.817 655.352 192.157 655.896 192.309 656.584H191.409C191.297 656.112 191.053 655.744 190.677 655.48C190.309 655.208 189.849 655.072 189.297 655.072C188.857 655.072 188.461 655.172 188.109 655.372C187.757 655.572 187.477 655.872 187.269 656.272C187.069 656.664 186.969 657.148 186.969 657.724C186.969 658.3 187.069 658.788 187.269 659.188C187.477 659.588 187.757 659.888 188.109 660.088C188.461 660.288 188.857 660.388 189.297 660.388C189.849 660.388 190.309 660.256 190.677 659.992C191.053 659.72 191.297 659.344 191.409 658.864H192.309C192.157 659.536 191.817 660.076 191.289 660.484C190.761 660.892 190.097 661.096 189.297 661.096C188.681 661.096 188.133 660.96 187.653 660.688C187.173 660.408 186.797 660.016 186.525 659.512C186.253 659 186.117 658.404 186.117 657.724ZM197.089 661.096C196.473 661.096 195.917 660.96 195.421 660.688C194.933 660.408 194.545 660.016 194.257 659.512C193.977 659 193.837 658.404 193.837 657.724C193.837 657.044 193.981 656.452 194.269 655.948C194.557 655.436 194.949 655.044 195.445 654.772C195.941 654.492 196.497 654.352 197.113 654.352C197.729 654.352 198.285 654.492 198.781 654.772C199.285 655.044 199.677 655.436 199.957 655.948C200.245 656.452 200.389 657.044 200.389 657.724C200.389 658.396 200.245 658.988 199.957 659.5C199.669 660.012 199.273 660.408 198.769 660.688C198.265 660.96 197.705 661.096 197.089 661.096ZM197.089 660.364C197.521 660.364 197.921 660.268 198.289 660.076C198.657 659.876 198.953 659.58 199.177 659.188C199.409 658.788 199.525 658.3 199.525 657.724C199.525 657.148 199.413 656.664 199.189 656.272C198.965 655.872 198.669 655.576 198.301 655.384C197.933 655.184 197.533 655.084 197.101 655.084C196.669 655.084 196.269 655.184 195.901 655.384C195.533 655.576 195.237 655.872 195.013 656.272C194.797 656.664 194.689 657.148 194.689 657.724C194.689 658.3 194.797 658.788 195.013 659.188C195.237 659.58 195.529 659.876 195.889 660.076C196.257 660.268 196.657 660.364 197.089 660.364ZM207.956 654.448V661H207.116V659.848C206.924 660.256 206.628 660.568 206.228 660.784C205.828 661 205.38 661.108 204.884 661.108C204.1 661.108 203.46 660.868 202.964 660.388C202.468 659.9 202.22 659.196 202.22 658.276V654.448H203.048V658.18C203.048 658.892 203.224 659.436 203.576 659.812C203.936 660.188 204.424 660.376 205.04 660.376C205.672 660.376 206.176 660.176 206.552 659.776C206.928 659.376 207.116 658.788 207.116 658.012V654.448H207.956ZM213.306 654.328C214.09 654.328 214.73 654.572 215.226 655.06C215.722 655.54 215.97 656.24 215.97 657.16V661H215.142V657.256C215.142 656.544 214.962 656 214.602 655.624C214.25 655.248 213.766 655.06 213.15 655.06C212.518 655.06 212.014 655.26 211.638 655.66C211.262 656.06 211.074 656.648 211.074 657.424V661H210.234V654.448H211.074V655.564C211.282 655.164 211.582 654.86 211.974 654.652C212.366 654.436 212.81 654.328 213.306 654.328ZM219.279 655.156V659.224C219.279 659.624 219.355 659.9 219.507 660.052C219.659 660.204 219.927 660.28 220.311 660.28H221.079V661H220.179C219.587 661 219.147 660.864 218.859 660.592C218.571 660.312 218.427 659.856 218.427 659.224V655.156H217.515V654.448H218.427V652.804H219.279V654.448H221.079V655.156H219.279ZM224.853 652.504C225.365 652.504 225.817 652.604 226.209 652.804C226.609 653.004 226.917 653.292 227.133 653.668C227.357 654.036 227.469 654.464 227.469 654.952C227.469 655.816 227.201 656.452 226.665 656.86C226.137 657.26 225.413 657.46 224.493 657.46L224.457 658.78H223.737L223.689 656.86H224.001C224.825 656.86 225.473 656.732 225.945 656.476C226.425 656.212 226.665 655.704 226.665 654.952C226.665 654.424 226.497 654.004 226.161 653.692C225.833 653.38 225.397 653.224 224.853 653.224C224.309 653.224 223.877 653.372 223.557 653.668C223.237 653.964 223.077 654.368 223.077 654.88H222.273C222.273 654.4 222.381 653.984 222.597 653.632C222.821 653.272 223.125 652.996 223.509 652.804C223.901 652.604 224.349 652.504 224.853 652.504ZM224.097 661.06C223.921 661.06 223.773 661 223.653 660.88C223.541 660.76 223.485 660.612 223.485 660.436C223.485 660.26 223.541 660.116 223.653 660.004C223.773 659.884 223.921 659.824 224.097 659.824C224.265 659.824 224.405 659.884 224.517 660.004C224.637 660.116 224.697 660.26 224.697 660.436C224.697 660.612 224.637 660.76 224.517 660.88C224.405 661 224.265 661.06 224.097 661.06Z" fill="#070707" fill-opacity="0.48"/>
<path d="M235.522 661.084C234.97 661.084 234.482 660.988 234.058 660.796C233.642 660.604 233.314 660.336 233.074 659.992C232.834 659.648 232.706 659.264 232.69 658.84H233.578C233.618 659.248 233.798 659.608 234.118 659.92C234.438 660.224 234.906 660.376 235.522 660.376C236.09 660.376 236.538 660.232 236.866 659.944C237.202 659.648 237.37 659.276 237.37 658.828C237.37 658.468 237.278 658.18 237.094 657.964C236.91 657.74 236.682 657.576 236.41 657.472C236.138 657.36 235.762 657.24 235.282 657.112C234.722 656.96 234.278 656.812 233.95 656.668C233.622 656.524 233.342 656.3 233.11 655.996C232.878 655.692 232.762 655.28 232.762 654.76C232.762 654.328 232.874 653.944 233.098 653.608C233.322 653.264 233.638 652.996 234.046 652.804C234.454 652.612 234.922 652.516 235.45 652.516C236.226 652.516 236.85 652.708 237.322 653.092C237.802 653.468 238.078 653.956 238.15 654.556H237.238C237.182 654.212 236.994 653.908 236.674 653.644C236.354 653.372 235.922 653.236 235.378 653.236C234.874 653.236 234.454 653.372 234.118 653.644C233.782 653.908 233.614 654.272 233.614 654.736C233.614 655.088 233.706 655.372 233.89 655.588C234.074 655.804 234.302 655.968 234.574 656.08C234.854 656.192 235.23 656.312 235.702 656.44C236.246 656.592 236.686 656.744 237.022 656.896C237.358 657.04 237.642 657.264 237.874 657.568C238.106 657.872 238.222 658.28 238.222 658.792C238.222 659.184 238.118 659.556 237.91 659.908C237.702 660.26 237.394 660.544 236.986 660.76C236.578 660.976 236.09 661.084 235.522 661.084ZM240.625 653.212C240.457 653.212 240.313 653.152 240.193 653.032C240.073 652.912 240.013 652.764 240.013 652.588C240.013 652.412 240.073 652.268 240.193 652.156C240.313 652.036 240.457 651.976 240.625 651.976C240.793 651.976 240.937 652.036 241.057 652.156C241.177 652.268 241.237 652.412 241.237 652.588C241.237 652.764 241.177 652.912 241.057 653.032C240.937 653.152 240.793 653.212 240.625 653.212ZM241.045 654.448V661H240.205V654.448H241.045ZM246.056 654.352C246.672 654.352 247.208 654.496 247.664 654.784C248.12 655.072 248.448 655.436 248.648 655.876V654.448H249.488V661.168C249.488 661.768 249.356 662.3 249.092 662.764C248.836 663.228 248.476 663.584 248.012 663.832C247.548 664.088 247.02 664.216 246.428 664.216C245.588 664.216 244.888 664.016 244.328 663.616C243.776 663.216 243.432 662.672 243.296 661.984H244.124C244.268 662.44 244.54 662.804 244.94 663.076C245.348 663.348 245.844 663.484 246.428 663.484C246.852 663.484 247.232 663.392 247.568 663.208C247.904 663.032 248.168 662.768 248.36 662.416C248.552 662.064 248.648 661.648 248.648 661.168V659.548C248.44 659.996 248.108 660.368 247.652 660.664C247.204 660.952 246.672 661.096 246.056 661.096C245.456 661.096 244.916 660.956 244.436 660.676C243.964 660.396 243.592 660 243.32 659.488C243.056 658.976 242.924 658.384 242.924 657.712C242.924 657.04 243.056 656.452 243.32 655.948C243.592 655.436 243.964 655.044 244.436 654.772C244.916 654.492 245.456 654.352 246.056 654.352ZM248.648 657.724C248.648 657.196 248.54 656.732 248.324 656.332C248.108 655.932 247.812 655.624 247.436 655.408C247.068 655.192 246.66 655.084 246.212 655.084C245.748 655.084 245.332 655.188 244.964 655.396C244.596 655.604 244.304 655.908 244.088 656.308C243.88 656.7 243.776 657.168 243.776 657.712C243.776 658.248 243.88 658.72 244.088 659.128C244.304 659.528 244.596 659.836 244.964 660.052C245.332 660.26 245.748 660.364 246.212 660.364C246.66 660.364 247.068 660.256 247.436 660.04C247.812 659.824 248.108 659.516 248.324 659.116C248.54 658.716 248.648 658.252 248.648 657.724ZM254.837 654.328C255.621 654.328 256.261 654.572 256.757 655.06C257.253 655.54 257.501 656.24 257.501 657.16V661H256.673V657.256C256.673 656.544 256.493 656 256.133 655.624C255.781 655.248 255.297 655.06 254.681 655.06C254.049 655.06 253.545 655.26 253.169 655.66C252.793 656.06 252.605 656.648 252.605 657.424V661H251.765V654.448H252.605V655.564C252.813 655.164 253.113 654.86 253.505 654.652C253.897 654.436 254.341 654.328 254.837 654.328ZM264.176 652.612V657.892C264.176 658.724 264.372 659.34 264.764 659.74C265.164 660.14 265.708 660.34 266.396 660.34C267.084 660.34 267.62 660.144 268.004 659.752C268.396 659.352 268.592 658.732 268.592 657.892V652.612H269.432V657.88C269.432 658.944 269.148 659.744 268.58 660.28C268.02 660.816 267.288 661.084 266.384 661.084C265.48 661.084 264.744 660.816 264.176 660.28C263.616 659.744 263.336 658.944 263.336 657.88V652.612H264.176ZM272.494 655.888C272.702 655.448 273.03 655.084 273.478 654.796C273.934 654.5 274.474 654.352 275.098 654.352C275.69 654.352 276.222 654.492 276.694 654.772C277.174 655.044 277.546 655.436 277.81 655.948C278.082 656.452 278.218 657.04 278.218 657.712C278.218 658.384 278.082 658.976 277.81 659.488C277.546 660 277.174 660.396 276.694 660.676C276.222 660.956 275.69 661.096 275.098 661.096C274.482 661.096 273.946 660.952 273.49 660.664C273.034 660.368 272.702 660 272.494 659.56V664.096H271.666V654.448H272.494V655.888ZM277.366 657.712C277.366 657.168 277.258 656.7 277.042 656.308C276.834 655.908 276.546 655.604 276.178 655.396C275.81 655.188 275.394 655.084 274.93 655.084C274.482 655.084 274.07 655.192 273.694 655.408C273.326 655.624 273.034 655.932 272.818 656.332C272.602 656.732 272.494 657.196 272.494 657.724C272.494 658.252 272.602 658.716 272.818 659.116C273.034 659.516 273.326 659.824 273.694 660.04C274.07 660.256 274.482 660.364 274.93 660.364C275.394 660.364 275.81 660.26 276.178 660.052C276.546 659.836 276.834 659.528 277.042 659.128C277.258 658.72 277.366 658.248 277.366 657.712Z" fill="#00529E" fill-opacity="0.75"/>
</g>
<g filter="url(#filter5_d_41_426)">
<path d="M128.496 684.612V685.308H124.8V688.44H127.92V689.136H124.8V693H123.96V684.612H128.496ZM133.106 693.096C132.49 693.096 131.934 692.96 131.438 692.688C130.95 692.408 130.562 692.016 130.274 691.512C129.994 691 129.854 690.404 129.854 689.724C129.854 689.044 129.998 688.452 130.286 687.948C130.574 687.436 130.966 687.044 131.462 686.772C131.958 686.492 132.514 686.352 133.13 686.352C133.746 686.352 134.302 686.492 134.798 686.772C135.302 687.044 135.694 687.436 135.974 687.948C136.262 688.452 136.406 689.044 136.406 689.724C136.406 690.396 136.262 690.988 135.974 691.5C135.686 692.012 135.29 692.408 134.786 692.688C134.282 692.96 133.722 693.096 133.106 693.096ZM133.106 692.364C133.538 692.364 133.938 692.268 134.306 692.076C134.674 691.876 134.97 691.58 135.194 691.188C135.426 690.788 135.542 690.3 135.542 689.724C135.542 689.148 135.43 688.664 135.206 688.272C134.982 687.872 134.686 687.576 134.318 687.384C133.95 687.184 133.55 687.084 133.118 687.084C132.686 687.084 132.286 687.184 131.918 687.384C131.55 687.576 131.254 687.872 131.03 688.272C130.814 688.664 130.706 689.148 130.706 689.724C130.706 690.3 130.814 690.788 131.03 691.188C131.254 691.58 131.546 691.876 131.906 692.076C132.274 692.268 132.674 692.364 133.106 692.364ZM139.137 687.612C139.321 687.204 139.601 686.888 139.977 686.664C140.361 686.44 140.829 686.328 141.381 686.328V687.204H141.153C140.545 687.204 140.057 687.368 139.689 687.696C139.321 688.024 139.137 688.572 139.137 689.34V693H138.297V686.448H139.137V687.612ZM145.753 686.352C146.369 686.352 146.905 686.496 147.361 686.784C147.817 687.072 148.145 687.436 148.345 687.876V686.448H149.185V693.168C149.185 693.768 149.053 694.3 148.789 694.764C148.533 695.228 148.173 695.584 147.709 695.832C147.245 696.088 146.717 696.216 146.125 696.216C145.285 696.216 144.585 696.016 144.025 695.616C143.473 695.216 143.129 694.672 142.993 693.984H143.821C143.965 694.44 144.237 694.804 144.637 695.076C145.045 695.348 145.541 695.484 146.125 695.484C146.549 695.484 146.929 695.392 147.265 695.208C147.601 695.032 147.865 694.768 148.057 694.416C148.249 694.064 148.345 693.648 148.345 693.168V691.548C148.137 691.996 147.805 692.368 147.349 692.664C146.901 692.952 146.369 693.096 145.753 693.096C145.153 693.096 144.613 692.956 144.133 692.676C143.661 692.396 143.289 692 143.017 691.488C142.753 690.976 142.621 690.384 142.621 689.712C142.621 689.04 142.753 688.452 143.017 687.948C143.289 687.436 143.661 687.044 144.133 686.772C144.613 686.492 145.153 686.352 145.753 686.352ZM148.345 689.724C148.345 689.196 148.237 688.732 148.021 688.332C147.805 687.932 147.509 687.624 147.133 687.408C146.765 687.192 146.357 687.084 145.909 687.084C145.445 687.084 145.029 687.188 144.661 687.396C144.293 687.604 144.001 687.908 143.785 688.308C143.577 688.7 143.473 689.168 143.473 689.712C143.473 690.248 143.577 690.72 143.785 691.128C144.001 691.528 144.293 691.836 144.661 692.052C145.029 692.26 145.445 692.364 145.909 692.364C146.357 692.364 146.765 692.256 147.133 692.04C147.509 691.824 147.805 691.516 148.021 691.116C148.237 690.716 148.345 690.252 148.345 689.724ZM154.331 693.096C153.715 693.096 153.159 692.96 152.663 692.688C152.175 692.408 151.787 692.016 151.499 691.512C151.219 691 151.079 690.404 151.079 689.724C151.079 689.044 151.223 688.452 151.511 687.948C151.799 687.436 152.191 687.044 152.687 686.772C153.183 686.492 153.739 686.352 154.355 686.352C154.971 686.352 155.527 686.492 156.023 686.772C156.527 687.044 156.919 687.436 157.199 687.948C157.487 688.452 157.631 689.044 157.631 689.724C157.631 690.396 157.487 690.988 157.199 691.5C156.911 692.012 156.515 692.408 156.011 692.688C155.507 692.96 154.947 693.096 154.331 693.096ZM154.331 692.364C154.763 692.364 155.163 692.268 155.531 692.076C155.899 691.876 156.195 691.58 156.419 691.188C156.651 690.788 156.767 690.3 156.767 689.724C156.767 689.148 156.655 688.664 156.431 688.272C156.207 687.872 155.911 687.576 155.543 687.384C155.175 687.184 154.775 687.084 154.343 687.084C153.911 687.084 153.511 687.184 153.143 687.384C152.775 687.576 152.479 687.872 152.255 688.272C152.039 688.664 151.931 689.148 151.931 689.724C151.931 690.3 152.039 690.788 152.255 691.188C152.479 691.58 152.771 691.876 153.131 692.076C153.499 692.268 153.899 692.364 154.331 692.364ZM160.614 687.156V691.224C160.614 691.624 160.69 691.9 160.842 692.052C160.994 692.204 161.262 692.28 161.646 692.28H162.414V693H161.514C160.922 693 160.482 692.864 160.194 692.592C159.906 692.312 159.762 691.856 159.762 691.224V687.156H158.85V686.448H159.762V684.804H160.614V686.448H162.414V687.156H160.614ZM168.64 687.888C168.848 687.448 169.176 687.084 169.624 686.796C170.08 686.5 170.62 686.352 171.244 686.352C171.836 686.352 172.368 686.492 172.84 686.772C173.32 687.044 173.692 687.436 173.956 687.948C174.228 688.452 174.364 689.04 174.364 689.712C174.364 690.384 174.228 690.976 173.956 691.488C173.692 692 173.32 692.396 172.84 692.676C172.368 692.956 171.836 693.096 171.244 693.096C170.628 693.096 170.092 692.952 169.636 692.664C169.18 692.368 168.848 692 168.64 691.56V696.096H167.812V686.448H168.64V687.888ZM173.512 689.712C173.512 689.168 173.404 688.7 173.188 688.308C172.98 687.908 172.692 687.604 172.324 687.396C171.956 687.188 171.54 687.084 171.076 687.084C170.628 687.084 170.216 687.192 169.84 687.408C169.472 687.624 169.18 687.932 168.964 688.332C168.748 688.732 168.64 689.196 168.64 689.724C168.64 690.252 168.748 690.716 168.964 691.116C169.18 691.516 169.472 691.824 169.84 692.04C170.216 692.256 170.628 692.364 171.076 692.364C171.54 692.364 171.956 692.26 172.324 692.052C172.692 691.836 172.98 691.528 173.188 691.128C173.404 690.72 173.512 690.248 173.512 689.712ZM175.886 689.712C175.886 689.04 176.018 688.452 176.282 687.948C176.554 687.436 176.926 687.044 177.398 686.772C177.878 686.492 178.418 686.352 179.018 686.352C179.642 686.352 180.178 686.496 180.626 686.784C181.082 687.072 181.41 687.44 181.61 687.888V686.448H182.45V693H181.61V691.548C181.402 691.996 181.07 692.368 180.614 692.664C180.166 692.952 179.63 693.096 179.006 693.096C178.414 693.096 177.878 692.956 177.398 692.676C176.926 692.396 176.554 692 176.282 691.488C176.018 690.976 175.886 690.384 175.886 689.712ZM181.61 689.724C181.61 689.196 181.502 688.732 181.286 688.332C181.07 687.932 180.774 687.624 180.398 687.408C180.03 687.192 179.622 687.084 179.174 687.084C178.71 687.084 178.294 687.188 177.926 687.396C177.558 687.604 177.266 687.908 177.05 688.308C176.842 688.7 176.738 689.168 176.738 689.712C176.738 690.248 176.842 690.72 177.05 691.128C177.266 691.528 177.558 691.836 177.926 692.052C178.294 692.26 178.71 692.364 179.174 692.364C179.622 692.364 180.03 692.256 180.398 692.04C180.774 691.824 181.07 691.516 181.286 691.116C181.502 690.716 181.61 690.252 181.61 689.724ZM186.983 693.096C186.231 693.096 185.615 692.924 185.135 692.58C184.663 692.228 184.399 691.752 184.343 691.152H185.207C185.247 691.52 185.419 691.82 185.723 692.052C186.035 692.276 186.451 692.388 186.971 692.388C187.427 692.388 187.783 692.28 188.039 692.064C188.303 691.848 188.435 691.58 188.435 691.26C188.435 691.036 188.363 690.852 188.219 690.708C188.075 690.564 187.891 690.452 187.667 690.372C187.451 690.284 187.155 690.192 186.779 690.096C186.291 689.968 185.895 689.84 185.591 689.712C185.287 689.584 185.027 689.396 184.811 689.148C184.603 688.892 184.499 688.552 184.499 688.128C184.499 687.808 184.595 687.512 184.787 687.24C184.979 686.968 185.251 686.752 185.603 686.592C185.955 686.432 186.355 686.352 186.803 686.352C187.507 686.352 188.075 686.532 188.507 686.892C188.939 687.244 189.171 687.732 189.203 688.356H188.363C188.339 687.972 188.187 687.664 187.907 687.432C187.635 687.192 187.259 687.072 186.779 687.072C186.355 687.072 186.011 687.172 185.747 687.372C185.483 687.572 185.351 687.82 185.351 688.116C185.351 688.372 185.427 688.584 185.579 688.752C185.739 688.912 185.935 689.04 186.167 689.136C186.399 689.224 186.711 689.324 187.103 689.436C187.575 689.564 187.951 689.688 188.231 689.808C188.511 689.928 188.751 690.104 188.951 690.336C189.151 690.568 189.255 690.876 189.263 691.26C189.263 691.612 189.167 691.928 188.975 692.208C188.783 692.48 188.515 692.696 188.171 692.856C187.827 693.016 187.431 693.096 186.983 693.096ZM193.461 693.096C192.709 693.096 192.093 692.924 191.613 692.58C191.141 692.228 190.877 691.752 190.821 691.152H191.685C191.725 691.52 191.897 691.82 192.201 692.052C192.513 692.276 192.929 692.388 193.449 692.388C193.905 692.388 194.261 692.28 194.517 692.064C194.781 691.848 194.913 691.58 194.913 691.26C194.913 691.036 194.841 690.852 194.697 690.708C194.553 690.564 194.369 690.452 194.145 690.372C193.929 690.284 193.633 690.192 193.257 690.096C192.769 689.968 192.373 689.84 192.069 689.712C191.765 689.584 191.505 689.396 191.289 689.148C191.081 688.892 190.977 688.552 190.977 688.128C190.977 687.808 191.073 687.512 191.265 687.24C191.457 686.968 191.729 686.752 192.081 686.592C192.433 686.432 192.833 686.352 193.281 686.352C193.985 686.352 194.553 686.532 194.985 686.892C195.417 687.244 195.649 687.732 195.681 688.356H194.841C194.817 687.972 194.665 687.664 194.385 687.432C194.113 687.192 193.737 687.072 193.257 687.072C192.833 687.072 192.489 687.172 192.225 687.372C191.961 687.572 191.829 687.82 191.829 688.116C191.829 688.372 191.905 688.584 192.057 688.752C192.217 688.912 192.413 689.04 192.645 689.136C192.877 689.224 193.189 689.324 193.581 689.436C194.053 689.564 194.429 689.688 194.709 689.808C194.989 689.928 195.229 690.104 195.429 690.336C195.629 690.568 195.733 690.876 195.741 691.26C195.741 691.612 195.645 691.928 195.453 692.208C195.261 692.48 194.993 692.696 194.649 692.856C194.305 693.016 193.909 693.096 193.461 693.096ZM206.322 686.448L204.27 693H203.43L201.618 687.504L199.806 693H198.954L196.902 686.448H197.754L199.386 692.148L201.222 686.448H202.062L203.874 692.16L205.494 686.448H206.322ZM210.695 693.096C210.079 693.096 209.523 692.96 209.027 692.688C208.539 692.408 208.151 692.016 207.863 691.512C207.583 691 207.443 690.404 207.443 689.724C207.443 689.044 207.587 688.452 207.875 687.948C208.163 687.436 208.555 687.044 209.051 686.772C209.547 686.492 210.103 686.352 210.719 686.352C211.335 686.352 211.891 686.492 212.387 686.772C212.891 687.044 213.283 687.436 213.563 687.948C213.851 688.452 213.995 689.044 213.995 689.724C213.995 690.396 213.851 690.988 213.563 691.5C213.275 692.012 212.879 692.408 212.375 692.688C211.871 692.96 211.311 693.096 210.695 693.096ZM210.695 692.364C211.127 692.364 211.527 692.268 211.895 692.076C212.263 691.876 212.559 691.58 212.783 691.188C213.015 690.788 213.131 690.3 213.131 689.724C213.131 689.148 213.019 688.664 212.795 688.272C212.571 687.872 212.275 687.576 211.907 687.384C211.539 687.184 211.139 687.084 210.707 687.084C210.275 687.084 209.875 687.184 209.507 687.384C209.139 687.576 208.843 687.872 208.619 688.272C208.403 688.664 208.295 689.148 208.295 689.724C208.295 690.3 208.403 690.788 208.619 691.188C208.843 691.58 209.135 691.876 209.495 692.076C209.863 692.268 210.263 692.364 210.695 692.364ZM216.726 687.612C216.91 687.204 217.19 686.888 217.566 686.664C217.95 686.44 218.418 686.328 218.97 686.328V687.204H218.742C218.134 687.204 217.646 687.368 217.278 687.696C216.91 688.024 216.726 688.572 216.726 689.34V693H215.886V686.448H216.726V687.612ZM220.21 689.712C220.21 689.04 220.346 688.452 220.618 687.948C220.89 687.436 221.262 687.044 221.734 686.772C222.214 686.492 222.754 686.352 223.354 686.352C223.93 686.352 224.45 686.492 224.914 686.772C225.378 687.052 225.718 687.416 225.934 687.864V684.12H226.774V693H225.934V691.536C225.734 691.992 225.406 692.368 224.95 692.664C224.494 692.952 223.958 693.096 223.342 693.096C222.742 693.096 222.202 692.956 221.722 692.676C221.25 692.396 220.878 692 220.606 691.488C220.342 690.976 220.21 690.384 220.21 689.712ZM225.934 689.724C225.934 689.196 225.826 688.732 225.61 688.332C225.394 687.932 225.098 687.624 224.722 687.408C224.354 687.192 223.946 687.084 223.498 687.084C223.034 687.084 222.618 687.188 222.25 687.396C221.882 687.604 221.59 687.908 221.374 688.308C221.166 688.7 221.062 689.168 221.062 689.712C221.062 690.248 221.166 690.72 221.374 691.128C221.59 691.528 221.882 691.836 222.25 692.052C222.618 692.26 223.034 692.364 223.498 692.364C223.946 692.364 224.354 692.256 224.722 692.04C225.098 691.824 225.394 691.516 225.61 691.116C225.826 690.716 225.934 690.252 225.934 689.724ZM231.079 684.504C231.591 684.504 232.043 684.604 232.435 684.804C232.835 685.004 233.143 685.292 233.359 685.668C233.583 686.036 233.695 686.464 233.695 686.952C233.695 687.816 233.427 688.452 232.891 688.86C232.363 689.26 231.639 689.46 230.719 689.46L230.683 690.78H229.963L229.915 688.86H230.227C231.051 688.86 231.699 688.732 232.171 688.476C232.651 688.212 232.891 687.704 232.891 686.952C232.891 686.424 232.723 686.004 232.387 685.692C232.059 685.38 231.623 685.224 231.079 685.224C230.535 685.224 230.103 685.372 229.783 685.668C229.463 685.964 229.303 686.368 229.303 686.88H228.499C228.499 686.4 228.607 685.984 228.823 685.632C229.047 685.272 229.351 684.996 229.735 684.804C230.127 684.604 230.575 684.504 231.079 684.504ZM230.323 693.06C230.147 693.06 229.999 693 229.879 692.88C229.767 692.76 229.711 692.612 229.711 692.436C229.711 692.26 229.767 692.116 229.879 692.004C229.999 691.884 230.147 691.824 230.323 691.824C230.491 691.824 230.631 691.884 230.743 692.004C230.863 692.116 230.923 692.26 230.923 692.436C230.923 692.612 230.863 692.76 230.743 692.88C230.631 693 230.491 693.06 230.323 693.06Z" fill="#00529E" fill-opacity="0.75" shape-rendering="crispEdges"/>
</g>
<defs>
<filter id="filter0_d_41_426" x="144.364" y="373.378" width="68.7621" height="31.672" filterUnits="userSpaceOnUse" color-interpolation-filters="sRGB">
<feFlood flood-opacity="0" result="BackgroundImageFix"/>
<feColorMatrix in="SourceAlpha" type="matrix" values="0 0 0 0 0 0 0 0 0 0 0 0 0 0 0 0 0 0 127 0" result="hardAlpha"/>
<feOffset dy="4"/>
<feGaussianBlur stdDeviation="2"/>
<feComposite in2="hardAlpha" operator="out"/>
<feColorMatrix type="matrix" values="0 0 0 0 0 0 0 0 0 0 0 0 0 0 0 0 0 0 0.15 0"/>
<feBlend mode="normal" in2="BackgroundImageFix" result="effect1_dropShadow_41_426"/>
<feBlend mode="normal" in="SourceGraphic" in2="effect1_dropShadow_41_426" result="shape"/>
</filter>
<filter id="filter1_d_41_426" x="12" y="456" width="336" height="40" filterUnits="userSpaceOnUse" color-interpolation-filters="sRGB">
<feFlood flood-opacity="0" result="BackgroundImageFix"/>
<feColorMatrix in="SourceAlpha" type="matrix" values="0 0 0 0 0 0 0 0 0 0 0 0 0 0 0 0 0 0 127 0" result="hardAlpha"/>
<feOffset dy="4"/>
<feGaussianBlur stdDeviation="2"/>
<feComposite in2="hardAlpha" operator="out"/>
<feColorMatrix type="matrix" values="0 0 0 0 0 0 0 0 0 0 0 0 0 0 0 0 0 0 0.08 0"/>
<feBlend mode="normal" in2="BackgroundImageFix" result="effect1_dropShadow_41_426"/>
<feBlend mode="normal" in="SourceGraphic" in2="effect1_dropShadow_41_426" result="shape"/>
</filter>
<filter id="filter2_d_41_426" x="11" y="512" width="336" height="40" filterUnits="userSpaceOnUse" color-interpolation-filters="sRGB">
<feFlood flood-opacity="0" result="BackgroundImageFix"/>
<feColorMatrix in="SourceAlpha" type="matrix" values="0 0 0 0 0 0 0 0 0 0 0 0 0 0 0 0 0 0 127 0" result="hardAlpha"/>
<feOffset dy="4"/>
<feGaussianBlur stdDeviation="2"/>
<feComposite in2="hardAlpha" operator="out"/>
<feColorMatrix type="matrix" values="0 0 0 0 0 0 0 0 0 0 0 0 0 0 0 0 0 0 0.08 0"/>
<feBlend mode="normal" in2="BackgroundImageFix" result="effect1_dropShadow_41_426"/>
<feBlend mode="normal" in="SourceGraphic" in2="effect1_dropShadow_41_426" result="shape"/>
</filter>
<filter id="filter3_d_41_426" x="11" y="576" width="336" height="40" filterUnits="userSpaceOnUse" color-interpolation-filters="sRGB">
<feFlood flood-opacity="0" result="BackgroundImageFix"/>
<feColorMatrix in="SourceAlpha" type="matrix" values="0 0 0 0 0 0 0 0 0 0 0 0 0 0 0 0 0 0 127 0" result="hardAlpha"/>
<feOffset dy="4"/>
<feGaussianBlur stdDeviation="2"/>
<feComposite in2="hardAlpha" operator="out"/>
<feColorMatrix type="matrix" values="0 0 0 0 0 0 0 0 0 0 0 0 0 0 0 0 0 0 0.16 0"/>
<feBlend mode="normal" in2="BackgroundImageFix" result="effect1_dropShadow_41_426"/>
<feBlend mode="normal" in="SourceGraphic" in2="effect1_dropShadow_41_426" result="shape"/>
</filter>
<filter id="filter4_d_41_426" x="75.576" y="651.976" width="206.642" height="20.24" filterUnits="userSpaceOnUse" color-interpolation-filters="sRGB">
<feFlood flood-opacity="0" result="BackgroundImageFix"/>
<feColorMatrix in="SourceAlpha" type="matrix" values="0 0 0 0 0 0 0 0 0 0 0 0 0 0 0 0 0 0 127 0" result="hardAlpha"/>
<feOffset dy="4"/>
<feGaussianBlur stdDeviation="2"/>
<feComposite in2="hardAlpha" operator="out"/>
<feColorMatrix type="matrix" values="0 0 0 0 0 0 0 0 0 0 0 0 0 0 0 0 0 0 0.25 0"/>
<feBlend mode="normal" in2="BackgroundImageFix" result="effect1_dropShadow_41_426"/>
<feBlend mode="normal" in="SourceGraphic" in2="effect1_dropShadow_41_426" result="shape"/>
</filter>
<filter id="filter5_d_41_426" x="119.96" y="684.12" width="117.735" height="20.096" filterUnits="userSpaceOnUse" color-interpolation-filters="sRGB">
<feFlood flood-opacity="0" result="BackgroundImageFix"/>
<feColorMatrix in="SourceAlpha" type="matrix" values="0 0 0 0 0 0 0 0 0 0 0 0 0 0 0 0 0 0 127 0" result="hardAlpha"/>
<feOffset dy="4"/>
<feGaussianBlur stdDeviation="2"/>
<feComposite in2="hardAlpha" operator="out"/>
<feColorMatrix type="matrix" values="0 0 0 0 0 0 0 0 0 0 0 0 0 0 0 0 0 0 0.25 0"/>
<feBlend mode="normal" in2="BackgroundImageFix" result="effect1_dropShadow_41_426"/>
<feBlend mode="normal" in="SourceGraphic" in2="effect1_dropShadow_41_426" result="shape"/>
</filter>
<clipPath id="clip0_41_426">
<rect width="22.1667" height="24" fill="white" transform="translate(317.833 8)"/>
</clipPath>
</defs>
</svg>
