<svg width="360" height="800" viewBox="0 0 360 800" fill="none" xmlns="http://www.w3.org/2000/svg">
<rect width="360" height="800" rx="15" fill="#060524"/>
<rect width="360" height="800" rx="15" fill="#070707" fill-opacity="0.48"/>
<rect x="98" y="370.5" width="60" height="60" rx="30" stroke="#FFD700" stroke-width="4"/>
<mask id="path-3-inside-1_21_123" fill="white">
<path d="M184.151 409.671H193.121V414H178.691V386.778H184.151V409.671ZM205.171 386.778V414H199.711V386.778H205.171ZM230.495 386.778V391.185H219.146V398.166H227.843V402.495H219.146V414H213.686V386.778H230.495ZM242.947 391.185V398.01H252.112V402.339H242.947V409.554H253.282V414H237.487V386.739H253.282V391.185H242.947Z"/>
</mask>
<path d="M184.151 409.671H193.121V414H178.691V386.778H184.151V409.671ZM205.171 386.778V414H199.711V386.778H205.171ZM230.495 386.778V391.185H219.146V398.166H227.843V402.495H219.146V414H213.686V386.778H230.495ZM242.947 391.185V398.01H252.112V402.339H242.947V409.554H253.282V414H237.487V386.739H253.282V391.185H242.947Z" fill="white"/>
<path d="M184.151 409.671H182.151V411.671H184.151V409.671ZM193.121 409.671H195.121V407.671H193.121V409.671ZM193.121 414V416H195.121V414H193.121ZM178.691 414H176.691V416H178.691V414ZM178.691 386.778V384.778H176.691V386.778H178.691ZM184.151 386.778H186.151V384.778H184.151V386.778ZM184.151 411.671H193.121V407.671H184.151V411.671ZM191.121 409.671V414H195.121V409.671H191.121ZM193.121 412H178.691V416H193.121V412ZM180.691 414V386.778H176.691V414H180.691ZM178.691 388.778H184.151V384.778H178.691V388.778ZM182.151 386.778V409.671H186.151V386.778H182.151ZM205.171 386.778H207.171V384.778H205.171V386.778ZM205.171 414V416H207.171V414H205.171ZM199.711 414H197.711V416H199.711V414ZM199.711 386.778V384.778H197.711V386.778H199.711ZM203.171 386.778V414H207.171V386.778H203.171ZM205.171 412H199.711V416H205.171V412ZM201.711 414V386.778H197.711V414H201.711ZM199.711 388.778H205.171V384.778H199.711V388.778ZM230.495 386.778H232.495V384.778H230.495V386.778ZM230.495 391.185V393.185H232.495V391.185H230.495ZM219.146 391.185V389.185H217.146V391.185H219.146ZM219.146 398.166H217.146V400.166H219.146V398.166ZM227.843 398.166H229.843V396.166H227.843V398.166ZM227.843 402.495V404.495H229.843V402.495H227.843ZM219.146 402.495V400.495H217.146V402.495H219.146ZM219.146 414V416H221.146V414H219.146ZM213.686 414H211.686V416H213.686V414ZM213.686 386.778V384.778H211.686V386.778H213.686ZM228.495 386.778V391.185H232.495V386.778H228.495ZM230.495 389.185H219.146V393.185H230.495V389.185ZM217.146 391.185V398.166H221.146V391.185H217.146ZM219.146 400.166H227.843V396.166H219.146V400.166ZM225.843 398.166V402.495H229.843V398.166H225.843ZM227.843 400.495H219.146V404.495H227.843V400.495ZM217.146 402.495V414H221.146V402.495H217.146ZM219.146 412H213.686V416H219.146V412ZM215.686 414V386.778H211.686V414H215.686ZM213.686 388.778H230.495V384.778H213.686V388.778ZM242.947 391.185V389.185H240.947V391.185H242.947ZM242.947 398.01H240.947V400.01H242.947V398.01ZM252.112 398.01H254.112V396.01H252.112V398.01ZM252.112 402.339V404.339H254.112V402.339H252.112ZM242.947 402.339V400.339H240.947V402.339H242.947ZM242.947 409.554H240.947V411.554H242.947V409.554ZM253.282 409.554H255.282V407.554H253.282V409.554ZM253.282 414V416H255.282V414H253.282ZM237.487 414H235.487V416H237.487V414ZM237.487 386.739V384.739H235.487V386.739H237.487ZM253.282 386.739H255.282V384.739H253.282V386.739ZM253.282 391.185V393.185H255.282V391.185H253.282ZM240.947 391.185V398.01H244.947V391.185H240.947ZM242.947 400.01H252.112V396.01H242.947V400.01ZM250.112 398.01V402.339H254.112V398.01H250.112ZM252.112 400.339H242.947V404.339H252.112V400.339ZM240.947 402.339V409.554H244.947V402.339H240.947ZM242.947 411.554H253.282V407.554H242.947V411.554ZM251.282 409.554V414H255.282V409.554H251.282ZM253.282 412H237.487V416H253.282V412ZM239.487 414V386.739H235.487V414H239.487ZM237.487 388.739H253.282V384.739H237.487V388.739ZM251.282 386.739V391.185H255.282V386.739H251.282ZM253.282 389.185H242.947V393.185H253.282V389.185Z" fill="#FFD700" mask="url(#path-3-inside-1_21_123)"/>
<path d="M22.432 19.8V18.252H25.324V27H23.596V19.8H22.432ZM27.3677 20.556C27.4077 19.756 27.6877 19.14 28.2077 18.708C28.7357 18.268 29.4277 18.048 30.2837 18.048C30.8677 18.048 31.3677 18.152 31.7837 18.36C32.1997 18.56 32.5117 18.836 32.7197 19.188C32.9357 19.532 33.0437 19.924 33.0437 20.364C33.0437 20.868 32.9117 21.296 32.6477 21.648C32.3917 21.992 32.0837 22.224 31.7237 22.344V22.392C32.1877 22.536 32.5477 22.792 32.8037 23.16C33.0677 23.528 33.1997 24 33.1997 24.576C33.1997 25.056 33.0877 25.484 32.8637 25.86C32.6477 26.236 32.3237 26.532 31.8917 26.748C31.4677 26.956 30.9557 27.06 30.3557 27.06C29.4517 27.06 28.7157 26.832 28.1477 26.376C27.5797 25.92 27.2797 25.248 27.2477 24.36H28.8797C28.8957 24.752 29.0277 25.068 29.2757 25.308C29.5317 25.54 29.8797 25.656 30.3197 25.656C30.7277 25.656 31.0397 25.544 31.2557 25.32C31.4797 25.088 31.5917 24.792 31.5917 24.432C31.5917 23.952 31.4397 23.608 31.1357 23.4C30.8317 23.192 30.3597 23.088 29.7197 23.088H29.3717V21.708H29.7197C30.8557 21.708 31.4237 21.328 31.4237 20.568C31.4237 20.224 31.3197 19.956 31.1117 19.764C30.9117 19.572 30.6197 19.476 30.2357 19.476C29.8597 19.476 29.5677 19.58 29.3597 19.788C29.1597 19.988 29.0437 20.244 29.0117 20.556H27.3677ZM35.8233 27.084C35.5193 27.084 35.2673 26.992 35.0673 26.808C34.8753 26.616 34.7793 26.38 34.7793 26.1C34.7793 25.82 34.8753 25.588 35.0673 25.404C35.2673 25.212 35.5193 25.116 35.8233 25.116C36.1193 25.116 36.3633 25.212 36.5553 25.404C36.7473 25.588 36.8433 25.82 36.8433 26.1C36.8433 26.38 36.7473 26.616 36.5553 26.808C36.3633 26.992 36.1193 27.084 35.8233 27.084ZM35.8233 22.116C35.5193 22.116 35.2673 22.024 35.0673 21.84C34.8753 21.648 34.7793 21.412 34.7793 21.132C34.7793 20.852 34.8753 20.62 35.0673 20.436C35.2673 20.244 35.5193 20.148 35.8233 20.148C36.1193 20.148 36.3633 20.244 36.5553 20.436C36.7473 20.62 36.8433 20.852 36.8433 21.132C36.8433 21.412 36.7473 21.648 36.5553 21.84C36.3633 22.024 36.1193 22.116 35.8233 22.116ZM38.3996 22.512C38.3996 21.128 38.6476 20.044 39.1436 19.26C39.6476 18.476 40.4796 18.084 41.6396 18.084C42.7996 18.084 43.6276 18.476 44.1236 19.26C44.6276 20.044 44.8796 21.128 44.8796 22.512C44.8796 23.904 44.6276 24.996 44.1236 25.788C43.6276 26.58 42.7996 26.976 41.6396 26.976C40.4796 26.976 39.6476 26.58 39.1436 25.788C38.6476 24.996 38.3996 23.904 38.3996 22.512ZM43.2236 22.512C43.2236 21.92 43.1836 21.424 43.1036 21.024C43.0316 20.616 42.8796 20.284 42.6476 20.028C42.4236 19.772 42.0876 19.644 41.6396 19.644C41.1916 19.644 40.8516 19.772 40.6196 20.028C40.3956 20.284 40.2436 20.616 40.1636 21.024C40.0916 21.424 40.0556 21.92 40.0556 22.512C40.0556 23.12 40.0916 23.632 40.1636 24.048C40.2356 24.456 40.3876 24.788 40.6196 25.044C40.8516 25.292 41.1916 25.416 41.6396 25.416C42.0876 25.416 42.4276 25.292 42.6596 25.044C42.8916 24.788 43.0436 24.456 43.1156 24.048C43.1876 23.632 43.2236 23.12 43.2236 22.512ZM46.5174 22.512C46.5174 21.128 46.7654 20.044 47.2614 19.26C47.7654 18.476 48.5974 18.084 49.7574 18.084C50.9174 18.084 51.7454 18.476 52.2414 19.26C52.7454 20.044 52.9974 21.128 52.9974 22.512C52.9974 23.904 52.7454 24.996 52.2414 25.788C51.7454 26.58 50.9174 26.976 49.7574 26.976C48.5974 26.976 47.7654 26.58 47.2614 25.788C46.7654 24.996 46.5174 23.904 46.5174 22.512ZM51.3414 22.512C51.3414 21.92 51.3014 21.424 51.2214 21.024C51.1494 20.616 50.9974 20.284 50.7654 20.028C50.5414 19.772 50.2054 19.644 49.7574 19.644C49.3094 19.644 48.9694 19.772 48.7374 20.028C48.5134 20.284 48.3614 20.616 48.2814 21.024C48.2094 21.424 48.1734 21.92 48.1734 22.512C48.1734 23.12 48.2094 23.632 48.2814 24.048C48.3534 24.456 48.5054 24.788 48.7374 25.044C48.9694 25.292 49.3094 25.416 49.7574 25.416C50.2054 25.416 50.5454 25.292 50.7774 25.044C51.0094 24.788 51.1614 24.456 51.2334 24.048C51.3054 23.632 51.3414 23.12 51.3414 22.512Z" fill="white"/>
<path d="M76.0833 15H92.4167C93.5396 15 94.4583 15.9 94.4583 17V29C94.4583 30.1 93.5396 31 92.4167 31H76.0833C74.9604 31 74.0417 30.1 74.0417 29V17C74.0417 15.9 74.9604 15 76.0833 15Z" stroke="white" stroke-width="2" stroke-linecap="round" stroke-linejoin="round"/>
<path d="M94.4583 17L84.25 24L74.0417 17" stroke="white" stroke-width="2" stroke-linecap="round" stroke-linejoin="round"/>
<path d="M278.583 31V21" stroke="white" stroke-width="2" stroke-linecap="round" stroke-linejoin="round"/>
<path d="M284.125 31V15" stroke="white" stroke-width="2" stroke-linecap="round" stroke-linejoin="round"/>
<path d="M273.042 31V27" stroke="white" stroke-width="2" stroke-linecap="round" stroke-linejoin="round"/>
<path d="M304.75 31V21" stroke="white" stroke-width="2" stroke-linecap="round" stroke-linejoin="round"/>
<path d="M310.292 31V15" stroke="white" stroke-width="2" stroke-linecap="round" stroke-linejoin="round"/>
<path d="M299.208 31V27" stroke="white" stroke-width="2" stroke-linecap="round" stroke-linejoin="round"/>
<g clip-path="url(#clip0_21_123)">
<path d="M324.451 29H322.604C322.114 29 321.644 28.7893 321.298 28.4142C320.952 28.0391 320.757 27.5304 320.757 27V19C320.757 18.4696 320.952 17.9609 321.298 17.5858C321.644 17.2107 322.114 17 322.604 17H325.55M333.687 17H335.535C336.025 17 336.494 17.2107 336.841 17.5858C337.187 17.9609 337.382 18.4696 337.382 19V27C337.382 27.5304 337.187 28.0391 336.841 28.4142C336.494 28.7893 336.025 29 335.535 29H332.588" stroke="white" stroke-width="2" stroke-linecap="round" stroke-linejoin="round"/>
<path d="M341.076 24V22" stroke="white" stroke-width="2" stroke-linecap="round" stroke-linejoin="round"/>
<path d="M329.993 17L326.299 23H331.84L328.146 29" stroke="#2FFB0E" stroke-width="2" stroke-linecap="round" stroke-linejoin="round"/>
</g>
<defs>
<clipPath id="clip0_21_123">
<rect width="22.1667" height="24" fill="white" transform="translate(319.833 11)"/>
</clipPath>
</defs>
</svg>
