<svg width="360" height="800" viewBox="0 0 360 800" fill="none" xmlns="http://www.w3.org/2000/svg">
<g clip-path="url(#clip0_31_31)">
<rect width="360" height="800" rx="15" fill="#F0F0F0"/>
<ellipse cx="284.5" cy="63.5" rx="47.5" ry="43.5" fill="#09013A"/>
<path d="M264.255 64.7632V53.1268H266.715V62.7348H271.704V64.7632H264.255ZM283.573 58.945C283.573 60.2139 283.333 61.2935 282.852 62.1836C282.374 63.0738 281.723 63.7537 280.897 64.2234C280.075 64.6893 279.151 64.9223 278.124 64.9223C277.09 64.9223 276.162 64.6874 275.34 64.2177C274.518 63.748 273.869 63.0681 273.391 62.178C272.914 61.2878 272.675 60.2102 272.675 58.945C272.675 57.6761 272.914 56.5965 273.391 55.7064C273.869 54.8162 274.518 54.1382 275.34 53.6723C276.162 53.2026 277.09 52.9677 278.124 52.9677C279.151 52.9677 280.075 53.2026 280.897 53.6723C281.723 54.1382 282.374 54.8162 282.852 55.7064C283.333 56.5965 283.573 57.6761 283.573 58.945ZM281.079 58.945C281.079 58.123 280.956 57.4299 280.71 56.8655C280.467 56.3011 280.124 55.873 279.681 55.5814C279.238 55.2897 278.719 55.1439 278.124 55.1439C277.53 55.1439 277.011 55.2897 276.568 55.5814C276.124 55.873 275.78 56.3011 275.533 56.8655C275.291 57.4299 275.17 58.123 275.17 58.945C275.17 59.767 275.291 60.4602 275.533 61.0245C275.78 61.5889 276.124 62.017 276.568 62.3086C277.011 62.6003 277.53 62.7461 278.124 62.7461C278.719 62.7461 279.238 62.6003 279.681 62.3086C280.124 62.017 280.467 61.5889 280.71 61.0245C280.956 60.4602 281.079 59.767 281.079 58.945ZM293.112 56.8882C293.032 56.6117 292.92 56.3673 292.776 56.1552C292.632 55.9393 292.456 55.7575 292.248 55.6098C292.043 55.4583 291.809 55.3427 291.543 55.2632C291.282 55.1836 290.992 55.1439 290.674 55.1439C290.079 55.1439 289.557 55.2916 289.106 55.587C288.659 55.8825 288.31 56.3124 288.06 56.8768C287.81 57.4374 287.685 58.123 287.685 58.9336C287.685 59.7442 287.809 60.4336 288.055 61.0018C288.301 61.57 288.649 62.0037 289.1 62.303C289.551 62.5984 290.083 62.7461 290.697 62.7461C291.254 62.7461 291.729 62.6477 292.123 62.4507C292.521 62.2499 292.824 61.9677 293.032 61.6041C293.244 61.2405 293.35 60.8105 293.35 60.3143L293.85 60.3882H290.85V58.5359H295.719V60.0018C295.719 61.0245 295.504 61.9033 295.072 62.6382C294.64 63.3692 294.045 63.9336 293.288 64.3314C292.53 64.7253 291.663 64.9223 290.685 64.9223C289.594 64.9223 288.636 64.6817 287.81 64.2007C286.985 63.7158 286.341 63.0283 285.879 62.1382C285.42 61.2442 285.191 60.1836 285.191 58.9564C285.191 58.0132 285.327 57.1723 285.6 56.4336C285.877 55.6912 286.263 55.0624 286.759 54.5473C287.255 54.0321 287.833 53.6401 288.492 53.3711C289.151 53.1022 289.865 52.9677 290.634 52.9677C291.293 52.9677 291.907 53.0643 292.475 53.2575C293.043 53.4469 293.547 53.7158 293.987 54.0643C294.43 54.4128 294.791 54.8276 295.072 55.3086C295.352 55.7859 295.532 56.3124 295.612 56.8882H293.112ZM308.261 58.945C308.261 60.2139 308.02 61.2935 307.539 62.1836C307.062 63.0738 306.41 63.7537 305.585 64.2234C304.763 64.6893 303.838 64.9223 302.812 64.9223C301.778 64.9223 300.85 64.6874 300.028 64.2177C299.206 63.748 298.556 63.0681 298.079 62.178C297.602 61.2878 297.363 60.2102 297.363 58.945C297.363 57.6761 297.602 56.5965 298.079 55.7064C298.556 54.8162 299.206 54.1382 300.028 53.6723C300.85 53.2026 301.778 52.9677 302.812 52.9677C303.838 52.9677 304.763 53.2026 305.585 53.6723C306.41 54.1382 307.062 54.8162 307.539 55.7064C308.02 56.5965 308.261 57.6761 308.261 58.945ZM305.766 58.945C305.766 58.123 305.643 57.4299 305.397 56.8655C305.155 56.3011 304.812 55.873 304.369 55.5814C303.925 55.2897 303.407 55.1439 302.812 55.1439C302.217 55.1439 301.698 55.2897 301.255 55.5814C300.812 55.873 300.467 56.3011 300.221 56.8655C299.978 57.4299 299.857 58.123 299.857 58.945C299.857 59.767 299.978 60.4602 300.221 61.0245C300.467 61.5889 300.812 62.017 301.255 62.3086C301.698 62.6003 302.217 62.7461 302.812 62.7461C303.407 62.7461 303.925 62.6003 304.369 62.3086C304.812 62.017 305.155 61.5889 305.397 61.0245C305.643 60.4602 305.766 59.767 305.766 58.945Z" fill="#FCFAFA"/>
<g filter="url(#filter0_d_31_31)">
<rect x="48" y="348" width="265" height="144" rx="25" fill="white" fill-opacity="0.65" shape-rendering="crispEdges"/>
<rect x="46" y="346" width="269" height="148" rx="27" stroke="#070616" stroke-width="4" shape-rendering="crispEdges"/>
<g filter="url(#filter1_d_31_31)">
<rect x="69" y="381.5" width="223" height="27" rx="13.5" stroke="#09013A" stroke-width="2" shape-rendering="crispEdges"/>
<path d="M90.462 396.087C90.462 396.399 90.4533 396.637 90.436 396.802H84.547C84.573 397.339 84.703 397.799 84.937 398.18C85.171 398.561 85.4787 398.852 85.86 399.051C86.2413 399.242 86.6573 399.337 87.108 399.337C87.6973 399.337 88.1913 399.194 88.59 398.908C88.9973 398.622 89.266 398.236 89.396 397.751H90.358C90.1847 398.444 89.812 399.012 89.24 399.454C88.6767 399.887 87.966 400.104 87.108 400.104C86.4407 400.104 85.8427 399.957 85.314 399.662C84.7853 399.359 84.3693 398.934 84.066 398.388C83.7713 397.833 83.624 397.188 83.624 396.451C83.624 395.714 83.7713 395.069 84.066 394.514C84.3607 393.959 84.7723 393.535 85.301 393.24C85.8297 392.945 86.432 392.798 87.108 392.798C87.784 392.798 88.3733 392.945 88.876 393.24C89.3873 393.535 89.7773 393.933 90.046 394.436C90.3233 394.93 90.462 395.48 90.462 396.087ZM89.539 396.061C89.5477 395.532 89.4393 395.082 89.214 394.709C88.9973 394.336 88.6983 394.055 88.317 393.864C87.9357 393.673 87.5197 393.578 87.069 393.578C86.393 393.578 85.8167 393.795 85.34 394.228C84.8633 394.661 84.599 395.272 84.547 396.061H89.539ZM95.4549 392.772C96.3042 392.772 96.9976 393.036 97.5349 393.565C98.0722 394.085 98.3409 394.843 98.3409 395.84V400H97.4439V395.944C97.4439 395.173 97.2489 394.583 96.8589 394.176C96.4776 393.769 95.9532 393.565 95.2859 393.565C94.6012 393.565 94.0552 393.782 93.6479 394.215C93.2406 394.648 93.0369 395.285 93.0369 396.126V400H92.1269V392.902H93.0369V394.111C93.2622 393.678 93.5872 393.348 94.0119 393.123C94.4366 392.889 94.9176 392.772 95.4549 392.772ZM101.536 393.669V398.076C101.536 398.509 101.619 398.808 101.783 398.973C101.948 399.138 102.238 399.22 102.654 399.22H103.486V400H102.511C101.87 400 101.393 399.853 101.081 399.558C100.769 399.255 100.613 398.761 100.613 398.076V393.669H99.6255V392.902H100.613V391.121H101.536V392.902H103.486V393.669H101.536ZM111.409 396.087C111.409 396.399 111.401 396.637 111.383 396.802H105.494C105.52 397.339 105.65 397.799 105.884 398.18C106.118 398.561 106.426 398.852 106.807 399.051C107.189 399.242 107.605 399.337 108.055 399.337C108.645 399.337 109.139 399.194 109.537 398.908C109.945 398.622 110.213 398.236 110.343 397.751H111.305C111.132 398.444 110.759 399.012 110.187 399.454C109.624 399.887 108.913 400.104 108.055 400.104C107.388 400.104 106.79 399.957 106.261 399.662C105.733 399.359 105.317 398.934 105.013 398.388C104.719 397.833 104.571 397.188 104.571 396.451C104.571 395.714 104.719 395.069 105.013 394.514C105.308 393.959 105.72 393.535 106.248 393.24C106.777 392.945 107.379 392.798 108.055 392.798C108.731 392.798 109.321 392.945 109.823 393.24C110.335 393.535 110.725 393.933 110.993 394.436C111.271 394.93 111.409 395.48 111.409 396.087ZM110.486 396.061C110.495 395.532 110.387 395.082 110.161 394.709C109.945 394.336 109.646 394.055 109.264 393.864C108.883 393.673 108.467 393.578 108.016 393.578C107.34 393.578 106.764 393.795 106.287 394.228C105.811 394.661 105.546 395.272 105.494 396.061H110.486ZM113.984 394.163C114.184 393.721 114.487 393.379 114.894 393.136C115.31 392.893 115.817 392.772 116.415 392.772V393.721H116.168C115.51 393.721 114.981 393.899 114.582 394.254C114.184 394.609 113.984 395.203 113.984 396.035V400H113.074V392.902H113.984V394.163ZM127.774 396.087C127.774 396.399 127.765 396.637 127.748 396.802H121.859C121.885 397.339 122.015 397.799 122.249 398.18C122.483 398.561 122.79 398.852 123.172 399.051C123.553 399.242 123.969 399.337 124.42 399.337C125.009 399.337 125.503 399.194 125.902 398.908C126.309 398.622 126.578 398.236 126.708 397.751H127.67C127.496 398.444 127.124 399.012 126.552 399.454C125.988 399.887 125.278 400.104 124.42 400.104C123.752 400.104 123.154 399.957 122.626 399.662C122.097 399.359 121.681 398.934 121.378 398.388C121.083 397.833 120.936 397.188 120.936 396.451C120.936 395.714 121.083 395.069 121.378 394.514C121.672 393.959 122.084 393.535 122.613 393.24C123.141 392.945 123.744 392.798 124.42 392.798C125.096 392.798 125.685 392.945 126.188 393.24C126.699 393.535 127.089 393.933 127.358 394.436C127.635 394.93 127.774 395.48 127.774 396.087ZM126.851 396.061C126.859 395.532 126.751 395.082 126.526 394.709C126.309 394.336 126.01 394.055 125.629 393.864C125.247 393.673 124.831 393.578 124.381 393.578C123.705 393.578 123.128 393.795 122.652 394.228C122.175 394.661 121.911 395.272 121.859 396.061H126.851ZM137.888 392.772C138.72 392.772 139.396 393.036 139.916 393.565C140.445 394.085 140.709 394.843 140.709 395.84V400H139.812V395.944C139.812 395.173 139.626 394.583 139.253 394.176C138.881 393.769 138.374 393.565 137.732 393.565C137.065 393.565 136.532 393.786 136.133 394.228C135.735 394.67 135.535 395.311 135.535 396.152V400H134.638V395.944C134.638 395.173 134.452 394.583 134.079 394.176C133.707 393.769 133.195 393.565 132.545 393.565C131.878 393.565 131.345 393.786 130.946 394.228C130.548 394.67 130.348 395.311 130.348 396.152V400H129.438V392.902H130.348V394.124C130.574 393.682 130.894 393.348 131.31 393.123C131.726 392.889 132.19 392.772 132.701 392.772C133.317 392.772 133.854 392.919 134.313 393.214C134.781 393.509 135.119 393.942 135.327 394.514C135.518 393.951 135.843 393.522 136.302 393.227C136.77 392.924 137.299 392.772 137.888 392.772ZM142.314 396.438C142.314 395.71 142.457 395.073 142.743 394.527C143.038 393.972 143.441 393.548 143.952 393.253C144.472 392.95 145.057 392.798 145.707 392.798C146.383 392.798 146.964 392.954 147.449 393.266C147.943 393.578 148.299 393.977 148.515 394.462V392.902H149.425V400H148.515V398.427C148.29 398.912 147.93 399.315 147.436 399.636C146.951 399.948 146.37 400.104 145.694 400.104C145.053 400.104 144.472 399.952 143.952 399.649C143.441 399.346 143.038 398.917 142.743 398.362C142.457 397.807 142.314 397.166 142.314 396.438ZM148.515 396.451C148.515 395.879 148.398 395.376 148.164 394.943C147.93 394.51 147.61 394.176 147.202 393.942C146.804 393.708 146.362 393.591 145.876 393.591C145.374 393.591 144.923 393.704 144.524 393.929C144.126 394.154 143.809 394.484 143.575 394.917C143.35 395.342 143.237 395.849 143.237 396.438C143.237 397.019 143.35 397.53 143.575 397.972C143.809 398.405 144.126 398.739 144.524 398.973C144.923 399.198 145.374 399.311 145.876 399.311C146.362 399.311 146.804 399.194 147.202 398.96C147.61 398.726 147.93 398.392 148.164 397.959C148.398 397.526 148.515 397.023 148.515 396.451ZM151.958 391.563C151.776 391.563 151.62 391.498 151.49 391.368C151.36 391.238 151.295 391.078 151.295 390.887C151.295 390.696 151.36 390.54 151.49 390.419C151.62 390.289 151.776 390.224 151.958 390.224C152.14 390.224 152.296 390.289 152.426 390.419C152.556 390.54 152.621 390.696 152.621 390.887C152.621 391.078 152.556 391.238 152.426 391.368C152.296 391.498 152.14 391.563 151.958 391.563ZM152.413 392.902V400H151.503V392.902H152.413ZM155.384 390.38V400H154.474V390.38H155.384Z" fill="black"/>
</g>
<g filter="url(#filter2_d_31_31)">
<rect x="69" y="431.5" width="223" height="27" rx="13.5" stroke="#09013A" stroke-width="2" shape-rendering="crispEdges"/>
<path d="M90.462 446.087C90.462 446.399 90.4533 446.637 90.436 446.802H84.547C84.573 447.339 84.703 447.799 84.937 448.18C85.171 448.561 85.4787 448.852 85.86 449.051C86.2413 449.242 86.6573 449.337 87.108 449.337C87.6973 449.337 88.1913 449.194 88.59 448.908C88.9973 448.622 89.266 448.236 89.396 447.751H90.358C90.1847 448.444 89.812 449.012 89.24 449.454C88.6767 449.887 87.966 450.104 87.108 450.104C86.4407 450.104 85.8427 449.957 85.314 449.662C84.7853 449.359 84.3693 448.934 84.066 448.388C83.7713 447.833 83.624 447.188 83.624 446.451C83.624 445.714 83.7713 445.069 84.066 444.514C84.3607 443.959 84.7723 443.535 85.301 443.24C85.8297 442.945 86.432 442.798 87.108 442.798C87.784 442.798 88.3733 442.945 88.876 443.24C89.3873 443.535 89.7773 443.933 90.046 444.436C90.3233 444.93 90.462 445.48 90.462 446.087ZM89.539 446.061C89.5477 445.532 89.4393 445.082 89.214 444.709C88.9973 444.336 88.6983 444.055 88.317 443.864C87.9357 443.673 87.5197 443.578 87.069 443.578C86.393 443.578 85.8167 443.795 85.34 444.228C84.8633 444.661 84.599 445.272 84.547 446.061H89.539ZM95.4549 442.772C96.3042 442.772 96.9976 443.036 97.5349 443.565C98.0722 444.085 98.3409 444.843 98.3409 445.84V450H97.4439V445.944C97.4439 445.173 97.2489 444.583 96.8589 444.176C96.4776 443.769 95.9532 443.565 95.2859 443.565C94.6012 443.565 94.0552 443.782 93.6479 444.215C93.2406 444.648 93.0369 445.285 93.0369 446.126V450H92.1269V442.902H93.0369V444.111C93.2622 443.678 93.5872 443.348 94.0119 443.123C94.4366 442.889 94.9176 442.772 95.4549 442.772ZM101.536 443.669V448.076C101.536 448.509 101.619 448.808 101.783 448.973C101.948 449.138 102.238 449.22 102.654 449.22H103.486V450H102.511C101.87 450 101.393 449.853 101.081 449.558C100.769 449.255 100.613 448.761 100.613 448.076V443.669H99.6255V442.902H100.613V441.121H101.536V442.902H103.486V443.669H101.536ZM111.409 446.087C111.409 446.399 111.401 446.637 111.383 446.802H105.494C105.52 447.339 105.65 447.799 105.884 448.18C106.118 448.561 106.426 448.852 106.807 449.051C107.189 449.242 107.605 449.337 108.055 449.337C108.645 449.337 109.139 449.194 109.537 448.908C109.945 448.622 110.213 448.236 110.343 447.751H111.305C111.132 448.444 110.759 449.012 110.187 449.454C109.624 449.887 108.913 450.104 108.055 450.104C107.388 450.104 106.79 449.957 106.261 449.662C105.733 449.359 105.317 448.934 105.013 448.388C104.719 447.833 104.571 447.188 104.571 446.451C104.571 445.714 104.719 445.069 105.013 444.514C105.308 443.959 105.72 443.535 106.248 443.24C106.777 442.945 107.379 442.798 108.055 442.798C108.731 442.798 109.321 442.945 109.823 443.24C110.335 443.535 110.725 443.933 110.993 444.436C111.271 444.93 111.409 445.48 111.409 446.087ZM110.486 446.061C110.495 445.532 110.387 445.082 110.161 444.709C109.945 444.336 109.646 444.055 109.264 443.864C108.883 443.673 108.467 443.578 108.016 443.578C107.34 443.578 106.764 443.795 106.287 444.228C105.811 444.661 105.546 445.272 105.494 446.061H110.486ZM113.984 444.163C114.184 443.721 114.487 443.379 114.894 443.136C115.31 442.893 115.817 442.772 116.415 442.772V443.721H116.168C115.51 443.721 114.981 443.899 114.582 444.254C114.184 444.609 113.984 445.203 113.984 446.035V450H113.074V442.902H113.984V444.163ZM122.249 444.462C122.474 443.985 122.829 443.591 123.315 443.279C123.809 442.958 124.394 442.798 125.07 442.798C125.711 442.798 126.287 442.95 126.799 443.253C127.319 443.548 127.722 443.972 128.008 444.527C128.302 445.073 128.45 445.71 128.45 446.438C128.45 447.166 128.302 447.807 128.008 448.362C127.722 448.917 127.319 449.346 126.799 449.649C126.287 449.952 125.711 450.104 125.07 450.104C124.402 450.104 123.822 449.948 123.328 449.636C122.834 449.315 122.474 448.917 122.249 448.44V453.354H121.352V442.902H122.249V444.462ZM127.527 446.438C127.527 445.849 127.41 445.342 127.176 444.917C126.95 444.484 126.638 444.154 126.24 443.929C125.841 443.704 125.39 443.591 124.888 443.591C124.402 443.591 123.956 443.708 123.549 443.942C123.15 444.176 122.834 444.51 122.6 444.943C122.366 445.376 122.249 445.879 122.249 446.451C122.249 447.023 122.366 447.526 122.6 447.959C122.834 448.392 123.15 448.726 123.549 448.96C123.956 449.194 124.402 449.311 124.888 449.311C125.39 449.311 125.841 449.198 126.24 448.973C126.638 448.739 126.95 448.405 127.176 447.972C127.41 447.53 127.527 447.019 127.527 446.438ZM129.708 446.438C129.708 445.71 129.851 445.073 130.137 444.527C130.432 443.972 130.835 443.548 131.346 443.253C131.866 442.95 132.451 442.798 133.101 442.798C133.777 442.798 134.358 442.954 134.843 443.266C135.337 443.578 135.692 443.977 135.909 444.462V442.902H136.819V450H135.909V448.427C135.684 448.912 135.324 449.315 134.83 449.636C134.345 449.948 133.764 450.104 133.088 450.104C132.447 450.104 131.866 449.952 131.346 449.649C130.835 449.346 130.432 448.917 130.137 448.362C129.851 447.807 129.708 447.166 129.708 446.438ZM135.909 446.451C135.909 445.879 135.792 445.376 135.558 444.943C135.324 444.51 135.003 444.176 134.596 443.942C134.197 443.708 133.755 443.591 133.27 443.591C132.767 443.591 132.317 443.704 131.918 443.929C131.519 444.154 131.203 444.484 130.969 444.917C130.744 445.342 130.631 445.849 130.631 446.438C130.631 447.019 130.744 447.53 130.969 447.972C131.203 448.405 131.519 448.739 131.918 448.973C132.317 449.198 132.767 449.311 133.27 449.311C133.755 449.311 134.197 449.194 134.596 448.96C135.003 448.726 135.324 448.392 135.558 447.959C135.792 447.526 135.909 447.023 135.909 446.451ZM141.34 450.104C140.526 450.104 139.858 449.918 139.338 449.545C138.827 449.164 138.541 448.648 138.48 447.998H139.416C139.46 448.397 139.646 448.722 139.975 448.973C140.313 449.216 140.764 449.337 141.327 449.337C141.821 449.337 142.207 449.22 142.484 448.986C142.77 448.752 142.913 448.462 142.913 448.115C142.913 447.872 142.835 447.673 142.679 447.517C142.523 447.361 142.324 447.24 142.081 447.153C141.847 447.058 141.527 446.958 141.119 446.854C140.591 446.715 140.162 446.577 139.832 446.438C139.503 446.299 139.221 446.096 138.987 445.827C138.762 445.55 138.649 445.181 138.649 444.722C138.649 444.375 138.753 444.055 138.961 443.76C139.169 443.465 139.464 443.231 139.845 443.058C140.227 442.885 140.66 442.798 141.145 442.798C141.908 442.798 142.523 442.993 142.991 443.383C143.459 443.764 143.711 444.293 143.745 444.969H142.835C142.809 444.553 142.645 444.219 142.341 443.968C142.047 443.708 141.639 443.578 141.119 443.578C140.66 443.578 140.287 443.686 140.001 443.903C139.715 444.12 139.572 444.388 139.572 444.709C139.572 444.986 139.655 445.216 139.819 445.398C139.993 445.571 140.205 445.71 140.456 445.814C140.708 445.909 141.046 446.018 141.47 446.139C141.982 446.278 142.389 446.412 142.692 446.542C142.996 446.672 143.256 446.863 143.472 447.114C143.689 447.365 143.802 447.699 143.81 448.115C143.81 448.496 143.706 448.839 143.498 449.142C143.29 449.437 143 449.671 142.627 449.844C142.255 450.017 141.826 450.104 141.34 450.104ZM147.967 450.104C147.153 450.104 146.485 449.918 145.965 449.545C145.454 449.164 145.168 448.648 145.107 447.998H146.043C146.087 448.397 146.273 448.722 146.602 448.973C146.94 449.216 147.391 449.337 147.954 449.337C148.448 449.337 148.834 449.22 149.111 448.986C149.397 448.752 149.54 448.462 149.54 448.115C149.54 447.872 149.462 447.673 149.306 447.517C149.15 447.361 148.951 447.24 148.708 447.153C148.474 447.058 148.154 446.958 147.746 446.854C147.218 446.715 146.789 446.577 146.459 446.438C146.13 446.299 145.848 446.096 145.614 445.827C145.389 445.55 145.276 445.181 145.276 444.722C145.276 444.375 145.38 444.055 145.588 443.76C145.796 443.465 146.091 443.231 146.472 443.058C146.854 442.885 147.287 442.798 147.772 442.798C148.535 442.798 149.15 442.993 149.618 443.383C150.086 443.764 150.338 444.293 150.372 444.969H149.462C149.436 444.553 149.272 444.219 148.968 443.968C148.674 443.708 148.266 443.578 147.746 443.578C147.287 443.578 146.914 443.686 146.628 443.903C146.342 444.12 146.199 444.388 146.199 444.709C146.199 444.986 146.282 445.216 146.446 445.398C146.62 445.571 146.832 445.71 147.083 445.814C147.335 445.909 147.673 446.018 148.097 446.139C148.609 446.278 149.016 446.412 149.319 446.542C149.623 446.672 149.883 446.863 150.099 447.114C150.316 447.365 150.429 447.699 150.437 448.115C150.437 448.496 150.333 448.839 150.125 449.142C149.917 449.437 149.627 449.671 149.254 449.844C148.882 450.017 148.453 450.104 147.967 450.104ZM161.51 442.902L159.287 450H158.377L156.414 444.046L154.451 450H153.528L151.305 442.902H152.228L153.996 449.077L155.985 442.902H156.895L158.858 449.09L160.613 442.902H161.51ZM165.858 450.104C165.191 450.104 164.588 449.957 164.051 449.662C163.522 449.359 163.102 448.934 162.79 448.388C162.487 447.833 162.335 447.188 162.335 446.451C162.335 445.714 162.491 445.073 162.803 444.527C163.115 443.972 163.54 443.548 164.077 443.253C164.614 442.95 165.217 442.798 165.884 442.798C166.551 442.798 167.154 442.95 167.691 443.253C168.237 443.548 168.662 443.972 168.965 444.527C169.277 445.073 169.433 445.714 169.433 446.451C169.433 447.179 169.277 447.82 168.965 448.375C168.653 448.93 168.224 449.359 167.678 449.662C167.132 449.957 166.525 450.104 165.858 450.104ZM165.858 449.311C166.326 449.311 166.759 449.207 167.158 448.999C167.557 448.782 167.877 448.462 168.12 448.037C168.371 447.604 168.497 447.075 168.497 446.451C168.497 445.827 168.376 445.303 168.133 444.878C167.89 444.445 167.57 444.124 167.171 443.916C166.772 443.699 166.339 443.591 165.871 443.591C165.403 443.591 164.97 443.699 164.571 443.916C164.172 444.124 163.852 444.445 163.609 444.878C163.375 445.303 163.258 445.827 163.258 446.451C163.258 447.075 163.375 447.604 163.609 448.037C163.852 448.462 164.168 448.782 164.558 448.999C164.957 449.207 165.39 449.311 165.858 449.311ZM172.002 444.163C172.201 443.721 172.504 443.379 172.912 443.136C173.328 442.893 173.835 442.772 174.433 442.772V443.721H174.186C173.527 443.721 172.998 443.899 172.6 444.254C172.201 444.609 172.002 445.203 172.002 446.035V450H171.092V442.902H172.002V444.163ZM175.386 446.438C175.386 445.71 175.533 445.073 175.828 444.527C176.122 443.972 176.525 443.548 177.037 443.253C177.557 442.95 178.142 442.798 178.792 442.798C179.416 442.798 179.979 442.95 180.482 443.253C180.984 443.556 181.353 443.951 181.587 444.436V440.38H182.497V450H181.587V448.414C181.37 448.908 181.015 449.315 180.521 449.636C180.027 449.948 179.446 450.104 178.779 450.104C178.129 450.104 177.544 449.952 177.024 449.649C176.512 449.346 176.109 448.917 175.815 448.362C175.529 447.807 175.386 447.166 175.386 446.438ZM181.587 446.451C181.587 445.879 181.47 445.376 181.236 444.943C181.002 444.51 180.681 444.176 180.274 443.942C179.875 443.708 179.433 443.591 178.948 443.591C178.445 443.591 177.994 443.704 177.596 443.929C177.197 444.154 176.881 444.484 176.647 444.917C176.421 445.342 176.309 445.849 176.309 446.438C176.309 447.019 176.421 447.53 176.647 447.972C176.881 448.405 177.197 448.739 177.596 448.973C177.994 449.198 178.445 449.311 178.948 449.311C179.433 449.311 179.875 449.194 180.274 448.96C180.681 448.726 181.002 448.392 181.236 447.959C181.47 447.526 181.587 447.023 181.587 446.451Z" fill="black"/>
</g>
</g>
<path d="M94.9001 300.832H99.6041C99.6041 302.816 99.4121 304.693 99.0281 306.464C98.6655 308.235 98.2175 309.675 97.6841 310.784C96.5535 313.088 95.5508 314.656 94.6761 315.488L94.1001 316H87.6681L86.0681 310.848C85.6201 311.893 85.0975 312.843 84.5001 313.696C83.9241 314.549 83.4548 315.147 83.0921 315.488L82.5801 316H77.1401L72.4681 300.832H80.4041L81.7801 310.4C81.9081 310.272 82.0788 310.08 82.2921 309.824C82.5055 309.547 82.8361 308.907 83.2841 307.904C83.7321 306.88 84.0628 305.771 84.2761 304.576L83.0281 300.832H90.9321L92.1801 310.368C92.7988 309.749 93.3961 308.683 93.9721 307.168C94.5908 305.461 94.9001 303.349 94.9001 300.832ZM108.289 316.32C105.878 316.32 103.852 315.627 102.209 314.24C100.588 312.832 99.7769 310.773 99.7769 308.064C99.7769 306.357 100.193 304.907 101.025 303.712C102.54 301.493 104.886 300.384 108.065 300.384C110.497 300.384 112.353 300.875 113.633 301.856C114.913 302.816 115.553 304.149 115.553 305.856C115.553 307.179 115.02 308.256 113.953 309.088C112.908 309.899 111.372 310.304 109.345 310.304C108.513 310.304 107.766 310.24 107.105 310.112L106.753 310.048C106.86 310.816 107.19 311.392 107.745 311.776C108.321 312.139 109.004 312.32 109.793 312.32C111.094 312.32 112.204 311.925 113.121 311.136L115.105 313.536C114.764 313.941 114.358 314.325 113.889 314.688C113.42 315.029 112.673 315.392 111.649 315.776C110.625 316.139 109.505 316.32 108.289 316.32ZM110.881 305.568C110.881 305.141 110.71 304.789 110.369 304.512C110.049 304.235 109.601 304.096 109.025 304.096C108.449 304.096 107.905 304.352 107.393 304.864C106.902 305.376 106.657 305.984 106.657 306.688C107.126 306.901 107.734 307.008 108.481 307.008C109.249 307.008 109.836 306.88 110.241 306.624C110.668 306.347 110.881 305.995 110.881 305.568ZM123.648 295.232L122.784 316H116.896L116.032 295.232H123.648ZM138.971 313.76C137.371 315.467 135.227 316.32 132.539 316.32C129.872 316.32 127.803 315.605 126.331 314.176C124.859 312.725 124.123 310.688 124.123 308.064C124.123 305.44 124.912 303.509 126.491 302.272C128.07 301.013 130.043 300.384 132.411 300.384C133.414 300.384 134.374 300.48 135.291 300.672C136.23 300.864 136.912 301.067 137.339 301.28L137.979 301.568L137.275 304.864C136.4 304.608 135.494 304.48 134.555 304.48C133.638 304.48 132.795 304.779 132.027 305.376C131.28 305.952 130.907 306.848 130.907 308.064C130.907 310.795 131.963 312.16 134.075 312.16C134.63 312.16 135.163 312.096 135.675 311.968C136.187 311.819 136.56 311.669 136.795 311.52L137.147 311.328L138.971 313.76ZM140.803 314.432C139.267 313.152 138.499 311.125 138.499 308.352C138.499 305.579 139.267 303.563 140.803 302.304C142.361 301.024 144.43 300.384 147.011 300.384C149.593 300.384 151.651 301.024 153.187 302.304C154.745 303.563 155.523 305.579 155.523 308.352C155.523 311.125 154.745 313.152 153.187 314.432C151.651 315.691 149.593 316.32 147.011 316.32C144.43 316.32 142.361 315.691 140.803 314.432ZM145.667 304.736C145.411 305.461 145.283 306.667 145.283 308.352C145.283 310.037 145.411 311.253 145.667 312C145.923 312.725 146.371 313.088 147.011 313.088C147.651 313.088 148.099 312.725 148.355 312C148.611 311.253 148.739 310.037 148.739 308.352C148.739 306.667 148.611 305.461 148.355 304.736C148.099 303.989 147.651 303.616 147.011 303.616C146.371 303.616 145.923 303.989 145.667 304.736ZM179.076 300.384C180.804 300.384 182.084 301.067 182.916 302.432C183.748 303.797 184.164 305.44 184.164 307.36C184.164 309.259 183.919 312.139 183.428 316H177.828L177.124 308.576C176.996 307.296 176.826 306.443 176.612 306.016C176.399 305.589 176.036 305.376 175.524 305.376C174.308 305.376 173.626 306.453 173.476 308.608L172.932 316H167.236L166.532 308.576C166.404 307.296 166.234 306.443 166.02 306.016C165.807 305.589 165.444 305.376 164.932 305.376C163.674 305.376 162.991 306.453 162.884 308.608L162.564 316H156.676L156.004 300.832H163.236L163.108 303.872C163.151 303.787 163.204 303.669 163.268 303.52C163.354 303.349 163.546 303.061 163.844 302.656C164.164 302.251 164.516 301.899 164.9 301.6C165.284 301.301 165.807 301.024 166.468 300.768C167.151 300.512 167.876 300.384 168.644 300.384C169.882 300.384 170.884 300.779 171.652 301.568C172.442 302.357 172.954 303.232 173.188 304.192C173.508 303.659 173.786 303.232 174.02 302.912C174.255 302.592 174.607 302.208 175.076 301.76C176.036 300.843 177.37 300.384 179.076 300.384ZM193.17 316.32C190.759 316.32 188.733 315.627 187.09 314.24C185.469 312.832 184.658 310.773 184.658 308.064C184.658 306.357 185.074 304.907 185.906 303.712C187.421 301.493 189.767 300.384 192.946 300.384C195.378 300.384 197.234 300.875 198.514 301.856C199.794 302.816 200.434 304.149 200.434 305.856C200.434 307.179 199.901 308.256 198.834 309.088C197.789 309.899 196.253 310.304 194.226 310.304C193.394 310.304 192.647 310.24 191.986 310.112L191.634 310.048C191.741 310.816 192.071 311.392 192.626 311.776C193.202 312.139 193.885 312.32 194.674 312.32C195.975 312.32 197.085 311.925 198.002 311.136L199.986 313.536C199.645 313.941 199.239 314.325 198.77 314.688C198.301 315.029 197.554 315.392 196.53 315.776C195.506 316.139 194.386 316.32 193.17 316.32ZM195.762 305.568C195.762 305.141 195.591 304.789 195.25 304.512C194.93 304.235 194.482 304.096 193.906 304.096C193.33 304.096 192.786 304.352 192.274 304.864C191.783 305.376 191.538 305.984 191.538 306.688C192.007 306.901 192.615 307.008 193.362 307.008C194.13 307.008 194.717 306.88 195.122 306.624C195.549 306.347 195.762 305.995 195.762 305.568ZM214.519 310.304C214.498 311.541 214.935 312.16 215.831 312.16C216.087 312.16 216.397 312.043 216.759 311.808L217.431 314.912C217.303 315.019 217.122 315.157 216.887 315.328C216.674 315.477 216.194 315.68 215.447 315.936C214.722 316.192 213.965 316.32 213.175 316.32C211.725 316.32 210.541 315.829 209.623 314.848C208.706 313.845 208.215 312.576 208.151 311.04L207.863 304.992H205.399L205.783 300.832H207.703L207.575 297.696L215.159 296.16L214.935 300.832H216.791L217.175 304.992H214.743L214.519 310.304ZM220.216 314.432C218.68 313.152 217.912 311.125 217.912 308.352C217.912 305.579 218.68 303.563 220.216 302.304C221.773 301.024 223.843 300.384 226.424 300.384C229.005 300.384 231.064 301.024 232.6 302.304C234.157 303.563 234.936 305.579 234.936 308.352C234.936 311.125 234.157 313.152 232.6 314.432C231.064 315.691 229.005 316.32 226.424 316.32C223.843 316.32 221.773 315.691 220.216 314.432ZM225.08 304.736C224.824 305.461 224.696 306.667 224.696 308.352C224.696 310.037 224.824 311.253 225.08 312C225.336 312.725 225.784 313.088 226.424 313.088C227.064 313.088 227.512 312.725 227.768 312C228.024 311.253 228.152 310.037 228.152 308.352C228.152 306.667 228.024 305.461 227.768 304.736C227.512 303.989 227.064 303.616 226.424 303.616C225.784 303.616 225.336 303.989 225.08 304.736ZM248.159 295.232L247.295 316H241.407L240.543 295.232H248.159ZM256.41 301.28L256.954 301.088L255.866 316H249.818L248.794 301.088C250.01 301.579 251.301 301.824 252.666 301.824C254.053 301.824 255.301 301.643 256.41 301.28ZM252.858 300.416C251.792 300.416 250.896 300.096 250.17 299.456C249.445 298.816 249.082 297.984 249.082 296.96C249.082 295.915 249.434 295.083 250.138 294.464C250.864 293.824 251.76 293.504 252.826 293.504C253.914 293.504 254.821 293.824 255.546 294.464C256.272 295.104 256.634 295.936 256.634 296.96C256.634 297.984 256.272 298.816 255.546 299.456C254.821 300.096 253.925 300.416 252.858 300.416ZM259.208 300.832C259.208 298.869 259.667 297.376 260.584 296.352C261.523 295.307 263.101 294.784 265.32 294.784C266.301 294.784 267.24 294.923 268.136 295.2L268.488 298.304C268.168 298.219 267.848 298.176 267.528 298.176C266.483 298.176 265.96 298.923 265.96 300.416V300.832H267.912L268.296 304.992H266.152L265.672 316H259.784L259.304 304.992H257.288L257.672 300.832H259.208ZM277.149 316.32C274.738 316.32 272.712 315.627 271.069 314.24C269.448 312.832 268.637 310.773 268.637 308.064C268.637 306.357 269.053 304.907 269.885 303.712C271.4 301.493 273.746 300.384 276.925 300.384C279.357 300.384 281.213 300.875 282.493 301.856C283.773 302.816 284.413 304.149 284.413 305.856C284.413 307.179 283.88 308.256 282.813 309.088C281.768 309.899 280.232 310.304 278.205 310.304C277.373 310.304 276.626 310.24 275.965 310.112L275.613 310.048C275.72 310.816 276.05 311.392 276.605 311.776C277.181 312.139 277.864 312.32 278.653 312.32C279.954 312.32 281.064 311.925 281.981 311.136L283.965 313.536C283.624 313.941 283.218 314.325 282.749 314.688C282.28 315.029 281.533 315.392 280.509 315.776C279.485 316.139 278.365 316.32 277.149 316.32ZM279.741 305.568C279.741 305.141 279.57 304.789 279.229 304.512C278.909 304.235 278.461 304.096 277.885 304.096C277.309 304.096 276.765 304.352 276.253 304.864C275.762 305.376 275.517 305.984 275.517 306.688C275.986 306.901 276.594 307.008 277.341 307.008C278.109 307.008 278.696 306.88 279.101 306.624C279.528 306.347 279.741 305.995 279.741 305.568Z" fill="black"/>
<rect width="266" height="49" transform="translate(48 532)" fill="#070616"/>
<path d="M154.52 562.5L152.056 558.148H151V562.5H148.76V551.332H152.952C153.816 551.332 154.552 551.487 155.16 551.796C155.768 552.095 156.222 552.505 156.52 553.028C156.83 553.54 156.984 554.116 156.984 554.756C156.984 555.492 156.771 556.159 156.344 556.756C155.918 557.343 155.283 557.748 154.44 557.972L157.112 562.5H154.52ZM151 556.468H152.872C153.48 556.468 153.934 556.324 154.232 556.036C154.531 555.737 154.68 555.327 154.68 554.804C154.68 554.292 154.531 553.897 154.232 553.62C153.934 553.332 153.48 553.188 152.872 553.188H151V556.468ZM167.25 557.876C167.25 558.196 167.229 558.484 167.186 558.74H160.706C160.76 559.38 160.984 559.881 161.378 560.244C161.773 560.607 162.258 560.788 162.834 560.788C163.666 560.788 164.258 560.431 164.61 559.716H167.026C166.77 560.569 166.28 561.273 165.554 561.828C164.829 562.372 163.938 562.644 162.882 562.644C162.029 562.644 161.261 562.457 160.578 562.084C159.906 561.7 159.378 561.161 158.994 560.468C158.621 559.775 158.434 558.975 158.434 558.068C158.434 557.151 158.621 556.345 158.994 555.652C159.368 554.959 159.89 554.425 160.562 554.052C161.234 553.679 162.008 553.492 162.882 553.492C163.725 553.492 164.477 553.673 165.138 554.036C165.81 554.399 166.328 554.916 166.69 555.588C167.064 556.249 167.25 557.012 167.25 557.876ZM164.93 557.236C164.92 556.66 164.712 556.201 164.306 555.86C163.901 555.508 163.405 555.332 162.818 555.332C162.264 555.332 161.794 555.503 161.41 555.844C161.037 556.175 160.808 556.639 160.722 557.236H164.93ZM172.357 553.492C173.019 553.492 173.6 553.625 174.101 553.892C174.603 554.148 174.997 554.484 175.285 554.9V553.636H177.541V562.564C177.541 563.385 177.376 564.116 177.045 564.756C176.715 565.407 176.219 565.919 175.557 566.292C174.896 566.676 174.096 566.868 173.157 566.868C171.899 566.868 170.864 566.575 170.053 565.988C169.253 565.401 168.8 564.601 168.693 563.588H170.917C171.035 563.993 171.285 564.313 171.669 564.548C172.064 564.793 172.539 564.916 173.093 564.916C173.744 564.916 174.272 564.719 174.677 564.324C175.083 563.94 175.285 563.353 175.285 562.564V561.188C174.997 561.604 174.597 561.951 174.085 562.228C173.584 562.505 173.008 562.644 172.357 562.644C171.611 562.644 170.928 562.452 170.309 562.068C169.691 561.684 169.2 561.145 168.837 560.452C168.485 559.748 168.309 558.943 168.309 558.036C168.309 557.14 168.485 556.345 168.837 555.652C169.2 554.959 169.685 554.425 170.293 554.052C170.912 553.679 171.6 553.492 172.357 553.492ZM175.285 558.068C175.285 557.524 175.179 557.06 174.965 556.676C174.752 556.281 174.464 555.983 174.101 555.78C173.739 555.567 173.349 555.46 172.933 555.46C172.517 555.46 172.133 555.561 171.781 555.764C171.429 555.967 171.141 556.265 170.917 556.66C170.704 557.044 170.597 557.503 170.597 558.036C170.597 558.569 170.704 559.039 170.917 559.444C171.141 559.839 171.429 560.143 171.781 560.356C172.144 560.569 172.528 560.676 172.933 560.676C173.349 560.676 173.739 560.575 174.101 560.372C174.464 560.159 174.752 559.86 174.965 559.476C175.179 559.081 175.285 558.612 175.285 558.068ZM180.865 552.58C180.47 552.58 180.14 552.457 179.873 552.212C179.617 551.956 179.489 551.641 179.489 551.268C179.489 550.895 179.617 550.585 179.873 550.34C180.14 550.084 180.47 549.956 180.865 549.956C181.26 549.956 181.585 550.084 181.841 550.34C182.108 550.585 182.241 550.895 182.241 551.268C182.241 551.641 182.108 551.956 181.841 552.212C181.585 552.457 181.26 552.58 180.865 552.58ZM181.969 553.636V562.5H179.729V553.636H181.969ZM187.574 562.644C186.849 562.644 186.198 562.516 185.622 562.26C185.046 561.993 184.587 561.636 184.246 561.188C183.915 560.74 183.734 560.244 183.702 559.7H185.958C186.001 560.041 186.166 560.324 186.454 560.548C186.753 560.772 187.121 560.884 187.558 560.884C187.985 560.884 188.315 560.799 188.55 560.628C188.795 560.457 188.918 560.239 188.918 559.972C188.918 559.684 188.769 559.471 188.47 559.332C188.182 559.183 187.718 559.023 187.078 558.852C186.417 558.692 185.873 558.527 185.446 558.356C185.03 558.185 184.667 557.924 184.358 557.572C184.059 557.22 183.91 556.745 183.91 556.148C183.91 555.657 184.049 555.209 184.326 554.804C184.614 554.399 185.019 554.079 185.542 553.844C186.075 553.609 186.699 553.492 187.414 553.492C188.47 553.492 189.313 553.759 189.942 554.292C190.571 554.815 190.918 555.524 190.982 556.42H188.838C188.806 556.068 188.657 555.791 188.39 555.588C188.134 555.375 187.787 555.268 187.35 555.268C186.945 555.268 186.63 555.343 186.406 555.492C186.193 555.641 186.086 555.849 186.086 556.116C186.086 556.415 186.235 556.644 186.534 556.804C186.833 556.953 187.297 557.108 187.926 557.268C188.566 557.428 189.094 557.593 189.51 557.764C189.926 557.935 190.283 558.201 190.582 558.564C190.891 558.916 191.051 559.385 191.062 559.972C191.062 560.484 190.918 560.943 190.63 561.348C190.353 561.753 189.947 562.073 189.414 562.308C188.891 562.532 188.278 562.644 187.574 562.644ZM195.509 555.476V559.764C195.509 560.063 195.578 560.281 195.717 560.42C195.866 560.548 196.112 560.612 196.453 560.612H197.493V562.5H196.085C194.197 562.5 193.253 561.583 193.253 559.748V555.476H192.197V553.636H193.253V551.444H195.509V553.636H197.493V555.476H195.509ZM207.344 557.876C207.344 558.196 207.323 558.484 207.28 558.74H200.8C200.853 559.38 201.077 559.881 201.472 560.244C201.867 560.607 202.352 560.788 202.928 560.788C203.76 560.788 204.352 560.431 204.704 559.716H207.12C206.864 560.569 206.373 561.273 205.648 561.828C204.923 562.372 204.032 562.644 202.976 562.644C202.123 562.644 201.355 562.457 200.672 562.084C200 561.7 199.472 561.161 199.088 560.468C198.715 559.775 198.528 558.975 198.528 558.068C198.528 557.151 198.715 556.345 199.088 555.652C199.461 554.959 199.984 554.425 200.656 554.052C201.328 553.679 202.101 553.492 202.976 553.492C203.819 553.492 204.571 553.673 205.232 554.036C205.904 554.399 206.421 554.916 206.784 555.588C207.157 556.249 207.344 557.012 207.344 557.876ZM205.024 557.236C205.013 556.66 204.805 556.201 204.4 555.86C203.995 555.508 203.499 555.332 202.912 555.332C202.357 555.332 201.888 555.503 201.504 555.844C201.131 556.175 200.901 556.639 200.816 557.236H205.024ZM211.219 555.012C211.507 554.543 211.88 554.175 212.339 553.908C212.808 553.641 213.342 553.508 213.939 553.508V555.86H213.347C212.643 555.86 212.11 556.025 211.747 556.356C211.395 556.687 211.219 557.263 211.219 558.084V562.5H208.979V553.636H211.219V555.012Z" fill="#D9D9D9"/>
<path d="M47.0274 625.536C47.0274 624.64 47.2034 623.845 47.5554 623.152C47.918 622.459 48.4087 621.925 49.0274 621.552C49.646 621.179 50.334 620.992 51.0914 620.992C51.6674 620.992 52.2167 621.12 52.7394 621.376C53.262 621.621 53.678 621.952 53.9874 622.368V618.16H56.2594V630H53.9874V628.688C53.71 629.125 53.3207 629.477 52.8194 629.744C52.318 630.011 51.7367 630.144 51.0754 630.144C50.3287 630.144 49.646 629.952 49.0274 629.568C48.4087 629.184 47.918 628.645 47.5554 627.952C47.2034 627.248 47.0274 626.443 47.0274 625.536ZM54.0034 625.568C54.0034 625.024 53.8967 624.56 53.6834 624.176C53.47 623.781 53.182 623.483 52.8194 623.28C52.4567 623.067 52.0674 622.96 51.6514 622.96C51.2354 622.96 50.8514 623.061 50.4994 623.264C50.1474 623.467 49.8594 623.765 49.6354 624.16C49.422 624.544 49.3154 625.003 49.3154 625.536C49.3154 626.069 49.422 626.539 49.6354 626.944C49.8594 627.339 50.1474 627.643 50.4994 627.856C50.862 628.069 51.246 628.176 51.6514 628.176C52.0674 628.176 52.4567 628.075 52.8194 627.872C53.182 627.659 53.47 627.36 53.6834 626.976C53.8967 626.581 54.0034 626.112 54.0034 625.568ZM62.3831 630.144C61.5298 630.144 60.7618 629.957 60.0791 629.584C59.3965 629.2 58.8578 628.661 58.4631 627.968C58.0791 627.275 57.8871 626.475 57.8871 625.568C57.8871 624.661 58.0845 623.861 58.4791 623.168C58.8845 622.475 59.4338 621.941 60.1271 621.568C60.8205 621.184 61.5938 620.992 62.4471 620.992C63.3005 620.992 64.0738 621.184 64.7671 621.568C65.4605 621.941 66.0045 622.475 66.3991 623.168C66.8045 623.861 67.0071 624.661 67.0071 625.568C67.0071 626.475 66.7991 627.275 66.3831 627.968C65.9778 628.661 65.4231 629.2 64.7191 629.584C64.0258 629.957 63.2471 630.144 62.3831 630.144ZM62.3831 628.192C62.7885 628.192 63.1671 628.096 63.5191 627.904C63.8818 627.701 64.1698 627.403 64.3831 627.008C64.5965 626.613 64.7031 626.133 64.7031 625.568C64.7031 624.725 64.4791 624.08 64.0311 623.632C63.5938 623.173 63.0551 622.944 62.4151 622.944C61.7751 622.944 61.2365 623.173 60.7991 623.632C60.3725 624.08 60.1591 624.725 60.1591 625.568C60.1591 626.411 60.3671 627.061 60.7831 627.52C61.2098 627.968 61.7431 628.192 62.3831 628.192ZM73.5622 621.008C74.6182 621.008 75.4716 621.344 76.1222 622.016C76.7729 622.677 77.0982 623.605 77.0982 624.8V630H74.8582V625.104C74.8582 624.4 74.6822 623.861 74.3302 623.488C73.9782 623.104 73.4982 622.912 72.8902 622.912C72.2716 622.912 71.7809 623.104 71.4182 623.488C71.0662 623.861 70.8902 624.4 70.8902 625.104V630H68.6502V621.136H70.8902V622.24C71.1889 621.856 71.5676 621.557 72.0262 621.344C72.4956 621.12 73.0076 621.008 73.5622 621.008ZM79.6764 618.832H82.0284L80.3004 622.864H78.7644L79.6764 618.832ZM86.2426 622.976V627.264C86.2426 627.563 86.312 627.781 86.4506 627.92C86.6 628.048 86.8453 628.112 87.1866 628.112H88.2266V630H86.8186C84.9306 630 83.9866 629.083 83.9866 627.248V622.976H82.9306V621.136H83.9866V618.944H86.2426V621.136H88.2266V622.976H86.2426ZM98.6422 621.008C99.3142 621.008 99.9116 621.157 100.434 621.456C100.957 621.744 101.362 622.176 101.65 622.752C101.949 623.317 102.098 624 102.098 624.8V630H99.8582V625.104C99.8582 624.4 99.6822 623.861 99.3302 623.488C98.9782 623.104 98.4982 622.912 97.8902 622.912C97.2716 622.912 96.7809 623.104 96.4182 623.488C96.0662 623.861 95.8902 624.4 95.8902 625.104V630H93.6502V618.16H95.8902V622.24C96.1782 621.856 96.5622 621.557 97.0422 621.344C97.5222 621.12 98.0556 621.008 98.6422 621.008ZM103.652 625.536C103.652 624.64 103.828 623.845 104.18 623.152C104.543 622.459 105.028 621.925 105.636 621.552C106.255 621.179 106.943 620.992 107.7 620.992C108.362 620.992 108.938 621.125 109.428 621.392C109.93 621.659 110.33 621.995 110.628 622.4V621.136H112.884V630H110.628V628.704C110.34 629.12 109.94 629.467 109.428 629.744C108.927 630.011 108.346 630.144 107.684 630.144C106.938 630.144 106.255 629.952 105.636 629.568C105.028 629.184 104.543 628.645 104.18 627.952C103.828 627.248 103.652 626.443 103.652 625.536ZM110.628 625.568C110.628 625.024 110.522 624.56 110.308 624.176C110.095 623.781 109.807 623.483 109.444 623.28C109.082 623.067 108.692 622.96 108.276 622.96C107.86 622.96 107.476 623.061 107.124 623.264C106.772 623.467 106.484 623.765 106.26 624.16C106.047 624.544 105.94 625.003 105.94 625.536C105.94 626.069 106.047 626.539 106.26 626.944C106.484 627.339 106.772 627.643 107.124 627.856C107.487 628.069 107.871 628.176 108.276 628.176C108.692 628.176 109.082 628.075 109.444 627.872C109.807 627.659 110.095 627.36 110.308 626.976C110.522 626.581 110.628 626.112 110.628 625.568ZM118.768 627.936L121.008 621.136H123.392L120.112 630H117.392L114.128 621.136H116.528L118.768 627.936ZM132.89 625.376C132.89 625.696 132.869 625.984 132.826 626.24H126.346C126.4 626.88 126.624 627.381 127.018 627.744C127.413 628.107 127.898 628.288 128.474 628.288C129.306 628.288 129.898 627.931 130.25 627.216H132.666C132.41 628.069 131.92 628.773 131.194 629.328C130.469 629.872 129.578 630.144 128.522 630.144C127.669 630.144 126.901 629.957 126.218 629.584C125.546 629.2 125.018 628.661 124.634 627.968C124.261 627.275 124.074 626.475 124.074 625.568C124.074 624.651 124.261 623.845 124.634 623.152C125.008 622.459 125.53 621.925 126.202 621.552C126.874 621.179 127.648 620.992 128.522 620.992C129.365 620.992 130.117 621.173 130.778 621.536C131.45 621.899 131.968 622.416 132.33 623.088C132.704 623.749 132.89 624.512 132.89 625.376ZM130.57 624.736C130.56 624.16 130.352 623.701 129.946 623.36C129.541 623.008 129.045 622.832 128.458 622.832C127.904 622.832 127.434 623.003 127.05 623.344C126.677 623.675 126.448 624.139 126.362 624.736H130.57ZM137.762 625.536C137.762 624.64 137.938 623.845 138.29 623.152C138.652 622.459 139.138 621.925 139.746 621.552C140.364 621.179 141.052 620.992 141.81 620.992C142.471 620.992 143.047 621.125 143.538 621.392C144.039 621.659 144.439 621.995 144.738 622.4V621.136H146.994V630H144.738V628.704C144.45 629.12 144.05 629.467 143.538 629.744C143.036 630.011 142.455 630.144 141.794 630.144C141.047 630.144 140.364 629.952 139.746 629.568C139.138 629.184 138.652 628.645 138.29 627.952C137.938 627.248 137.762 626.443 137.762 625.536ZM144.738 625.568C144.738 625.024 144.631 624.56 144.418 624.176C144.204 623.781 143.916 623.483 143.554 623.28C143.191 623.067 142.802 622.96 142.386 622.96C141.97 622.96 141.586 623.061 141.234 623.264C140.882 623.467 140.594 623.765 140.37 624.16C140.156 624.544 140.05 625.003 140.05 625.536C140.05 626.069 140.156 626.539 140.37 626.944C140.594 627.339 140.882 627.643 141.234 627.856C141.596 628.069 141.98 628.176 142.386 628.176C142.802 628.176 143.191 628.075 143.554 627.872C143.916 627.659 144.204 627.36 144.418 626.976C144.631 626.581 144.738 626.112 144.738 625.568ZM154.093 621.008C155.149 621.008 156.003 621.344 156.653 622.016C157.304 622.677 157.629 623.605 157.629 624.8V630H155.389V625.104C155.389 624.4 155.213 623.861 154.861 623.488C154.509 623.104 154.029 622.912 153.421 622.912C152.803 622.912 152.312 623.104 151.949 623.488C151.597 623.861 151.421 624.4 151.421 625.104V630H149.181V621.136H151.421V622.24C151.72 621.856 152.099 621.557 152.557 621.344C153.027 621.12 153.539 621.008 154.093 621.008ZM162.996 625.536C162.996 624.64 163.172 623.845 163.524 623.152C163.887 622.459 164.372 621.925 164.98 621.552C165.599 621.179 166.287 620.992 167.044 620.992C167.705 620.992 168.281 621.125 168.772 621.392C169.273 621.659 169.673 621.995 169.972 622.4V621.136H172.228V630H169.972V628.704C169.684 629.12 169.284 629.467 168.772 629.744C168.271 630.011 167.689 630.144 167.028 630.144C166.281 630.144 165.599 629.952 164.98 629.568C164.372 629.184 163.887 628.645 163.524 627.952C163.172 627.248 162.996 626.443 162.996 625.536ZM169.972 625.568C169.972 625.024 169.865 624.56 169.652 624.176C169.439 623.781 169.151 623.483 168.788 623.28C168.425 623.067 168.036 622.96 167.62 622.96C167.204 622.96 166.82 623.061 166.468 623.264C166.116 623.467 165.828 623.765 165.604 624.16C165.391 624.544 165.284 625.003 165.284 625.536C165.284 626.069 165.391 626.539 165.604 626.944C165.828 627.339 166.116 627.643 166.468 627.856C166.831 628.069 167.215 628.176 167.62 628.176C168.036 628.176 168.425 628.075 168.788 627.872C169.151 627.659 169.439 627.36 169.652 626.976C169.865 626.581 169.972 626.112 169.972 625.568ZM173.84 625.568C173.84 624.651 174.027 623.851 174.4 623.168C174.773 622.475 175.291 621.941 175.952 621.568C176.613 621.184 177.371 620.992 178.224 620.992C179.323 620.992 180.229 621.269 180.944 621.824C181.669 622.368 182.155 623.136 182.4 624.128H179.984C179.856 623.744 179.637 623.445 179.328 623.232C179.029 623.008 178.656 622.896 178.208 622.896C177.568 622.896 177.061 623.131 176.688 623.6C176.315 624.059 176.128 624.715 176.128 625.568C176.128 626.411 176.315 627.067 176.688 627.536C177.061 627.995 177.568 628.224 178.208 628.224C179.115 628.224 179.707 627.819 179.984 627.008H182.4C182.155 627.968 181.669 628.731 180.944 629.296C180.219 629.861 179.312 630.144 178.224 630.144C177.371 630.144 176.613 629.957 175.952 629.584C175.291 629.2 174.773 628.667 174.4 627.984C174.027 627.291 173.84 626.485 173.84 625.568ZM183.465 625.568C183.465 624.651 183.652 623.851 184.025 623.168C184.398 622.475 184.916 621.941 185.577 621.568C186.238 621.184 186.996 620.992 187.849 620.992C188.948 620.992 189.854 621.269 190.569 621.824C191.294 622.368 191.78 623.136 192.025 624.128H189.609C189.481 623.744 189.262 623.445 188.953 623.232C188.654 623.008 188.281 622.896 187.833 622.896C187.193 622.896 186.686 623.131 186.313 623.6C185.94 624.059 185.753 624.715 185.753 625.568C185.753 626.411 185.94 627.067 186.313 627.536C186.686 627.995 187.193 628.224 187.833 628.224C188.74 628.224 189.332 627.819 189.609 627.008H192.025C191.78 627.968 191.294 628.731 190.569 629.296C189.844 629.861 188.937 630.144 187.849 630.144C186.996 630.144 186.238 629.957 185.577 629.584C184.916 629.2 184.398 628.667 184.025 627.984C183.652 627.291 183.465 626.485 183.465 625.568ZM197.602 630.144C196.749 630.144 195.981 629.957 195.298 629.584C194.615 629.2 194.077 628.661 193.682 627.968C193.298 627.275 193.106 626.475 193.106 625.568C193.106 624.661 193.303 623.861 193.698 623.168C194.103 622.475 194.653 621.941 195.346 621.568C196.039 621.184 196.813 620.992 197.666 620.992C198.519 620.992 199.293 621.184 199.986 621.568C200.679 621.941 201.223 622.475 201.618 623.168C202.023 623.861 202.226 624.661 202.226 625.568C202.226 626.475 202.018 627.275 201.602 627.968C201.197 628.661 200.642 629.2 199.938 629.584C199.245 629.957 198.466 630.144 197.602 630.144ZM197.602 628.192C198.007 628.192 198.386 628.096 198.738 627.904C199.101 627.701 199.389 627.403 199.602 627.008C199.815 626.613 199.922 626.133 199.922 625.568C199.922 624.725 199.698 624.08 199.25 623.632C198.813 623.173 198.274 622.944 197.634 622.944C196.994 622.944 196.455 623.173 196.018 623.632C195.591 624.08 195.378 624.725 195.378 625.568C195.378 626.411 195.586 627.061 196.002 627.52C196.429 627.968 196.962 628.192 197.602 628.192ZM212.237 621.136V630H209.981V628.88C209.693 629.264 209.314 629.568 208.845 629.792C208.386 630.005 207.885 630.112 207.341 630.112C206.648 630.112 206.034 629.968 205.501 629.68C204.968 629.381 204.546 628.949 204.237 628.384C203.938 627.808 203.789 627.125 203.789 626.336V621.136H206.029V626.016C206.029 626.72 206.205 627.264 206.557 627.648C206.909 628.021 207.389 628.208 207.997 628.208C208.616 628.208 209.101 628.021 209.453 627.648C209.805 627.264 209.981 626.72 209.981 626.016V621.136H212.237ZM219.359 621.008C220.415 621.008 221.268 621.344 221.919 622.016C222.57 622.677 222.895 623.605 222.895 624.8V630H220.655V625.104C220.655 624.4 220.479 623.861 220.127 623.488C219.775 623.104 219.295 622.912 218.687 622.912C218.068 622.912 217.578 623.104 217.215 623.488C216.863 623.861 216.687 624.4 216.687 625.104V630H214.447V621.136H216.687V622.24C216.986 621.856 217.364 621.557 217.823 621.344C218.292 621.12 218.804 621.008 219.359 621.008ZM227.633 622.976V627.264C227.633 627.563 227.703 627.781 227.841 627.92C227.991 628.048 228.236 628.112 228.577 628.112H229.617V630H228.209C226.321 630 225.377 629.083 225.377 627.248V622.976H224.321V621.136H225.377V618.944H227.633V621.136H229.617V622.976H227.633ZM234.348 618.448C235.458 618.448 236.348 618.752 237.02 619.36C237.703 619.957 238.044 620.784 238.044 621.84C238.044 622.885 237.708 623.685 237.036 624.24C236.364 624.784 235.474 625.056 234.364 625.056L234.3 626.288H232.332L232.252 623.568H232.972C233.9 623.568 234.615 623.445 235.116 623.2C235.618 622.955 235.868 622.507 235.868 621.856C235.868 621.387 235.73 621.013 235.452 620.736C235.186 620.459 234.818 620.32 234.348 620.32C233.858 620.32 233.474 620.453 233.196 620.72C232.93 620.987 232.796 621.355 232.796 621.824H230.684C230.674 621.173 230.812 620.592 231.1 620.08C231.388 619.568 231.81 619.168 232.364 618.88C232.93 618.592 233.591 618.448 234.348 618.448ZM233.308 630.112C232.903 630.112 232.567 629.989 232.3 629.744C232.044 629.488 231.916 629.173 231.916 628.8C231.916 628.427 232.044 628.117 232.3 627.872C232.567 627.616 232.903 627.488 233.308 627.488C233.703 627.488 234.028 627.616 234.284 627.872C234.54 628.117 234.668 628.427 234.668 628.8C234.668 629.173 234.54 629.488 234.284 629.744C234.028 629.989 233.703 630.112 233.308 630.112Z" fill="black"/>
<path d="M248.562 630.112C247.741 630.112 247.005 629.979 246.354 629.712C245.704 629.445 245.181 629.051 244.786 628.528C244.402 628.005 244.2 627.376 244.178 626.64H247.09C247.133 627.056 247.277 627.376 247.522 627.6C247.768 627.813 248.088 627.92 248.482 627.92C248.888 627.92 249.208 627.829 249.442 627.648C249.677 627.456 249.794 627.195 249.794 626.864C249.794 626.587 249.698 626.357 249.506 626.176C249.325 625.995 249.096 625.845 248.818 625.728C248.552 625.611 248.168 625.477 247.666 625.328C246.941 625.104 246.349 624.88 245.89 624.656C245.432 624.432 245.037 624.101 244.706 623.664C244.376 623.227 244.21 622.656 244.21 621.952C244.21 620.907 244.589 620.091 245.346 619.504C246.104 618.907 247.09 618.608 248.306 618.608C249.544 618.608 250.541 618.907 251.298 619.504C252.056 620.091 252.461 620.912 252.514 621.968H249.554C249.533 621.605 249.4 621.323 249.154 621.12C248.909 620.907 248.594 620.8 248.21 620.8C247.88 620.8 247.613 620.891 247.41 621.072C247.208 621.243 247.106 621.493 247.106 621.824C247.106 622.187 247.277 622.469 247.618 622.672C247.96 622.875 248.493 623.093 249.218 623.328C249.944 623.573 250.53 623.808 250.978 624.032C251.437 624.256 251.832 624.581 252.162 625.008C252.493 625.435 252.658 625.984 252.658 626.656C252.658 627.296 252.493 627.877 252.162 628.4C251.842 628.923 251.373 629.339 250.754 629.648C250.136 629.957 249.405 630.112 248.562 630.112ZM256.678 620.144C256.198 620.144 255.803 620.005 255.494 619.728C255.195 619.44 255.046 619.088 255.046 618.672C255.046 618.245 255.195 617.893 255.494 617.616C255.803 617.328 256.198 617.184 256.678 617.184C257.147 617.184 257.531 617.328 257.83 617.616C258.139 617.893 258.294 618.245 258.294 618.672C258.294 619.088 258.139 619.44 257.83 619.728C257.531 620.005 257.147 620.144 256.678 620.144ZM258.038 621.072V630H255.302V621.072H258.038ZM264.373 620.944C265.002 620.944 265.551 621.072 266.021 621.328C266.501 621.584 266.869 621.92 267.125 622.336V621.072H269.861V629.984C269.861 630.805 269.695 631.547 269.365 632.208C269.045 632.88 268.549 633.413 267.877 633.808C267.215 634.203 266.389 634.4 265.397 634.4C264.074 634.4 263.002 634.085 262.181 633.456C261.359 632.837 260.89 631.995 260.773 630.928H263.477C263.562 631.269 263.765 631.536 264.085 631.728C264.405 631.931 264.799 632.032 265.269 632.032C265.834 632.032 266.282 631.867 266.613 631.536C266.954 631.216 267.125 630.699 267.125 629.984V628.72C266.858 629.136 266.49 629.477 266.021 629.744C265.551 630 265.002 630.128 264.373 630.128C263.637 630.128 262.97 629.941 262.373 629.568C261.775 629.184 261.301 628.645 260.949 627.952C260.607 627.248 260.437 626.437 260.437 625.52C260.437 624.603 260.607 623.797 260.949 623.104C261.301 622.411 261.775 621.877 262.373 621.504C262.97 621.131 263.637 620.944 264.373 620.944ZM267.125 625.536C267.125 624.853 266.933 624.315 266.549 623.92C266.175 623.525 265.717 623.328 265.173 623.328C264.629 623.328 264.165 623.525 263.781 623.92C263.407 624.304 263.221 624.837 263.221 625.52C263.221 626.203 263.407 626.747 263.781 627.152C264.165 627.547 264.629 627.744 265.173 627.744C265.717 627.744 266.175 627.547 266.549 627.152C266.933 626.757 267.125 626.219 267.125 625.536ZM278.24 620.976C279.285 620.976 280.117 621.317 280.736 622C281.365 622.672 281.68 623.6 281.68 624.784V630H278.96V625.152C278.96 624.555 278.805 624.091 278.496 623.76C278.187 623.429 277.771 623.264 277.248 623.264C276.725 623.264 276.309 623.429 276 623.76C275.691 624.091 275.536 624.555 275.536 625.152V630H272.8V621.072H275.536V622.256C275.813 621.861 276.187 621.552 276.656 621.328C277.125 621.093 277.653 620.976 278.24 620.976ZM297.708 621.072V630H294.972V628.784C294.695 629.179 294.316 629.499 293.836 629.744C293.367 629.979 292.844 630.096 292.268 630.096C291.585 630.096 290.983 629.947 290.46 629.648C289.937 629.339 289.532 628.896 289.244 628.32C288.956 627.744 288.812 627.067 288.812 626.288V621.072H291.532V625.92C291.532 626.517 291.687 626.981 291.996 627.312C292.305 627.643 292.721 627.808 293.244 627.808C293.777 627.808 294.199 627.643 294.508 627.312C294.817 626.981 294.972 626.517 294.972 625.92V621.072H297.708ZM303.369 622.336C303.636 621.92 304.004 621.584 304.473 621.328C304.943 621.072 305.492 620.944 306.121 620.944C306.857 620.944 307.524 621.131 308.121 621.504C308.719 621.877 309.188 622.411 309.529 623.104C309.881 623.797 310.057 624.603 310.057 625.52C310.057 626.437 309.881 627.248 309.529 627.952C309.188 628.645 308.719 629.184 308.121 629.568C307.524 629.941 306.857 630.128 306.121 630.128C305.503 630.128 304.953 630 304.473 629.744C304.004 629.488 303.636 629.157 303.369 628.752V634.256H300.633V621.072H303.369V622.336ZM307.273 625.52C307.273 624.837 307.081 624.304 306.697 623.92C306.324 623.525 305.86 623.328 305.305 623.328C304.761 623.328 304.297 623.525 303.913 623.92C303.54 624.315 303.353 624.853 303.353 625.536C303.353 626.219 303.54 626.757 303.913 627.152C304.297 627.547 304.761 627.744 305.305 627.744C305.849 627.744 306.313 627.547 306.697 627.152C307.081 626.747 307.273 626.203 307.273 625.52Z" fill="#00529E"/>
<g filter="url(#filter3_d_31_31)">
<ellipse cx="38.2874" cy="39" rx="49.0276" ry="54" fill="#070616"/>
<ellipse cx="82.0271" cy="14" rx="37.9724" ry="39" fill="#070616"/>
<ellipse cx="-5.9337" cy="90" rx="48.0663" ry="50" fill="#070616"/>
</g>
</g>
<defs>
<filter id="filter0_d_31_31" x="38" y="339" width="295" height="174" filterUnits="userSpaceOnUse" color-interpolation-filters="sRGB">
<feFlood flood-opacity="0" result="BackgroundImageFix"/>
<feColorMatrix in="SourceAlpha" type="matrix" values="0 0 0 0 0 0 0 0 0 0 0 0 0 0 0 0 0 0 127 0" result="hardAlpha"/>
<feMorphology radius="2" operator="dilate" in="SourceAlpha" result="effect1_dropShadow_31_31"/>
<feOffset dx="5" dy="6"/>
<feGaussianBlur stdDeviation="4.5"/>
<feComposite in2="hardAlpha" operator="out"/>
<feColorMatrix type="matrix" values="0 0 0 0 0 0 0 0 0 0 0 0 0 0 0 0 0 0 0.16 0"/>
<feBlend mode="normal" in2="BackgroundImageFix" result="effect1_dropShadow_31_31"/>
<feBlend mode="normal" in="SourceGraphic" in2="effect1_dropShadow_31_31" result="shape"/>
</filter>
<filter id="filter1_d_31_31" x="64" y="380.5" width="233" height="37" filterUnits="userSpaceOnUse" color-interpolation-filters="sRGB">
<feFlood flood-opacity="0" result="BackgroundImageFix"/>
<feColorMatrix in="SourceAlpha" type="matrix" values="0 0 0 0 0 0 0 0 0 0 0 0 0 0 0 0 0 0 127 0" result="hardAlpha"/>
<feOffset dy="4"/>
<feGaussianBlur stdDeviation="2"/>
<feComposite in2="hardAlpha" operator="out"/>
<feColorMatrix type="matrix" values="0 0 0 0 0 0 0 0 0 0 0 0 0 0 0 0 0 0 0.16 0"/>
<feBlend mode="normal" in2="BackgroundImageFix" result="effect1_dropShadow_31_31"/>
<feBlend mode="normal" in="SourceGraphic" in2="effect1_dropShadow_31_31" result="shape"/>
</filter>
<filter id="filter2_d_31_31" x="64" y="430.5" width="233" height="37" filterUnits="userSpaceOnUse" color-interpolation-filters="sRGB">
<feFlood flood-opacity="0" result="BackgroundImageFix"/>
<feColorMatrix in="SourceAlpha" type="matrix" values="0 0 0 0 0 0 0 0 0 0 0 0 0 0 0 0 0 0 127 0" result="hardAlpha"/>
<feOffset dy="4"/>
<feGaussianBlur stdDeviation="2"/>
<feComposite in2="hardAlpha" operator="out"/>
<feColorMatrix type="matrix" values="0 0 0 0 0 0 0 0 0 0 0 0 0 0 0 0 0 0 0.16 0"/>
<feBlend mode="normal" in2="BackgroundImageFix" result="effect1_dropShadow_31_31"/>
<feBlend mode="normal" in="SourceGraphic" in2="effect1_dropShadow_31_31" result="shape"/>
</filter>
<filter id="filter3_d_31_31" x="-64" y="-29" width="194" height="185" filterUnits="userSpaceOnUse" color-interpolation-filters="sRGB">
<feFlood flood-opacity="0" result="BackgroundImageFix"/>
<feColorMatrix in="SourceAlpha" type="matrix" values="0 0 0 0 0 0 0 0 0 0 0 0 0 0 0 0 0 0 127 0" result="hardAlpha"/>
<feOffset dy="6"/>
<feGaussianBlur stdDeviation="5"/>
<feComposite in2="hardAlpha" operator="out"/>
<feColorMatrix type="matrix" values="0 0 0 0 0 0 0 0 0 0 0 0 0 0 0 0 0 0 0.14 0"/>
<feBlend mode="normal" in2="BackgroundImageFix" result="effect1_dropShadow_31_31"/>
<feBlend mode="normal" in="SourceGraphic" in2="effect1_dropShadow_31_31" result="shape"/>
</filter>
<clipPath id="clip0_31_31">
<rect width="360" height="800" rx="15" fill="white"/>
</clipPath>
</defs>
</svg>
