<svg width="360" height="800" viewBox="0 0 360 800" fill="none" xmlns="http://www.w3.org/2000/svg">
<g clip-path="url(#clip0_9_139)">
<rect width="360" height="800" rx="15" fill="#F0F0F0"/>
<ellipse cx="284.5" cy="64" rx="47.5" ry="44" fill="#09013A"/>
<path d="M264.255 65.1052V53.4689H266.715V63.0768H271.704V65.1052H264.255ZM283.573 59.287C283.573 60.556 283.333 61.6355 282.852 62.5257C282.374 63.4158 281.723 64.0958 280.897 64.5655C280.075 65.0314 279.151 65.2643 278.124 65.2643C277.09 65.2643 276.162 65.0295 275.34 64.5598C274.518 64.0901 273.869 63.4101 273.391 62.52C272.914 61.6298 272.675 60.5522 272.675 59.287C272.675 58.0181 272.914 56.9386 273.391 56.0484C273.869 55.1583 274.518 54.4802 275.34 54.0143C276.162 53.5446 277.09 53.3098 278.124 53.3098C279.151 53.3098 280.075 53.5446 280.897 54.0143C281.723 54.4802 282.374 55.1583 282.852 56.0484C283.333 56.9386 283.573 58.0181 283.573 59.287ZM281.079 59.287C281.079 58.4651 280.956 57.7719 280.71 57.2075C280.467 56.6431 280.124 56.2151 279.681 55.9234C279.238 55.6317 278.719 55.4859 278.124 55.4859C277.53 55.4859 277.011 55.6317 276.568 55.9234C276.124 56.2151 275.78 56.6431 275.533 57.2075C275.291 57.7719 275.17 58.4651 275.17 59.287C275.17 60.109 275.291 60.8022 275.533 61.3666C275.78 61.931 276.124 62.359 276.568 62.6507C277.011 62.9423 277.53 63.0882 278.124 63.0882C278.719 63.0882 279.238 62.9423 279.681 62.6507C280.124 62.359 280.467 61.931 280.71 61.3666C280.956 60.8022 281.079 60.109 281.079 59.287ZM293.112 57.2302C293.032 56.9537 292.92 56.7094 292.776 56.4973C292.632 56.2814 292.456 56.0995 292.248 55.9518C292.043 55.8003 291.809 55.6848 291.543 55.6052C291.282 55.5257 290.992 55.4859 290.674 55.4859C290.079 55.4859 289.557 55.6336 289.106 55.9291C288.659 56.2245 288.31 56.6545 288.06 57.2189C287.81 57.7795 287.685 58.4651 287.685 59.2757C287.685 60.0863 287.809 60.7757 288.055 61.3439C288.301 61.912 288.649 62.3458 289.1 62.645C289.551 62.9405 290.083 63.0882 290.697 63.0882C291.254 63.0882 291.729 62.9897 292.123 62.7927C292.521 62.592 292.824 62.3098 293.032 61.9461C293.244 61.5825 293.35 61.1526 293.35 60.6564L293.85 60.7302H290.85V58.878H295.719V60.3439C295.719 61.3666 295.504 62.2454 295.072 62.9802C294.64 63.7113 294.045 64.2757 293.288 64.6734C292.53 65.0673 291.663 65.2643 290.685 65.2643C289.594 65.2643 288.636 65.0238 287.81 64.5427C286.985 64.0579 286.341 63.3704 285.879 62.4802C285.42 61.5863 285.191 60.5257 285.191 59.2984C285.191 58.3552 285.327 57.5143 285.6 56.7757C285.877 56.0333 286.263 55.4045 286.759 54.8893C287.255 54.3742 287.833 53.9821 288.492 53.7132C289.151 53.4442 289.865 53.3098 290.634 53.3098C291.293 53.3098 291.907 53.4064 292.475 53.5995C293.043 53.7889 293.547 54.0579 293.987 54.4064C294.43 54.7548 294.791 55.1696 295.072 55.6507C295.352 56.128 295.532 56.6545 295.612 57.2302H293.112ZM308.261 59.287C308.261 60.556 308.02 61.6355 307.539 62.5257C307.062 63.4158 306.41 64.0958 305.585 64.5655C304.763 65.0314 303.838 65.2643 302.812 65.2643C301.778 65.2643 300.85 65.0295 300.028 64.5598C299.206 64.0901 298.556 63.4101 298.079 62.52C297.602 61.6298 297.363 60.5522 297.363 59.287C297.363 58.0181 297.602 56.9386 298.079 56.0484C298.556 55.1583 299.206 54.4802 300.028 54.0143C300.85 53.5446 301.778 53.3098 302.812 53.3098C303.838 53.3098 304.763 53.5446 305.585 54.0143C306.41 54.4802 307.062 55.1583 307.539 56.0484C308.02 56.9386 308.261 58.0181 308.261 59.287ZM305.766 59.287C305.766 58.4651 305.643 57.7719 305.397 57.2075C305.155 56.6431 304.812 56.2151 304.369 55.9234C303.925 55.6317 303.407 55.4859 302.812 55.4859C302.217 55.4859 301.698 55.6317 301.255 55.9234C300.812 56.2151 300.467 56.6431 300.221 57.2075C299.978 57.7719 299.857 58.4651 299.857 59.287C299.857 60.109 299.978 60.8022 300.221 61.3666C300.467 61.931 300.812 62.359 301.255 62.6507C301.698 62.9423 302.217 63.0882 302.812 63.0882C303.407 63.0882 303.925 62.9423 304.369 62.6507C304.812 62.359 305.155 61.931 305.397 61.3666C305.643 60.8022 305.766 60.109 305.766 59.287Z" fill="#FCFAFA"/>
<g filter="url(#filter0_d_9_139)">
<rect x="48" y="324" width="265" height="215" rx="25" fill="white" fill-opacity="0.65" shape-rendering="crispEdges"/>
<rect x="46" y="322" width="269" height="219" rx="27" stroke="#070616" stroke-width="4" shape-rendering="crispEdges"/>
<g filter="url(#filter1_d_9_139)">
<rect x="69" y="343" width="223" height="27" rx="13.5" stroke="#09013A" stroke-width="2" shape-rendering="crispEdges"/>
<path d="M90.462 357.587C90.462 357.899 90.4533 358.137 90.436 358.302H84.547C84.573 358.839 84.703 359.299 84.937 359.68C85.171 360.061 85.4787 360.352 85.86 360.551C86.2413 360.742 86.6573 360.837 87.108 360.837C87.6973 360.837 88.1913 360.694 88.59 360.408C88.9973 360.122 89.266 359.736 89.396 359.251H90.358C90.1847 359.944 89.812 360.512 89.24 360.954C88.6767 361.387 87.966 361.604 87.108 361.604C86.4407 361.604 85.8427 361.457 85.314 361.162C84.7853 360.859 84.3693 360.434 84.066 359.888C83.7713 359.333 83.624 358.688 83.624 357.951C83.624 357.214 83.7713 356.569 84.066 356.014C84.3607 355.459 84.7723 355.035 85.301 354.74C85.8297 354.445 86.432 354.298 87.108 354.298C87.784 354.298 88.3733 354.445 88.876 354.74C89.3873 355.035 89.7773 355.433 90.046 355.936C90.3233 356.43 90.462 356.98 90.462 357.587ZM89.539 357.561C89.5477 357.032 89.4393 356.582 89.214 356.209C88.9973 355.836 88.6983 355.555 88.317 355.364C87.9357 355.173 87.5197 355.078 87.069 355.078C86.393 355.078 85.8167 355.295 85.34 355.728C84.8633 356.161 84.599 356.772 84.547 357.561H89.539ZM95.4549 354.272C96.3042 354.272 96.9976 354.536 97.5349 355.065C98.0722 355.585 98.3409 356.343 98.3409 357.34V361.5H97.4439V357.444C97.4439 356.673 97.2489 356.083 96.8589 355.676C96.4776 355.269 95.9532 355.065 95.2859 355.065C94.6012 355.065 94.0552 355.282 93.6479 355.715C93.2406 356.148 93.0369 356.785 93.0369 357.626V361.5H92.1269V354.402H93.0369V355.611C93.2622 355.178 93.5872 354.848 94.0119 354.623C94.4366 354.389 94.9176 354.272 95.4549 354.272ZM101.536 355.169V359.576C101.536 360.009 101.619 360.308 101.783 360.473C101.948 360.638 102.238 360.72 102.654 360.72H103.486V361.5H102.511C101.87 361.5 101.393 361.353 101.081 361.058C100.769 360.755 100.613 360.261 100.613 359.576V355.169H99.6255V354.402H100.613V352.621H101.536V354.402H103.486V355.169H101.536ZM111.409 357.587C111.409 357.899 111.401 358.137 111.383 358.302H105.494C105.52 358.839 105.65 359.299 105.884 359.68C106.118 360.061 106.426 360.352 106.807 360.551C107.189 360.742 107.605 360.837 108.055 360.837C108.645 360.837 109.139 360.694 109.537 360.408C109.945 360.122 110.213 359.736 110.343 359.251H111.305C111.132 359.944 110.759 360.512 110.187 360.954C109.624 361.387 108.913 361.604 108.055 361.604C107.388 361.604 106.79 361.457 106.261 361.162C105.733 360.859 105.317 360.434 105.013 359.888C104.719 359.333 104.571 358.688 104.571 357.951C104.571 357.214 104.719 356.569 105.013 356.014C105.308 355.459 105.72 355.035 106.248 354.74C106.777 354.445 107.379 354.298 108.055 354.298C108.731 354.298 109.321 354.445 109.823 354.74C110.335 355.035 110.725 355.433 110.993 355.936C111.271 356.43 111.409 356.98 111.409 357.587ZM110.486 357.561C110.495 357.032 110.387 356.582 110.161 356.209C109.945 355.836 109.646 355.555 109.264 355.364C108.883 355.173 108.467 355.078 108.016 355.078C107.34 355.078 106.764 355.295 106.287 355.728C105.811 356.161 105.546 356.772 105.494 357.561H110.486ZM113.984 355.663C114.184 355.221 114.487 354.879 114.894 354.636C115.31 354.393 115.817 354.272 116.415 354.272V355.221H116.168C115.51 355.221 114.981 355.399 114.582 355.754C114.184 356.109 113.984 356.703 113.984 357.535V361.5H113.074V354.402H113.984V355.663ZM124.68 354.272C125.529 354.272 126.222 354.536 126.76 355.065C127.297 355.585 127.566 356.343 127.566 357.34V361.5H126.669V357.444C126.669 356.673 126.474 356.083 126.084 355.676C125.702 355.269 125.178 355.065 124.511 355.065C123.826 355.065 123.28 355.282 122.873 355.715C122.465 356.148 122.262 356.785 122.262 357.626V361.5H121.352V354.402H122.262V355.611C122.487 355.178 122.812 354.848 123.237 354.623C123.661 354.389 124.142 354.272 124.68 354.272ZM129.162 357.938C129.162 357.21 129.305 356.573 129.591 356.027C129.886 355.472 130.289 355.048 130.8 354.753C131.32 354.45 131.905 354.298 132.555 354.298C133.231 354.298 133.812 354.454 134.297 354.766C134.791 355.078 135.146 355.477 135.363 355.962V354.402H136.273V361.5H135.363V359.927C135.138 360.412 134.778 360.815 134.284 361.136C133.799 361.448 133.218 361.604 132.542 361.604C131.901 361.604 131.32 361.452 130.8 361.149C130.289 360.846 129.886 360.417 129.591 359.862C129.305 359.307 129.162 358.666 129.162 357.938ZM135.363 357.951C135.363 357.379 135.246 356.876 135.012 356.443C134.778 356.01 134.457 355.676 134.05 355.442C133.651 355.208 133.209 355.091 132.724 355.091C132.221 355.091 131.771 355.204 131.372 355.429C130.973 355.654 130.657 355.984 130.423 356.417C130.198 356.842 130.085 357.349 130.085 357.938C130.085 358.519 130.198 359.03 130.423 359.472C130.657 359.905 130.973 360.239 131.372 360.473C131.771 360.698 132.221 360.811 132.724 360.811C133.209 360.811 133.651 360.694 134.05 360.46C134.457 360.226 134.778 359.892 135.012 359.459C135.246 359.026 135.363 358.523 135.363 357.951ZM146.801 354.272C147.633 354.272 148.309 354.536 148.829 355.065C149.357 355.585 149.622 356.343 149.622 357.34V361.5H148.725V357.444C148.725 356.673 148.538 356.083 148.166 355.676C147.793 355.269 147.286 355.065 146.645 355.065C145.977 355.065 145.444 355.286 145.046 355.728C144.647 356.17 144.448 356.811 144.448 357.652V361.5H143.551V357.444C143.551 356.673 143.364 356.083 142.992 355.676C142.619 355.269 142.108 355.065 141.458 355.065C140.79 355.065 140.257 355.286 139.859 355.728C139.46 356.17 139.261 356.811 139.261 357.652V361.5H138.351V354.402H139.261V355.624C139.486 355.182 139.807 354.848 140.223 354.623C140.639 354.389 141.102 354.272 141.614 354.272C142.229 354.272 142.766 354.419 143.226 354.714C143.694 355.009 144.032 355.442 144.24 356.014C144.43 355.451 144.755 355.022 145.215 354.727C145.683 354.424 146.211 354.272 146.801 354.272ZM158.065 357.587C158.065 357.899 158.056 358.137 158.039 358.302H152.15C152.176 358.839 152.306 359.299 152.54 359.68C152.774 360.061 153.081 360.352 153.463 360.551C153.844 360.742 154.26 360.837 154.711 360.837C155.3 360.837 155.794 360.694 156.193 360.408C156.6 360.122 156.869 359.736 156.999 359.251H157.961C157.787 359.944 157.415 360.512 156.843 360.954C156.279 361.387 155.569 361.604 154.711 361.604C154.043 361.604 153.445 361.457 152.917 361.162C152.388 360.859 151.972 360.434 151.669 359.888C151.374 359.333 151.227 358.688 151.227 357.951C151.227 357.214 151.374 356.569 151.669 356.014C151.963 355.459 152.375 355.035 152.904 354.74C153.432 354.445 154.035 354.298 154.711 354.298C155.387 354.298 155.976 354.445 156.479 354.74C156.99 355.035 157.38 355.433 157.649 355.936C157.926 356.43 158.065 356.98 158.065 357.587ZM157.142 357.561C157.15 357.032 157.042 356.582 156.817 356.209C156.6 355.836 156.301 355.555 155.92 355.364C155.538 355.173 155.122 355.078 154.672 355.078C153.996 355.078 153.419 355.295 152.943 355.728C152.466 356.161 152.202 356.772 152.15 357.561H157.142Z" fill="black"/>
</g>
<g filter="url(#filter2_d_9_139)">
<rect x="69" y="393" width="223" height="27" rx="13.5" stroke="#09013A" stroke-width="2" shape-rendering="crispEdges"/>
<path d="M90.462 407.587C90.462 407.899 90.4533 408.137 90.436 408.302H84.547C84.573 408.839 84.703 409.299 84.937 409.68C85.171 410.061 85.4787 410.352 85.86 410.551C86.2413 410.742 86.6573 410.837 87.108 410.837C87.6973 410.837 88.1913 410.694 88.59 410.408C88.9973 410.122 89.266 409.736 89.396 409.251H90.358C90.1847 409.944 89.812 410.512 89.24 410.954C88.6767 411.387 87.966 411.604 87.108 411.604C86.4407 411.604 85.8427 411.457 85.314 411.162C84.7853 410.859 84.3693 410.434 84.066 409.888C83.7713 409.333 83.624 408.688 83.624 407.951C83.624 407.214 83.7713 406.569 84.066 406.014C84.3607 405.459 84.7723 405.035 85.301 404.74C85.8297 404.445 86.432 404.298 87.108 404.298C87.784 404.298 88.3733 404.445 88.876 404.74C89.3873 405.035 89.7773 405.433 90.046 405.936C90.3233 406.43 90.462 406.98 90.462 407.587ZM89.539 407.561C89.5477 407.032 89.4393 406.582 89.214 406.209C88.9973 405.836 88.6983 405.555 88.317 405.364C87.9357 405.173 87.5197 405.078 87.069 405.078C86.393 405.078 85.8167 405.295 85.34 405.728C84.8633 406.161 84.599 406.772 84.547 407.561H89.539ZM95.4549 404.272C96.3042 404.272 96.9976 404.536 97.5349 405.065C98.0722 405.585 98.3409 406.343 98.3409 407.34V411.5H97.4439V407.444C97.4439 406.673 97.2489 406.083 96.8589 405.676C96.4776 405.269 95.9532 405.065 95.2859 405.065C94.6012 405.065 94.0552 405.282 93.6479 405.715C93.2406 406.148 93.0369 406.785 93.0369 407.626V411.5H92.1269V404.402H93.0369V405.611C93.2622 405.178 93.5872 404.848 94.0119 404.623C94.4366 404.389 94.9176 404.272 95.4549 404.272ZM101.536 405.169V409.576C101.536 410.009 101.619 410.308 101.783 410.473C101.948 410.638 102.238 410.72 102.654 410.72H103.486V411.5H102.511C101.87 411.5 101.393 411.353 101.081 411.058C100.769 410.755 100.613 410.261 100.613 409.576V405.169H99.6255V404.402H100.613V402.621H101.536V404.402H103.486V405.169H101.536ZM111.409 407.587C111.409 407.899 111.401 408.137 111.383 408.302H105.494C105.52 408.839 105.65 409.299 105.884 409.68C106.118 410.061 106.426 410.352 106.807 410.551C107.189 410.742 107.605 410.837 108.055 410.837C108.645 410.837 109.139 410.694 109.537 410.408C109.945 410.122 110.213 409.736 110.343 409.251H111.305C111.132 409.944 110.759 410.512 110.187 410.954C109.624 411.387 108.913 411.604 108.055 411.604C107.388 411.604 106.79 411.457 106.261 411.162C105.733 410.859 105.317 410.434 105.013 409.888C104.719 409.333 104.571 408.688 104.571 407.951C104.571 407.214 104.719 406.569 105.013 406.014C105.308 405.459 105.72 405.035 106.248 404.74C106.777 404.445 107.379 404.298 108.055 404.298C108.731 404.298 109.321 404.445 109.823 404.74C110.335 405.035 110.725 405.433 110.993 405.936C111.271 406.43 111.409 406.98 111.409 407.587ZM110.486 407.561C110.495 407.032 110.387 406.582 110.161 406.209C109.945 405.836 109.646 405.555 109.264 405.364C108.883 405.173 108.467 405.078 108.016 405.078C107.34 405.078 106.764 405.295 106.287 405.728C105.811 406.161 105.546 406.772 105.494 407.561H110.486ZM113.984 405.663C114.184 405.221 114.487 404.879 114.894 404.636C115.31 404.393 115.817 404.272 116.415 404.272V405.221H116.168C115.51 405.221 114.981 405.399 114.582 405.754C114.184 406.109 113.984 406.703 113.984 407.535V411.5H113.074V404.402H113.984V405.663ZM127.774 407.587C127.774 407.899 127.765 408.137 127.748 408.302H121.859C121.885 408.839 122.015 409.299 122.249 409.68C122.483 410.061 122.79 410.352 123.172 410.551C123.553 410.742 123.969 410.837 124.42 410.837C125.009 410.837 125.503 410.694 125.902 410.408C126.309 410.122 126.578 409.736 126.708 409.251H127.67C127.496 409.944 127.124 410.512 126.552 410.954C125.988 411.387 125.278 411.604 124.42 411.604C123.752 411.604 123.154 411.457 122.626 411.162C122.097 410.859 121.681 410.434 121.378 409.888C121.083 409.333 120.936 408.688 120.936 407.951C120.936 407.214 121.083 406.569 121.378 406.014C121.672 405.459 122.084 405.035 122.613 404.74C123.141 404.445 123.744 404.298 124.42 404.298C125.096 404.298 125.685 404.445 126.188 404.74C126.699 405.035 127.089 405.433 127.358 405.936C127.635 406.43 127.774 406.98 127.774 407.587ZM126.851 407.561C126.859 407.032 126.751 406.582 126.526 406.209C126.309 405.836 126.01 405.555 125.629 405.364C125.247 405.173 124.831 405.078 124.381 405.078C123.705 405.078 123.128 405.295 122.652 405.728C122.175 406.161 121.911 406.772 121.859 407.561H126.851ZM137.888 404.272C138.72 404.272 139.396 404.536 139.916 405.065C140.445 405.585 140.709 406.343 140.709 407.34V411.5H139.812V407.444C139.812 406.673 139.626 406.083 139.253 405.676C138.881 405.269 138.374 405.065 137.732 405.065C137.065 405.065 136.532 405.286 136.133 405.728C135.735 406.17 135.535 406.811 135.535 407.652V411.5H134.638V407.444C134.638 406.673 134.452 406.083 134.079 405.676C133.707 405.269 133.195 405.065 132.545 405.065C131.878 405.065 131.345 405.286 130.946 405.728C130.548 406.17 130.348 406.811 130.348 407.652V411.5H129.438V404.402H130.348V405.624C130.574 405.182 130.894 404.848 131.31 404.623C131.726 404.389 132.19 404.272 132.701 404.272C133.317 404.272 133.854 404.419 134.313 404.714C134.781 405.009 135.119 405.442 135.327 406.014C135.518 405.451 135.843 405.022 136.302 404.727C136.77 404.424 137.299 404.272 137.888 404.272ZM142.314 407.938C142.314 407.21 142.457 406.573 142.743 406.027C143.038 405.472 143.441 405.048 143.952 404.753C144.472 404.45 145.057 404.298 145.707 404.298C146.383 404.298 146.964 404.454 147.449 404.766C147.943 405.078 148.299 405.477 148.515 405.962V404.402H149.425V411.5H148.515V409.927C148.29 410.412 147.93 410.815 147.436 411.136C146.951 411.448 146.37 411.604 145.694 411.604C145.053 411.604 144.472 411.452 143.952 411.149C143.441 410.846 143.038 410.417 142.743 409.862C142.457 409.307 142.314 408.666 142.314 407.938ZM148.515 407.951C148.515 407.379 148.398 406.876 148.164 406.443C147.93 406.01 147.61 405.676 147.202 405.442C146.804 405.208 146.362 405.091 145.876 405.091C145.374 405.091 144.923 405.204 144.524 405.429C144.126 405.654 143.809 405.984 143.575 406.417C143.35 406.842 143.237 407.349 143.237 407.938C143.237 408.519 143.35 409.03 143.575 409.472C143.809 409.905 144.126 410.239 144.524 410.473C144.923 410.698 145.374 410.811 145.876 410.811C146.362 410.811 146.804 410.694 147.202 410.46C147.61 410.226 147.93 409.892 148.164 409.459C148.398 409.026 148.515 408.523 148.515 407.951ZM151.958 403.063C151.776 403.063 151.62 402.998 151.49 402.868C151.36 402.738 151.295 402.578 151.295 402.387C151.295 402.196 151.36 402.04 151.49 401.919C151.62 401.789 151.776 401.724 151.958 401.724C152.14 401.724 152.296 401.789 152.426 401.919C152.556 402.04 152.621 402.196 152.621 402.387C152.621 402.578 152.556 402.738 152.426 402.868C152.296 402.998 152.14 403.063 151.958 403.063ZM152.413 404.402V411.5H151.503V404.402H152.413ZM155.384 401.88V411.5H154.474V401.88H155.384Z" fill="black"/>
</g>
<g filter="url(#filter3_d_9_139)">
<rect x="69" y="443" width="223" height="27" rx="13.5" stroke="#09013A" stroke-width="2" shape-rendering="crispEdges"/>
<path d="M90.462 457.587C90.462 457.899 90.4533 458.137 90.436 458.302H84.547C84.573 458.839 84.703 459.299 84.937 459.68C85.171 460.061 85.4787 460.352 85.86 460.551C86.2413 460.742 86.6573 460.837 87.108 460.837C87.6973 460.837 88.1913 460.694 88.59 460.408C88.9973 460.122 89.266 459.736 89.396 459.251H90.358C90.1847 459.944 89.812 460.512 89.24 460.954C88.6767 461.387 87.966 461.604 87.108 461.604C86.4407 461.604 85.8427 461.457 85.314 461.162C84.7853 460.859 84.3693 460.434 84.066 459.888C83.7713 459.333 83.624 458.688 83.624 457.951C83.624 457.214 83.7713 456.569 84.066 456.014C84.3607 455.459 84.7723 455.035 85.301 454.74C85.8297 454.445 86.432 454.298 87.108 454.298C87.784 454.298 88.3733 454.445 88.876 454.74C89.3873 455.035 89.7773 455.433 90.046 455.936C90.3233 456.43 90.462 456.98 90.462 457.587ZM89.539 457.561C89.5477 457.032 89.4393 456.582 89.214 456.209C88.9973 455.836 88.6983 455.555 88.317 455.364C87.9357 455.173 87.5197 455.078 87.069 455.078C86.393 455.078 85.8167 455.295 85.34 455.728C84.8633 456.161 84.599 456.772 84.547 457.561H89.539ZM95.4549 454.272C96.3042 454.272 96.9976 454.536 97.5349 455.065C98.0722 455.585 98.3409 456.343 98.3409 457.34V461.5H97.4439V457.444C97.4439 456.673 97.2489 456.083 96.8589 455.676C96.4776 455.269 95.9532 455.065 95.2859 455.065C94.6012 455.065 94.0552 455.282 93.6479 455.715C93.2406 456.148 93.0369 456.785 93.0369 457.626V461.5H92.1269V454.402H93.0369V455.611C93.2622 455.178 93.5872 454.848 94.0119 454.623C94.4366 454.389 94.9176 454.272 95.4549 454.272ZM101.536 455.169V459.576C101.536 460.009 101.619 460.308 101.783 460.473C101.948 460.638 102.238 460.72 102.654 460.72H103.486V461.5H102.511C101.87 461.5 101.393 461.353 101.081 461.058C100.769 460.755 100.613 460.261 100.613 459.576V455.169H99.6255V454.402H100.613V452.621H101.536V454.402H103.486V455.169H101.536ZM111.409 457.587C111.409 457.899 111.401 458.137 111.383 458.302H105.494C105.52 458.839 105.65 459.299 105.884 459.68C106.118 460.061 106.426 460.352 106.807 460.551C107.189 460.742 107.605 460.837 108.055 460.837C108.645 460.837 109.139 460.694 109.537 460.408C109.945 460.122 110.213 459.736 110.343 459.251H111.305C111.132 459.944 110.759 460.512 110.187 460.954C109.624 461.387 108.913 461.604 108.055 461.604C107.388 461.604 106.79 461.457 106.261 461.162C105.733 460.859 105.317 460.434 105.013 459.888C104.719 459.333 104.571 458.688 104.571 457.951C104.571 457.214 104.719 456.569 105.013 456.014C105.308 455.459 105.72 455.035 106.248 454.74C106.777 454.445 107.379 454.298 108.055 454.298C108.731 454.298 109.321 454.445 109.823 454.74C110.335 455.035 110.725 455.433 110.993 455.936C111.271 456.43 111.409 456.98 111.409 457.587ZM110.486 457.561C110.495 457.032 110.387 456.582 110.161 456.209C109.945 455.836 109.646 455.555 109.264 455.364C108.883 455.173 108.467 455.078 108.016 455.078C107.34 455.078 106.764 455.295 106.287 455.728C105.811 456.161 105.546 456.772 105.494 457.561H110.486ZM113.984 455.663C114.184 455.221 114.487 454.879 114.894 454.636C115.31 454.393 115.817 454.272 116.415 454.272V455.221H116.168C115.51 455.221 114.981 455.399 114.582 455.754C114.184 456.109 113.984 456.703 113.984 457.535V461.5H113.074V454.402H113.984V455.663ZM122.249 455.962C122.474 455.485 122.829 455.091 123.315 454.779C123.809 454.458 124.394 454.298 125.07 454.298C125.711 454.298 126.287 454.45 126.799 454.753C127.319 455.048 127.722 455.472 128.008 456.027C128.302 456.573 128.45 457.21 128.45 457.938C128.45 458.666 128.302 459.307 128.008 459.862C127.722 460.417 127.319 460.846 126.799 461.149C126.287 461.452 125.711 461.604 125.07 461.604C124.402 461.604 123.822 461.448 123.328 461.136C122.834 460.815 122.474 460.417 122.249 459.94V464.854H121.352V454.402H122.249V455.962ZM127.527 457.938C127.527 457.349 127.41 456.842 127.176 456.417C126.95 455.984 126.638 455.654 126.24 455.429C125.841 455.204 125.39 455.091 124.888 455.091C124.402 455.091 123.956 455.208 123.549 455.442C123.15 455.676 122.834 456.01 122.6 456.443C122.366 456.876 122.249 457.379 122.249 457.951C122.249 458.523 122.366 459.026 122.6 459.459C122.834 459.892 123.15 460.226 123.549 460.46C123.956 460.694 124.402 460.811 124.888 460.811C125.39 460.811 125.841 460.698 126.24 460.473C126.638 460.239 126.95 459.905 127.176 459.472C127.41 459.03 127.527 458.519 127.527 457.938ZM129.708 457.938C129.708 457.21 129.851 456.573 130.137 456.027C130.432 455.472 130.835 455.048 131.346 454.753C131.866 454.45 132.451 454.298 133.101 454.298C133.777 454.298 134.358 454.454 134.843 454.766C135.337 455.078 135.692 455.477 135.909 455.962V454.402H136.819V461.5H135.909V459.927C135.684 460.412 135.324 460.815 134.83 461.136C134.345 461.448 133.764 461.604 133.088 461.604C132.447 461.604 131.866 461.452 131.346 461.149C130.835 460.846 130.432 460.417 130.137 459.862C129.851 459.307 129.708 458.666 129.708 457.938ZM135.909 457.951C135.909 457.379 135.792 456.876 135.558 456.443C135.324 456.01 135.003 455.676 134.596 455.442C134.197 455.208 133.755 455.091 133.27 455.091C132.767 455.091 132.317 455.204 131.918 455.429C131.519 455.654 131.203 455.984 130.969 456.417C130.744 456.842 130.631 457.349 130.631 457.938C130.631 458.519 130.744 459.03 130.969 459.472C131.203 459.905 131.519 460.239 131.918 460.473C132.317 460.698 132.767 460.811 133.27 460.811C133.755 460.811 134.197 460.694 134.596 460.46C135.003 460.226 135.324 459.892 135.558 459.459C135.792 459.026 135.909 458.523 135.909 457.951ZM141.34 461.604C140.526 461.604 139.858 461.418 139.338 461.045C138.827 460.664 138.541 460.148 138.48 459.498H139.416C139.46 459.897 139.646 460.222 139.975 460.473C140.313 460.716 140.764 460.837 141.327 460.837C141.821 460.837 142.207 460.72 142.484 460.486C142.77 460.252 142.913 459.962 142.913 459.615C142.913 459.372 142.835 459.173 142.679 459.017C142.523 458.861 142.324 458.74 142.081 458.653C141.847 458.558 141.527 458.458 141.119 458.354C140.591 458.215 140.162 458.077 139.832 457.938C139.503 457.799 139.221 457.596 138.987 457.327C138.762 457.05 138.649 456.681 138.649 456.222C138.649 455.875 138.753 455.555 138.961 455.26C139.169 454.965 139.464 454.731 139.845 454.558C140.227 454.385 140.66 454.298 141.145 454.298C141.908 454.298 142.523 454.493 142.991 454.883C143.459 455.264 143.711 455.793 143.745 456.469H142.835C142.809 456.053 142.645 455.719 142.341 455.468C142.047 455.208 141.639 455.078 141.119 455.078C140.66 455.078 140.287 455.186 140.001 455.403C139.715 455.62 139.572 455.888 139.572 456.209C139.572 456.486 139.655 456.716 139.819 456.898C139.993 457.071 140.205 457.21 140.456 457.314C140.708 457.409 141.046 457.518 141.47 457.639C141.982 457.778 142.389 457.912 142.692 458.042C142.996 458.172 143.256 458.363 143.472 458.614C143.689 458.865 143.802 459.199 143.81 459.615C143.81 459.996 143.706 460.339 143.498 460.642C143.29 460.937 143 461.171 142.627 461.344C142.255 461.517 141.826 461.604 141.34 461.604ZM147.967 461.604C147.153 461.604 146.485 461.418 145.965 461.045C145.454 460.664 145.168 460.148 145.107 459.498H146.043C146.087 459.897 146.273 460.222 146.602 460.473C146.94 460.716 147.391 460.837 147.954 460.837C148.448 460.837 148.834 460.72 149.111 460.486C149.397 460.252 149.54 459.962 149.54 459.615C149.54 459.372 149.462 459.173 149.306 459.017C149.15 458.861 148.951 458.74 148.708 458.653C148.474 458.558 148.154 458.458 147.746 458.354C147.218 458.215 146.789 458.077 146.459 457.938C146.13 457.799 145.848 457.596 145.614 457.327C145.389 457.05 145.276 456.681 145.276 456.222C145.276 455.875 145.38 455.555 145.588 455.26C145.796 454.965 146.091 454.731 146.472 454.558C146.854 454.385 147.287 454.298 147.772 454.298C148.535 454.298 149.15 454.493 149.618 454.883C150.086 455.264 150.338 455.793 150.372 456.469H149.462C149.436 456.053 149.272 455.719 148.968 455.468C148.674 455.208 148.266 455.078 147.746 455.078C147.287 455.078 146.914 455.186 146.628 455.403C146.342 455.62 146.199 455.888 146.199 456.209C146.199 456.486 146.282 456.716 146.446 456.898C146.62 457.071 146.832 457.21 147.083 457.314C147.335 457.409 147.673 457.518 148.097 457.639C148.609 457.778 149.016 457.912 149.319 458.042C149.623 458.172 149.883 458.363 150.099 458.614C150.316 458.865 150.429 459.199 150.437 459.615C150.437 459.996 150.333 460.339 150.125 460.642C149.917 460.937 149.627 461.171 149.254 461.344C148.882 461.517 148.453 461.604 147.967 461.604ZM161.51 454.402L159.287 461.5H158.377L156.414 455.546L154.451 461.5H153.528L151.305 454.402H152.228L153.996 460.577L155.985 454.402H156.895L158.858 460.59L160.613 454.402H161.51ZM165.858 461.604C165.191 461.604 164.588 461.457 164.051 461.162C163.522 460.859 163.102 460.434 162.79 459.888C162.487 459.333 162.335 458.688 162.335 457.951C162.335 457.214 162.491 456.573 162.803 456.027C163.115 455.472 163.54 455.048 164.077 454.753C164.614 454.45 165.217 454.298 165.884 454.298C166.551 454.298 167.154 454.45 167.691 454.753C168.237 455.048 168.662 455.472 168.965 456.027C169.277 456.573 169.433 457.214 169.433 457.951C169.433 458.679 169.277 459.32 168.965 459.875C168.653 460.43 168.224 460.859 167.678 461.162C167.132 461.457 166.525 461.604 165.858 461.604ZM165.858 460.811C166.326 460.811 166.759 460.707 167.158 460.499C167.557 460.282 167.877 459.962 168.12 459.537C168.371 459.104 168.497 458.575 168.497 457.951C168.497 457.327 168.376 456.803 168.133 456.378C167.89 455.945 167.57 455.624 167.171 455.416C166.772 455.199 166.339 455.091 165.871 455.091C165.403 455.091 164.97 455.199 164.571 455.416C164.172 455.624 163.852 455.945 163.609 456.378C163.375 456.803 163.258 457.327 163.258 457.951C163.258 458.575 163.375 459.104 163.609 459.537C163.852 459.962 164.168 460.282 164.558 460.499C164.957 460.707 165.39 460.811 165.858 460.811ZM172.002 455.663C172.201 455.221 172.504 454.879 172.912 454.636C173.328 454.393 173.835 454.272 174.433 454.272V455.221H174.186C173.527 455.221 172.998 455.399 172.6 455.754C172.201 456.109 172.002 456.703 172.002 457.535V461.5H171.092V454.402H172.002V455.663ZM175.386 457.938C175.386 457.21 175.533 456.573 175.828 456.027C176.122 455.472 176.525 455.048 177.037 454.753C177.557 454.45 178.142 454.298 178.792 454.298C179.416 454.298 179.979 454.45 180.482 454.753C180.984 455.056 181.353 455.451 181.587 455.936V451.88H182.497V461.5H181.587V459.914C181.37 460.408 181.015 460.815 180.521 461.136C180.027 461.448 179.446 461.604 178.779 461.604C178.129 461.604 177.544 461.452 177.024 461.149C176.512 460.846 176.109 460.417 175.815 459.862C175.529 459.307 175.386 458.666 175.386 457.938ZM181.587 457.951C181.587 457.379 181.47 456.876 181.236 456.443C181.002 456.01 180.681 455.676 180.274 455.442C179.875 455.208 179.433 455.091 178.948 455.091C178.445 455.091 177.994 455.204 177.596 455.429C177.197 455.654 176.881 455.984 176.647 456.417C176.421 456.842 176.309 457.349 176.309 457.938C176.309 458.519 176.421 459.03 176.647 459.472C176.881 459.905 177.197 460.239 177.596 460.473C177.994 460.698 178.445 460.811 178.948 460.811C179.433 460.811 179.875 460.694 180.274 460.46C180.681 460.226 181.002 459.892 181.236 459.459C181.47 459.026 181.587 458.523 181.587 457.951Z" fill="black"/>
</g>
<g filter="url(#filter4_d_9_139)">
<rect x="69" y="493" width="223" height="27" rx="13.5" stroke="#09013A" stroke-width="2" shape-rendering="crispEdges"/>
<path d="M83.624 507.951C83.624 507.214 83.7713 506.573 84.066 506.027C84.3607 505.472 84.768 505.048 85.288 504.753C85.808 504.45 86.4017 504.298 87.069 504.298C87.9443 504.298 88.6637 504.515 89.227 504.948C89.799 505.381 90.1673 505.971 90.332 506.716H89.357C89.2357 506.205 88.9713 505.806 88.564 505.52C88.1653 505.225 87.667 505.078 87.069 505.078C86.5923 505.078 86.1633 505.186 85.782 505.403C85.4007 505.62 85.0973 505.945 84.872 506.378C84.6553 506.803 84.547 507.327 84.547 507.951C84.547 508.575 84.6553 509.104 84.872 509.537C85.0973 509.97 85.4007 510.295 85.782 510.512C86.1633 510.729 86.5923 510.837 87.069 510.837C87.667 510.837 88.1653 510.694 88.564 510.408C88.9713 510.113 89.2357 509.706 89.357 509.186H90.332C90.1673 509.914 89.799 510.499 89.227 510.941C88.655 511.383 87.9357 511.604 87.069 511.604C86.4017 511.604 85.808 511.457 85.288 511.162C84.768 510.859 84.3607 510.434 84.066 509.888C83.7713 509.333 83.624 508.688 83.624 507.951ZM95.1197 511.604C94.4523 511.604 93.85 511.457 93.3127 511.162C92.784 510.859 92.3637 510.434 92.0517 509.888C91.7483 509.333 91.5967 508.688 91.5967 507.951C91.5967 507.214 91.7527 506.573 92.0647 506.027C92.3767 505.472 92.8013 505.048 93.3387 504.753C93.876 504.45 94.4783 504.298 95.1457 504.298C95.813 504.298 96.4153 504.45 96.9527 504.753C97.4987 505.048 97.9233 505.472 98.2267 506.027C98.5387 506.573 98.6947 507.214 98.6947 507.951C98.6947 508.679 98.5387 509.32 98.2267 509.875C97.9147 510.43 97.4857 510.859 96.9397 511.162C96.3937 511.457 95.787 511.604 95.1197 511.604ZM95.1197 510.811C95.5877 510.811 96.021 510.707 96.4197 510.499C96.8183 510.282 97.139 509.962 97.3817 509.537C97.633 509.104 97.7587 508.575 97.7587 507.951C97.7587 507.327 97.6373 506.803 97.3947 506.378C97.152 505.945 96.8313 505.624 96.4327 505.416C96.034 505.199 95.6007 505.091 95.1327 505.091C94.6647 505.091 94.2313 505.199 93.8327 505.416C93.434 505.624 93.1133 505.945 92.8707 506.378C92.6367 506.803 92.5197 507.327 92.5197 507.951C92.5197 508.575 92.6367 509.104 92.8707 509.537C93.1133 509.962 93.4297 510.282 93.8197 510.499C94.2183 510.707 94.6517 510.811 95.1197 510.811ZM103.681 504.272C104.531 504.272 105.224 504.536 105.761 505.065C106.299 505.585 106.567 506.343 106.567 507.34V511.5H105.67V507.444C105.67 506.673 105.475 506.083 105.085 505.676C104.704 505.269 104.18 505.065 103.512 505.065C102.828 505.065 102.282 505.282 101.874 505.715C101.467 506.148 101.263 506.785 101.263 507.626V511.5H100.353V504.402H101.263V505.611C101.489 505.178 101.814 504.848 102.238 504.623C102.663 504.389 103.144 504.272 103.681 504.272ZM111.375 505.169H109.724V511.5H108.814V505.169H107.826V504.402H108.814V503.908C108.814 503.137 109.009 502.569 109.399 502.205C109.798 501.841 110.439 501.659 111.323 501.659V502.439C110.734 502.439 110.318 502.552 110.075 502.777C109.841 503.002 109.724 503.379 109.724 503.908V504.402H111.375V505.169ZM113.263 503.063C113.081 503.063 112.925 502.998 112.795 502.868C112.665 502.738 112.6 502.578 112.6 502.387C112.6 502.196 112.665 502.04 112.795 501.919C112.925 501.789 113.081 501.724 113.263 501.724C113.445 501.724 113.601 501.789 113.731 501.919C113.861 502.04 113.926 502.196 113.926 502.387C113.926 502.578 113.861 502.738 113.731 502.868C113.601 502.998 113.445 503.063 113.263 503.063ZM113.718 504.402V511.5H112.808V504.402H113.718ZM116.688 505.663C116.888 505.221 117.191 504.879 117.598 504.636C118.014 504.393 118.521 504.272 119.119 504.272V505.221H118.872C118.214 505.221 117.685 505.399 117.286 505.754C116.888 506.109 116.688 506.703 116.688 507.535V511.5H115.778V504.402H116.688V505.663ZM128.938 504.272C129.77 504.272 130.446 504.536 130.966 505.065C131.495 505.585 131.759 506.343 131.759 507.34V511.5H130.862V507.444C130.862 506.673 130.676 506.083 130.303 505.676C129.931 505.269 129.424 505.065 128.782 505.065C128.115 505.065 127.582 505.286 127.183 505.728C126.785 506.17 126.585 506.811 126.585 507.652V511.5H125.688V507.444C125.688 506.673 125.502 506.083 125.129 505.676C124.757 505.269 124.245 505.065 123.595 505.065C122.928 505.065 122.395 505.286 121.996 505.728C121.598 506.17 121.398 506.811 121.398 507.652V511.5H120.488V504.402H121.398V505.624C121.624 505.182 121.944 504.848 122.36 504.623C122.776 504.389 123.24 504.272 123.751 504.272C124.367 504.272 124.904 504.419 125.363 504.714C125.831 505.009 126.169 505.442 126.377 506.014C126.568 505.451 126.893 505.022 127.352 504.727C127.82 504.424 128.349 504.272 128.938 504.272ZM138.245 505.962C138.47 505.485 138.825 505.091 139.311 504.779C139.805 504.458 140.39 504.298 141.066 504.298C141.707 504.298 142.283 504.45 142.795 504.753C143.315 505.048 143.718 505.472 144.004 506.027C144.298 506.573 144.446 507.21 144.446 507.938C144.446 508.666 144.298 509.307 144.004 509.862C143.718 510.417 143.315 510.846 142.795 511.149C142.283 511.452 141.707 511.604 141.066 511.604C140.398 511.604 139.818 511.448 139.324 511.136C138.83 510.815 138.47 510.417 138.245 509.94V514.854H137.348V504.402H138.245V505.962ZM143.523 507.938C143.523 507.349 143.406 506.842 143.172 506.417C142.946 505.984 142.634 505.654 142.236 505.429C141.837 505.204 141.386 505.091 140.884 505.091C140.398 505.091 139.952 505.208 139.545 505.442C139.146 505.676 138.83 506.01 138.596 506.443C138.362 506.876 138.245 507.379 138.245 507.951C138.245 508.523 138.362 509.026 138.596 509.459C138.83 509.892 139.146 510.226 139.545 510.46C139.952 510.694 140.398 510.811 140.884 510.811C141.386 510.811 141.837 510.698 142.236 510.473C142.634 510.239 142.946 509.905 143.172 509.472C143.406 509.03 143.523 508.519 143.523 507.938ZM145.704 507.938C145.704 507.21 145.847 506.573 146.133 506.027C146.428 505.472 146.831 505.048 147.342 504.753C147.862 504.45 148.447 504.298 149.097 504.298C149.773 504.298 150.354 504.454 150.839 504.766C151.333 505.078 151.688 505.477 151.905 505.962V504.402H152.815V511.5H151.905V509.927C151.68 510.412 151.32 510.815 150.826 511.136C150.341 511.448 149.76 511.604 149.084 511.604C148.443 511.604 147.862 511.452 147.342 511.149C146.831 510.846 146.428 510.417 146.133 509.862C145.847 509.307 145.704 508.666 145.704 507.938ZM151.905 507.951C151.905 507.379 151.788 506.876 151.554 506.443C151.32 506.01 150.999 505.676 150.592 505.442C150.193 505.208 149.751 505.091 149.266 505.091C148.763 505.091 148.313 505.204 147.914 505.429C147.515 505.654 147.199 505.984 146.965 506.417C146.74 506.842 146.627 507.349 146.627 507.938C146.627 508.519 146.74 509.03 146.965 509.472C147.199 509.905 147.515 510.239 147.914 510.473C148.313 510.698 148.763 510.811 149.266 510.811C149.751 510.811 150.193 510.694 150.592 510.46C150.999 510.226 151.32 509.892 151.554 509.459C151.788 509.026 151.905 508.523 151.905 507.951ZM157.337 511.604C156.522 511.604 155.855 511.418 155.335 511.045C154.823 510.664 154.537 510.148 154.477 509.498H155.413C155.456 509.897 155.642 510.222 155.972 510.473C156.31 510.716 156.76 510.837 157.324 510.837C157.818 510.837 158.203 510.72 158.481 510.486C158.767 510.252 158.91 509.962 158.91 509.615C158.91 509.372 158.832 509.173 158.676 509.017C158.52 508.861 158.32 508.74 158.078 508.653C157.844 508.558 157.523 508.458 157.116 508.354C156.587 508.215 156.158 508.077 155.829 507.938C155.499 507.799 155.218 507.596 154.984 507.327C154.758 507.05 154.646 506.681 154.646 506.222C154.646 505.875 154.75 505.555 154.958 505.26C155.166 504.965 155.46 504.731 155.842 504.558C156.223 504.385 156.656 504.298 157.142 504.298C157.904 504.298 158.52 504.493 158.988 504.883C159.456 505.264 159.707 505.793 159.742 506.469H158.832C158.806 506.053 158.641 505.719 158.338 505.468C158.043 505.208 157.636 505.078 157.116 505.078C156.656 505.078 156.284 505.186 155.998 505.403C155.712 505.62 155.569 505.888 155.569 506.209C155.569 506.486 155.651 506.716 155.816 506.898C155.989 507.071 156.201 507.21 156.453 507.314C156.704 507.409 157.042 507.518 157.467 507.639C157.978 507.778 158.385 507.912 158.689 508.042C158.992 508.172 159.252 508.363 159.469 508.614C159.685 508.865 159.798 509.199 159.807 509.615C159.807 509.996 159.703 510.339 159.495 510.642C159.287 510.937 158.996 511.171 158.624 511.344C158.251 511.517 157.822 511.604 157.337 511.604ZM163.963 511.604C163.149 511.604 162.481 511.418 161.961 511.045C161.45 510.664 161.164 510.148 161.103 509.498H162.039C162.083 509.897 162.269 510.222 162.598 510.473C162.936 510.716 163.387 510.837 163.95 510.837C164.444 510.837 164.83 510.72 165.107 510.486C165.393 510.252 165.536 509.962 165.536 509.615C165.536 509.372 165.458 509.173 165.302 509.017C165.146 508.861 164.947 508.74 164.704 508.653C164.47 508.558 164.15 508.458 163.742 508.354C163.214 508.215 162.785 508.077 162.455 507.938C162.126 507.799 161.844 507.596 161.61 507.327C161.385 507.05 161.272 506.681 161.272 506.222C161.272 505.875 161.376 505.555 161.584 505.26C161.792 504.965 162.087 504.731 162.468 504.558C162.85 504.385 163.283 504.298 163.768 504.298C164.531 504.298 165.146 504.493 165.614 504.883C166.082 505.264 166.334 505.793 166.368 506.469H165.458C165.432 506.053 165.268 505.719 164.964 505.468C164.67 505.208 164.262 505.078 163.742 505.078C163.283 505.078 162.91 505.186 162.624 505.403C162.338 505.62 162.195 505.888 162.195 506.209C162.195 506.486 162.278 506.716 162.442 506.898C162.616 507.071 162.828 507.21 163.079 507.314C163.331 507.409 163.669 507.518 164.093 507.639C164.605 507.778 165.012 507.912 165.315 508.042C165.619 508.172 165.879 508.363 166.095 508.614C166.312 508.865 166.425 509.199 166.433 509.615C166.433 509.996 166.329 510.339 166.121 510.642C165.913 510.937 165.623 511.171 165.25 511.344C164.878 511.517 164.449 511.604 163.963 511.604ZM177.506 504.402L175.283 511.5H174.373L172.41 505.546L170.447 511.5H169.524L167.301 504.402H168.224L169.992 510.577L171.981 504.402H172.891L174.854 510.59L176.609 504.402H177.506ZM181.854 511.604C181.187 511.604 180.584 511.457 180.047 511.162C179.518 510.859 179.098 510.434 178.786 509.888C178.483 509.333 178.331 508.688 178.331 507.951C178.331 507.214 178.487 506.573 178.799 506.027C179.111 505.472 179.536 505.048 180.073 504.753C180.61 504.45 181.213 504.298 181.88 504.298C182.547 504.298 183.15 504.45 183.687 504.753C184.233 505.048 184.658 505.472 184.961 506.027C185.273 506.573 185.429 507.214 185.429 507.951C185.429 508.679 185.273 509.32 184.961 509.875C184.649 510.43 184.22 510.859 183.674 511.162C183.128 511.457 182.521 511.604 181.854 511.604ZM181.854 510.811C182.322 510.811 182.755 510.707 183.154 510.499C183.553 510.282 183.873 509.962 184.116 509.537C184.367 509.104 184.493 508.575 184.493 507.951C184.493 507.327 184.372 506.803 184.129 506.378C183.886 505.945 183.566 505.624 183.167 505.416C182.768 505.199 182.335 505.091 181.867 505.091C181.399 505.091 180.966 505.199 180.567 505.416C180.168 505.624 179.848 505.945 179.605 506.378C179.371 506.803 179.254 507.327 179.254 507.951C179.254 508.575 179.371 509.104 179.605 509.537C179.848 509.962 180.164 510.282 180.554 510.499C180.953 510.707 181.386 510.811 181.854 510.811ZM187.998 505.663C188.197 505.221 188.501 504.879 188.908 504.636C189.324 504.393 189.831 504.272 190.429 504.272V505.221H190.182C189.523 505.221 188.995 505.399 188.596 505.754C188.197 506.109 187.998 506.703 187.998 507.535V511.5H187.088V504.402H187.998V505.663ZM191.382 507.938C191.382 507.21 191.529 506.573 191.824 506.027C192.118 505.472 192.521 505.048 193.033 504.753C193.553 504.45 194.138 504.298 194.788 504.298C195.412 504.298 195.975 504.45 196.478 504.753C196.98 505.056 197.349 505.451 197.583 505.936V501.88H198.493V511.5H197.583V509.914C197.366 510.408 197.011 510.815 196.517 511.136C196.023 511.448 195.442 511.604 194.775 511.604C194.125 511.604 193.54 511.452 193.02 511.149C192.508 510.846 192.105 510.417 191.811 509.862C191.525 509.307 191.382 508.666 191.382 507.938ZM197.583 507.951C197.583 507.379 197.466 506.876 197.232 506.443C196.998 506.01 196.677 505.676 196.27 505.442C195.871 505.208 195.429 505.091 194.944 505.091C194.441 505.091 193.99 505.204 193.592 505.429C193.193 505.654 192.877 505.984 192.643 506.417C192.417 506.842 192.305 507.349 192.305 507.938C192.305 508.519 192.417 509.03 192.643 509.472C192.877 509.905 193.193 510.239 193.592 510.473C193.99 510.698 194.441 510.811 194.944 510.811C195.429 510.811 195.871 510.694 196.27 510.46C196.677 510.226 196.998 509.892 197.232 509.459C197.466 509.026 197.583 508.523 197.583 507.951Z" fill="black"/>
</g>
</g>
<path d="M97.9001 276.832H102.604C102.604 278.816 102.412 280.693 102.028 282.464C101.665 284.235 101.217 285.675 100.684 286.784C99.5535 289.088 98.5508 290.656 97.6761 291.488L97.1001 292H90.6681L89.0681 286.848C88.6201 287.893 88.0975 288.843 87.5001 289.696C86.9241 290.549 86.4548 291.147 86.0921 291.488L85.5801 292H80.1401L75.4681 276.832H83.4041L84.7801 286.4C84.9081 286.272 85.0788 286.08 85.2921 285.824C85.5055 285.547 85.8361 284.907 86.2841 283.904C86.7321 282.88 87.0628 281.771 87.2761 280.576L86.0281 276.832H93.9321L95.1801 286.368C95.7988 285.749 96.3961 284.683 96.9721 283.168C97.5908 281.461 97.9001 279.349 97.9001 276.832ZM111.289 292.32C108.878 292.32 106.852 291.627 105.209 290.24C103.588 288.832 102.777 286.773 102.777 284.064C102.777 282.357 103.193 280.907 104.025 279.712C105.54 277.493 107.886 276.384 111.065 276.384C113.497 276.384 115.353 276.875 116.633 277.856C117.913 278.816 118.553 280.149 118.553 281.856C118.553 283.179 118.02 284.256 116.953 285.088C115.908 285.899 114.372 286.304 112.345 286.304C111.513 286.304 110.766 286.24 110.105 286.112L109.753 286.048C109.86 286.816 110.19 287.392 110.745 287.776C111.321 288.139 112.004 288.32 112.793 288.32C114.094 288.32 115.204 287.925 116.121 287.136L118.105 289.536C117.764 289.941 117.358 290.325 116.889 290.688C116.42 291.029 115.673 291.392 114.649 291.776C113.625 292.139 112.505 292.32 111.289 292.32ZM113.881 281.568C113.881 281.141 113.71 280.789 113.369 280.512C113.049 280.235 112.601 280.096 112.025 280.096C111.449 280.096 110.905 280.352 110.393 280.864C109.902 281.376 109.657 281.984 109.657 282.688C110.126 282.901 110.734 283.008 111.481 283.008C112.249 283.008 112.836 282.88 113.241 282.624C113.668 282.347 113.881 281.995 113.881 281.568ZM126.648 271.232L125.784 292H119.896L119.032 271.232H126.648ZM141.971 289.76C140.371 291.467 138.227 292.32 135.539 292.32C132.872 292.32 130.803 291.605 129.331 290.176C127.859 288.725 127.123 286.688 127.123 284.064C127.123 281.44 127.912 279.509 129.491 278.272C131.07 277.013 133.043 276.384 135.411 276.384C136.414 276.384 137.374 276.48 138.291 276.672C139.23 276.864 139.912 277.067 140.339 277.28L140.979 277.568L140.275 280.864C139.4 280.608 138.494 280.48 137.555 280.48C136.638 280.48 135.795 280.779 135.027 281.376C134.28 281.952 133.907 282.848 133.907 284.064C133.907 286.795 134.963 288.16 137.075 288.16C137.63 288.16 138.163 288.096 138.675 287.968C139.187 287.819 139.56 287.669 139.795 287.52L140.147 287.328L141.971 289.76ZM143.803 290.432C142.267 289.152 141.499 287.125 141.499 284.352C141.499 281.579 142.267 279.563 143.803 278.304C145.361 277.024 147.43 276.384 150.011 276.384C152.593 276.384 154.651 277.024 156.187 278.304C157.745 279.563 158.523 281.579 158.523 284.352C158.523 287.125 157.745 289.152 156.187 290.432C154.651 291.691 152.593 292.32 150.011 292.32C147.43 292.32 145.361 291.691 143.803 290.432ZM148.667 280.736C148.411 281.461 148.283 282.667 148.283 284.352C148.283 286.037 148.411 287.253 148.667 288C148.923 288.725 149.371 289.088 150.011 289.088C150.651 289.088 151.099 288.725 151.355 288C151.611 287.253 151.739 286.037 151.739 284.352C151.739 282.667 151.611 281.461 151.355 280.736C151.099 279.989 150.651 279.616 150.011 279.616C149.371 279.616 148.923 279.989 148.667 280.736ZM182.076 276.384C183.804 276.384 185.084 277.067 185.916 278.432C186.748 279.797 187.164 281.44 187.164 283.36C187.164 285.259 186.919 288.139 186.428 292H180.828L180.124 284.576C179.996 283.296 179.826 282.443 179.612 282.016C179.399 281.589 179.036 281.376 178.524 281.376C177.308 281.376 176.626 282.453 176.476 284.608L175.932 292H170.236L169.532 284.576C169.404 283.296 169.234 282.443 169.02 282.016C168.807 281.589 168.444 281.376 167.932 281.376C166.674 281.376 165.991 282.453 165.884 284.608L165.564 292H159.676L159.004 276.832H166.236L166.108 279.872C166.151 279.787 166.204 279.669 166.268 279.52C166.354 279.349 166.546 279.061 166.844 278.656C167.164 278.251 167.516 277.899 167.9 277.6C168.284 277.301 168.807 277.024 169.468 276.768C170.151 276.512 170.876 276.384 171.644 276.384C172.882 276.384 173.884 276.779 174.652 277.568C175.442 278.357 175.954 279.232 176.188 280.192C176.508 279.659 176.786 279.232 177.02 278.912C177.255 278.592 177.607 278.208 178.076 277.76C179.036 276.843 180.37 276.384 182.076 276.384ZM196.17 292.32C193.759 292.32 191.733 291.627 190.09 290.24C188.469 288.832 187.658 286.773 187.658 284.064C187.658 282.357 188.074 280.907 188.906 279.712C190.421 277.493 192.767 276.384 195.946 276.384C198.378 276.384 200.234 276.875 201.514 277.856C202.794 278.816 203.434 280.149 203.434 281.856C203.434 283.179 202.901 284.256 201.834 285.088C200.789 285.899 199.253 286.304 197.226 286.304C196.394 286.304 195.647 286.24 194.986 286.112L194.634 286.048C194.741 286.816 195.071 287.392 195.626 287.776C196.202 288.139 196.885 288.32 197.674 288.32C198.975 288.32 200.085 287.925 201.002 287.136L202.986 289.536C202.645 289.941 202.239 290.325 201.77 290.688C201.301 291.029 200.554 291.392 199.53 291.776C198.506 292.139 197.386 292.32 196.17 292.32ZM198.762 281.568C198.762 281.141 198.591 280.789 198.25 280.512C197.93 280.235 197.482 280.096 196.906 280.096C196.33 280.096 195.786 280.352 195.274 280.864C194.783 281.376 194.538 281.984 194.538 282.688C195.007 282.901 195.615 283.008 196.362 283.008C197.13 283.008 197.717 282.88 198.122 282.624C198.549 282.347 198.762 281.995 198.762 281.568ZM217.519 286.304C217.498 287.541 217.935 288.16 218.831 288.16C219.087 288.16 219.397 288.043 219.759 287.808L220.431 290.912C220.303 291.019 220.122 291.157 219.887 291.328C219.674 291.477 219.194 291.68 218.447 291.936C217.722 292.192 216.965 292.32 216.175 292.32C214.725 292.32 213.541 291.829 212.623 290.848C211.706 289.845 211.215 288.576 211.151 287.04L210.863 280.992H208.399L208.783 276.832H210.703L210.575 273.696L218.159 272.16L217.935 276.832H219.791L220.175 280.992H217.743L217.519 286.304ZM223.216 290.432C221.68 289.152 220.912 287.125 220.912 284.352C220.912 281.579 221.68 279.563 223.216 278.304C224.773 277.024 226.843 276.384 229.424 276.384C232.005 276.384 234.064 277.024 235.6 278.304C237.157 279.563 237.936 281.579 237.936 284.352C237.936 287.125 237.157 289.152 235.6 290.432C234.064 291.691 232.005 292.32 229.424 292.32C226.843 292.32 224.773 291.691 223.216 290.432ZM228.08 280.736C227.824 281.461 227.696 282.667 227.696 284.352C227.696 286.037 227.824 287.253 228.08 288C228.336 288.725 228.784 289.088 229.424 289.088C230.064 289.088 230.512 288.725 230.768 288C231.024 287.253 231.152 286.037 231.152 284.352C231.152 282.667 231.024 281.461 230.768 280.736C230.512 279.989 230.064 279.616 229.424 279.616C228.784 279.616 228.336 279.989 228.08 280.736ZM251.159 271.232L250.295 292H244.407L243.543 271.232H251.159ZM259.41 277.28L259.954 277.088L258.866 292H252.818L251.794 277.088C253.01 277.579 254.301 277.824 255.666 277.824C257.053 277.824 258.301 277.643 259.41 277.28ZM255.858 276.416C254.792 276.416 253.896 276.096 253.17 275.456C252.445 274.816 252.082 273.984 252.082 272.96C252.082 271.915 252.434 271.083 253.138 270.464C253.864 269.824 254.76 269.504 255.826 269.504C256.914 269.504 257.821 269.824 258.546 270.464C259.272 271.104 259.634 271.936 259.634 272.96C259.634 273.984 259.272 274.816 258.546 275.456C257.821 276.096 256.925 276.416 255.858 276.416ZM262.208 276.832C262.208 274.869 262.667 273.376 263.584 272.352C264.523 271.307 266.101 270.784 268.32 270.784C269.301 270.784 270.24 270.923 271.136 271.2L271.488 274.304C271.168 274.219 270.848 274.176 270.528 274.176C269.483 274.176 268.96 274.923 268.96 276.416V276.832H270.912L271.296 280.992H269.152L268.672 292H262.784L262.304 280.992H260.288L260.672 276.832H262.208ZM280.149 292.32C277.738 292.32 275.712 291.627 274.069 290.24C272.448 288.832 271.637 286.773 271.637 284.064C271.637 282.357 272.053 280.907 272.885 279.712C274.4 277.493 276.746 276.384 279.925 276.384C282.357 276.384 284.213 276.875 285.493 277.856C286.773 278.816 287.413 280.149 287.413 281.856C287.413 283.179 286.88 284.256 285.813 285.088C284.768 285.899 283.232 286.304 281.205 286.304C280.373 286.304 279.626 286.24 278.965 286.112L278.613 286.048C278.72 286.816 279.05 287.392 279.605 287.776C280.181 288.139 280.864 288.32 281.653 288.32C282.954 288.32 284.064 287.925 284.981 287.136L286.965 289.536C286.624 289.941 286.218 290.325 285.749 290.688C285.28 291.029 284.533 291.392 283.509 291.776C282.485 292.139 281.365 292.32 280.149 292.32ZM282.741 281.568C282.741 281.141 282.57 280.789 282.229 280.512C281.909 280.235 281.461 280.096 280.885 280.096C280.309 280.096 279.765 280.352 279.253 280.864C278.762 281.376 278.517 281.984 278.517 282.688C278.986 282.901 279.594 283.008 280.341 283.008C281.109 283.008 281.696 282.88 282.101 282.624C282.528 282.347 282.741 281.995 282.741 281.568Z" fill="black"/>
<rect width="266" height="49" transform="translate(47 603)" fill="#070616"/>
<path d="M153.52 633.5L151.056 629.148H150V633.5H147.76V622.332H151.952C152.816 622.332 153.552 622.487 154.16 622.796C154.768 623.095 155.222 623.505 155.52 624.028C155.83 624.54 155.984 625.116 155.984 625.756C155.984 626.492 155.771 627.159 155.344 627.756C154.918 628.343 154.283 628.748 153.44 628.972L156.112 633.5H153.52ZM150 627.468H151.872C152.48 627.468 152.934 627.324 153.232 627.036C153.531 626.737 153.68 626.327 153.68 625.804C153.68 625.292 153.531 624.897 153.232 624.62C152.934 624.332 152.48 624.188 151.872 624.188H150V627.468ZM166.25 628.876C166.25 629.196 166.229 629.484 166.186 629.74H159.706C159.76 630.38 159.984 630.881 160.378 631.244C160.773 631.607 161.258 631.788 161.834 631.788C162.666 631.788 163.258 631.431 163.61 630.716H166.026C165.77 631.569 165.28 632.273 164.554 632.828C163.829 633.372 162.938 633.644 161.882 633.644C161.029 633.644 160.261 633.457 159.578 633.084C158.906 632.7 158.378 632.161 157.994 631.468C157.621 630.775 157.434 629.975 157.434 629.068C157.434 628.151 157.621 627.345 157.994 626.652C158.368 625.959 158.89 625.425 159.562 625.052C160.234 624.679 161.008 624.492 161.882 624.492C162.725 624.492 163.477 624.673 164.138 625.036C164.81 625.399 165.328 625.916 165.69 626.588C166.064 627.249 166.25 628.012 166.25 628.876ZM163.93 628.236C163.92 627.66 163.712 627.201 163.306 626.86C162.901 626.508 162.405 626.332 161.818 626.332C161.264 626.332 160.794 626.503 160.41 626.844C160.037 627.175 159.808 627.639 159.722 628.236H163.93ZM171.357 624.492C172.019 624.492 172.6 624.625 173.101 624.892C173.603 625.148 173.997 625.484 174.285 625.9V624.636H176.541V633.564C176.541 634.385 176.376 635.116 176.045 635.756C175.715 636.407 175.219 636.919 174.557 637.292C173.896 637.676 173.096 637.868 172.157 637.868C170.899 637.868 169.864 637.575 169.053 636.988C168.253 636.401 167.8 635.601 167.693 634.588H169.917C170.035 634.993 170.285 635.313 170.669 635.548C171.064 635.793 171.539 635.916 172.093 635.916C172.744 635.916 173.272 635.719 173.677 635.324C174.083 634.94 174.285 634.353 174.285 633.564V632.188C173.997 632.604 173.597 632.951 173.085 633.228C172.584 633.505 172.008 633.644 171.357 633.644C170.611 633.644 169.928 633.452 169.309 633.068C168.691 632.684 168.2 632.145 167.837 631.452C167.485 630.748 167.309 629.943 167.309 629.036C167.309 628.14 167.485 627.345 167.837 626.652C168.2 625.959 168.685 625.425 169.293 625.052C169.912 624.679 170.6 624.492 171.357 624.492ZM174.285 629.068C174.285 628.524 174.179 628.06 173.965 627.676C173.752 627.281 173.464 626.983 173.101 626.78C172.739 626.567 172.349 626.46 171.933 626.46C171.517 626.46 171.133 626.561 170.781 626.764C170.429 626.967 170.141 627.265 169.917 627.66C169.704 628.044 169.597 628.503 169.597 629.036C169.597 629.569 169.704 630.039 169.917 630.444C170.141 630.839 170.429 631.143 170.781 631.356C171.144 631.569 171.528 631.676 171.933 631.676C172.349 631.676 172.739 631.575 173.101 631.372C173.464 631.159 173.752 630.86 173.965 630.476C174.179 630.081 174.285 629.612 174.285 629.068ZM179.865 623.58C179.47 623.58 179.14 623.457 178.873 623.212C178.617 622.956 178.489 622.641 178.489 622.268C178.489 621.895 178.617 621.585 178.873 621.34C179.14 621.084 179.47 620.956 179.865 620.956C180.26 620.956 180.585 621.084 180.841 621.34C181.108 621.585 181.241 621.895 181.241 622.268C181.241 622.641 181.108 622.956 180.841 623.212C180.585 623.457 180.26 623.58 179.865 623.58ZM180.969 624.636V633.5H178.729V624.636H180.969ZM186.574 633.644C185.849 633.644 185.198 633.516 184.622 633.26C184.046 632.993 183.587 632.636 183.246 632.188C182.915 631.74 182.734 631.244 182.702 630.7H184.958C185.001 631.041 185.166 631.324 185.454 631.548C185.753 631.772 186.121 631.884 186.558 631.884C186.985 631.884 187.315 631.799 187.55 631.628C187.795 631.457 187.918 631.239 187.918 630.972C187.918 630.684 187.769 630.471 187.47 630.332C187.182 630.183 186.718 630.023 186.078 629.852C185.417 629.692 184.873 629.527 184.446 629.356C184.03 629.185 183.667 628.924 183.358 628.572C183.059 628.22 182.91 627.745 182.91 627.148C182.91 626.657 183.049 626.209 183.326 625.804C183.614 625.399 184.019 625.079 184.542 624.844C185.075 624.609 185.699 624.492 186.414 624.492C187.47 624.492 188.313 624.759 188.942 625.292C189.571 625.815 189.918 626.524 189.982 627.42H187.838C187.806 627.068 187.657 626.791 187.39 626.588C187.134 626.375 186.787 626.268 186.35 626.268C185.945 626.268 185.63 626.343 185.406 626.492C185.193 626.641 185.086 626.849 185.086 627.116C185.086 627.415 185.235 627.644 185.534 627.804C185.833 627.953 186.297 628.108 186.926 628.268C187.566 628.428 188.094 628.593 188.51 628.764C188.926 628.935 189.283 629.201 189.582 629.564C189.891 629.916 190.051 630.385 190.062 630.972C190.062 631.484 189.918 631.943 189.63 632.348C189.353 632.753 188.947 633.073 188.414 633.308C187.891 633.532 187.278 633.644 186.574 633.644ZM194.509 626.476V630.764C194.509 631.063 194.578 631.281 194.717 631.42C194.866 631.548 195.112 631.612 195.453 631.612H196.493V633.5H195.085C193.197 633.5 192.253 632.583 192.253 630.748V626.476H191.197V624.636H192.253V622.444H194.509V624.636H196.493V626.476H194.509ZM206.344 628.876C206.344 629.196 206.323 629.484 206.28 629.74H199.8C199.853 630.38 200.077 630.881 200.472 631.244C200.867 631.607 201.352 631.788 201.928 631.788C202.76 631.788 203.352 631.431 203.704 630.716H206.12C205.864 631.569 205.373 632.273 204.648 632.828C203.923 633.372 203.032 633.644 201.976 633.644C201.123 633.644 200.355 633.457 199.672 633.084C199 632.7 198.472 632.161 198.088 631.468C197.715 630.775 197.528 629.975 197.528 629.068C197.528 628.151 197.715 627.345 198.088 626.652C198.461 625.959 198.984 625.425 199.656 625.052C200.328 624.679 201.101 624.492 201.976 624.492C202.819 624.492 203.571 624.673 204.232 625.036C204.904 625.399 205.421 625.916 205.784 626.588C206.157 627.249 206.344 628.012 206.344 628.876ZM204.024 628.236C204.013 627.66 203.805 627.201 203.4 626.86C202.995 626.508 202.499 626.332 201.912 626.332C201.357 626.332 200.888 626.503 200.504 626.844C200.131 627.175 199.901 627.639 199.816 628.236H204.024ZM210.219 626.012C210.507 625.543 210.88 625.175 211.339 624.908C211.808 624.641 212.342 624.508 212.939 624.508V626.86H212.347C211.643 626.86 211.11 627.025 210.747 627.356C210.395 627.687 210.219 628.263 210.219 629.084V633.5H207.979V624.636H210.219V626.012Z" fill="#D9D9D9"/>
<path d="M40.7071 697.536C40.7071 696.64 40.8831 695.845 41.2351 695.152C41.5977 694.459 42.0831 693.925 42.6911 693.552C43.3097 693.179 43.9977 692.992 44.7551 692.992C45.4164 692.992 45.9924 693.125 46.4831 693.392C46.9844 693.659 47.3844 693.995 47.6831 694.4V693.136H49.9391V702H47.6831V700.704C47.3951 701.12 46.9951 701.467 46.4831 701.744C45.9817 702.011 45.4004 702.144 44.7391 702.144C43.9924 702.144 43.3097 701.952 42.6911 701.568C42.0831 701.184 41.5977 700.645 41.2351 699.952C40.8831 699.248 40.7071 698.443 40.7071 697.536ZM47.6831 697.568C47.6831 697.024 47.5764 696.56 47.3631 696.176C47.1497 695.781 46.8617 695.483 46.4991 695.28C46.1364 695.067 45.7471 694.96 45.3311 694.96C44.9151 694.96 44.5311 695.061 44.1791 695.264C43.8271 695.467 43.5391 695.765 43.3151 696.16C43.1017 696.544 42.9951 697.003 42.9951 697.536C42.9951 698.069 43.1017 698.539 43.3151 698.944C43.5391 699.339 43.8271 699.643 44.1791 699.856C44.5417 700.069 44.9257 700.176 45.3311 700.176C45.7471 700.176 46.1364 700.075 46.4991 699.872C46.8617 699.659 47.1497 699.36 47.3631 698.976C47.5764 698.581 47.6831 698.112 47.6831 697.568ZM54.3668 690.16V702H52.1268V690.16H54.3668ZM58.8199 694.512C59.1079 694.043 59.4813 693.675 59.9399 693.408C60.4093 693.141 60.9426 693.008 61.5399 693.008V695.36H60.9479C60.2439 695.36 59.7106 695.525 59.3479 695.856C58.9959 696.187 58.8199 696.763 58.8199 697.584V702H56.5799V693.136H58.8199V694.512ZM71.2887 697.376C71.2887 697.696 71.2674 697.984 71.2247 698.24H64.7447C64.798 698.88 65.022 699.381 65.4167 699.744C65.8114 700.107 66.2967 700.288 66.8727 700.288C67.7047 700.288 68.2967 699.931 68.6487 699.216H71.0647C70.8087 700.069 70.318 700.773 69.5927 701.328C68.8674 701.872 67.9767 702.144 66.9207 702.144C66.0674 702.144 65.2994 701.957 64.6167 701.584C63.9447 701.2 63.4167 700.661 63.0327 699.968C62.6594 699.275 62.4727 698.475 62.4727 697.568C62.4727 696.651 62.6594 695.845 63.0327 695.152C63.406 694.459 63.9287 693.925 64.6007 693.552C65.2727 693.179 66.046 692.992 66.9207 692.992C67.7634 692.992 68.5154 693.173 69.1767 693.536C69.8487 693.899 70.366 694.416 70.7287 695.088C71.102 695.749 71.2887 696.512 71.2887 697.376ZM68.9687 696.736C68.958 696.16 68.75 695.701 68.3447 695.36C67.9394 695.008 67.4434 694.832 66.8567 694.832C66.302 694.832 65.8327 695.003 65.4487 695.344C65.0754 695.675 64.846 696.139 64.7607 696.736H68.9687ZM72.3477 697.536C72.3477 696.64 72.5237 695.845 72.8757 695.152C73.2384 694.459 73.7237 693.925 74.3317 693.552C74.9504 693.179 75.6384 692.992 76.3957 692.992C77.057 692.992 77.633 693.125 78.1237 693.392C78.625 693.659 79.025 693.995 79.3237 694.4V693.136H81.5797V702H79.3237V700.704C79.0357 701.12 78.6357 701.467 78.1237 701.744C77.6224 702.011 77.041 702.144 76.3797 702.144C75.633 702.144 74.9504 701.952 74.3317 701.568C73.7237 701.184 73.2384 700.645 72.8757 699.952C72.5237 699.248 72.3477 698.443 72.3477 697.536ZM79.3237 697.568C79.3237 697.024 79.217 696.56 79.0037 696.176C78.7904 695.781 78.5024 695.483 78.1397 695.28C77.777 695.067 77.3877 694.96 76.9717 694.96C76.5557 694.96 76.1717 695.061 75.8197 695.264C75.4677 695.467 75.1797 695.765 74.9557 696.16C74.7424 696.544 74.6357 697.003 74.6357 697.536C74.6357 698.069 74.7424 698.539 74.9557 698.944C75.1797 699.339 75.4677 699.643 75.8197 699.856C76.1824 700.069 76.5664 700.176 76.9717 700.176C77.3877 700.176 77.777 700.075 78.1397 699.872C78.5024 699.659 78.7904 699.36 79.0037 698.976C79.217 698.581 79.3237 698.112 79.3237 697.568ZM83.1914 697.536C83.1914 696.64 83.3674 695.845 83.7194 695.152C84.0821 694.459 84.5728 693.925 85.1914 693.552C85.8101 693.179 86.4981 692.992 87.2554 692.992C87.8314 692.992 88.3808 693.12 88.9034 693.376C89.4261 693.621 89.8421 693.952 90.1514 694.368V690.16H92.4234V702H90.1514V700.688C89.8741 701.125 89.4848 701.477 88.9834 701.744C88.4821 702.011 87.9008 702.144 87.2394 702.144C86.4928 702.144 85.8101 701.952 85.1914 701.568C84.5728 701.184 84.0821 700.645 83.7194 699.952C83.3674 699.248 83.1914 698.443 83.1914 697.536ZM90.1674 697.568C90.1674 697.024 90.0608 696.56 89.8474 696.176C89.6341 695.781 89.3461 695.483 88.9834 695.28C88.6208 695.067 88.2314 694.96 87.8154 694.96C87.3994 694.96 87.0154 695.061 86.6634 695.264C86.3114 695.467 86.0234 695.765 85.7994 696.16C85.5861 696.544 85.4794 697.003 85.4794 697.536C85.4794 698.069 85.5861 698.539 85.7994 698.944C86.0234 699.339 86.3114 699.643 86.6634 699.856C87.0261 700.069 87.4101 700.176 87.8154 700.176C88.2314 700.176 88.6208 700.075 88.9834 699.872C89.3461 699.659 89.6341 699.36 89.8474 698.976C90.0608 698.581 90.1674 698.112 90.1674 697.568ZM103.091 693.136L97.6032 706.192H95.2192L97.1392 701.776L93.5872 693.136H96.0992L98.3872 699.328L100.707 693.136H103.091ZM113.103 693.008C113.775 693.008 114.373 693.157 114.895 693.456C115.418 693.744 115.823 694.176 116.111 694.752C116.41 695.317 116.559 696 116.559 696.8V702H114.319V697.104C114.319 696.4 114.143 695.861 113.791 695.488C113.439 695.104 112.959 694.912 112.351 694.912C111.733 694.912 111.242 695.104 110.879 695.488C110.527 695.861 110.351 696.4 110.351 697.104V702H108.111V690.16H110.351V694.24C110.639 693.856 111.023 693.557 111.503 693.344C111.983 693.12 112.517 693.008 113.103 693.008ZM118.113 697.536C118.113 696.64 118.289 695.845 118.641 695.152C119.004 694.459 119.489 693.925 120.097 693.552C120.716 693.179 121.404 692.992 122.161 692.992C122.823 692.992 123.399 693.125 123.889 693.392C124.391 693.659 124.791 693.995 125.089 694.4V693.136H127.345V702H125.089V700.704C124.801 701.12 124.401 701.467 123.889 701.744C123.388 702.011 122.807 702.144 122.145 702.144C121.399 702.144 120.716 701.952 120.097 701.568C119.489 701.184 119.004 700.645 118.641 699.952C118.289 699.248 118.113 698.443 118.113 697.536ZM125.089 697.568C125.089 697.024 124.983 696.56 124.769 696.176C124.556 695.781 124.268 695.483 123.905 695.28C123.543 695.067 123.153 694.96 122.737 694.96C122.321 694.96 121.937 695.061 121.585 695.264C121.233 695.467 120.945 695.765 120.721 696.16C120.508 696.544 120.401 697.003 120.401 697.536C120.401 698.069 120.508 698.539 120.721 698.944C120.945 699.339 121.233 699.643 121.585 699.856C121.948 700.069 122.332 700.176 122.737 700.176C123.153 700.176 123.543 700.075 123.905 699.872C124.268 699.659 124.556 699.36 124.769 698.976C124.983 698.581 125.089 698.112 125.089 697.568ZM133.229 699.936L135.469 693.136H137.853L134.573 702H131.853L128.589 693.136H130.989L133.229 699.936ZM147.351 697.376C147.351 697.696 147.33 697.984 147.287 698.24H140.807C140.861 698.88 141.085 699.381 141.479 699.744C141.874 700.107 142.359 700.288 142.935 700.288C143.767 700.288 144.359 699.931 144.711 699.216H147.127C146.871 700.069 146.381 700.773 145.655 701.328C144.93 701.872 144.039 702.144 142.983 702.144C142.13 702.144 141.362 701.957 140.679 701.584C140.007 701.2 139.479 700.661 139.095 699.968C138.722 699.275 138.535 698.475 138.535 697.568C138.535 696.651 138.722 695.845 139.095 695.152C139.469 694.459 139.991 693.925 140.663 693.552C141.335 693.179 142.109 692.992 142.983 692.992C143.826 692.992 144.578 693.173 145.239 693.536C145.911 693.899 146.429 694.416 146.791 695.088C147.165 695.749 147.351 696.512 147.351 697.376ZM145.031 696.736C145.021 696.16 144.813 695.701 144.407 695.36C144.002 695.008 143.506 694.832 142.919 694.832C142.365 694.832 141.895 695.003 141.511 695.344C141.138 695.675 140.909 696.139 140.823 696.736H145.031ZM152.223 697.536C152.223 696.64 152.399 695.845 152.751 695.152C153.113 694.459 153.599 693.925 154.207 693.552C154.825 693.179 155.513 692.992 156.271 692.992C156.932 692.992 157.508 693.125 157.999 693.392C158.5 693.659 158.9 693.995 159.199 694.4V693.136H161.455V702H159.199V700.704C158.911 701.12 158.511 701.467 157.999 701.744C157.497 702.011 156.916 702.144 156.255 702.144C155.508 702.144 154.825 701.952 154.207 701.568C153.599 701.184 153.113 700.645 152.751 699.952C152.399 699.248 152.223 698.443 152.223 697.536ZM159.199 697.568C159.199 697.024 159.092 696.56 158.879 696.176C158.665 695.781 158.377 695.483 158.015 695.28C157.652 695.067 157.263 694.96 156.847 694.96C156.431 694.96 156.047 695.061 155.695 695.264C155.343 695.467 155.055 695.765 154.831 696.16C154.617 696.544 154.511 697.003 154.511 697.536C154.511 698.069 154.617 698.539 154.831 698.944C155.055 699.339 155.343 699.643 155.695 699.856C156.057 700.069 156.441 700.176 156.847 700.176C157.263 700.176 157.652 700.075 158.015 699.872C158.377 699.659 158.665 699.36 158.879 698.976C159.092 698.581 159.199 698.112 159.199 697.568ZM168.554 693.008C169.61 693.008 170.464 693.344 171.114 694.016C171.765 694.677 172.09 695.605 172.09 696.8V702H169.85V697.104C169.85 696.4 169.674 695.861 169.322 695.488C168.97 695.104 168.49 694.912 167.882 694.912C167.264 694.912 166.773 695.104 166.41 695.488C166.058 695.861 165.882 696.4 165.882 697.104V702H163.642V693.136H165.882V694.24C166.181 693.856 166.56 693.557 167.018 693.344C167.488 693.12 168 693.008 168.554 693.008ZM177.457 697.536C177.457 696.64 177.633 695.845 177.985 695.152C178.348 694.459 178.833 693.925 179.441 693.552C180.06 693.179 180.748 692.992 181.505 692.992C182.166 692.992 182.742 693.125 183.233 693.392C183.734 693.659 184.134 693.995 184.433 694.4V693.136H186.689V702H184.433V700.704C184.145 701.12 183.745 701.467 183.233 701.744C182.732 702.011 182.15 702.144 181.489 702.144C180.742 702.144 180.06 701.952 179.441 701.568C178.833 701.184 178.348 700.645 177.985 699.952C177.633 699.248 177.457 698.443 177.457 697.536ZM184.433 697.568C184.433 697.024 184.326 696.56 184.113 696.176C183.9 695.781 183.612 695.483 183.249 695.28C182.886 695.067 182.497 694.96 182.081 694.96C181.665 694.96 181.281 695.061 180.929 695.264C180.577 695.467 180.289 695.765 180.065 696.16C179.852 696.544 179.745 697.003 179.745 697.536C179.745 698.069 179.852 698.539 180.065 698.944C180.289 699.339 180.577 699.643 180.929 699.856C181.292 700.069 181.676 700.176 182.081 700.176C182.497 700.176 182.886 700.075 183.249 699.872C183.612 699.659 183.9 699.36 184.113 698.976C184.326 698.581 184.433 698.112 184.433 697.568ZM188.301 697.568C188.301 696.651 188.487 695.851 188.861 695.168C189.234 694.475 189.751 693.941 190.413 693.568C191.074 693.184 191.831 692.992 192.685 692.992C193.783 692.992 194.69 693.269 195.405 693.824C196.13 694.368 196.615 695.136 196.861 696.128H194.445C194.317 695.744 194.098 695.445 193.789 695.232C193.49 695.008 193.117 694.896 192.669 694.896C192.029 694.896 191.522 695.131 191.149 695.6C190.775 696.059 190.589 696.715 190.589 697.568C190.589 698.411 190.775 699.067 191.149 699.536C191.522 699.995 192.029 700.224 192.669 700.224C193.575 700.224 194.167 699.819 194.445 699.008H196.861C196.615 699.968 196.13 700.731 195.405 701.296C194.679 701.861 193.773 702.144 192.685 702.144C191.831 702.144 191.074 701.957 190.413 701.584C189.751 701.2 189.234 700.667 188.861 699.984C188.487 699.291 188.301 698.485 188.301 697.568ZM197.926 697.568C197.926 696.651 198.112 695.851 198.486 695.168C198.859 694.475 199.376 693.941 200.038 693.568C200.699 693.184 201.456 692.992 202.31 692.992C203.408 692.992 204.315 693.269 205.03 693.824C205.755 694.368 206.24 695.136 206.486 696.128H204.07C203.942 695.744 203.723 695.445 203.414 695.232C203.115 695.008 202.742 694.896 202.294 694.896C201.654 694.896 201.147 695.131 200.774 695.6C200.4 696.059 200.214 696.715 200.214 697.568C200.214 698.411 200.4 699.067 200.774 699.536C201.147 699.995 201.654 700.224 202.294 700.224C203.2 700.224 203.792 699.819 204.07 699.008H206.486C206.24 699.968 205.755 700.731 205.03 701.296C204.304 701.861 203.398 702.144 202.31 702.144C201.456 702.144 200.699 701.957 200.038 701.584C199.376 701.2 198.859 700.667 198.486 699.984C198.112 699.291 197.926 698.485 197.926 697.568ZM212.063 702.144C211.209 702.144 210.441 701.957 209.759 701.584C209.076 701.2 208.537 700.661 208.143 699.968C207.759 699.275 207.567 698.475 207.567 697.568C207.567 696.661 207.764 695.861 208.159 695.168C208.564 694.475 209.113 693.941 209.807 693.568C210.5 693.184 211.273 692.992 212.127 692.992C212.98 692.992 213.753 693.184 214.447 693.568C215.14 693.941 215.684 694.475 216.079 695.168C216.484 695.861 216.687 696.661 216.687 697.568C216.687 698.475 216.479 699.275 216.063 699.968C215.657 700.661 215.103 701.2 214.399 701.584C213.705 701.957 212.927 702.144 212.063 702.144ZM212.063 700.192C212.468 700.192 212.847 700.096 213.199 699.904C213.561 699.701 213.849 699.403 214.063 699.008C214.276 698.613 214.383 698.133 214.383 697.568C214.383 696.725 214.159 696.08 213.711 695.632C213.273 695.173 212.735 694.944 212.095 694.944C211.455 694.944 210.916 695.173 210.479 695.632C210.052 696.08 209.839 696.725 209.839 697.568C209.839 698.411 210.047 699.061 210.463 699.52C210.889 699.968 211.423 700.192 212.063 700.192ZM226.698 693.136V702H224.442V700.88C224.154 701.264 223.775 701.568 223.306 701.792C222.847 702.005 222.346 702.112 221.802 702.112C221.109 702.112 220.495 701.968 219.962 701.68C219.429 701.381 219.007 700.949 218.698 700.384C218.399 699.808 218.25 699.125 218.25 698.336V693.136H220.49V698.016C220.49 698.72 220.666 699.264 221.018 699.648C221.37 700.021 221.85 700.208 222.458 700.208C223.077 700.208 223.562 700.021 223.914 699.648C224.266 699.264 224.442 698.72 224.442 698.016V693.136H226.698ZM233.82 693.008C234.876 693.008 235.729 693.344 236.38 694.016C237.031 694.677 237.356 695.605 237.356 696.8V702H235.116V697.104C235.116 696.4 234.94 695.861 234.588 695.488C234.236 695.104 233.756 694.912 233.148 694.912C232.529 694.912 232.039 695.104 231.676 695.488C231.324 695.861 231.148 696.4 231.148 697.104V702H228.908V693.136H231.148V694.24C231.447 693.856 231.825 693.557 232.284 693.344C232.753 693.12 233.265 693.008 233.82 693.008ZM242.094 694.976V699.264C242.094 699.563 242.164 699.781 242.302 699.92C242.452 700.048 242.697 700.112 243.038 700.112H244.078V702H242.67C240.782 702 239.838 701.083 239.838 699.248V694.976H238.782V693.136H239.838V690.944H242.094V693.136H244.078V694.976H242.094ZM248.809 690.448C249.919 690.448 250.809 690.752 251.481 691.36C252.164 691.957 252.505 692.784 252.505 693.84C252.505 694.885 252.169 695.685 251.497 696.24C250.825 696.784 249.935 697.056 248.825 697.056L248.761 698.288H246.793L246.713 695.568H247.433C248.361 695.568 249.076 695.445 249.577 695.2C250.079 694.955 250.329 694.507 250.329 693.856C250.329 693.387 250.191 693.013 249.913 692.736C249.647 692.459 249.279 692.32 248.809 692.32C248.319 692.32 247.935 692.453 247.657 692.72C247.391 692.987 247.257 693.355 247.257 693.824H245.145C245.135 693.173 245.273 692.592 245.561 692.08C245.849 691.568 246.271 691.168 246.825 690.88C247.391 690.592 248.052 690.448 248.809 690.448ZM247.769 702.112C247.364 702.112 247.028 701.989 246.761 701.744C246.505 701.488 246.377 701.173 246.377 700.8C246.377 700.427 246.505 700.117 246.761 699.872C247.028 699.616 247.364 699.488 247.769 699.488C248.164 699.488 248.489 699.616 248.745 699.872C249.001 700.117 249.129 700.427 249.129 700.8C249.129 701.173 249.001 701.488 248.745 701.744C248.489 701.989 248.164 702.112 247.769 702.112Z" fill="black"/>
<path d="M263.023 702.112C262.202 702.112 261.466 701.979 260.815 701.712C260.165 701.445 259.642 701.051 259.247 700.528C258.863 700.005 258.661 699.376 258.639 698.64H261.551C261.594 699.056 261.738 699.376 261.983 699.6C262.229 699.813 262.549 699.92 262.943 699.92C263.349 699.92 263.669 699.829 263.903 699.648C264.138 699.456 264.255 699.195 264.255 698.864C264.255 698.587 264.159 698.357 263.967 698.176C263.786 697.995 263.557 697.845 263.279 697.728C263.013 697.611 262.629 697.477 262.127 697.328C261.402 697.104 260.81 696.88 260.351 696.656C259.893 696.432 259.498 696.101 259.167 695.664C258.837 695.227 258.671 694.656 258.671 693.952C258.671 692.907 259.05 692.091 259.807 691.504C260.565 690.907 261.551 690.608 262.767 690.608C264.005 690.608 265.002 690.907 265.759 691.504C266.517 692.091 266.922 692.912 266.975 693.968H264.015C263.994 693.605 263.861 693.323 263.615 693.12C263.37 692.907 263.055 692.8 262.671 692.8C262.341 692.8 262.074 692.891 261.871 693.072C261.669 693.243 261.567 693.493 261.567 693.824C261.567 694.187 261.738 694.469 262.079 694.672C262.421 694.875 262.954 695.093 263.679 695.328C264.405 695.573 264.991 695.808 265.439 696.032C265.898 696.256 266.293 696.581 266.623 697.008C266.954 697.435 267.119 697.984 267.119 698.656C267.119 699.296 266.954 699.877 266.623 700.4C266.303 700.923 265.834 701.339 265.215 701.648C264.597 701.957 263.866 702.112 263.023 702.112ZM271.139 692.144C270.659 692.144 270.264 692.005 269.955 691.728C269.656 691.44 269.507 691.088 269.507 690.672C269.507 690.245 269.656 689.893 269.955 689.616C270.264 689.328 270.659 689.184 271.139 689.184C271.608 689.184 271.992 689.328 272.291 689.616C272.6 689.893 272.755 690.245 272.755 690.672C272.755 691.088 272.6 691.44 272.291 691.728C271.992 692.005 271.608 692.144 271.139 692.144ZM272.499 693.072V702H269.763V693.072H272.499ZM278.834 692.944C279.463 692.944 280.012 693.072 280.482 693.328C280.962 693.584 281.33 693.92 281.586 694.336V693.072H284.322V701.984C284.322 702.805 284.156 703.547 283.826 704.208C283.506 704.88 283.01 705.413 282.338 705.808C281.676 706.203 280.85 706.4 279.858 706.4C278.535 706.4 277.463 706.085 276.642 705.456C275.82 704.837 275.351 703.995 275.234 702.928H277.938C278.023 703.269 278.226 703.536 278.546 703.728C278.866 703.931 279.26 704.032 279.73 704.032C280.295 704.032 280.743 703.867 281.074 703.536C281.415 703.216 281.586 702.699 281.586 701.984V700.72C281.319 701.136 280.951 701.477 280.482 701.744C280.012 702 279.463 702.128 278.834 702.128C278.098 702.128 277.431 701.941 276.834 701.568C276.236 701.184 275.762 700.645 275.41 699.952C275.068 699.248 274.898 698.437 274.898 697.52C274.898 696.603 275.068 695.797 275.41 695.104C275.762 694.411 276.236 693.877 276.834 693.504C277.431 693.131 278.098 692.944 278.834 692.944ZM281.586 697.536C281.586 696.853 281.394 696.315 281.01 695.92C280.636 695.525 280.178 695.328 279.634 695.328C279.09 695.328 278.626 695.525 278.242 695.92C277.868 696.304 277.682 696.837 277.682 697.52C277.682 698.203 277.868 698.747 278.242 699.152C278.626 699.547 279.09 699.744 279.634 699.744C280.178 699.744 280.636 699.547 281.01 699.152C281.394 698.757 281.586 698.219 281.586 697.536ZM292.701 692.976C293.746 692.976 294.578 693.317 295.197 694C295.826 694.672 296.141 695.6 296.141 696.784V702H293.421V697.152C293.421 696.555 293.266 696.091 292.957 695.76C292.648 695.429 292.232 695.264 291.709 695.264C291.186 695.264 290.77 695.429 290.461 695.76C290.152 696.091 289.997 696.555 289.997 697.152V702H287.261V693.072H289.997V694.256C290.274 693.861 290.648 693.552 291.117 693.328C291.586 693.093 292.114 692.976 292.701 692.976ZM304.729 692.144C304.249 692.144 303.854 692.005 303.545 691.728C303.246 691.44 303.097 691.088 303.097 690.672C303.097 690.245 303.246 689.893 303.545 689.616C303.854 689.328 304.249 689.184 304.729 689.184C305.198 689.184 305.582 689.328 305.881 689.616C306.19 689.893 306.345 690.245 306.345 690.672C306.345 691.088 306.19 691.44 305.881 691.728C305.582 692.005 305.198 692.144 304.729 692.144ZM306.089 693.072V702H303.353V693.072H306.089ZM314.472 692.976C315.517 692.976 316.349 693.317 316.968 694C317.597 694.672 317.912 695.6 317.912 696.784V702H315.192V697.152C315.192 696.555 315.037 696.091 314.728 695.76C314.418 695.429 314.002 695.264 313.48 695.264C312.957 695.264 312.541 695.429 312.232 695.76C311.922 696.091 311.768 696.555 311.768 697.152V702H309.032V693.072H311.768V694.256C312.045 693.861 312.418 693.552 312.888 693.328C313.357 693.093 313.885 692.976 314.472 692.976Z" fill="#00529E"/>
<g filter="url(#filter5_d_9_139)">
<ellipse cx="40.2874" cy="31" rx="49.0276" ry="54" fill="#070616"/>
<ellipse cx="84.0271" cy="6" rx="37.9724" ry="39" fill="#070616"/>
<ellipse cx="-3.9337" cy="82" rx="48.0663" ry="50" fill="#070616"/>
</g>
</g>
<defs>
<filter id="filter0_d_9_139" x="38" y="315" width="295" height="245" filterUnits="userSpaceOnUse" color-interpolation-filters="sRGB">
<feFlood flood-opacity="0" result="BackgroundImageFix"/>
<feColorMatrix in="SourceAlpha" type="matrix" values="0 0 0 0 0 0 0 0 0 0 0 0 0 0 0 0 0 0 127 0" result="hardAlpha"/>
<feMorphology radius="2" operator="dilate" in="SourceAlpha" result="effect1_dropShadow_9_139"/>
<feOffset dx="5" dy="6"/>
<feGaussianBlur stdDeviation="4.5"/>
<feComposite in2="hardAlpha" operator="out"/>
<feColorMatrix type="matrix" values="0 0 0 0 0 0 0 0 0 0 0 0 0 0 0 0 0 0 0.16 0"/>
<feBlend mode="normal" in2="BackgroundImageFix" result="effect1_dropShadow_9_139"/>
<feBlend mode="normal" in="SourceGraphic" in2="effect1_dropShadow_9_139" result="shape"/>
</filter>
<filter id="filter1_d_9_139" x="64" y="342" width="233" height="37" filterUnits="userSpaceOnUse" color-interpolation-filters="sRGB">
<feFlood flood-opacity="0" result="BackgroundImageFix"/>
<feColorMatrix in="SourceAlpha" type="matrix" values="0 0 0 0 0 0 0 0 0 0 0 0 0 0 0 0 0 0 127 0" result="hardAlpha"/>
<feOffset dy="4"/>
<feGaussianBlur stdDeviation="2"/>
<feComposite in2="hardAlpha" operator="out"/>
<feColorMatrix type="matrix" values="0 0 0 0 0 0 0 0 0 0 0 0 0 0 0 0 0 0 0.16 0"/>
<feBlend mode="normal" in2="BackgroundImageFix" result="effect1_dropShadow_9_139"/>
<feBlend mode="normal" in="SourceGraphic" in2="effect1_dropShadow_9_139" result="shape"/>
</filter>
<filter id="filter2_d_9_139" x="64" y="392" width="233" height="37" filterUnits="userSpaceOnUse" color-interpolation-filters="sRGB">
<feFlood flood-opacity="0" result="BackgroundImageFix"/>
<feColorMatrix in="SourceAlpha" type="matrix" values="0 0 0 0 0 0 0 0 0 0 0 0 0 0 0 0 0 0 127 0" result="hardAlpha"/>
<feOffset dy="4"/>
<feGaussianBlur stdDeviation="2"/>
<feComposite in2="hardAlpha" operator="out"/>
<feColorMatrix type="matrix" values="0 0 0 0 0 0 0 0 0 0 0 0 0 0 0 0 0 0 0.16 0"/>
<feBlend mode="normal" in2="BackgroundImageFix" result="effect1_dropShadow_9_139"/>
<feBlend mode="normal" in="SourceGraphic" in2="effect1_dropShadow_9_139" result="shape"/>
</filter>
<filter id="filter3_d_9_139" x="64" y="442" width="233" height="37" filterUnits="userSpaceOnUse" color-interpolation-filters="sRGB">
<feFlood flood-opacity="0" result="BackgroundImageFix"/>
<feColorMatrix in="SourceAlpha" type="matrix" values="0 0 0 0 0 0 0 0 0 0 0 0 0 0 0 0 0 0 127 0" result="hardAlpha"/>
<feOffset dy="4"/>
<feGaussianBlur stdDeviation="2"/>
<feComposite in2="hardAlpha" operator="out"/>
<feColorMatrix type="matrix" values="0 0 0 0 0 0 0 0 0 0 0 0 0 0 0 0 0 0 0.16 0"/>
<feBlend mode="normal" in2="BackgroundImageFix" result="effect1_dropShadow_9_139"/>
<feBlend mode="normal" in="SourceGraphic" in2="effect1_dropShadow_9_139" result="shape"/>
</filter>
<filter id="filter4_d_9_139" x="64" y="492" width="233" height="37" filterUnits="userSpaceOnUse" color-interpolation-filters="sRGB">
<feFlood flood-opacity="0" result="BackgroundImageFix"/>
<feColorMatrix in="SourceAlpha" type="matrix" values="0 0 0 0 0 0 0 0 0 0 0 0 0 0 0 0 0 0 127 0" result="hardAlpha"/>
<feOffset dy="4"/>
<feGaussianBlur stdDeviation="2"/>
<feComposite in2="hardAlpha" operator="out"/>
<feColorMatrix type="matrix" values="0 0 0 0 0 0 0 0 0 0 0 0 0 0 0 0 0 0 0.16 0"/>
<feBlend mode="normal" in2="BackgroundImageFix" result="effect1_dropShadow_9_139"/>
<feBlend mode="normal" in="SourceGraphic" in2="effect1_dropShadow_9_139" result="shape"/>
</filter>
<filter id="filter5_d_9_139" x="-62" y="-37" width="194" height="185" filterUnits="userSpaceOnUse" color-interpolation-filters="sRGB">
<feFlood flood-opacity="0" result="BackgroundImageFix"/>
<feColorMatrix in="SourceAlpha" type="matrix" values="0 0 0 0 0 0 0 0 0 0 0 0 0 0 0 0 0 0 127 0" result="hardAlpha"/>
<feOffset dy="6"/>
<feGaussianBlur stdDeviation="5"/>
<feComposite in2="hardAlpha" operator="out"/>
<feColorMatrix type="matrix" values="0 0 0 0 0 0 0 0 0 0 0 0 0 0 0 0 0 0 0.14 0"/>
<feBlend mode="normal" in2="BackgroundImageFix" result="effect1_dropShadow_9_139"/>
<feBlend mode="normal" in="SourceGraphic" in2="effect1_dropShadow_9_139" result="shape"/>
</filter>
<clipPath id="clip0_9_139">
<rect width="360" height="800" rx="15" fill="white"/>
</clipPath>
</defs>
</svg>
