<svg width="360" height="640" viewBox="0 0 360 640" fill="none" xmlns="http://www.w3.org/2000/svg">
<g clip-path="url(#clip0_9_49)">
<rect width="360" height="640" rx="20" fill="#F0F0F0"/>
<path d="M100.38 192.832H105.084C105.084 194.816 104.892 196.693 104.508 198.464C104.145 200.235 103.697 201.675 103.164 202.784C102.033 205.088 101.031 206.656 100.156 207.488L99.5801 208H93.1481L91.5481 202.848C91.1001 203.893 90.5775 204.843 89.9801 205.696C89.4041 206.549 88.9348 207.147 88.5721 207.488L88.0601 208H82.6201L77.9481 192.832H85.8841L87.2601 202.4C87.3881 202.272 87.5588 202.08 87.7721 201.824C87.9855 201.547 88.3161 200.907 88.7641 199.904C89.2121 198.88 89.5428 197.771 89.7561 196.576L88.5081 192.832H96.4121L97.6601 202.368C98.2788 201.749 98.8761 200.683 99.4521 199.168C100.071 197.461 100.38 195.349 100.38 192.832ZM113.129 208.32C110.718 208.32 108.692 207.627 107.049 206.24C105.428 204.832 104.617 202.773 104.617 200.064C104.617 198.357 105.033 196.907 105.865 195.712C107.38 193.493 109.726 192.384 112.905 192.384C115.337 192.384 117.193 192.875 118.473 193.856C119.753 194.816 120.393 196.149 120.393 197.856C120.393 199.179 119.86 200.256 118.793 201.088C117.748 201.899 116.212 202.304 114.185 202.304C113.353 202.304 112.606 202.24 111.945 202.112L111.593 202.048C111.7 202.816 112.03 203.392 112.585 203.776C113.161 204.139 113.844 204.32 114.633 204.32C115.934 204.32 117.044 203.925 117.961 203.136L119.945 205.536C119.604 205.941 119.198 206.325 118.729 206.688C118.26 207.029 117.513 207.392 116.489 207.776C115.465 208.139 114.345 208.32 113.129 208.32ZM115.721 197.568C115.721 197.141 115.55 196.789 115.209 196.512C114.889 196.235 114.441 196.096 113.865 196.096C113.289 196.096 112.745 196.352 112.233 196.864C111.742 197.376 111.497 197.984 111.497 198.688C111.966 198.901 112.574 199.008 113.321 199.008C114.089 199.008 114.676 198.88 115.081 198.624C115.508 198.347 115.721 197.995 115.721 197.568ZM127.848 187.232L126.984 208H121.096L120.232 187.232H127.848ZM142.531 205.76C140.931 207.467 138.787 208.32 136.099 208.32C133.432 208.32 131.363 207.605 129.891 206.176C128.419 204.725 127.683 202.688 127.683 200.064C127.683 197.44 128.472 195.509 130.051 194.272C131.63 193.013 133.603 192.384 135.971 192.384C136.974 192.384 137.934 192.48 138.851 192.672C139.79 192.864 140.472 193.067 140.899 193.28L141.539 193.568L140.835 196.864C139.96 196.608 139.054 196.48 138.115 196.48C137.198 196.48 136.355 196.779 135.587 197.376C134.84 197.952 134.467 198.848 134.467 200.064C134.467 202.795 135.523 204.16 137.635 204.16C138.19 204.16 138.723 204.096 139.235 203.968C139.747 203.819 140.12 203.669 140.355 203.52L140.707 203.328L142.531 205.76ZM143.723 206.432C142.187 205.152 141.419 203.125 141.419 200.352C141.419 197.579 142.187 195.563 143.723 194.304C145.281 193.024 147.35 192.384 149.931 192.384C152.513 192.384 154.571 193.024 156.107 194.304C157.665 195.563 158.443 197.579 158.443 200.352C158.443 203.125 157.665 205.152 156.107 206.432C154.571 207.691 152.513 208.32 149.931 208.32C147.35 208.32 145.281 207.691 143.723 206.432ZM148.587 196.736C148.331 197.461 148.203 198.667 148.203 200.352C148.203 202.037 148.331 203.253 148.587 204C148.843 204.725 149.291 205.088 149.931 205.088C150.571 205.088 151.019 204.725 151.275 204C151.531 203.253 151.659 202.037 151.659 200.352C151.659 198.667 151.531 197.461 151.275 196.736C151.019 195.989 150.571 195.616 149.931 195.616C149.291 195.616 148.843 195.989 148.587 196.736ZM181.356 192.384C183.084 192.384 184.364 193.067 185.196 194.432C186.028 195.797 186.444 197.44 186.444 199.36C186.444 201.259 186.199 204.139 185.708 208H180.108L179.404 200.576C179.276 199.296 179.106 198.443 178.892 198.016C178.679 197.589 178.316 197.376 177.804 197.376C176.588 197.376 175.906 198.453 175.756 200.608L175.212 208H169.516L168.812 200.576C168.684 199.296 168.514 198.443 168.3 198.016C168.087 197.589 167.724 197.376 167.212 197.376C165.954 197.376 165.271 198.453 165.164 200.608L164.844 208H158.956L158.284 192.832H165.516L165.388 195.872C165.431 195.787 165.484 195.669 165.548 195.52C165.634 195.349 165.826 195.061 166.124 194.656C166.444 194.251 166.796 193.899 167.18 193.6C167.564 193.301 168.087 193.024 168.748 192.768C169.431 192.512 170.156 192.384 170.924 192.384C172.162 192.384 173.164 192.779 173.932 193.568C174.722 194.357 175.234 195.232 175.468 196.192C175.788 195.659 176.066 195.232 176.3 194.912C176.535 194.592 176.887 194.208 177.356 193.76C178.316 192.843 179.65 192.384 181.356 192.384ZM194.81 208.32C192.399 208.32 190.373 207.627 188.73 206.24C187.109 204.832 186.298 202.773 186.298 200.064C186.298 198.357 186.714 196.907 187.546 195.712C189.061 193.493 191.407 192.384 194.586 192.384C197.018 192.384 198.874 192.875 200.154 193.856C201.434 194.816 202.074 196.149 202.074 197.856C202.074 199.179 201.541 200.256 200.474 201.088C199.429 201.899 197.893 202.304 195.866 202.304C195.034 202.304 194.287 202.24 193.626 202.112L193.274 202.048C193.381 202.816 193.711 203.392 194.266 203.776C194.842 204.139 195.525 204.32 196.314 204.32C197.615 204.32 198.725 203.925 199.642 203.136L201.626 205.536C201.285 205.941 200.879 206.325 200.41 206.688C199.941 207.029 199.194 207.392 198.17 207.776C197.146 208.139 196.026 208.32 194.81 208.32ZM197.402 197.568C197.402 197.141 197.231 196.789 196.89 196.512C196.57 196.235 196.122 196.096 195.546 196.096C194.97 196.096 194.426 196.352 193.914 196.864C193.423 197.376 193.178 197.984 193.178 198.688C193.647 198.901 194.255 199.008 195.002 199.008C195.77 199.008 196.357 198.88 196.762 198.624C197.189 198.347 197.402 197.995 197.402 197.568ZM214.879 202.304C214.858 203.541 215.295 204.16 216.191 204.16C216.447 204.16 216.757 204.043 217.119 203.808L217.791 206.912C217.663 207.019 217.482 207.157 217.247 207.328C217.034 207.477 216.554 207.68 215.807 207.936C215.082 208.192 214.325 208.32 213.535 208.32C212.085 208.32 210.901 207.829 209.983 206.848C209.066 205.845 208.575 204.576 208.511 203.04L208.223 196.992H205.759L206.143 192.832H208.063L207.935 189.696L215.519 188.16L215.295 192.832H217.151L217.535 196.992H215.103L214.879 202.304ZM219.936 206.432C218.4 205.152 217.632 203.125 217.632 200.352C217.632 197.579 218.4 195.563 219.936 194.304C221.493 193.024 223.563 192.384 226.144 192.384C228.725 192.384 230.784 193.024 232.32 194.304C233.877 195.563 234.656 197.579 234.656 200.352C234.656 203.125 233.877 205.152 232.32 206.432C230.784 207.691 228.725 208.32 226.144 208.32C223.563 208.32 221.493 207.691 219.936 206.432ZM224.8 196.736C224.544 197.461 224.416 198.667 224.416 200.352C224.416 202.037 224.544 203.253 224.8 204C225.056 204.725 225.504 205.088 226.144 205.088C226.784 205.088 227.232 204.725 227.488 204C227.744 203.253 227.872 202.037 227.872 200.352C227.872 198.667 227.744 197.461 227.488 196.736C227.232 195.989 226.784 195.616 226.144 195.616C225.504 195.616 225.056 195.989 224.8 196.736ZM246.599 187.232L245.735 208H239.847L238.983 187.232H246.599ZM254.21 193.28L254.754 193.088L253.666 208H247.618L246.594 193.088C247.81 193.579 249.101 193.824 250.466 193.824C251.853 193.824 253.101 193.643 254.21 193.28ZM250.658 192.416C249.592 192.416 248.696 192.096 247.97 191.456C247.245 190.816 246.882 189.984 246.882 188.96C246.882 187.915 247.234 187.083 247.938 186.464C248.664 185.824 249.56 185.504 250.626 185.504C251.714 185.504 252.621 185.824 253.346 186.464C254.072 187.104 254.434 187.936 254.434 188.96C254.434 189.984 254.072 190.816 253.346 191.456C252.621 192.096 251.725 192.416 250.658 192.416ZM256.368 192.832C256.368 190.869 256.827 189.376 257.744 188.352C258.683 187.307 260.261 186.784 262.48 186.784C263.461 186.784 264.4 186.923 265.296 187.2L265.648 190.304C265.328 190.219 265.008 190.176 264.688 190.176C263.643 190.176 263.12 190.923 263.12 192.416V192.832H265.072L265.456 196.992H263.312L262.832 208H256.944L256.464 196.992H254.448L254.832 192.832H256.368ZM273.669 208.32C271.258 208.32 269.232 207.627 267.589 206.24C265.968 204.832 265.157 202.773 265.157 200.064C265.157 198.357 265.573 196.907 266.405 195.712C267.92 193.493 270.266 192.384 273.445 192.384C275.877 192.384 277.733 192.875 279.013 193.856C280.293 194.816 280.933 196.149 280.933 197.856C280.933 199.179 280.4 200.256 279.333 201.088C278.288 201.899 276.752 202.304 274.725 202.304C273.893 202.304 273.146 202.24 272.485 202.112L272.133 202.048C272.24 202.816 272.57 203.392 273.125 203.776C273.701 204.139 274.384 204.32 275.173 204.32C276.474 204.32 277.584 203.925 278.501 203.136L280.485 205.536C280.144 205.941 279.738 206.325 279.269 206.688C278.8 207.029 278.053 207.392 277.029 207.776C276.005 208.139 274.885 208.32 273.669 208.32ZM276.261 197.568C276.261 197.141 276.09 196.789 275.749 196.512C275.429 196.235 274.981 196.096 274.405 196.096C273.829 196.096 273.285 196.352 272.773 196.864C272.282 197.376 272.037 197.984 272.037 198.688C272.506 198.901 273.114 199.008 273.861 199.008C274.629 199.008 275.216 198.88 275.621 198.624C276.048 198.347 276.261 197.995 276.261 197.568Z" fill="black"/>
<rect width="284" height="49" transform="translate(38 474)" fill="#070616"/>
<path d="M153.52 504.5L151.056 500.148H150V504.5H147.76V493.332H151.952C152.816 493.332 153.552 493.487 154.16 493.796C154.768 494.095 155.222 494.505 155.52 495.028C155.83 495.54 155.984 496.116 155.984 496.756C155.984 497.492 155.771 498.159 155.344 498.756C154.918 499.343 154.283 499.748 153.44 499.972L156.112 504.5H153.52ZM150 498.468H151.872C152.48 498.468 152.934 498.324 153.232 498.036C153.531 497.737 153.68 497.327 153.68 496.804C153.68 496.292 153.531 495.897 153.232 495.62C152.934 495.332 152.48 495.188 151.872 495.188H150V498.468ZM166.25 499.876C166.25 500.196 166.229 500.484 166.186 500.74H159.706C159.76 501.38 159.984 501.881 160.378 502.244C160.773 502.607 161.258 502.788 161.834 502.788C162.666 502.788 163.258 502.431 163.61 501.716H166.026C165.77 502.569 165.28 503.273 164.554 503.828C163.829 504.372 162.938 504.644 161.882 504.644C161.029 504.644 160.261 504.457 159.578 504.084C158.906 503.7 158.378 503.161 157.994 502.468C157.621 501.775 157.434 500.975 157.434 500.068C157.434 499.151 157.621 498.345 157.994 497.652C158.368 496.959 158.89 496.425 159.562 496.052C160.234 495.679 161.008 495.492 161.882 495.492C162.725 495.492 163.477 495.673 164.138 496.036C164.81 496.399 165.328 496.916 165.69 497.588C166.064 498.249 166.25 499.012 166.25 499.876ZM163.93 499.236C163.92 498.66 163.712 498.201 163.306 497.86C162.901 497.508 162.405 497.332 161.818 497.332C161.264 497.332 160.794 497.503 160.41 497.844C160.037 498.175 159.808 498.639 159.722 499.236H163.93ZM171.357 495.492C172.019 495.492 172.6 495.625 173.101 495.892C173.603 496.148 173.997 496.484 174.285 496.9V495.636H176.541V504.564C176.541 505.385 176.376 506.116 176.045 506.756C175.715 507.407 175.219 507.919 174.557 508.292C173.896 508.676 173.096 508.868 172.157 508.868C170.899 508.868 169.864 508.575 169.053 507.988C168.253 507.401 167.8 506.601 167.693 505.588H169.917C170.035 505.993 170.285 506.313 170.669 506.548C171.064 506.793 171.539 506.916 172.093 506.916C172.744 506.916 173.272 506.719 173.677 506.324C174.083 505.94 174.285 505.353 174.285 504.564V503.188C173.997 503.604 173.597 503.951 173.085 504.228C172.584 504.505 172.008 504.644 171.357 504.644C170.611 504.644 169.928 504.452 169.309 504.068C168.691 503.684 168.2 503.145 167.837 502.452C167.485 501.748 167.309 500.943 167.309 500.036C167.309 499.14 167.485 498.345 167.837 497.652C168.2 496.959 168.685 496.425 169.293 496.052C169.912 495.679 170.6 495.492 171.357 495.492ZM174.285 500.068C174.285 499.524 174.179 499.06 173.965 498.676C173.752 498.281 173.464 497.983 173.101 497.78C172.739 497.567 172.349 497.46 171.933 497.46C171.517 497.46 171.133 497.561 170.781 497.764C170.429 497.967 170.141 498.265 169.917 498.66C169.704 499.044 169.597 499.503 169.597 500.036C169.597 500.569 169.704 501.039 169.917 501.444C170.141 501.839 170.429 502.143 170.781 502.356C171.144 502.569 171.528 502.676 171.933 502.676C172.349 502.676 172.739 502.575 173.101 502.372C173.464 502.159 173.752 501.86 173.965 501.476C174.179 501.081 174.285 500.612 174.285 500.068ZM179.865 494.58C179.47 494.58 179.14 494.457 178.873 494.212C178.617 493.956 178.489 493.641 178.489 493.268C178.489 492.895 178.617 492.585 178.873 492.34C179.14 492.084 179.47 491.956 179.865 491.956C180.26 491.956 180.585 492.084 180.841 492.34C181.108 492.585 181.241 492.895 181.241 493.268C181.241 493.641 181.108 493.956 180.841 494.212C180.585 494.457 180.26 494.58 179.865 494.58ZM180.969 495.636V504.5H178.729V495.636H180.969ZM186.574 504.644C185.849 504.644 185.198 504.516 184.622 504.26C184.046 503.993 183.587 503.636 183.246 503.188C182.915 502.74 182.734 502.244 182.702 501.7H184.958C185.001 502.041 185.166 502.324 185.454 502.548C185.753 502.772 186.121 502.884 186.558 502.884C186.985 502.884 187.315 502.799 187.55 502.628C187.795 502.457 187.918 502.239 187.918 501.972C187.918 501.684 187.769 501.471 187.47 501.332C187.182 501.183 186.718 501.023 186.078 500.852C185.417 500.692 184.873 500.527 184.446 500.356C184.03 500.185 183.667 499.924 183.358 499.572C183.059 499.22 182.91 498.745 182.91 498.148C182.91 497.657 183.049 497.209 183.326 496.804C183.614 496.399 184.019 496.079 184.542 495.844C185.075 495.609 185.699 495.492 186.414 495.492C187.47 495.492 188.313 495.759 188.942 496.292C189.571 496.815 189.918 497.524 189.982 498.42H187.838C187.806 498.068 187.657 497.791 187.39 497.588C187.134 497.375 186.787 497.268 186.35 497.268C185.945 497.268 185.63 497.343 185.406 497.492C185.193 497.641 185.086 497.849 185.086 498.116C185.086 498.415 185.235 498.644 185.534 498.804C185.833 498.953 186.297 499.108 186.926 499.268C187.566 499.428 188.094 499.593 188.51 499.764C188.926 499.935 189.283 500.201 189.582 500.564C189.891 500.916 190.051 501.385 190.062 501.972C190.062 502.484 189.918 502.943 189.63 503.348C189.353 503.753 188.947 504.073 188.414 504.308C187.891 504.532 187.278 504.644 186.574 504.644ZM194.509 497.476V501.764C194.509 502.063 194.578 502.281 194.717 502.42C194.866 502.548 195.112 502.612 195.453 502.612H196.493V504.5H195.085C193.197 504.5 192.253 503.583 192.253 501.748V497.476H191.197V495.636H192.253V493.444H194.509V495.636H196.493V497.476H194.509ZM206.344 499.876C206.344 500.196 206.323 500.484 206.28 500.74H199.8C199.853 501.38 200.077 501.881 200.472 502.244C200.867 502.607 201.352 502.788 201.928 502.788C202.76 502.788 203.352 502.431 203.704 501.716H206.12C205.864 502.569 205.373 503.273 204.648 503.828C203.923 504.372 203.032 504.644 201.976 504.644C201.123 504.644 200.355 504.457 199.672 504.084C199 503.7 198.472 503.161 198.088 502.468C197.715 501.775 197.528 500.975 197.528 500.068C197.528 499.151 197.715 498.345 198.088 497.652C198.461 496.959 198.984 496.425 199.656 496.052C200.328 495.679 201.101 495.492 201.976 495.492C202.819 495.492 203.571 495.673 204.232 496.036C204.904 496.399 205.421 496.916 205.784 497.588C206.157 498.249 206.344 499.012 206.344 499.876ZM204.024 499.236C204.013 498.66 203.805 498.201 203.4 497.86C202.995 497.508 202.499 497.332 201.912 497.332C201.357 497.332 200.888 497.503 200.504 497.844C200.131 498.175 199.901 498.639 199.816 499.236H204.024ZM210.219 497.012C210.507 496.543 210.88 496.175 211.339 495.908C211.808 495.641 212.342 495.508 212.939 495.508V497.86H212.347C211.643 497.86 211.11 498.025 210.747 498.356C210.395 498.687 210.219 499.263 210.219 500.084V504.5H207.979V495.636H210.219V497.012Z" fill="#D9D9D9"/>
<path d="M44.5671 562.536C44.5671 561.64 44.7431 560.845 45.0951 560.152C45.4577 559.459 45.9431 558.925 46.5511 558.552C47.1697 558.179 47.8577 557.992 48.6151 557.992C49.2764 557.992 49.8524 558.125 50.3431 558.392C50.8444 558.659 51.2444 558.995 51.5431 559.4V558.136H53.7991V567H51.5431V565.704C51.2551 566.12 50.8551 566.467 50.3431 566.744C49.8417 567.011 49.2604 567.144 48.5991 567.144C47.8524 567.144 47.1697 566.952 46.5511 566.568C45.9431 566.184 45.4577 565.645 45.0951 564.952C44.7431 564.248 44.5671 563.443 44.5671 562.536ZM51.5431 562.568C51.5431 562.024 51.4364 561.56 51.2231 561.176C51.0097 560.781 50.7217 560.483 50.3591 560.28C49.9964 560.067 49.6071 559.96 49.1911 559.96C48.7751 559.96 48.3911 560.061 48.0391 560.264C47.6871 560.467 47.3991 560.765 47.1751 561.16C46.9617 561.544 46.8551 562.003 46.8551 562.536C46.8551 563.069 46.9617 563.539 47.1751 563.944C47.3991 564.339 47.6871 564.643 48.0391 564.856C48.4017 565.069 48.7857 565.176 49.1911 565.176C49.6071 565.176 49.9964 565.075 50.3591 564.872C50.7217 564.659 51.0097 564.36 51.2231 563.976C51.4364 563.581 51.5431 563.112 51.5431 562.568ZM58.2268 555.16V567H55.9868V555.16H58.2268ZM62.6799 559.512C62.9679 559.043 63.3413 558.675 63.7999 558.408C64.2693 558.141 64.8026 558.008 65.3999 558.008V560.36H64.8079C64.1039 560.36 63.5706 560.525 63.2079 560.856C62.8559 561.187 62.6799 561.763 62.6799 562.584V567H60.4399V558.136H62.6799V559.512ZM75.1487 562.376C75.1487 562.696 75.1274 562.984 75.0847 563.24H68.6047C68.658 563.88 68.882 564.381 69.2767 564.744C69.6714 565.107 70.1567 565.288 70.7327 565.288C71.5647 565.288 72.1567 564.931 72.5087 564.216H74.9247C74.6687 565.069 74.178 565.773 73.4527 566.328C72.7274 566.872 71.8367 567.144 70.7807 567.144C69.9274 567.144 69.1594 566.957 68.4767 566.584C67.8047 566.2 67.2767 565.661 66.8927 564.968C66.5194 564.275 66.3327 563.475 66.3327 562.568C66.3327 561.651 66.5194 560.845 66.8927 560.152C67.266 559.459 67.7887 558.925 68.4607 558.552C69.1327 558.179 69.906 557.992 70.7807 557.992C71.6234 557.992 72.3754 558.173 73.0367 558.536C73.7087 558.899 74.226 559.416 74.5887 560.088C74.962 560.749 75.1487 561.512 75.1487 562.376ZM72.8287 561.736C72.818 561.16 72.61 560.701 72.2047 560.36C71.7994 560.008 71.3034 559.832 70.7167 559.832C70.162 559.832 69.6927 560.003 69.3087 560.344C68.9354 560.675 68.706 561.139 68.6207 561.736H72.8287ZM76.2077 562.536C76.2077 561.64 76.3837 560.845 76.7357 560.152C77.0984 559.459 77.5837 558.925 78.1917 558.552C78.8104 558.179 79.4984 557.992 80.2557 557.992C80.917 557.992 81.493 558.125 81.9837 558.392C82.485 558.659 82.885 558.995 83.1837 559.4V558.136H85.4397V567H83.1837V565.704C82.8957 566.12 82.4957 566.467 81.9837 566.744C81.4824 567.011 80.901 567.144 80.2397 567.144C79.493 567.144 78.8104 566.952 78.1917 566.568C77.5837 566.184 77.0984 565.645 76.7357 564.952C76.3837 564.248 76.2077 563.443 76.2077 562.536ZM83.1837 562.568C83.1837 562.024 83.077 561.56 82.8637 561.176C82.6504 560.781 82.3624 560.483 81.9997 560.28C81.637 560.067 81.2477 559.96 80.8317 559.96C80.4157 559.96 80.0317 560.061 79.6797 560.264C79.3277 560.467 79.0397 560.765 78.8157 561.16C78.6024 561.544 78.4957 562.003 78.4957 562.536C78.4957 563.069 78.6024 563.539 78.8157 563.944C79.0397 564.339 79.3277 564.643 79.6797 564.856C80.0424 565.069 80.4264 565.176 80.8317 565.176C81.2477 565.176 81.637 565.075 81.9997 564.872C82.3624 564.659 82.6504 564.36 82.8637 563.976C83.077 563.581 83.1837 563.112 83.1837 562.568ZM87.0514 562.536C87.0514 561.64 87.2274 560.845 87.5794 560.152C87.9421 559.459 88.4328 558.925 89.0514 558.552C89.6701 558.179 90.3581 557.992 91.1154 557.992C91.6914 557.992 92.2408 558.12 92.7634 558.376C93.2861 558.621 93.7021 558.952 94.0114 559.368V555.16H96.2834V567H94.0114V565.688C93.7341 566.125 93.3448 566.477 92.8434 566.744C92.3421 567.011 91.7608 567.144 91.0994 567.144C90.3528 567.144 89.6701 566.952 89.0514 566.568C88.4328 566.184 87.9421 565.645 87.5794 564.952C87.2274 564.248 87.0514 563.443 87.0514 562.536ZM94.0274 562.568C94.0274 562.024 93.9208 561.56 93.7074 561.176C93.4941 560.781 93.2061 560.483 92.8434 560.28C92.4808 560.067 92.0914 559.96 91.6754 559.96C91.2594 559.96 90.8754 560.061 90.5234 560.264C90.1714 560.467 89.8834 560.765 89.6594 561.16C89.4461 561.544 89.3394 562.003 89.3394 562.536C89.3394 563.069 89.4461 563.539 89.6594 563.944C89.8834 564.339 90.1714 564.643 90.5234 564.856C90.8861 565.069 91.2701 565.176 91.6754 565.176C92.0914 565.176 92.4808 565.075 92.8434 564.872C93.2061 564.659 93.4941 564.36 93.7074 563.976C93.9208 563.581 94.0274 563.112 94.0274 562.568ZM106.951 558.136L101.463 571.192H99.0792L100.999 566.776L97.4472 558.136H99.9592L102.247 564.328L104.567 558.136H106.951ZM116.963 558.008C117.635 558.008 118.233 558.157 118.755 558.456C119.278 558.744 119.683 559.176 119.971 559.752C120.27 560.317 120.419 561 120.419 561.8V567H118.179V562.104C118.179 561.4 118.003 560.861 117.651 560.488C117.299 560.104 116.819 559.912 116.211 559.912C115.593 559.912 115.102 560.104 114.739 560.488C114.387 560.861 114.211 561.4 114.211 562.104V567H111.971V555.16H114.211V559.24C114.499 558.856 114.883 558.557 115.363 558.344C115.843 558.12 116.377 558.008 116.963 558.008ZM121.973 562.536C121.973 561.64 122.149 560.845 122.501 560.152C122.864 559.459 123.349 558.925 123.957 558.552C124.576 558.179 125.264 557.992 126.021 557.992C126.683 557.992 127.259 558.125 127.749 558.392C128.251 558.659 128.651 558.995 128.949 559.4V558.136H131.205V567H128.949V565.704C128.661 566.12 128.261 566.467 127.749 566.744C127.248 567.011 126.667 567.144 126.005 567.144C125.259 567.144 124.576 566.952 123.957 566.568C123.349 566.184 122.864 565.645 122.501 564.952C122.149 564.248 121.973 563.443 121.973 562.536ZM128.949 562.568C128.949 562.024 128.843 561.56 128.629 561.176C128.416 560.781 128.128 560.483 127.765 560.28C127.403 560.067 127.013 559.96 126.597 559.96C126.181 559.96 125.797 560.061 125.445 560.264C125.093 560.467 124.805 560.765 124.581 561.16C124.368 561.544 124.261 562.003 124.261 562.536C124.261 563.069 124.368 563.539 124.581 563.944C124.805 564.339 125.093 564.643 125.445 564.856C125.808 565.069 126.192 565.176 126.597 565.176C127.013 565.176 127.403 565.075 127.765 564.872C128.128 564.659 128.416 564.36 128.629 563.976C128.843 563.581 128.949 563.112 128.949 562.568ZM137.089 564.936L139.329 558.136H141.713L138.433 567H135.713L132.449 558.136H134.849L137.089 564.936ZM151.211 562.376C151.211 562.696 151.19 562.984 151.147 563.24H144.667C144.721 563.88 144.945 564.381 145.339 564.744C145.734 565.107 146.219 565.288 146.795 565.288C147.627 565.288 148.219 564.931 148.571 564.216H150.987C150.731 565.069 150.241 565.773 149.515 566.328C148.79 566.872 147.899 567.144 146.843 567.144C145.99 567.144 145.222 566.957 144.539 566.584C143.867 566.2 143.339 565.661 142.955 564.968C142.582 564.275 142.395 563.475 142.395 562.568C142.395 561.651 142.582 560.845 142.955 560.152C143.329 559.459 143.851 558.925 144.523 558.552C145.195 558.179 145.969 557.992 146.843 557.992C147.686 557.992 148.438 558.173 149.099 558.536C149.771 558.899 150.289 559.416 150.651 560.088C151.025 560.749 151.211 561.512 151.211 562.376ZM148.891 561.736C148.881 561.16 148.673 560.701 148.267 560.36C147.862 560.008 147.366 559.832 146.779 559.832C146.225 559.832 145.755 560.003 145.371 560.344C144.998 560.675 144.769 561.139 144.683 561.736H148.891ZM156.083 562.536C156.083 561.64 156.259 560.845 156.611 560.152C156.973 559.459 157.459 558.925 158.067 558.552C158.685 558.179 159.373 557.992 160.131 557.992C160.792 557.992 161.368 558.125 161.859 558.392C162.36 558.659 162.76 558.995 163.059 559.4V558.136H165.315V567H163.059V565.704C162.771 566.12 162.371 566.467 161.859 566.744C161.357 567.011 160.776 567.144 160.115 567.144C159.368 567.144 158.685 566.952 158.067 566.568C157.459 566.184 156.973 565.645 156.611 564.952C156.259 564.248 156.083 563.443 156.083 562.536ZM163.059 562.568C163.059 562.024 162.952 561.56 162.739 561.176C162.525 560.781 162.237 560.483 161.875 560.28C161.512 560.067 161.123 559.96 160.707 559.96C160.291 559.96 159.907 560.061 159.555 560.264C159.203 560.467 158.915 560.765 158.691 561.16C158.477 561.544 158.371 562.003 158.371 562.536C158.371 563.069 158.477 563.539 158.691 563.944C158.915 564.339 159.203 564.643 159.555 564.856C159.917 565.069 160.301 565.176 160.707 565.176C161.123 565.176 161.512 565.075 161.875 564.872C162.237 564.659 162.525 564.36 162.739 563.976C162.952 563.581 163.059 563.112 163.059 562.568ZM172.414 558.008C173.47 558.008 174.324 558.344 174.974 559.016C175.625 559.677 175.95 560.605 175.95 561.8V567H173.71V562.104C173.71 561.4 173.534 560.861 173.182 560.488C172.83 560.104 172.35 559.912 171.742 559.912C171.124 559.912 170.633 560.104 170.27 560.488C169.918 560.861 169.742 561.4 169.742 562.104V567H167.502V558.136H169.742V559.24C170.041 558.856 170.42 558.557 170.878 558.344C171.348 558.12 171.86 558.008 172.414 558.008ZM181.317 562.536C181.317 561.64 181.493 560.845 181.845 560.152C182.208 559.459 182.693 558.925 183.301 558.552C183.92 558.179 184.608 557.992 185.365 557.992C186.026 557.992 186.602 558.125 187.093 558.392C187.594 558.659 187.994 558.995 188.293 559.4V558.136H190.549V567H188.293V565.704C188.005 566.12 187.605 566.467 187.093 566.744C186.592 567.011 186.01 567.144 185.349 567.144C184.602 567.144 183.92 566.952 183.301 566.568C182.693 566.184 182.208 565.645 181.845 564.952C181.493 564.248 181.317 563.443 181.317 562.536ZM188.293 562.568C188.293 562.024 188.186 561.56 187.973 561.176C187.76 560.781 187.472 560.483 187.109 560.28C186.746 560.067 186.357 559.96 185.941 559.96C185.525 559.96 185.141 560.061 184.789 560.264C184.437 560.467 184.149 560.765 183.925 561.16C183.712 561.544 183.605 562.003 183.605 562.536C183.605 563.069 183.712 563.539 183.925 563.944C184.149 564.339 184.437 564.643 184.789 564.856C185.152 565.069 185.536 565.176 185.941 565.176C186.357 565.176 186.746 565.075 187.109 564.872C187.472 564.659 187.76 564.36 187.973 563.976C188.186 563.581 188.293 563.112 188.293 562.568ZM192.161 562.568C192.161 561.651 192.347 560.851 192.721 560.168C193.094 559.475 193.611 558.941 194.273 558.568C194.934 558.184 195.691 557.992 196.545 557.992C197.643 557.992 198.55 558.269 199.265 558.824C199.99 559.368 200.475 560.136 200.721 561.128H198.305C198.177 560.744 197.958 560.445 197.649 560.232C197.35 560.008 196.977 559.896 196.529 559.896C195.889 559.896 195.382 560.131 195.009 560.6C194.635 561.059 194.449 561.715 194.449 562.568C194.449 563.411 194.635 564.067 195.009 564.536C195.382 564.995 195.889 565.224 196.529 565.224C197.435 565.224 198.027 564.819 198.305 564.008H200.721C200.475 564.968 199.99 565.731 199.265 566.296C198.539 566.861 197.633 567.144 196.545 567.144C195.691 567.144 194.934 566.957 194.273 566.584C193.611 566.2 193.094 565.667 192.721 564.984C192.347 564.291 192.161 563.485 192.161 562.568ZM201.786 562.568C201.786 561.651 201.972 560.851 202.346 560.168C202.719 559.475 203.236 558.941 203.898 558.568C204.559 558.184 205.316 557.992 206.17 557.992C207.268 557.992 208.175 558.269 208.89 558.824C209.615 559.368 210.1 560.136 210.346 561.128H207.93C207.802 560.744 207.583 560.445 207.274 560.232C206.975 560.008 206.602 559.896 206.154 559.896C205.514 559.896 205.007 560.131 204.634 560.6C204.26 561.059 204.074 561.715 204.074 562.568C204.074 563.411 204.26 564.067 204.634 564.536C205.007 564.995 205.514 565.224 206.154 565.224C207.06 565.224 207.652 564.819 207.93 564.008H210.346C210.1 564.968 209.615 565.731 208.89 566.296C208.164 566.861 207.258 567.144 206.17 567.144C205.316 567.144 204.559 566.957 203.898 566.584C203.236 566.2 202.719 565.667 202.346 564.984C201.972 564.291 201.786 563.485 201.786 562.568ZM215.923 567.144C215.069 567.144 214.301 566.957 213.619 566.584C212.936 566.2 212.397 565.661 212.003 564.968C211.619 564.275 211.427 563.475 211.427 562.568C211.427 561.661 211.624 560.861 212.019 560.168C212.424 559.475 212.973 558.941 213.667 558.568C214.36 558.184 215.133 557.992 215.987 557.992C216.84 557.992 217.613 558.184 218.307 558.568C219 558.941 219.544 559.475 219.939 560.168C220.344 560.861 220.547 561.661 220.547 562.568C220.547 563.475 220.339 564.275 219.923 564.968C219.517 565.661 218.963 566.2 218.259 566.584C217.565 566.957 216.787 567.144 215.923 567.144ZM215.923 565.192C216.328 565.192 216.707 565.096 217.059 564.904C217.421 564.701 217.709 564.403 217.923 564.008C218.136 563.613 218.243 563.133 218.243 562.568C218.243 561.725 218.019 561.08 217.571 560.632C217.133 560.173 216.595 559.944 215.955 559.944C215.315 559.944 214.776 560.173 214.339 560.632C213.912 561.08 213.699 561.725 213.699 562.568C213.699 563.411 213.907 564.061 214.323 564.52C214.749 564.968 215.283 565.192 215.923 565.192ZM230.558 558.136V567H228.302V565.88C228.014 566.264 227.635 566.568 227.166 566.792C226.707 567.005 226.206 567.112 225.662 567.112C224.969 567.112 224.355 566.968 223.822 566.68C223.289 566.381 222.867 565.949 222.558 565.384C222.259 564.808 222.11 564.125 222.11 563.336V558.136H224.35V563.016C224.35 563.72 224.526 564.264 224.878 564.648C225.23 565.021 225.71 565.208 226.318 565.208C226.937 565.208 227.422 565.021 227.774 564.648C228.126 564.264 228.302 563.72 228.302 563.016V558.136H230.558ZM237.68 558.008C238.736 558.008 239.589 558.344 240.24 559.016C240.891 559.677 241.216 560.605 241.216 561.8V567H238.976V562.104C238.976 561.4 238.8 560.861 238.448 560.488C238.096 560.104 237.616 559.912 237.008 559.912C236.389 559.912 235.899 560.104 235.536 560.488C235.184 560.861 235.008 561.4 235.008 562.104V567H232.768V558.136H235.008V559.24C235.307 558.856 235.685 558.557 236.144 558.344C236.613 558.12 237.125 558.008 237.68 558.008ZM245.954 559.976V564.264C245.954 564.563 246.024 564.781 246.162 564.92C246.312 565.048 246.557 565.112 246.898 565.112H247.938V567H246.53C244.642 567 243.698 566.083 243.698 564.248V559.976H242.642V558.136H243.698V555.944H245.954V558.136H247.938V559.976H245.954ZM252.669 555.448C253.779 555.448 254.669 555.752 255.341 556.36C256.024 556.957 256.365 557.784 256.365 558.84C256.365 559.885 256.029 560.685 255.357 561.24C254.685 561.784 253.795 562.056 252.685 562.056L252.621 563.288H250.653L250.573 560.568H251.293C252.221 560.568 252.936 560.445 253.437 560.2C253.939 559.955 254.189 559.507 254.189 558.856C254.189 558.387 254.051 558.013 253.773 557.736C253.507 557.459 253.139 557.32 252.669 557.32C252.179 557.32 251.795 557.453 251.517 557.72C251.251 557.987 251.117 558.355 251.117 558.824H249.005C248.995 558.173 249.133 557.592 249.421 557.08C249.709 556.568 250.131 556.168 250.685 555.88C251.251 555.592 251.912 555.448 252.669 555.448ZM251.629 567.112C251.224 567.112 250.888 566.989 250.621 566.744C250.365 566.488 250.237 566.173 250.237 565.8C250.237 565.427 250.365 565.117 250.621 564.872C250.888 564.616 251.224 564.488 251.629 564.488C252.024 564.488 252.349 564.616 252.605 564.872C252.861 565.117 252.989 565.427 252.989 565.8C252.989 566.173 252.861 566.488 252.605 566.744C252.349 566.989 252.024 567.112 251.629 567.112Z" fill="black"/>
<path d="M265.923 567.112C265.102 567.112 264.366 566.979 263.715 566.712C263.065 566.445 262.542 566.051 262.147 565.528C261.763 565.005 261.561 564.376 261.539 563.64H264.451C264.494 564.056 264.638 564.376 264.883 564.6C265.129 564.813 265.449 564.92 265.843 564.92C266.249 564.92 266.569 564.829 266.803 564.648C267.038 564.456 267.155 564.195 267.155 563.864C267.155 563.587 267.059 563.357 266.867 563.176C266.686 562.995 266.457 562.845 266.179 562.728C265.913 562.611 265.529 562.477 265.027 562.328C264.302 562.104 263.71 561.88 263.251 561.656C262.793 561.432 262.398 561.101 262.067 560.664C261.737 560.227 261.571 559.656 261.571 558.952C261.571 557.907 261.95 557.091 262.707 556.504C263.465 555.907 264.451 555.608 265.667 555.608C266.905 555.608 267.902 555.907 268.659 556.504C269.417 557.091 269.822 557.912 269.875 558.968H266.915C266.894 558.605 266.761 558.323 266.515 558.12C266.27 557.907 265.955 557.8 265.571 557.8C265.241 557.8 264.974 557.891 264.771 558.072C264.569 558.243 264.467 558.493 264.467 558.824C264.467 559.187 264.638 559.469 264.979 559.672C265.321 559.875 265.854 560.093 266.579 560.328C267.305 560.573 267.891 560.808 268.339 561.032C268.798 561.256 269.193 561.581 269.523 562.008C269.854 562.435 270.019 562.984 270.019 563.656C270.019 564.296 269.854 564.877 269.523 565.4C269.203 565.923 268.734 566.339 268.115 566.648C267.497 566.957 266.766 567.112 265.923 567.112ZM273.079 557.144C272.599 557.144 272.204 557.005 271.895 556.728C271.596 556.44 271.447 556.088 271.447 555.672C271.447 555.245 271.596 554.893 271.895 554.616C272.204 554.328 272.599 554.184 273.079 554.184C273.548 554.184 273.932 554.328 274.231 554.616C274.54 554.893 274.695 555.245 274.695 555.672C274.695 556.088 274.54 556.44 274.231 556.728C273.932 557.005 273.548 557.144 273.079 557.144ZM274.439 558.072V567H271.703V558.072H274.439ZM279.814 557.944C280.443 557.944 280.992 558.072 281.462 558.328C281.942 558.584 282.31 558.92 282.566 559.336V558.072H285.302V566.984C285.302 567.805 285.136 568.547 284.806 569.208C284.486 569.88 283.99 570.413 283.318 570.808C282.656 571.203 281.83 571.4 280.838 571.4C279.515 571.4 278.443 571.085 277.622 570.456C276.8 569.837 276.331 568.995 276.214 567.928H278.918C279.003 568.269 279.206 568.536 279.526 568.728C279.846 568.931 280.24 569.032 280.71 569.032C281.275 569.032 281.723 568.867 282.054 568.536C282.395 568.216 282.566 567.699 282.566 566.984V565.72C282.299 566.136 281.931 566.477 281.462 566.744C280.992 567 280.443 567.128 279.814 567.128C279.078 567.128 278.411 566.941 277.814 566.568C277.216 566.184 276.742 565.645 276.39 564.952C276.048 564.248 275.878 563.437 275.878 562.52C275.878 561.603 276.048 560.797 276.39 560.104C276.742 559.411 277.216 558.877 277.814 558.504C278.411 558.131 279.078 557.944 279.814 557.944ZM282.566 562.536C282.566 561.853 282.374 561.315 281.99 560.92C281.616 560.525 281.158 560.328 280.614 560.328C280.07 560.328 279.606 560.525 279.222 560.92C278.848 561.304 278.662 561.837 278.662 562.52C278.662 563.203 278.848 563.747 279.222 564.152C279.606 564.547 280.07 564.744 280.614 564.744C281.158 564.744 281.616 564.547 281.99 564.152C282.374 563.757 282.566 563.219 282.566 562.536ZM292.721 557.976C293.766 557.976 294.598 558.317 295.217 559C295.846 559.672 296.161 560.6 296.161 561.784V567H293.441V562.152C293.441 561.555 293.286 561.091 292.977 560.76C292.668 560.429 292.252 560.264 291.729 560.264C291.206 560.264 290.79 560.429 290.481 560.76C290.172 561.091 290.017 561.555 290.017 562.152V567H287.281V558.072H290.017V559.256C290.294 558.861 290.668 558.552 291.137 558.328C291.606 558.093 292.134 557.976 292.721 557.976ZM302.829 557.144C302.349 557.144 301.954 557.005 301.645 556.728C301.346 556.44 301.197 556.088 301.197 555.672C301.197 555.245 301.346 554.893 301.645 554.616C301.954 554.328 302.349 554.184 302.829 554.184C303.298 554.184 303.682 554.328 303.981 554.616C304.29 554.893 304.445 555.245 304.445 555.672C304.445 556.088 304.29 556.44 303.981 556.728C303.682 557.005 303.298 557.144 302.829 557.144ZM304.189 558.072V567H301.453V558.072H304.189ZM311.612 557.976C312.657 557.976 313.489 558.317 314.108 559C314.737 559.672 315.052 560.6 315.052 561.784V567H312.332V562.152C312.332 561.555 312.177 561.091 311.868 560.76C311.558 560.429 311.142 560.264 310.62 560.264C310.097 560.264 309.681 560.429 309.372 560.76C309.062 561.091 308.908 561.555 308.908 562.152V567H306.172V558.072H308.908V559.256C309.185 558.861 309.558 558.552 310.028 558.328C310.497 558.093 311.025 557.976 311.612 557.976Z" fill="#00529E"/>
<ellipse cx="47" cy="21" rx="51" ry="54" fill="#070616"/>
<ellipse cx="92.5" cy="-4" rx="39.5" ry="39" fill="#070616"/>
<circle cx="1" cy="72" r="50" fill="#070616"/>
<ellipse cx="275" cy="55" rx="47" ry="40" fill="#09013A"/>
<path d="M254.738 57.3687V45.7323H257.198V55.3402H262.187V57.3687H254.738ZM274.056 51.5505C274.056 52.8194 273.815 53.899 273.334 54.7891C272.857 55.6793 272.206 56.3592 271.38 56.8289C270.558 57.2948 269.634 57.5277 268.607 57.5277C267.573 57.5277 266.645 57.2929 265.823 56.8232C265.001 56.3535 264.351 55.6736 263.874 54.7834C263.397 53.8933 263.158 52.8156 263.158 51.5505C263.158 50.2815 263.397 49.202 263.874 48.3118C264.351 47.4217 265.001 46.7437 265.823 46.2777C266.645 45.808 267.573 45.5732 268.607 45.5732C269.634 45.5732 270.558 45.808 271.38 46.2777C272.206 46.7437 272.857 47.4217 273.334 48.3118C273.815 49.202 274.056 50.2815 274.056 51.5505ZM271.562 51.5505C271.562 50.7285 271.438 50.0353 271.192 49.4709C270.95 48.9065 270.607 48.4785 270.164 48.1868C269.721 47.8952 269.202 47.7493 268.607 47.7493C268.012 47.7493 267.493 47.8952 267.05 48.1868C266.607 48.4785 266.262 48.9065 266.016 49.4709C265.774 50.0353 265.652 50.7285 265.652 51.5505C265.652 52.3724 265.774 53.0656 266.016 53.63C266.262 54.1944 266.607 54.6224 267.05 54.9141C267.493 55.2058 268.012 55.3516 268.607 55.3516C269.202 55.3516 269.721 55.2058 270.164 54.9141C270.607 54.6224 270.95 54.1944 271.192 53.63C271.438 53.0656 271.562 52.3724 271.562 51.5505ZM283.594 49.4937C283.515 49.2171 283.403 48.9728 283.259 48.7607C283.115 48.5448 282.939 48.363 282.731 48.2152C282.526 48.0637 282.291 47.9482 282.026 47.8687C281.765 47.7891 281.475 47.7493 281.157 47.7493C280.562 47.7493 280.039 47.8971 279.589 48.1925C279.142 48.488 278.793 48.9179 278.543 49.4823C278.293 50.0429 278.168 50.7285 278.168 51.5391C278.168 52.3497 278.291 53.0391 278.537 53.6073C278.784 54.1755 279.132 54.6092 279.583 54.9084C280.034 55.2039 280.566 55.3516 281.179 55.3516C281.736 55.3516 282.212 55.2531 282.606 55.0562C283.003 54.8554 283.306 54.5732 283.515 54.2096C283.727 53.8459 283.833 53.416 283.833 52.9198L284.333 52.9937H281.333V51.1414H286.202V52.6073C286.202 53.63 285.986 54.5088 285.554 55.2437C285.123 55.9747 284.528 56.5391 283.77 56.9368C283.013 57.3308 282.145 57.5277 281.168 57.5277C280.077 57.5277 279.119 57.2872 278.293 56.8062C277.467 56.3213 276.823 55.6338 276.361 54.7437C275.903 53.8497 275.674 52.7891 275.674 51.5618C275.674 50.6187 275.81 49.7777 276.083 49.0391C276.359 48.2967 276.746 47.6679 277.242 47.1527C277.738 46.6376 278.316 46.2455 278.975 45.9766C279.634 45.7077 280.348 45.5732 281.117 45.5732C281.776 45.5732 282.39 45.6698 282.958 45.863C283.526 46.0524 284.03 46.3213 284.469 46.6698C284.912 47.0183 285.274 47.433 285.554 47.9141C285.835 48.3914 286.015 48.9179 286.094 49.4937H283.594ZM298.743 51.5505C298.743 52.8194 298.503 53.899 298.022 54.7891C297.545 55.6793 296.893 56.3592 296.067 56.8289C295.245 57.2948 294.321 57.5277 293.295 57.5277C292.26 57.5277 291.332 57.2929 290.51 56.8232C289.688 56.3535 289.039 55.6736 288.562 54.7834C288.084 53.8933 287.846 52.8156 287.846 51.5505C287.846 50.2815 288.084 49.202 288.562 48.3118C289.039 47.4217 289.688 46.7437 290.51 46.2777C291.332 45.808 292.26 45.5732 293.295 45.5732C294.321 45.5732 295.245 45.808 296.067 46.2777C296.893 46.7437 297.545 47.4217 298.022 48.3118C298.503 49.202 298.743 50.2815 298.743 51.5505ZM296.249 51.5505C296.249 50.7285 296.126 50.0353 295.88 49.4709C295.637 48.9065 295.295 48.4785 294.851 48.1868C294.408 47.8952 293.889 47.7493 293.295 47.7493C292.7 47.7493 292.181 47.8952 291.738 48.1868C291.295 48.4785 290.95 48.9065 290.704 49.4709C290.461 50.0353 290.34 50.7285 290.34 51.5505C290.34 52.3724 290.461 53.0656 290.704 53.63C290.95 54.1944 291.295 54.6224 291.738 54.9141C292.181 55.2058 292.7 55.3516 293.295 55.3516C293.889 55.3516 294.408 55.2058 294.851 54.9141C295.295 54.6224 295.637 54.1944 295.88 53.63C296.126 53.0656 296.249 52.3724 296.249 51.5505Z" fill="#FCFAFA"/>
<g filter="url(#filter0_d_9_49)">
<rect x="38" y="237" width="284" height="199" rx="25" fill="white" fill-opacity="0.65" shape-rendering="crispEdges"/>
<rect x="36" y="235" width="288" height="203" rx="27" stroke="#070616" stroke-width="4" shape-rendering="crispEdges"/>
<g filter="url(#filter1_d_9_49)">
<rect x="68.5" y="248" width="223" height="27" rx="13.5" stroke="#09013A" stroke-width="2" shape-rendering="crispEdges"/>
<path d="M89.962 262.587C89.962 262.899 89.9533 263.137 89.936 263.302H84.047C84.073 263.839 84.203 264.299 84.437 264.68C84.671 265.061 84.9787 265.352 85.36 265.551C85.7413 265.742 86.1573 265.837 86.608 265.837C87.1973 265.837 87.6913 265.694 88.09 265.408C88.4973 265.122 88.766 264.736 88.896 264.251H89.858C89.6847 264.944 89.312 265.512 88.74 265.954C88.1767 266.387 87.466 266.604 86.608 266.604C85.9407 266.604 85.3427 266.457 84.814 266.162C84.2853 265.859 83.8693 265.434 83.566 264.888C83.2713 264.333 83.124 263.688 83.124 262.951C83.124 262.214 83.2713 261.569 83.566 261.014C83.8607 260.459 84.2723 260.035 84.801 259.74C85.3297 259.445 85.932 259.298 86.608 259.298C87.284 259.298 87.8733 259.445 88.376 259.74C88.8873 260.035 89.2773 260.433 89.546 260.936C89.8233 261.43 89.962 261.98 89.962 262.587ZM89.039 262.561C89.0477 262.032 88.9393 261.582 88.714 261.209C88.4973 260.836 88.1983 260.555 87.817 260.364C87.4357 260.173 87.0197 260.078 86.569 260.078C85.893 260.078 85.3167 260.295 84.84 260.728C84.3633 261.161 84.099 261.772 84.047 262.561H89.039ZM94.9549 259.272C95.8042 259.272 96.4976 259.536 97.0349 260.065C97.5722 260.585 97.8409 261.343 97.8409 262.34V266.5H96.9439V262.444C96.9439 261.673 96.7489 261.083 96.3589 260.676C95.9776 260.269 95.4532 260.065 94.7859 260.065C94.1012 260.065 93.5552 260.282 93.1479 260.715C92.7406 261.148 92.5369 261.785 92.5369 262.626V266.5H91.6269V259.402H92.5369V260.611C92.7622 260.178 93.0872 259.848 93.5119 259.623C93.9366 259.389 94.4176 259.272 94.9549 259.272ZM101.036 260.169V264.576C101.036 265.009 101.119 265.308 101.283 265.473C101.448 265.638 101.738 265.72 102.154 265.72H102.986V266.5H102.011C101.37 266.5 100.893 266.353 100.581 266.058C100.269 265.755 100.113 265.261 100.113 264.576V260.169H99.1255V259.402H100.113V257.621H101.036V259.402H102.986V260.169H101.036ZM110.909 262.587C110.909 262.899 110.901 263.137 110.883 263.302H104.994C105.02 263.839 105.15 264.299 105.384 264.68C105.618 265.061 105.926 265.352 106.307 265.551C106.689 265.742 107.105 265.837 107.555 265.837C108.145 265.837 108.639 265.694 109.037 265.408C109.445 265.122 109.713 264.736 109.843 264.251H110.805C110.632 264.944 110.259 265.512 109.687 265.954C109.124 266.387 108.413 266.604 107.555 266.604C106.888 266.604 106.29 266.457 105.761 266.162C105.233 265.859 104.817 265.434 104.513 264.888C104.219 264.333 104.071 263.688 104.071 262.951C104.071 262.214 104.219 261.569 104.513 261.014C104.808 260.459 105.22 260.035 105.748 259.74C106.277 259.445 106.879 259.298 107.555 259.298C108.231 259.298 108.821 259.445 109.323 259.74C109.835 260.035 110.225 260.433 110.493 260.936C110.771 261.43 110.909 261.98 110.909 262.587ZM109.986 262.561C109.995 262.032 109.887 261.582 109.661 261.209C109.445 260.836 109.146 260.555 108.764 260.364C108.383 260.173 107.967 260.078 107.516 260.078C106.84 260.078 106.264 260.295 105.787 260.728C105.311 261.161 105.046 261.772 104.994 262.561H109.986ZM113.484 260.663C113.684 260.221 113.987 259.879 114.394 259.636C114.81 259.393 115.317 259.272 115.915 259.272V260.221H115.668C115.01 260.221 114.481 260.399 114.082 260.754C113.684 261.109 113.484 261.703 113.484 262.535V266.5H112.574V259.402H113.484V260.663ZM124.18 259.272C125.029 259.272 125.722 259.536 126.26 260.065C126.797 260.585 127.066 261.343 127.066 262.34V266.5H126.169V262.444C126.169 261.673 125.974 261.083 125.584 260.676C125.202 260.269 124.678 260.065 124.011 260.065C123.326 260.065 122.78 260.282 122.373 260.715C121.965 261.148 121.762 261.785 121.762 262.626V266.5H120.852V259.402H121.762V260.611C121.987 260.178 122.312 259.848 122.737 259.623C123.161 259.389 123.642 259.272 124.18 259.272ZM128.662 262.938C128.662 262.21 128.805 261.573 129.091 261.027C129.386 260.472 129.789 260.048 130.3 259.753C130.82 259.45 131.405 259.298 132.055 259.298C132.731 259.298 133.312 259.454 133.797 259.766C134.291 260.078 134.646 260.477 134.863 260.962V259.402H135.773V266.5H134.863V264.927C134.638 265.412 134.278 265.815 133.784 266.136C133.299 266.448 132.718 266.604 132.042 266.604C131.401 266.604 130.82 266.452 130.3 266.149C129.789 265.846 129.386 265.417 129.091 264.862C128.805 264.307 128.662 263.666 128.662 262.938ZM134.863 262.951C134.863 262.379 134.746 261.876 134.512 261.443C134.278 261.01 133.957 260.676 133.55 260.442C133.151 260.208 132.709 260.091 132.224 260.091C131.721 260.091 131.271 260.204 130.872 260.429C130.473 260.654 130.157 260.984 129.923 261.417C129.698 261.842 129.585 262.349 129.585 262.938C129.585 263.519 129.698 264.03 129.923 264.472C130.157 264.905 130.473 265.239 130.872 265.473C131.271 265.698 131.721 265.811 132.224 265.811C132.709 265.811 133.151 265.694 133.55 265.46C133.957 265.226 134.278 264.892 134.512 264.459C134.746 264.026 134.863 263.523 134.863 262.951ZM146.301 259.272C147.133 259.272 147.809 259.536 148.329 260.065C148.857 260.585 149.122 261.343 149.122 262.34V266.5H148.225V262.444C148.225 261.673 148.038 261.083 147.666 260.676C147.293 260.269 146.786 260.065 146.145 260.065C145.477 260.065 144.944 260.286 144.546 260.728C144.147 261.17 143.948 261.811 143.948 262.652V266.5H143.051V262.444C143.051 261.673 142.864 261.083 142.492 260.676C142.119 260.269 141.608 260.065 140.958 260.065C140.29 260.065 139.757 260.286 139.359 260.728C138.96 261.17 138.761 261.811 138.761 262.652V266.5H137.851V259.402H138.761V260.624C138.986 260.182 139.307 259.848 139.723 259.623C140.139 259.389 140.602 259.272 141.114 259.272C141.729 259.272 142.266 259.419 142.726 259.714C143.194 260.009 143.532 260.442 143.74 261.014C143.93 260.451 144.255 260.022 144.715 259.727C145.183 259.424 145.711 259.272 146.301 259.272ZM157.565 262.587C157.565 262.899 157.556 263.137 157.539 263.302H151.65C151.676 263.839 151.806 264.299 152.04 264.68C152.274 265.061 152.581 265.352 152.963 265.551C153.344 265.742 153.76 265.837 154.211 265.837C154.8 265.837 155.294 265.694 155.693 265.408C156.1 265.122 156.369 264.736 156.499 264.251H157.461C157.287 264.944 156.915 265.512 156.343 265.954C155.779 266.387 155.069 266.604 154.211 266.604C153.543 266.604 152.945 266.457 152.417 266.162C151.888 265.859 151.472 265.434 151.169 264.888C150.874 264.333 150.727 263.688 150.727 262.951C150.727 262.214 150.874 261.569 151.169 261.014C151.463 260.459 151.875 260.035 152.404 259.74C152.932 259.445 153.535 259.298 154.211 259.298C154.887 259.298 155.476 259.445 155.979 259.74C156.49 260.035 156.88 260.433 157.149 260.936C157.426 261.43 157.565 261.98 157.565 262.587ZM156.642 262.561C156.65 262.032 156.542 261.582 156.317 261.209C156.1 260.836 155.801 260.555 155.42 260.364C155.038 260.173 154.622 260.078 154.172 260.078C153.496 260.078 152.919 260.295 152.443 260.728C151.966 261.161 151.702 261.772 151.65 262.561H156.642Z" fill="black"/>
</g>
<g filter="url(#filter2_d_9_49)">
<rect x="68.5" y="298" width="223" height="27" rx="13.5" stroke="#09013A" stroke-width="2" shape-rendering="crispEdges"/>
<path d="M89.962 312.587C89.962 312.899 89.9533 313.137 89.936 313.302H84.047C84.073 313.839 84.203 314.299 84.437 314.68C84.671 315.061 84.9787 315.352 85.36 315.551C85.7413 315.742 86.1573 315.837 86.608 315.837C87.1973 315.837 87.6913 315.694 88.09 315.408C88.4973 315.122 88.766 314.736 88.896 314.251H89.858C89.6847 314.944 89.312 315.512 88.74 315.954C88.1767 316.387 87.466 316.604 86.608 316.604C85.9407 316.604 85.3427 316.457 84.814 316.162C84.2853 315.859 83.8693 315.434 83.566 314.888C83.2713 314.333 83.124 313.688 83.124 312.951C83.124 312.214 83.2713 311.569 83.566 311.014C83.8607 310.459 84.2723 310.035 84.801 309.74C85.3297 309.445 85.932 309.298 86.608 309.298C87.284 309.298 87.8733 309.445 88.376 309.74C88.8873 310.035 89.2773 310.433 89.546 310.936C89.8233 311.43 89.962 311.98 89.962 312.587ZM89.039 312.561C89.0477 312.032 88.9393 311.582 88.714 311.209C88.4973 310.836 88.1983 310.555 87.817 310.364C87.4357 310.173 87.0197 310.078 86.569 310.078C85.893 310.078 85.3167 310.295 84.84 310.728C84.3633 311.161 84.099 311.772 84.047 312.561H89.039ZM94.9549 309.272C95.8042 309.272 96.4976 309.536 97.0349 310.065C97.5722 310.585 97.8409 311.343 97.8409 312.34V316.5H96.9439V312.444C96.9439 311.673 96.7489 311.083 96.3589 310.676C95.9776 310.269 95.4532 310.065 94.7859 310.065C94.1012 310.065 93.5552 310.282 93.1479 310.715C92.7406 311.148 92.5369 311.785 92.5369 312.626V316.5H91.6269V309.402H92.5369V310.611C92.7622 310.178 93.0872 309.848 93.5119 309.623C93.9366 309.389 94.4176 309.272 94.9549 309.272ZM101.036 310.169V314.576C101.036 315.009 101.119 315.308 101.283 315.473C101.448 315.638 101.738 315.72 102.154 315.72H102.986V316.5H102.011C101.37 316.5 100.893 316.353 100.581 316.058C100.269 315.755 100.113 315.261 100.113 314.576V310.169H99.1255V309.402H100.113V307.621H101.036V309.402H102.986V310.169H101.036ZM110.909 312.587C110.909 312.899 110.901 313.137 110.883 313.302H104.994C105.02 313.839 105.15 314.299 105.384 314.68C105.618 315.061 105.926 315.352 106.307 315.551C106.689 315.742 107.105 315.837 107.555 315.837C108.145 315.837 108.639 315.694 109.037 315.408C109.445 315.122 109.713 314.736 109.843 314.251H110.805C110.632 314.944 110.259 315.512 109.687 315.954C109.124 316.387 108.413 316.604 107.555 316.604C106.888 316.604 106.29 316.457 105.761 316.162C105.233 315.859 104.817 315.434 104.513 314.888C104.219 314.333 104.071 313.688 104.071 312.951C104.071 312.214 104.219 311.569 104.513 311.014C104.808 310.459 105.22 310.035 105.748 309.74C106.277 309.445 106.879 309.298 107.555 309.298C108.231 309.298 108.821 309.445 109.323 309.74C109.835 310.035 110.225 310.433 110.493 310.936C110.771 311.43 110.909 311.98 110.909 312.587ZM109.986 312.561C109.995 312.032 109.887 311.582 109.661 311.209C109.445 310.836 109.146 310.555 108.764 310.364C108.383 310.173 107.967 310.078 107.516 310.078C106.84 310.078 106.264 310.295 105.787 310.728C105.311 311.161 105.046 311.772 104.994 312.561H109.986ZM113.484 310.663C113.684 310.221 113.987 309.879 114.394 309.636C114.81 309.393 115.317 309.272 115.915 309.272V310.221H115.668C115.01 310.221 114.481 310.399 114.082 310.754C113.684 311.109 113.484 311.703 113.484 312.535V316.5H112.574V309.402H113.484V310.663ZM127.274 312.587C127.274 312.899 127.265 313.137 127.248 313.302H121.359C121.385 313.839 121.515 314.299 121.749 314.68C121.983 315.061 122.29 315.352 122.672 315.551C123.053 315.742 123.469 315.837 123.92 315.837C124.509 315.837 125.003 315.694 125.402 315.408C125.809 315.122 126.078 314.736 126.208 314.251H127.17C126.996 314.944 126.624 315.512 126.052 315.954C125.488 316.387 124.778 316.604 123.92 316.604C123.252 316.604 122.654 316.457 122.126 316.162C121.597 315.859 121.181 315.434 120.878 314.888C120.583 314.333 120.436 313.688 120.436 312.951C120.436 312.214 120.583 311.569 120.878 311.014C121.172 310.459 121.584 310.035 122.113 309.74C122.641 309.445 123.244 309.298 123.92 309.298C124.596 309.298 125.185 309.445 125.688 309.74C126.199 310.035 126.589 310.433 126.858 310.936C127.135 311.43 127.274 311.98 127.274 312.587ZM126.351 312.561C126.359 312.032 126.251 311.582 126.026 311.209C125.809 310.836 125.51 310.555 125.129 310.364C124.747 310.173 124.331 310.078 123.881 310.078C123.205 310.078 122.628 310.295 122.152 310.728C121.675 311.161 121.411 311.772 121.359 312.561H126.351ZM137.388 309.272C138.22 309.272 138.896 309.536 139.416 310.065C139.945 310.585 140.209 311.343 140.209 312.34V316.5H139.312V312.444C139.312 311.673 139.126 311.083 138.753 310.676C138.381 310.269 137.874 310.065 137.232 310.065C136.565 310.065 136.032 310.286 135.633 310.728C135.235 311.17 135.035 311.811 135.035 312.652V316.5H134.138V312.444C134.138 311.673 133.952 311.083 133.579 310.676C133.207 310.269 132.695 310.065 132.045 310.065C131.378 310.065 130.845 310.286 130.446 310.728C130.048 311.17 129.848 311.811 129.848 312.652V316.5H128.938V309.402H129.848V310.624C130.074 310.182 130.394 309.848 130.81 309.623C131.226 309.389 131.69 309.272 132.201 309.272C132.817 309.272 133.354 309.419 133.813 309.714C134.281 310.009 134.619 310.442 134.827 311.014C135.018 310.451 135.343 310.022 135.802 309.727C136.27 309.424 136.799 309.272 137.388 309.272ZM141.814 312.938C141.814 312.21 141.957 311.573 142.243 311.027C142.538 310.472 142.941 310.048 143.452 309.753C143.972 309.45 144.557 309.298 145.207 309.298C145.883 309.298 146.464 309.454 146.949 309.766C147.443 310.078 147.799 310.477 148.015 310.962V309.402H148.925V316.5H148.015V314.927C147.79 315.412 147.43 315.815 146.936 316.136C146.451 316.448 145.87 316.604 145.194 316.604C144.553 316.604 143.972 316.452 143.452 316.149C142.941 315.846 142.538 315.417 142.243 314.862C141.957 314.307 141.814 313.666 141.814 312.938ZM148.015 312.951C148.015 312.379 147.898 311.876 147.664 311.443C147.43 311.01 147.11 310.676 146.702 310.442C146.304 310.208 145.862 310.091 145.376 310.091C144.874 310.091 144.423 310.204 144.024 310.429C143.626 310.654 143.309 310.984 143.075 311.417C142.85 311.842 142.737 312.349 142.737 312.938C142.737 313.519 142.85 314.03 143.075 314.472C143.309 314.905 143.626 315.239 144.024 315.473C144.423 315.698 144.874 315.811 145.376 315.811C145.862 315.811 146.304 315.694 146.702 315.46C147.11 315.226 147.43 314.892 147.664 314.459C147.898 314.026 148.015 313.523 148.015 312.951ZM151.458 308.063C151.276 308.063 151.12 307.998 150.99 307.868C150.86 307.738 150.795 307.578 150.795 307.387C150.795 307.196 150.86 307.04 150.99 306.919C151.12 306.789 151.276 306.724 151.458 306.724C151.64 306.724 151.796 306.789 151.926 306.919C152.056 307.04 152.121 307.196 152.121 307.387C152.121 307.578 152.056 307.738 151.926 307.868C151.796 307.998 151.64 308.063 151.458 308.063ZM151.913 309.402V316.5H151.003V309.402H151.913ZM154.884 306.88V316.5H153.974V306.88H154.884Z" fill="black"/>
</g>
<g filter="url(#filter3_d_9_49)">
<rect x="68.5" y="348" width="223" height="27" rx="13.5" stroke="#09013A" stroke-width="2" shape-rendering="crispEdges"/>
<path d="M89.962 362.587C89.962 362.899 89.9533 363.137 89.936 363.302H84.047C84.073 363.839 84.203 364.299 84.437 364.68C84.671 365.061 84.9787 365.352 85.36 365.551C85.7413 365.742 86.1573 365.837 86.608 365.837C87.1973 365.837 87.6913 365.694 88.09 365.408C88.4973 365.122 88.766 364.736 88.896 364.251H89.858C89.6847 364.944 89.312 365.512 88.74 365.954C88.1767 366.387 87.466 366.604 86.608 366.604C85.9407 366.604 85.3427 366.457 84.814 366.162C84.2853 365.859 83.8693 365.434 83.566 364.888C83.2713 364.333 83.124 363.688 83.124 362.951C83.124 362.214 83.2713 361.569 83.566 361.014C83.8607 360.459 84.2723 360.035 84.801 359.74C85.3297 359.445 85.932 359.298 86.608 359.298C87.284 359.298 87.8733 359.445 88.376 359.74C88.8873 360.035 89.2773 360.433 89.546 360.936C89.8233 361.43 89.962 361.98 89.962 362.587ZM89.039 362.561C89.0477 362.032 88.9393 361.582 88.714 361.209C88.4973 360.836 88.1983 360.555 87.817 360.364C87.4357 360.173 87.0197 360.078 86.569 360.078C85.893 360.078 85.3167 360.295 84.84 360.728C84.3633 361.161 84.099 361.772 84.047 362.561H89.039ZM94.9549 359.272C95.8042 359.272 96.4976 359.536 97.0349 360.065C97.5722 360.585 97.8409 361.343 97.8409 362.34V366.5H96.9439V362.444C96.9439 361.673 96.7489 361.083 96.3589 360.676C95.9776 360.269 95.4532 360.065 94.7859 360.065C94.1012 360.065 93.5552 360.282 93.1479 360.715C92.7406 361.148 92.5369 361.785 92.5369 362.626V366.5H91.6269V359.402H92.5369V360.611C92.7622 360.178 93.0872 359.848 93.5119 359.623C93.9366 359.389 94.4176 359.272 94.9549 359.272ZM101.036 360.169V364.576C101.036 365.009 101.119 365.308 101.283 365.473C101.448 365.638 101.738 365.72 102.154 365.72H102.986V366.5H102.011C101.37 366.5 100.893 366.353 100.581 366.058C100.269 365.755 100.113 365.261 100.113 364.576V360.169H99.1255V359.402H100.113V357.621H101.036V359.402H102.986V360.169H101.036ZM110.909 362.587C110.909 362.899 110.901 363.137 110.883 363.302H104.994C105.02 363.839 105.15 364.299 105.384 364.68C105.618 365.061 105.926 365.352 106.307 365.551C106.689 365.742 107.105 365.837 107.555 365.837C108.145 365.837 108.639 365.694 109.037 365.408C109.445 365.122 109.713 364.736 109.843 364.251H110.805C110.632 364.944 110.259 365.512 109.687 365.954C109.124 366.387 108.413 366.604 107.555 366.604C106.888 366.604 106.29 366.457 105.761 366.162C105.233 365.859 104.817 365.434 104.513 364.888C104.219 364.333 104.071 363.688 104.071 362.951C104.071 362.214 104.219 361.569 104.513 361.014C104.808 360.459 105.22 360.035 105.748 359.74C106.277 359.445 106.879 359.298 107.555 359.298C108.231 359.298 108.821 359.445 109.323 359.74C109.835 360.035 110.225 360.433 110.493 360.936C110.771 361.43 110.909 361.98 110.909 362.587ZM109.986 362.561C109.995 362.032 109.887 361.582 109.661 361.209C109.445 360.836 109.146 360.555 108.764 360.364C108.383 360.173 107.967 360.078 107.516 360.078C106.84 360.078 106.264 360.295 105.787 360.728C105.311 361.161 105.046 361.772 104.994 362.561H109.986ZM113.484 360.663C113.684 360.221 113.987 359.879 114.394 359.636C114.81 359.393 115.317 359.272 115.915 359.272V360.221H115.668C115.01 360.221 114.481 360.399 114.082 360.754C113.684 361.109 113.484 361.703 113.484 362.535V366.5H112.574V359.402H113.484V360.663ZM121.749 360.962C121.974 360.485 122.329 360.091 122.815 359.779C123.309 359.458 123.894 359.298 124.57 359.298C125.211 359.298 125.787 359.45 126.299 359.753C126.819 360.048 127.222 360.472 127.508 361.027C127.802 361.573 127.95 362.21 127.95 362.938C127.95 363.666 127.802 364.307 127.508 364.862C127.222 365.417 126.819 365.846 126.299 366.149C125.787 366.452 125.211 366.604 124.57 366.604C123.902 366.604 123.322 366.448 122.828 366.136C122.334 365.815 121.974 365.417 121.749 364.94V369.854H120.852V359.402H121.749V360.962ZM127.027 362.938C127.027 362.349 126.91 361.842 126.676 361.417C126.45 360.984 126.138 360.654 125.74 360.429C125.341 360.204 124.89 360.091 124.388 360.091C123.902 360.091 123.456 360.208 123.049 360.442C122.65 360.676 122.334 361.01 122.1 361.443C121.866 361.876 121.749 362.379 121.749 362.951C121.749 363.523 121.866 364.026 122.1 364.459C122.334 364.892 122.65 365.226 123.049 365.46C123.456 365.694 123.902 365.811 124.388 365.811C124.89 365.811 125.341 365.698 125.74 365.473C126.138 365.239 126.45 364.905 126.676 364.472C126.91 364.03 127.027 363.519 127.027 362.938ZM129.208 362.938C129.208 362.21 129.351 361.573 129.637 361.027C129.932 360.472 130.335 360.048 130.846 359.753C131.366 359.45 131.951 359.298 132.601 359.298C133.277 359.298 133.858 359.454 134.343 359.766C134.837 360.078 135.192 360.477 135.409 360.962V359.402H136.319V366.5H135.409V364.927C135.184 365.412 134.824 365.815 134.33 366.136C133.845 366.448 133.264 366.604 132.588 366.604C131.947 366.604 131.366 366.452 130.846 366.149C130.335 365.846 129.932 365.417 129.637 364.862C129.351 364.307 129.208 363.666 129.208 362.938ZM135.409 362.951C135.409 362.379 135.292 361.876 135.058 361.443C134.824 361.01 134.503 360.676 134.096 360.442C133.697 360.208 133.255 360.091 132.77 360.091C132.267 360.091 131.817 360.204 131.418 360.429C131.019 360.654 130.703 360.984 130.469 361.417C130.244 361.842 130.131 362.349 130.131 362.938C130.131 363.519 130.244 364.03 130.469 364.472C130.703 364.905 131.019 365.239 131.418 365.473C131.817 365.698 132.267 365.811 132.77 365.811C133.255 365.811 133.697 365.694 134.096 365.46C134.503 365.226 134.824 364.892 135.058 364.459C135.292 364.026 135.409 363.523 135.409 362.951ZM140.84 366.604C140.026 366.604 139.358 366.418 138.838 366.045C138.327 365.664 138.041 365.148 137.98 364.498H138.916C138.96 364.897 139.146 365.222 139.475 365.473C139.813 365.716 140.264 365.837 140.827 365.837C141.321 365.837 141.707 365.72 141.984 365.486C142.27 365.252 142.413 364.962 142.413 364.615C142.413 364.372 142.335 364.173 142.179 364.017C142.023 363.861 141.824 363.74 141.581 363.653C141.347 363.558 141.027 363.458 140.619 363.354C140.091 363.215 139.662 363.077 139.332 362.938C139.003 362.799 138.721 362.596 138.487 362.327C138.262 362.05 138.149 361.681 138.149 361.222C138.149 360.875 138.253 360.555 138.461 360.26C138.669 359.965 138.964 359.731 139.345 359.558C139.727 359.385 140.16 359.298 140.645 359.298C141.408 359.298 142.023 359.493 142.491 359.883C142.959 360.264 143.211 360.793 143.245 361.469H142.335C142.309 361.053 142.145 360.719 141.841 360.468C141.547 360.208 141.139 360.078 140.619 360.078C140.16 360.078 139.787 360.186 139.501 360.403C139.215 360.62 139.072 360.888 139.072 361.209C139.072 361.486 139.155 361.716 139.319 361.898C139.493 362.071 139.705 362.21 139.956 362.314C140.208 362.409 140.546 362.518 140.97 362.639C141.482 362.778 141.889 362.912 142.192 363.042C142.496 363.172 142.756 363.363 142.972 363.614C143.189 363.865 143.302 364.199 143.31 364.615C143.31 364.996 143.206 365.339 142.998 365.642C142.79 365.937 142.5 366.171 142.127 366.344C141.755 366.517 141.326 366.604 140.84 366.604ZM147.467 366.604C146.653 366.604 145.985 366.418 145.465 366.045C144.954 365.664 144.668 365.148 144.607 364.498H145.543C145.587 364.897 145.773 365.222 146.102 365.473C146.44 365.716 146.891 365.837 147.454 365.837C147.948 365.837 148.334 365.72 148.611 365.486C148.897 365.252 149.04 364.962 149.04 364.615C149.04 364.372 148.962 364.173 148.806 364.017C148.65 363.861 148.451 363.74 148.208 363.653C147.974 363.558 147.654 363.458 147.246 363.354C146.718 363.215 146.289 363.077 145.959 362.938C145.63 362.799 145.348 362.596 145.114 362.327C144.889 362.05 144.776 361.681 144.776 361.222C144.776 360.875 144.88 360.555 145.088 360.26C145.296 359.965 145.591 359.731 145.972 359.558C146.354 359.385 146.787 359.298 147.272 359.298C148.035 359.298 148.65 359.493 149.118 359.883C149.586 360.264 149.838 360.793 149.872 361.469H148.962C148.936 361.053 148.772 360.719 148.468 360.468C148.174 360.208 147.766 360.078 147.246 360.078C146.787 360.078 146.414 360.186 146.128 360.403C145.842 360.62 145.699 360.888 145.699 361.209C145.699 361.486 145.782 361.716 145.946 361.898C146.12 362.071 146.332 362.21 146.583 362.314C146.835 362.409 147.173 362.518 147.597 362.639C148.109 362.778 148.516 362.912 148.819 363.042C149.123 363.172 149.383 363.363 149.599 363.614C149.816 363.865 149.929 364.199 149.937 364.615C149.937 364.996 149.833 365.339 149.625 365.642C149.417 365.937 149.127 366.171 148.754 366.344C148.382 366.517 147.953 366.604 147.467 366.604ZM161.01 359.402L158.787 366.5H157.877L155.914 360.546L153.951 366.5H153.028L150.805 359.402H151.728L153.496 365.577L155.485 359.402H156.395L158.358 365.59L160.113 359.402H161.01ZM165.358 366.604C164.691 366.604 164.088 366.457 163.551 366.162C163.022 365.859 162.602 365.434 162.29 364.888C161.987 364.333 161.835 363.688 161.835 362.951C161.835 362.214 161.991 361.573 162.303 361.027C162.615 360.472 163.04 360.048 163.577 359.753C164.114 359.45 164.717 359.298 165.384 359.298C166.051 359.298 166.654 359.45 167.191 359.753C167.737 360.048 168.162 360.472 168.465 361.027C168.777 361.573 168.933 362.214 168.933 362.951C168.933 363.679 168.777 364.32 168.465 364.875C168.153 365.43 167.724 365.859 167.178 366.162C166.632 366.457 166.025 366.604 165.358 366.604ZM165.358 365.811C165.826 365.811 166.259 365.707 166.658 365.499C167.057 365.282 167.377 364.962 167.62 364.537C167.871 364.104 167.997 363.575 167.997 362.951C167.997 362.327 167.876 361.803 167.633 361.378C167.39 360.945 167.07 360.624 166.671 360.416C166.272 360.199 165.839 360.091 165.371 360.091C164.903 360.091 164.47 360.199 164.071 360.416C163.672 360.624 163.352 360.945 163.109 361.378C162.875 361.803 162.758 362.327 162.758 362.951C162.758 363.575 162.875 364.104 163.109 364.537C163.352 364.962 163.668 365.282 164.058 365.499C164.457 365.707 164.89 365.811 165.358 365.811ZM171.502 360.663C171.701 360.221 172.004 359.879 172.412 359.636C172.828 359.393 173.335 359.272 173.933 359.272V360.221H173.686C173.027 360.221 172.498 360.399 172.1 360.754C171.701 361.109 171.502 361.703 171.502 362.535V366.5H170.592V359.402H171.502V360.663ZM174.886 362.938C174.886 362.21 175.033 361.573 175.328 361.027C175.622 360.472 176.025 360.048 176.537 359.753C177.057 359.45 177.642 359.298 178.292 359.298C178.916 359.298 179.479 359.45 179.982 359.753C180.484 360.056 180.853 360.451 181.087 360.936V356.88H181.997V366.5H181.087V364.914C180.87 365.408 180.515 365.815 180.021 366.136C179.527 366.448 178.946 366.604 178.279 366.604C177.629 366.604 177.044 366.452 176.524 366.149C176.012 365.846 175.609 365.417 175.315 364.862C175.029 364.307 174.886 363.666 174.886 362.938ZM181.087 362.951C181.087 362.379 180.97 361.876 180.736 361.443C180.502 361.01 180.181 360.676 179.774 360.442C179.375 360.208 178.933 360.091 178.448 360.091C177.945 360.091 177.494 360.204 177.096 360.429C176.697 360.654 176.381 360.984 176.147 361.417C175.921 361.842 175.809 362.349 175.809 362.938C175.809 363.519 175.921 364.03 176.147 364.472C176.381 364.905 176.697 365.239 177.096 365.473C177.494 365.698 177.945 365.811 178.448 365.811C178.933 365.811 179.375 365.694 179.774 365.46C180.181 365.226 180.502 364.892 180.736 364.459C180.97 364.026 181.087 363.523 181.087 362.951Z" fill="black"/>
</g>
<g filter="url(#filter4_d_9_49)">
<rect x="68.5" y="398" width="223" height="27" rx="13.5" stroke="#09013A" stroke-width="2" shape-rendering="crispEdges"/>
<path d="M83.124 412.951C83.124 412.214 83.2713 411.573 83.566 411.027C83.8607 410.472 84.268 410.048 84.788 409.753C85.308 409.45 85.9017 409.298 86.569 409.298C87.4443 409.298 88.1637 409.515 88.727 409.948C89.299 410.381 89.6673 410.971 89.832 411.716H88.857C88.7357 411.205 88.4713 410.806 88.064 410.52C87.6653 410.225 87.167 410.078 86.569 410.078C86.0923 410.078 85.6633 410.186 85.282 410.403C84.9007 410.62 84.5973 410.945 84.372 411.378C84.1553 411.803 84.047 412.327 84.047 412.951C84.047 413.575 84.1553 414.104 84.372 414.537C84.5973 414.97 84.9007 415.295 85.282 415.512C85.6633 415.729 86.0923 415.837 86.569 415.837C87.167 415.837 87.6653 415.694 88.064 415.408C88.4713 415.113 88.7357 414.706 88.857 414.186H89.832C89.6673 414.914 89.299 415.499 88.727 415.941C88.155 416.383 87.4357 416.604 86.569 416.604C85.9017 416.604 85.308 416.457 84.788 416.162C84.268 415.859 83.8607 415.434 83.566 414.888C83.2713 414.333 83.124 413.688 83.124 412.951ZM94.6197 416.604C93.9523 416.604 93.35 416.457 92.8127 416.162C92.284 415.859 91.8637 415.434 91.5517 414.888C91.2483 414.333 91.0967 413.688 91.0967 412.951C91.0967 412.214 91.2527 411.573 91.5647 411.027C91.8767 410.472 92.3013 410.048 92.8387 409.753C93.376 409.45 93.9783 409.298 94.6457 409.298C95.313 409.298 95.9153 409.45 96.4527 409.753C96.9987 410.048 97.4233 410.472 97.7267 411.027C98.0387 411.573 98.1947 412.214 98.1947 412.951C98.1947 413.679 98.0387 414.32 97.7267 414.875C97.4147 415.43 96.9857 415.859 96.4397 416.162C95.8937 416.457 95.287 416.604 94.6197 416.604ZM94.6197 415.811C95.0877 415.811 95.521 415.707 95.9197 415.499C96.3183 415.282 96.639 414.962 96.8817 414.537C97.133 414.104 97.2587 413.575 97.2587 412.951C97.2587 412.327 97.1373 411.803 96.8947 411.378C96.652 410.945 96.3313 410.624 95.9327 410.416C95.534 410.199 95.1007 410.091 94.6327 410.091C94.1647 410.091 93.7313 410.199 93.3327 410.416C92.934 410.624 92.6133 410.945 92.3707 411.378C92.1367 411.803 92.0197 412.327 92.0197 412.951C92.0197 413.575 92.1367 414.104 92.3707 414.537C92.6133 414.962 92.9297 415.282 93.3197 415.499C93.7183 415.707 94.1517 415.811 94.6197 415.811ZM103.181 409.272C104.031 409.272 104.724 409.536 105.261 410.065C105.799 410.585 106.067 411.343 106.067 412.34V416.5H105.17V412.444C105.17 411.673 104.975 411.083 104.585 410.676C104.204 410.269 103.68 410.065 103.012 410.065C102.328 410.065 101.782 410.282 101.374 410.715C100.967 411.148 100.763 411.785 100.763 412.626V416.5H99.8535V409.402H100.763V410.611C100.989 410.178 101.314 409.848 101.738 409.623C102.163 409.389 102.644 409.272 103.181 409.272ZM110.875 410.169H109.224V416.5H108.314V410.169H107.326V409.402H108.314V408.908C108.314 408.137 108.509 407.569 108.899 407.205C109.298 406.841 109.939 406.659 110.823 406.659V407.439C110.234 407.439 109.818 407.552 109.575 407.777C109.341 408.002 109.224 408.379 109.224 408.908V409.402H110.875V410.169ZM112.763 408.063C112.581 408.063 112.425 407.998 112.295 407.868C112.165 407.738 112.1 407.578 112.1 407.387C112.1 407.196 112.165 407.04 112.295 406.919C112.425 406.789 112.581 406.724 112.763 406.724C112.945 406.724 113.101 406.789 113.231 406.919C113.361 407.04 113.426 407.196 113.426 407.387C113.426 407.578 113.361 407.738 113.231 407.868C113.101 407.998 112.945 408.063 112.763 408.063ZM113.218 409.402V416.5H112.308V409.402H113.218ZM116.188 410.663C116.388 410.221 116.691 409.879 117.098 409.636C117.514 409.393 118.021 409.272 118.619 409.272V410.221H118.372C117.714 410.221 117.185 410.399 116.786 410.754C116.388 411.109 116.188 411.703 116.188 412.535V416.5H115.278V409.402H116.188V410.663ZM128.438 409.272C129.27 409.272 129.946 409.536 130.466 410.065C130.995 410.585 131.259 411.343 131.259 412.34V416.5H130.362V412.444C130.362 411.673 130.176 411.083 129.803 410.676C129.431 410.269 128.924 410.065 128.282 410.065C127.615 410.065 127.082 410.286 126.683 410.728C126.285 411.17 126.085 411.811 126.085 412.652V416.5H125.188V412.444C125.188 411.673 125.002 411.083 124.629 410.676C124.257 410.269 123.745 410.065 123.095 410.065C122.428 410.065 121.895 410.286 121.496 410.728C121.098 411.17 120.898 411.811 120.898 412.652V416.5H119.988V409.402H120.898V410.624C121.124 410.182 121.444 409.848 121.86 409.623C122.276 409.389 122.74 409.272 123.251 409.272C123.867 409.272 124.404 409.419 124.863 409.714C125.331 410.009 125.669 410.442 125.877 411.014C126.068 410.451 126.393 410.022 126.852 409.727C127.32 409.424 127.849 409.272 128.438 409.272ZM137.745 410.962C137.97 410.485 138.325 410.091 138.811 409.779C139.305 409.458 139.89 409.298 140.566 409.298C141.207 409.298 141.783 409.45 142.295 409.753C142.815 410.048 143.218 410.472 143.504 411.027C143.798 411.573 143.946 412.21 143.946 412.938C143.946 413.666 143.798 414.307 143.504 414.862C143.218 415.417 142.815 415.846 142.295 416.149C141.783 416.452 141.207 416.604 140.566 416.604C139.898 416.604 139.318 416.448 138.824 416.136C138.33 415.815 137.97 415.417 137.745 414.94V419.854H136.848V409.402H137.745V410.962ZM143.023 412.938C143.023 412.349 142.906 411.842 142.672 411.417C142.446 410.984 142.134 410.654 141.736 410.429C141.337 410.204 140.886 410.091 140.384 410.091C139.898 410.091 139.452 410.208 139.045 410.442C138.646 410.676 138.33 411.01 138.096 411.443C137.862 411.876 137.745 412.379 137.745 412.951C137.745 413.523 137.862 414.026 138.096 414.459C138.33 414.892 138.646 415.226 139.045 415.46C139.452 415.694 139.898 415.811 140.384 415.811C140.886 415.811 141.337 415.698 141.736 415.473C142.134 415.239 142.446 414.905 142.672 414.472C142.906 414.03 143.023 413.519 143.023 412.938ZM145.204 412.938C145.204 412.21 145.347 411.573 145.633 411.027C145.928 410.472 146.331 410.048 146.842 409.753C147.362 409.45 147.947 409.298 148.597 409.298C149.273 409.298 149.854 409.454 150.339 409.766C150.833 410.078 151.188 410.477 151.405 410.962V409.402H152.315V416.5H151.405V414.927C151.18 415.412 150.82 415.815 150.326 416.136C149.841 416.448 149.26 416.604 148.584 416.604C147.943 416.604 147.362 416.452 146.842 416.149C146.331 415.846 145.928 415.417 145.633 414.862C145.347 414.307 145.204 413.666 145.204 412.938ZM151.405 412.951C151.405 412.379 151.288 411.876 151.054 411.443C150.82 411.01 150.499 410.676 150.092 410.442C149.693 410.208 149.251 410.091 148.766 410.091C148.263 410.091 147.813 410.204 147.414 410.429C147.015 410.654 146.699 410.984 146.465 411.417C146.24 411.842 146.127 412.349 146.127 412.938C146.127 413.519 146.24 414.03 146.465 414.472C146.699 414.905 147.015 415.239 147.414 415.473C147.813 415.698 148.263 415.811 148.766 415.811C149.251 415.811 149.693 415.694 150.092 415.46C150.499 415.226 150.82 414.892 151.054 414.459C151.288 414.026 151.405 413.523 151.405 412.951ZM156.837 416.604C156.022 416.604 155.355 416.418 154.835 416.045C154.323 415.664 154.037 415.148 153.977 414.498H154.913C154.956 414.897 155.142 415.222 155.472 415.473C155.81 415.716 156.26 415.837 156.824 415.837C157.318 415.837 157.703 415.72 157.981 415.486C158.267 415.252 158.41 414.962 158.41 414.615C158.41 414.372 158.332 414.173 158.176 414.017C158.02 413.861 157.82 413.74 157.578 413.653C157.344 413.558 157.023 413.458 156.616 413.354C156.087 413.215 155.658 413.077 155.329 412.938C154.999 412.799 154.718 412.596 154.484 412.327C154.258 412.05 154.146 411.681 154.146 411.222C154.146 410.875 154.25 410.555 154.458 410.26C154.666 409.965 154.96 409.731 155.342 409.558C155.723 409.385 156.156 409.298 156.642 409.298C157.404 409.298 158.02 409.493 158.488 409.883C158.956 410.264 159.207 410.793 159.242 411.469H158.332C158.306 411.053 158.141 410.719 157.838 410.468C157.543 410.208 157.136 410.078 156.616 410.078C156.156 410.078 155.784 410.186 155.498 410.403C155.212 410.62 155.069 410.888 155.069 411.209C155.069 411.486 155.151 411.716 155.316 411.898C155.489 412.071 155.701 412.21 155.953 412.314C156.204 412.409 156.542 412.518 156.967 412.639C157.478 412.778 157.885 412.912 158.189 413.042C158.492 413.172 158.752 413.363 158.969 413.614C159.185 413.865 159.298 414.199 159.307 414.615C159.307 414.996 159.203 415.339 158.995 415.642C158.787 415.937 158.496 416.171 158.124 416.344C157.751 416.517 157.322 416.604 156.837 416.604ZM163.463 416.604C162.649 416.604 161.981 416.418 161.461 416.045C160.95 415.664 160.664 415.148 160.603 414.498H161.539C161.583 414.897 161.769 415.222 162.098 415.473C162.436 415.716 162.887 415.837 163.45 415.837C163.944 415.837 164.33 415.72 164.607 415.486C164.893 415.252 165.036 414.962 165.036 414.615C165.036 414.372 164.958 414.173 164.802 414.017C164.646 413.861 164.447 413.74 164.204 413.653C163.97 413.558 163.65 413.458 163.242 413.354C162.714 413.215 162.285 413.077 161.955 412.938C161.626 412.799 161.344 412.596 161.11 412.327C160.885 412.05 160.772 411.681 160.772 411.222C160.772 410.875 160.876 410.555 161.084 410.26C161.292 409.965 161.587 409.731 161.968 409.558C162.35 409.385 162.783 409.298 163.268 409.298C164.031 409.298 164.646 409.493 165.114 409.883C165.582 410.264 165.834 410.793 165.868 411.469H164.958C164.932 411.053 164.768 410.719 164.464 410.468C164.17 410.208 163.762 410.078 163.242 410.078C162.783 410.078 162.41 410.186 162.124 410.403C161.838 410.62 161.695 410.888 161.695 411.209C161.695 411.486 161.778 411.716 161.942 411.898C162.116 412.071 162.328 412.21 162.579 412.314C162.831 412.409 163.169 412.518 163.593 412.639C164.105 412.778 164.512 412.912 164.815 413.042C165.119 413.172 165.379 413.363 165.595 413.614C165.812 413.865 165.925 414.199 165.933 414.615C165.933 414.996 165.829 415.339 165.621 415.642C165.413 415.937 165.123 416.171 164.75 416.344C164.378 416.517 163.949 416.604 163.463 416.604ZM177.006 409.402L174.783 416.5H173.873L171.91 410.546L169.947 416.5H169.024L166.801 409.402H167.724L169.492 415.577L171.481 409.402H172.391L174.354 415.59L176.109 409.402H177.006ZM181.354 416.604C180.687 416.604 180.084 416.457 179.547 416.162C179.018 415.859 178.598 415.434 178.286 414.888C177.983 414.333 177.831 413.688 177.831 412.951C177.831 412.214 177.987 411.573 178.299 411.027C178.611 410.472 179.036 410.048 179.573 409.753C180.11 409.45 180.713 409.298 181.38 409.298C182.047 409.298 182.65 409.45 183.187 409.753C183.733 410.048 184.158 410.472 184.461 411.027C184.773 411.573 184.929 412.214 184.929 412.951C184.929 413.679 184.773 414.32 184.461 414.875C184.149 415.43 183.72 415.859 183.174 416.162C182.628 416.457 182.021 416.604 181.354 416.604ZM181.354 415.811C181.822 415.811 182.255 415.707 182.654 415.499C183.053 415.282 183.373 414.962 183.616 414.537C183.867 414.104 183.993 413.575 183.993 412.951C183.993 412.327 183.872 411.803 183.629 411.378C183.386 410.945 183.066 410.624 182.667 410.416C182.268 410.199 181.835 410.091 181.367 410.091C180.899 410.091 180.466 410.199 180.067 410.416C179.668 410.624 179.348 410.945 179.105 411.378C178.871 411.803 178.754 412.327 178.754 412.951C178.754 413.575 178.871 414.104 179.105 414.537C179.348 414.962 179.664 415.282 180.054 415.499C180.453 415.707 180.886 415.811 181.354 415.811ZM187.498 410.663C187.697 410.221 188.001 409.879 188.408 409.636C188.824 409.393 189.331 409.272 189.929 409.272V410.221H189.682C189.023 410.221 188.495 410.399 188.096 410.754C187.697 411.109 187.498 411.703 187.498 412.535V416.5H186.588V409.402H187.498V410.663ZM190.882 412.938C190.882 412.21 191.029 411.573 191.324 411.027C191.618 410.472 192.021 410.048 192.533 409.753C193.053 409.45 193.638 409.298 194.288 409.298C194.912 409.298 195.475 409.45 195.978 409.753C196.48 410.056 196.849 410.451 197.083 410.936V406.88H197.993V416.5H197.083V414.914C196.866 415.408 196.511 415.815 196.017 416.136C195.523 416.448 194.942 416.604 194.275 416.604C193.625 416.604 193.04 416.452 192.52 416.149C192.008 415.846 191.605 415.417 191.311 414.862C191.025 414.307 190.882 413.666 190.882 412.938ZM197.083 412.951C197.083 412.379 196.966 411.876 196.732 411.443C196.498 411.01 196.177 410.676 195.77 410.442C195.371 410.208 194.929 410.091 194.444 410.091C193.941 410.091 193.49 410.204 193.092 410.429C192.693 410.654 192.377 410.984 192.143 411.417C191.917 411.842 191.805 412.349 191.805 412.938C191.805 413.519 191.917 414.03 192.143 414.472C192.377 414.905 192.693 415.239 193.092 415.473C193.49 415.698 193.941 415.811 194.444 415.811C194.929 415.811 195.371 415.694 195.77 415.46C196.177 415.226 196.498 414.892 196.732 414.459C196.966 414.026 197.083 413.523 197.083 412.951Z" fill="black"/>
</g>
</g>
</g>
<defs>
<filter id="filter0_d_9_49" x="28" y="228" width="314" height="229" filterUnits="userSpaceOnUse" color-interpolation-filters="sRGB">
<feFlood flood-opacity="0" result="BackgroundImageFix"/>
<feColorMatrix in="SourceAlpha" type="matrix" values="0 0 0 0 0 0 0 0 0 0 0 0 0 0 0 0 0 0 127 0" result="hardAlpha"/>
<feMorphology radius="2" operator="dilate" in="SourceAlpha" result="effect1_dropShadow_9_49"/>
<feOffset dx="5" dy="6"/>
<feGaussianBlur stdDeviation="4.5"/>
<feComposite in2="hardAlpha" operator="out"/>
<feColorMatrix type="matrix" values="0 0 0 0 0 0 0 0 0 0 0 0 0 0 0 0 0 0 0.16 0"/>
<feBlend mode="normal" in2="BackgroundImageFix" result="effect1_dropShadow_9_49"/>
<feBlend mode="normal" in="SourceGraphic" in2="effect1_dropShadow_9_49" result="shape"/>
</filter>
<filter id="filter1_d_9_49" x="63.5" y="247" width="233" height="37" filterUnits="userSpaceOnUse" color-interpolation-filters="sRGB">
<feFlood flood-opacity="0" result="BackgroundImageFix"/>
<feColorMatrix in="SourceAlpha" type="matrix" values="0 0 0 0 0 0 0 0 0 0 0 0 0 0 0 0 0 0 127 0" result="hardAlpha"/>
<feOffset dy="4"/>
<feGaussianBlur stdDeviation="2"/>
<feComposite in2="hardAlpha" operator="out"/>
<feColorMatrix type="matrix" values="0 0 0 0 0 0 0 0 0 0 0 0 0 0 0 0 0 0 0.16 0"/>
<feBlend mode="normal" in2="BackgroundImageFix" result="effect1_dropShadow_9_49"/>
<feBlend mode="normal" in="SourceGraphic" in2="effect1_dropShadow_9_49" result="shape"/>
</filter>
<filter id="filter2_d_9_49" x="63.5" y="297" width="233" height="37" filterUnits="userSpaceOnUse" color-interpolation-filters="sRGB">
<feFlood flood-opacity="0" result="BackgroundImageFix"/>
<feColorMatrix in="SourceAlpha" type="matrix" values="0 0 0 0 0 0 0 0 0 0 0 0 0 0 0 0 0 0 127 0" result="hardAlpha"/>
<feOffset dy="4"/>
<feGaussianBlur stdDeviation="2"/>
<feComposite in2="hardAlpha" operator="out"/>
<feColorMatrix type="matrix" values="0 0 0 0 0 0 0 0 0 0 0 0 0 0 0 0 0 0 0.16 0"/>
<feBlend mode="normal" in2="BackgroundImageFix" result="effect1_dropShadow_9_49"/>
<feBlend mode="normal" in="SourceGraphic" in2="effect1_dropShadow_9_49" result="shape"/>
</filter>
<filter id="filter3_d_9_49" x="63.5" y="347" width="233" height="37" filterUnits="userSpaceOnUse" color-interpolation-filters="sRGB">
<feFlood flood-opacity="0" result="BackgroundImageFix"/>
<feColorMatrix in="SourceAlpha" type="matrix" values="0 0 0 0 0 0 0 0 0 0 0 0 0 0 0 0 0 0 127 0" result="hardAlpha"/>
<feOffset dy="4"/>
<feGaussianBlur stdDeviation="2"/>
<feComposite in2="hardAlpha" operator="out"/>
<feColorMatrix type="matrix" values="0 0 0 0 0 0 0 0 0 0 0 0 0 0 0 0 0 0 0.16 0"/>
<feBlend mode="normal" in2="BackgroundImageFix" result="effect1_dropShadow_9_49"/>
<feBlend mode="normal" in="SourceGraphic" in2="effect1_dropShadow_9_49" result="shape"/>
</filter>
<filter id="filter4_d_9_49" x="63.5" y="397" width="233" height="37" filterUnits="userSpaceOnUse" color-interpolation-filters="sRGB">
<feFlood flood-opacity="0" result="BackgroundImageFix"/>
<feColorMatrix in="SourceAlpha" type="matrix" values="0 0 0 0 0 0 0 0 0 0 0 0 0 0 0 0 0 0 127 0" result="hardAlpha"/>
<feOffset dy="4"/>
<feGaussianBlur stdDeviation="2"/>
<feComposite in2="hardAlpha" operator="out"/>
<feColorMatrix type="matrix" values="0 0 0 0 0 0 0 0 0 0 0 0 0 0 0 0 0 0 0.16 0"/>
<feBlend mode="normal" in2="BackgroundImageFix" result="effect1_dropShadow_9_49"/>
<feBlend mode="normal" in="SourceGraphic" in2="effect1_dropShadow_9_49" result="shape"/>
</filter>
<clipPath id="clip0_9_49">
<rect width="360" height="640" rx="20" fill="white"/>
</clipPath>
</defs>
</svg>
