<svg width="360" height="640" viewBox="0 0 360 640" fill="none" xmlns="http://www.w3.org/2000/svg">
<g clip-path="url(#clip0_31_59)">
<rect width="360" height="640" rx="20" fill="#F0F0F0"/>
<path d="M100.88 200.832H105.584C105.584 202.816 105.392 204.693 105.008 206.464C104.645 208.235 104.197 209.675 103.664 210.784C102.533 213.088 101.531 214.656 100.656 215.488L100.08 216H93.6481L92.0481 210.848C91.6001 211.893 91.0775 212.843 90.4801 213.696C89.9041 214.549 89.4348 215.147 89.0721 215.488L88.5601 216H83.1201L78.4481 200.832H86.3841L87.7601 210.4C87.8881 210.272 88.0588 210.08 88.2721 209.824C88.4855 209.547 88.8161 208.907 89.2641 207.904C89.7121 206.88 90.0428 205.771 90.2561 204.576L89.0081 200.832H96.9121L98.1601 210.368C98.7788 209.749 99.3761 208.683 99.9521 207.168C100.571 205.461 100.88 203.349 100.88 200.832ZM113.629 216.32C111.218 216.32 109.192 215.627 107.549 214.24C105.928 212.832 105.117 210.773 105.117 208.064C105.117 206.357 105.533 204.907 106.365 203.712C107.88 201.493 110.226 200.384 113.405 200.384C115.837 200.384 117.693 200.875 118.973 201.856C120.253 202.816 120.893 204.149 120.893 205.856C120.893 207.179 120.36 208.256 119.293 209.088C118.248 209.899 116.712 210.304 114.685 210.304C113.853 210.304 113.106 210.24 112.445 210.112L112.093 210.048C112.2 210.816 112.53 211.392 113.085 211.776C113.661 212.139 114.344 212.32 115.133 212.32C116.434 212.32 117.544 211.925 118.461 211.136L120.445 213.536C120.104 213.941 119.698 214.325 119.229 214.688C118.76 215.029 118.013 215.392 116.989 215.776C115.965 216.139 114.845 216.32 113.629 216.32ZM116.221 205.568C116.221 205.141 116.05 204.789 115.709 204.512C115.389 204.235 114.941 204.096 114.365 204.096C113.789 204.096 113.245 204.352 112.733 204.864C112.242 205.376 111.997 205.984 111.997 206.688C112.466 206.901 113.074 207.008 113.821 207.008C114.589 207.008 115.176 206.88 115.581 206.624C116.008 206.347 116.221 205.995 116.221 205.568ZM128.348 195.232L127.484 216H121.596L120.732 195.232H128.348ZM143.031 213.76C141.431 215.467 139.287 216.32 136.599 216.32C133.932 216.32 131.863 215.605 130.391 214.176C128.919 212.725 128.183 210.688 128.183 208.064C128.183 205.44 128.972 203.509 130.551 202.272C132.13 201.013 134.103 200.384 136.471 200.384C137.474 200.384 138.434 200.48 139.351 200.672C140.29 200.864 140.972 201.067 141.399 201.28L142.039 201.568L141.335 204.864C140.46 204.608 139.554 204.48 138.615 204.48C137.698 204.48 136.855 204.779 136.087 205.376C135.34 205.952 134.967 206.848 134.967 208.064C134.967 210.795 136.023 212.16 138.135 212.16C138.69 212.16 139.223 212.096 139.735 211.968C140.247 211.819 140.62 211.669 140.855 211.52L141.207 211.328L143.031 213.76ZM144.223 214.432C142.687 213.152 141.919 211.125 141.919 208.352C141.919 205.579 142.687 203.563 144.223 202.304C145.781 201.024 147.85 200.384 150.431 200.384C153.013 200.384 155.071 201.024 156.607 202.304C158.165 203.563 158.943 205.579 158.943 208.352C158.943 211.125 158.165 213.152 156.607 214.432C155.071 215.691 153.013 216.32 150.431 216.32C147.85 216.32 145.781 215.691 144.223 214.432ZM149.087 204.736C148.831 205.461 148.703 206.667 148.703 208.352C148.703 210.037 148.831 211.253 149.087 212C149.343 212.725 149.791 213.088 150.431 213.088C151.071 213.088 151.519 212.725 151.775 212C152.031 211.253 152.159 210.037 152.159 208.352C152.159 206.667 152.031 205.461 151.775 204.736C151.519 203.989 151.071 203.616 150.431 203.616C149.791 203.616 149.343 203.989 149.087 204.736ZM181.856 200.384C183.584 200.384 184.864 201.067 185.696 202.432C186.528 203.797 186.944 205.44 186.944 207.36C186.944 209.259 186.699 212.139 186.208 216H180.608L179.904 208.576C179.776 207.296 179.606 206.443 179.392 206.016C179.179 205.589 178.816 205.376 178.304 205.376C177.088 205.376 176.406 206.453 176.256 208.608L175.712 216H170.016L169.312 208.576C169.184 207.296 169.014 206.443 168.8 206.016C168.587 205.589 168.224 205.376 167.712 205.376C166.454 205.376 165.771 206.453 165.664 208.608L165.344 216H159.456L158.784 200.832H166.016L165.888 203.872C165.931 203.787 165.984 203.669 166.048 203.52C166.134 203.349 166.326 203.061 166.624 202.656C166.944 202.251 167.296 201.899 167.68 201.6C168.064 201.301 168.587 201.024 169.248 200.768C169.931 200.512 170.656 200.384 171.424 200.384C172.662 200.384 173.664 200.779 174.432 201.568C175.222 202.357 175.734 203.232 175.968 204.192C176.288 203.659 176.566 203.232 176.8 202.912C177.035 202.592 177.387 202.208 177.856 201.76C178.816 200.843 180.15 200.384 181.856 200.384ZM195.31 216.32C192.899 216.32 190.873 215.627 189.23 214.24C187.609 212.832 186.798 210.773 186.798 208.064C186.798 206.357 187.214 204.907 188.046 203.712C189.561 201.493 191.907 200.384 195.086 200.384C197.518 200.384 199.374 200.875 200.654 201.856C201.934 202.816 202.574 204.149 202.574 205.856C202.574 207.179 202.041 208.256 200.974 209.088C199.929 209.899 198.393 210.304 196.366 210.304C195.534 210.304 194.787 210.24 194.126 210.112L193.774 210.048C193.881 210.816 194.211 211.392 194.766 211.776C195.342 212.139 196.025 212.32 196.814 212.32C198.115 212.32 199.225 211.925 200.142 211.136L202.126 213.536C201.785 213.941 201.379 214.325 200.91 214.688C200.441 215.029 199.694 215.392 198.67 215.776C197.646 216.139 196.526 216.32 195.31 216.32ZM197.902 205.568C197.902 205.141 197.731 204.789 197.39 204.512C197.07 204.235 196.622 204.096 196.046 204.096C195.47 204.096 194.926 204.352 194.414 204.864C193.923 205.376 193.678 205.984 193.678 206.688C194.147 206.901 194.755 207.008 195.502 207.008C196.27 207.008 196.857 206.88 197.262 206.624C197.689 206.347 197.902 205.995 197.902 205.568ZM215.379 210.304C215.358 211.541 215.795 212.16 216.691 212.16C216.947 212.16 217.257 212.043 217.619 211.808L218.291 214.912C218.163 215.019 217.982 215.157 217.747 215.328C217.534 215.477 217.054 215.68 216.307 215.936C215.582 216.192 214.825 216.32 214.035 216.32C212.585 216.32 211.401 215.829 210.483 214.848C209.566 213.845 209.075 212.576 209.011 211.04L208.723 204.992H206.259L206.643 200.832H208.563L208.435 197.696L216.019 196.16L215.795 200.832H217.651L218.035 204.992H215.603L215.379 210.304ZM220.436 214.432C218.9 213.152 218.132 211.125 218.132 208.352C218.132 205.579 218.9 203.563 220.436 202.304C221.993 201.024 224.063 200.384 226.644 200.384C229.225 200.384 231.284 201.024 232.82 202.304C234.377 203.563 235.156 205.579 235.156 208.352C235.156 211.125 234.377 213.152 232.82 214.432C231.284 215.691 229.225 216.32 226.644 216.32C224.063 216.32 221.993 215.691 220.436 214.432ZM225.3 204.736C225.044 205.461 224.916 206.667 224.916 208.352C224.916 210.037 225.044 211.253 225.3 212C225.556 212.725 226.004 213.088 226.644 213.088C227.284 213.088 227.732 212.725 227.988 212C228.244 211.253 228.372 210.037 228.372 208.352C228.372 206.667 228.244 205.461 227.988 204.736C227.732 203.989 227.284 203.616 226.644 203.616C226.004 203.616 225.556 203.989 225.3 204.736ZM247.099 195.232L246.235 216H240.347L239.483 195.232H247.099ZM254.71 201.28L255.254 201.088L254.166 216H248.118L247.094 201.088C248.31 201.579 249.601 201.824 250.966 201.824C252.353 201.824 253.601 201.643 254.71 201.28ZM251.158 200.416C250.092 200.416 249.196 200.096 248.47 199.456C247.745 198.816 247.382 197.984 247.382 196.96C247.382 195.915 247.734 195.083 248.438 194.464C249.164 193.824 250.06 193.504 251.126 193.504C252.214 193.504 253.121 193.824 253.846 194.464C254.572 195.104 254.934 195.936 254.934 196.96C254.934 197.984 254.572 198.816 253.846 199.456C253.121 200.096 252.225 200.416 251.158 200.416ZM256.868 200.832C256.868 198.869 257.327 197.376 258.244 196.352C259.183 195.307 260.761 194.784 262.98 194.784C263.961 194.784 264.9 194.923 265.796 195.2L266.148 198.304C265.828 198.219 265.508 198.176 265.188 198.176C264.143 198.176 263.62 198.923 263.62 200.416V200.832H265.572L265.956 204.992H263.812L263.332 216H257.444L256.964 204.992H254.948L255.332 200.832H256.868ZM274.169 216.32C271.758 216.32 269.732 215.627 268.089 214.24C266.468 212.832 265.657 210.773 265.657 208.064C265.657 206.357 266.073 204.907 266.905 203.712C268.42 201.493 270.766 200.384 273.945 200.384C276.377 200.384 278.233 200.875 279.513 201.856C280.793 202.816 281.433 204.149 281.433 205.856C281.433 207.179 280.9 208.256 279.833 209.088C278.788 209.899 277.252 210.304 275.225 210.304C274.393 210.304 273.646 210.24 272.985 210.112L272.633 210.048C272.74 210.816 273.07 211.392 273.625 211.776C274.201 212.139 274.884 212.32 275.673 212.32C276.974 212.32 278.084 211.925 279.001 211.136L280.985 213.536C280.644 213.941 280.238 214.325 279.769 214.688C279.3 215.029 278.553 215.392 277.529 215.776C276.505 216.139 275.385 216.32 274.169 216.32ZM276.761 205.568C276.761 205.141 276.59 204.789 276.249 204.512C275.929 204.235 275.481 204.096 274.905 204.096C274.329 204.096 273.785 204.352 273.273 204.864C272.782 205.376 272.537 205.984 272.537 206.688C273.006 206.901 273.614 207.008 274.361 207.008C275.129 207.008 275.716 206.88 276.121 206.624C276.548 206.347 276.761 205.995 276.761 205.568Z" fill="black"/>
<rect width="254" height="49" transform="translate(53 415)" fill="#070616"/>
<path d="M153.52 445.5L151.056 441.148H150V445.5H147.76V434.332H151.952C152.816 434.332 153.552 434.487 154.16 434.796C154.768 435.095 155.222 435.505 155.52 436.028C155.83 436.54 155.984 437.116 155.984 437.756C155.984 438.492 155.771 439.159 155.344 439.756C154.918 440.343 154.283 440.748 153.44 440.972L156.112 445.5H153.52ZM150 439.468H151.872C152.48 439.468 152.934 439.324 153.232 439.036C153.531 438.737 153.68 438.327 153.68 437.804C153.68 437.292 153.531 436.897 153.232 436.62C152.934 436.332 152.48 436.188 151.872 436.188H150V439.468ZM166.25 440.876C166.25 441.196 166.229 441.484 166.186 441.74H159.706C159.76 442.38 159.984 442.881 160.378 443.244C160.773 443.607 161.258 443.788 161.834 443.788C162.666 443.788 163.258 443.431 163.61 442.716H166.026C165.77 443.569 165.28 444.273 164.554 444.828C163.829 445.372 162.938 445.644 161.882 445.644C161.029 445.644 160.261 445.457 159.578 445.084C158.906 444.7 158.378 444.161 157.994 443.468C157.621 442.775 157.434 441.975 157.434 441.068C157.434 440.151 157.621 439.345 157.994 438.652C158.368 437.959 158.89 437.425 159.562 437.052C160.234 436.679 161.008 436.492 161.882 436.492C162.725 436.492 163.477 436.673 164.138 437.036C164.81 437.399 165.328 437.916 165.69 438.588C166.064 439.249 166.25 440.012 166.25 440.876ZM163.93 440.236C163.92 439.66 163.712 439.201 163.306 438.86C162.901 438.508 162.405 438.332 161.818 438.332C161.264 438.332 160.794 438.503 160.41 438.844C160.037 439.175 159.808 439.639 159.722 440.236H163.93ZM171.357 436.492C172.019 436.492 172.6 436.625 173.101 436.892C173.603 437.148 173.997 437.484 174.285 437.9V436.636H176.541V445.564C176.541 446.385 176.376 447.116 176.045 447.756C175.715 448.407 175.219 448.919 174.557 449.292C173.896 449.676 173.096 449.868 172.157 449.868C170.899 449.868 169.864 449.575 169.053 448.988C168.253 448.401 167.8 447.601 167.693 446.588H169.917C170.035 446.993 170.285 447.313 170.669 447.548C171.064 447.793 171.539 447.916 172.093 447.916C172.744 447.916 173.272 447.719 173.677 447.324C174.083 446.94 174.285 446.353 174.285 445.564V444.188C173.997 444.604 173.597 444.951 173.085 445.228C172.584 445.505 172.008 445.644 171.357 445.644C170.611 445.644 169.928 445.452 169.309 445.068C168.691 444.684 168.2 444.145 167.837 443.452C167.485 442.748 167.309 441.943 167.309 441.036C167.309 440.14 167.485 439.345 167.837 438.652C168.2 437.959 168.685 437.425 169.293 437.052C169.912 436.679 170.6 436.492 171.357 436.492ZM174.285 441.068C174.285 440.524 174.179 440.06 173.965 439.676C173.752 439.281 173.464 438.983 173.101 438.78C172.739 438.567 172.349 438.46 171.933 438.46C171.517 438.46 171.133 438.561 170.781 438.764C170.429 438.967 170.141 439.265 169.917 439.66C169.704 440.044 169.597 440.503 169.597 441.036C169.597 441.569 169.704 442.039 169.917 442.444C170.141 442.839 170.429 443.143 170.781 443.356C171.144 443.569 171.528 443.676 171.933 443.676C172.349 443.676 172.739 443.575 173.101 443.372C173.464 443.159 173.752 442.86 173.965 442.476C174.179 442.081 174.285 441.612 174.285 441.068ZM179.865 435.58C179.47 435.58 179.14 435.457 178.873 435.212C178.617 434.956 178.489 434.641 178.489 434.268C178.489 433.895 178.617 433.585 178.873 433.34C179.14 433.084 179.47 432.956 179.865 432.956C180.26 432.956 180.585 433.084 180.841 433.34C181.108 433.585 181.241 433.895 181.241 434.268C181.241 434.641 181.108 434.956 180.841 435.212C180.585 435.457 180.26 435.58 179.865 435.58ZM180.969 436.636V445.5H178.729V436.636H180.969ZM186.574 445.644C185.849 445.644 185.198 445.516 184.622 445.26C184.046 444.993 183.587 444.636 183.246 444.188C182.915 443.74 182.734 443.244 182.702 442.7H184.958C185.001 443.041 185.166 443.324 185.454 443.548C185.753 443.772 186.121 443.884 186.558 443.884C186.985 443.884 187.315 443.799 187.55 443.628C187.795 443.457 187.918 443.239 187.918 442.972C187.918 442.684 187.769 442.471 187.47 442.332C187.182 442.183 186.718 442.023 186.078 441.852C185.417 441.692 184.873 441.527 184.446 441.356C184.03 441.185 183.667 440.924 183.358 440.572C183.059 440.22 182.91 439.745 182.91 439.148C182.91 438.657 183.049 438.209 183.326 437.804C183.614 437.399 184.019 437.079 184.542 436.844C185.075 436.609 185.699 436.492 186.414 436.492C187.47 436.492 188.313 436.759 188.942 437.292C189.571 437.815 189.918 438.524 189.982 439.42H187.838C187.806 439.068 187.657 438.791 187.39 438.588C187.134 438.375 186.787 438.268 186.35 438.268C185.945 438.268 185.63 438.343 185.406 438.492C185.193 438.641 185.086 438.849 185.086 439.116C185.086 439.415 185.235 439.644 185.534 439.804C185.833 439.953 186.297 440.108 186.926 440.268C187.566 440.428 188.094 440.593 188.51 440.764C188.926 440.935 189.283 441.201 189.582 441.564C189.891 441.916 190.051 442.385 190.062 442.972C190.062 443.484 189.918 443.943 189.63 444.348C189.353 444.753 188.947 445.073 188.414 445.308C187.891 445.532 187.278 445.644 186.574 445.644ZM194.509 438.476V442.764C194.509 443.063 194.578 443.281 194.717 443.42C194.866 443.548 195.112 443.612 195.453 443.612H196.493V445.5H195.085C193.197 445.5 192.253 444.583 192.253 442.748V438.476H191.197V436.636H192.253V434.444H194.509V436.636H196.493V438.476H194.509ZM206.344 440.876C206.344 441.196 206.323 441.484 206.28 441.74H199.8C199.853 442.38 200.077 442.881 200.472 443.244C200.867 443.607 201.352 443.788 201.928 443.788C202.76 443.788 203.352 443.431 203.704 442.716H206.12C205.864 443.569 205.373 444.273 204.648 444.828C203.923 445.372 203.032 445.644 201.976 445.644C201.123 445.644 200.355 445.457 199.672 445.084C199 444.7 198.472 444.161 198.088 443.468C197.715 442.775 197.528 441.975 197.528 441.068C197.528 440.151 197.715 439.345 198.088 438.652C198.461 437.959 198.984 437.425 199.656 437.052C200.328 436.679 201.101 436.492 201.976 436.492C202.819 436.492 203.571 436.673 204.232 437.036C204.904 437.399 205.421 437.916 205.784 438.588C206.157 439.249 206.344 440.012 206.344 440.876ZM204.024 440.236C204.013 439.66 203.805 439.201 203.4 438.86C202.995 438.508 202.499 438.332 201.912 438.332C201.357 438.332 200.888 438.503 200.504 438.844C200.131 439.175 199.901 439.639 199.816 440.236H204.024ZM210.219 438.012C210.507 437.543 210.88 437.175 211.339 436.908C211.808 436.641 212.342 436.508 212.939 436.508V438.86H212.347C211.643 438.86 211.11 439.025 210.747 439.356C210.395 439.687 210.219 440.263 210.219 441.084V445.5H207.979V436.636H210.219V438.012Z" fill="#D9D9D9"/>
<path d="M46.8874 506.536C46.8874 505.64 47.0634 504.845 47.4154 504.152C47.778 503.459 48.2687 502.925 48.8874 502.552C49.506 502.179 50.194 501.992 50.9514 501.992C51.5274 501.992 52.0767 502.12 52.5994 502.376C53.122 502.621 53.538 502.952 53.8474 503.368V499.16H56.1194V511H53.8474V509.688C53.57 510.125 53.1807 510.477 52.6794 510.744C52.178 511.011 51.5967 511.144 50.9354 511.144C50.1887 511.144 49.506 510.952 48.8874 510.568C48.2687 510.184 47.778 509.645 47.4154 508.952C47.0634 508.248 46.8874 507.443 46.8874 506.536ZM53.8634 506.568C53.8634 506.024 53.7567 505.56 53.5434 505.176C53.33 504.781 53.042 504.483 52.6794 504.28C52.3167 504.067 51.9274 503.96 51.5114 503.96C51.0954 503.96 50.7114 504.061 50.3594 504.264C50.0074 504.467 49.7194 504.765 49.4954 505.16C49.282 505.544 49.1754 506.003 49.1754 506.536C49.1754 507.069 49.282 507.539 49.4954 507.944C49.7194 508.339 50.0074 508.643 50.3594 508.856C50.722 509.069 51.106 509.176 51.5114 509.176C51.9274 509.176 52.3167 509.075 52.6794 508.872C53.042 508.659 53.33 508.36 53.5434 507.976C53.7567 507.581 53.8634 507.112 53.8634 506.568ZM62.2431 511.144C61.3898 511.144 60.6218 510.957 59.9391 510.584C59.2565 510.2 58.7178 509.661 58.3231 508.968C57.9391 508.275 57.7471 507.475 57.7471 506.568C57.7471 505.661 57.9445 504.861 58.3391 504.168C58.7445 503.475 59.2938 502.941 59.9871 502.568C60.6805 502.184 61.4538 501.992 62.3071 501.992C63.1605 501.992 63.9338 502.184 64.6271 502.568C65.3205 502.941 65.8645 503.475 66.2591 504.168C66.6645 504.861 66.8671 505.661 66.8671 506.568C66.8671 507.475 66.6591 508.275 66.2431 508.968C65.8378 509.661 65.2831 510.2 64.5791 510.584C63.8858 510.957 63.1071 511.144 62.2431 511.144ZM62.2431 509.192C62.6485 509.192 63.0271 509.096 63.3791 508.904C63.7418 508.701 64.0298 508.403 64.2431 508.008C64.4565 507.613 64.5631 507.133 64.5631 506.568C64.5631 505.725 64.3391 505.08 63.8911 504.632C63.4538 504.173 62.9151 503.944 62.2751 503.944C61.6351 503.944 61.0965 504.173 60.6591 504.632C60.2325 505.08 60.0191 505.725 60.0191 506.568C60.0191 507.411 60.2271 508.061 60.6431 508.52C61.0698 508.968 61.6031 509.192 62.2431 509.192ZM73.4223 502.008C74.4783 502.008 75.3316 502.344 75.9823 503.016C76.6329 503.677 76.9583 504.605 76.9583 505.8V511H74.7183V506.104C74.7183 505.4 74.5423 504.861 74.1903 504.488C73.8383 504.104 73.3583 503.912 72.7503 503.912C72.1316 503.912 71.6409 504.104 71.2783 504.488C70.9263 504.861 70.7503 505.4 70.7503 506.104V511H68.5103V502.136H70.7503V503.24C71.0489 502.856 71.4276 502.557 71.8863 502.344C72.3556 502.12 72.8676 502.008 73.4223 502.008ZM79.5364 499.832H81.8884L80.1604 503.864H78.6244L79.5364 499.832ZM86.1026 503.976V508.264C86.1026 508.563 86.172 508.781 86.3106 508.92C86.46 509.048 86.7053 509.112 87.0466 509.112H88.0866V511H86.6786C84.7906 511 83.8466 510.083 83.8466 508.248V503.976H82.7906V502.136H83.8466V499.944H86.1026V502.136H88.0866V503.976H86.1026ZM98.5023 502.008C99.1743 502.008 99.7716 502.157 100.294 502.456C100.817 502.744 101.222 503.176 101.51 503.752C101.809 504.317 101.958 505 101.958 505.8V511H99.7183V506.104C99.7183 505.4 99.5423 504.861 99.1903 504.488C98.8383 504.104 98.3583 503.912 97.7503 503.912C97.1316 503.912 96.6409 504.104 96.2783 504.488C95.9263 504.861 95.7503 505.4 95.7503 506.104V511H93.5103V499.16H95.7503V503.24C96.0383 502.856 96.4223 502.557 96.9023 502.344C97.3823 502.12 97.9156 502.008 98.5023 502.008ZM103.512 506.536C103.512 505.64 103.688 504.845 104.04 504.152C104.403 503.459 104.888 502.925 105.496 502.552C106.115 502.179 106.803 501.992 107.56 501.992C108.222 501.992 108.798 502.125 109.288 502.392C109.79 502.659 110.19 502.995 110.488 503.4V502.136H112.744V511H110.488V509.704C110.2 510.12 109.8 510.467 109.288 510.744C108.787 511.011 108.206 511.144 107.544 511.144C106.798 511.144 106.115 510.952 105.496 510.568C104.888 510.184 104.403 509.645 104.04 508.952C103.688 508.248 103.512 507.443 103.512 506.536ZM110.488 506.568C110.488 506.024 110.382 505.56 110.168 505.176C109.955 504.781 109.667 504.483 109.304 504.28C108.942 504.067 108.552 503.96 108.136 503.96C107.72 503.96 107.336 504.061 106.984 504.264C106.632 504.467 106.344 504.765 106.12 505.16C105.907 505.544 105.8 506.003 105.8 506.536C105.8 507.069 105.907 507.539 106.12 507.944C106.344 508.339 106.632 508.643 106.984 508.856C107.347 509.069 107.731 509.176 108.136 509.176C108.552 509.176 108.942 509.075 109.304 508.872C109.667 508.659 109.955 508.36 110.168 507.976C110.382 507.581 110.488 507.112 110.488 506.568ZM118.628 508.936L120.868 502.136H123.252L119.972 511H117.252L113.988 502.136H116.388L118.628 508.936ZM132.75 506.376C132.75 506.696 132.729 506.984 132.686 507.24H126.206C126.26 507.88 126.484 508.381 126.878 508.744C127.273 509.107 127.758 509.288 128.334 509.288C129.166 509.288 129.758 508.931 130.11 508.216H132.526C132.27 509.069 131.78 509.773 131.054 510.328C130.329 510.872 129.438 511.144 128.382 511.144C127.529 511.144 126.761 510.957 126.078 510.584C125.406 510.2 124.878 509.661 124.494 508.968C124.121 508.275 123.934 507.475 123.934 506.568C123.934 505.651 124.121 504.845 124.494 504.152C124.868 503.459 125.39 502.925 126.062 502.552C126.734 502.179 127.508 501.992 128.382 501.992C129.225 501.992 129.977 502.173 130.638 502.536C131.31 502.899 131.828 503.416 132.19 504.088C132.564 504.749 132.75 505.512 132.75 506.376ZM130.43 505.736C130.42 505.16 130.212 504.701 129.806 504.36C129.401 504.008 128.905 503.832 128.318 503.832C127.764 503.832 127.294 504.003 126.91 504.344C126.537 504.675 126.308 505.139 126.222 505.736H130.43ZM137.622 506.536C137.622 505.64 137.798 504.845 138.15 504.152C138.512 503.459 138.998 502.925 139.606 502.552C140.224 502.179 140.912 501.992 141.67 501.992C142.331 501.992 142.907 502.125 143.398 502.392C143.899 502.659 144.299 502.995 144.598 503.4V502.136H146.854V511H144.598V509.704C144.31 510.12 143.91 510.467 143.398 510.744C142.896 511.011 142.315 511.144 141.654 511.144C140.907 511.144 140.224 510.952 139.606 510.568C138.998 510.184 138.512 509.645 138.15 508.952C137.798 508.248 137.622 507.443 137.622 506.536ZM144.598 506.568C144.598 506.024 144.491 505.56 144.278 505.176C144.064 504.781 143.776 504.483 143.414 504.28C143.051 504.067 142.662 503.96 142.246 503.96C141.83 503.96 141.446 504.061 141.094 504.264C140.742 504.467 140.454 504.765 140.23 505.16C140.016 505.544 139.91 506.003 139.91 506.536C139.91 507.069 140.016 507.539 140.23 507.944C140.454 508.339 140.742 508.643 141.094 508.856C141.456 509.069 141.84 509.176 142.246 509.176C142.662 509.176 143.051 509.075 143.414 508.872C143.776 508.659 144.064 508.36 144.278 507.976C144.491 507.581 144.598 507.112 144.598 506.568ZM153.954 502.008C155.01 502.008 155.863 502.344 156.514 503.016C157.164 503.677 157.49 504.605 157.49 505.8V511H155.25V506.104C155.25 505.4 155.074 504.861 154.722 504.488C154.37 504.104 153.89 503.912 153.282 503.912C152.663 503.912 152.172 504.104 151.81 504.488C151.458 504.861 151.282 505.4 151.282 506.104V511H149.042V502.136H151.282V503.24C151.58 502.856 151.959 502.557 152.418 502.344C152.887 502.12 153.399 502.008 153.954 502.008ZM162.856 506.536C162.856 505.64 163.032 504.845 163.384 504.152C163.747 503.459 164.232 502.925 164.84 502.552C165.459 502.179 166.147 501.992 166.904 501.992C167.565 501.992 168.141 502.125 168.632 502.392C169.133 502.659 169.533 502.995 169.832 503.4V502.136H172.088V511H169.832V509.704C169.544 510.12 169.144 510.467 168.632 510.744C168.131 511.011 167.549 511.144 166.888 511.144C166.141 511.144 165.459 510.952 164.84 510.568C164.232 510.184 163.747 509.645 163.384 508.952C163.032 508.248 162.856 507.443 162.856 506.536ZM169.832 506.568C169.832 506.024 169.725 505.56 169.512 505.176C169.299 504.781 169.011 504.483 168.648 504.28C168.285 504.067 167.896 503.96 167.48 503.96C167.064 503.96 166.68 504.061 166.328 504.264C165.976 504.467 165.688 504.765 165.464 505.16C165.251 505.544 165.144 506.003 165.144 506.536C165.144 507.069 165.251 507.539 165.464 507.944C165.688 508.339 165.976 508.643 166.328 508.856C166.691 509.069 167.075 509.176 167.48 509.176C167.896 509.176 168.285 509.075 168.648 508.872C169.011 508.659 169.299 508.36 169.512 507.976C169.725 507.581 169.832 507.112 169.832 506.568ZM173.7 506.568C173.7 505.651 173.887 504.851 174.26 504.168C174.633 503.475 175.151 502.941 175.812 502.568C176.473 502.184 177.231 501.992 178.084 501.992C179.183 501.992 180.089 502.269 180.804 502.824C181.529 503.368 182.015 504.136 182.26 505.128H179.844C179.716 504.744 179.497 504.445 179.188 504.232C178.889 504.008 178.516 503.896 178.068 503.896C177.428 503.896 176.921 504.131 176.548 504.6C176.175 505.059 175.988 505.715 175.988 506.568C175.988 507.411 176.175 508.067 176.548 508.536C176.921 508.995 177.428 509.224 178.068 509.224C178.975 509.224 179.567 508.819 179.844 508.008H182.26C182.015 508.968 181.529 509.731 180.804 510.296C180.079 510.861 179.172 511.144 178.084 511.144C177.231 511.144 176.473 510.957 175.812 510.584C175.151 510.2 174.633 509.667 174.26 508.984C173.887 508.291 173.7 507.485 173.7 506.568ZM183.325 506.568C183.325 505.651 183.512 504.851 183.885 504.168C184.258 503.475 184.776 502.941 185.437 502.568C186.098 502.184 186.856 501.992 187.709 501.992C188.808 501.992 189.714 502.269 190.429 502.824C191.154 503.368 191.64 504.136 191.885 505.128H189.469C189.341 504.744 189.122 504.445 188.813 504.232C188.514 504.008 188.141 503.896 187.693 503.896C187.053 503.896 186.546 504.131 186.173 504.6C185.8 505.059 185.613 505.715 185.613 506.568C185.613 507.411 185.8 508.067 186.173 508.536C186.546 508.995 187.053 509.224 187.693 509.224C188.6 509.224 189.192 508.819 189.469 508.008H191.885C191.64 508.968 191.154 509.731 190.429 510.296C189.704 510.861 188.797 511.144 187.709 511.144C186.856 511.144 186.098 510.957 185.437 510.584C184.776 510.2 184.258 509.667 183.885 508.984C183.512 508.291 183.325 507.485 183.325 506.568ZM197.462 511.144C196.609 511.144 195.841 510.957 195.158 510.584C194.475 510.2 193.937 509.661 193.542 508.968C193.158 508.275 192.966 507.475 192.966 506.568C192.966 505.661 193.163 504.861 193.558 504.168C193.963 503.475 194.513 502.941 195.206 502.568C195.899 502.184 196.673 501.992 197.526 501.992C198.379 501.992 199.153 502.184 199.846 502.568C200.539 502.941 201.083 503.475 201.478 504.168C201.883 504.861 202.086 505.661 202.086 506.568C202.086 507.475 201.878 508.275 201.462 508.968C201.057 509.661 200.502 510.2 199.798 510.584C199.105 510.957 198.326 511.144 197.462 511.144ZM197.462 509.192C197.867 509.192 198.246 509.096 198.598 508.904C198.961 508.701 199.249 508.403 199.462 508.008C199.675 507.613 199.782 507.133 199.782 506.568C199.782 505.725 199.558 505.08 199.11 504.632C198.673 504.173 198.134 503.944 197.494 503.944C196.854 503.944 196.315 504.173 195.878 504.632C195.451 505.08 195.238 505.725 195.238 506.568C195.238 507.411 195.446 508.061 195.862 508.52C196.289 508.968 196.822 509.192 197.462 509.192ZM212.097 502.136V511H209.841V509.88C209.553 510.264 209.174 510.568 208.705 510.792C208.246 511.005 207.745 511.112 207.201 511.112C206.508 511.112 205.894 510.968 205.361 510.68C204.828 510.381 204.406 509.949 204.097 509.384C203.798 508.808 203.649 508.125 203.649 507.336V502.136H205.889V507.016C205.889 507.72 206.065 508.264 206.417 508.648C206.769 509.021 207.249 509.208 207.857 509.208C208.476 509.208 208.961 509.021 209.313 508.648C209.665 508.264 209.841 507.72 209.841 507.016V502.136H212.097ZM219.219 502.008C220.275 502.008 221.128 502.344 221.779 503.016C222.43 503.677 222.755 504.605 222.755 505.8V511H220.515V506.104C220.515 505.4 220.339 504.861 219.987 504.488C219.635 504.104 219.155 503.912 218.547 503.912C217.928 503.912 217.438 504.104 217.075 504.488C216.723 504.861 216.547 505.4 216.547 506.104V511H214.307V502.136H216.547V503.24C216.846 502.856 217.224 502.557 217.683 502.344C218.152 502.12 218.664 502.008 219.219 502.008ZM227.493 503.976V508.264C227.493 508.563 227.563 508.781 227.701 508.92C227.851 509.048 228.096 509.112 228.437 509.112H229.477V511H228.069C226.181 511 225.237 510.083 225.237 508.248V503.976H224.181V502.136H225.237V499.944H227.493V502.136H229.477V503.976H227.493ZM234.208 499.448C235.318 499.448 236.208 499.752 236.88 500.36C237.563 500.957 237.904 501.784 237.904 502.84C237.904 503.885 237.568 504.685 236.896 505.24C236.224 505.784 235.334 506.056 234.224 506.056L234.16 507.288H232.192L232.112 504.568H232.832C233.76 504.568 234.475 504.445 234.976 504.2C235.478 503.955 235.728 503.507 235.728 502.856C235.728 502.387 235.59 502.013 235.312 501.736C235.046 501.459 234.678 501.32 234.208 501.32C233.718 501.32 233.334 501.453 233.056 501.72C232.79 501.987 232.656 502.355 232.656 502.824H230.544C230.534 502.173 230.672 501.592 230.96 501.08C231.248 500.568 231.67 500.168 232.224 499.88C232.79 499.592 233.451 499.448 234.208 499.448ZM233.168 511.112C232.763 511.112 232.427 510.989 232.16 510.744C231.904 510.488 231.776 510.173 231.776 509.8C231.776 509.427 231.904 509.117 232.16 508.872C232.427 508.616 232.763 508.488 233.168 508.488C233.563 508.488 233.888 508.616 234.144 508.872C234.4 509.117 234.528 509.427 234.528 509.8C234.528 510.173 234.4 510.488 234.144 510.744C233.888 510.989 233.563 511.112 233.168 511.112Z" fill="black"/>
<path d="M247.462 511.112C246.641 511.112 245.905 510.979 245.254 510.712C244.604 510.445 244.081 510.051 243.686 509.528C243.302 509.005 243.1 508.376 243.078 507.64H245.99C246.033 508.056 246.177 508.376 246.422 508.6C246.668 508.813 246.988 508.92 247.382 508.92C247.788 508.92 248.108 508.829 248.342 508.648C248.577 508.456 248.694 508.195 248.694 507.864C248.694 507.587 248.598 507.357 248.406 507.176C248.225 506.995 247.996 506.845 247.718 506.728C247.452 506.611 247.068 506.477 246.566 506.328C245.841 506.104 245.249 505.88 244.79 505.656C244.332 505.432 243.937 505.101 243.606 504.664C243.276 504.227 243.11 503.656 243.11 502.952C243.11 501.907 243.489 501.091 244.246 500.504C245.004 499.907 245.99 499.608 247.206 499.608C248.444 499.608 249.441 499.907 250.198 500.504C250.956 501.091 251.361 501.912 251.414 502.968H248.454C248.433 502.605 248.3 502.323 248.054 502.12C247.809 501.907 247.494 501.8 247.11 501.8C246.78 501.8 246.513 501.891 246.31 502.072C246.108 502.243 246.006 502.493 246.006 502.824C246.006 503.187 246.177 503.469 246.518 503.672C246.86 503.875 247.393 504.093 248.118 504.328C248.844 504.573 249.43 504.808 249.878 505.032C250.337 505.256 250.732 505.581 251.062 506.008C251.393 506.435 251.558 506.984 251.558 507.656C251.558 508.296 251.393 508.877 251.062 509.4C250.742 509.923 250.273 510.339 249.654 510.648C249.036 510.957 248.305 511.112 247.462 511.112ZM254.618 501.144C254.138 501.144 253.743 501.005 253.434 500.728C253.135 500.44 252.986 500.088 252.986 499.672C252.986 499.245 253.135 498.893 253.434 498.616C253.743 498.328 254.138 498.184 254.618 498.184C255.087 498.184 255.471 498.328 255.77 498.616C256.079 498.893 256.234 499.245 256.234 499.672C256.234 500.088 256.079 500.44 255.77 500.728C255.471 501.005 255.087 501.144 254.618 501.144ZM255.978 502.072V511H253.242V502.072H255.978ZM261.353 501.944C261.982 501.944 262.531 502.072 263.001 502.328C263.481 502.584 263.849 502.92 264.105 503.336V502.072H266.841V510.984C266.841 511.805 266.675 512.547 266.345 513.208C266.025 513.88 265.529 514.413 264.857 514.808C264.195 515.203 263.369 515.4 262.377 515.4C261.054 515.4 259.982 515.085 259.161 514.456C258.339 513.837 257.87 512.995 257.753 511.928H260.457C260.542 512.269 260.745 512.536 261.065 512.728C261.385 512.931 261.779 513.032 262.249 513.032C262.814 513.032 263.262 512.867 263.593 512.536C263.934 512.216 264.105 511.699 264.105 510.984V509.72C263.838 510.136 263.47 510.477 263.001 510.744C262.531 511 261.982 511.128 261.353 511.128C260.617 511.128 259.95 510.941 259.353 510.568C258.755 510.184 258.281 509.645 257.929 508.952C257.587 508.248 257.417 507.437 257.417 506.52C257.417 505.603 257.587 504.797 257.929 504.104C258.281 503.411 258.755 502.877 259.353 502.504C259.95 502.131 260.617 501.944 261.353 501.944ZM264.105 506.536C264.105 505.853 263.913 505.315 263.529 504.92C263.155 504.525 262.697 504.328 262.153 504.328C261.609 504.328 261.145 504.525 260.761 504.92C260.387 505.304 260.201 505.837 260.201 506.52C260.201 507.203 260.387 507.747 260.761 508.152C261.145 508.547 261.609 508.744 262.153 508.744C262.697 508.744 263.155 508.547 263.529 508.152C263.913 507.757 264.105 507.219 264.105 506.536ZM274.26 501.976C275.305 501.976 276.137 502.317 276.756 503C277.385 503.672 277.7 504.6 277.7 505.784V511H274.98V506.152C274.98 505.555 274.825 505.091 274.516 504.76C274.207 504.429 273.791 504.264 273.268 504.264C272.745 504.264 272.329 504.429 272.02 504.76C271.711 505.091 271.556 505.555 271.556 506.152V511H268.82V502.072H271.556V503.256C271.833 502.861 272.207 502.552 272.676 502.328C273.145 502.093 273.673 501.976 274.26 501.976ZM291.808 502.072V511H289.072V509.784C288.795 510.179 288.416 510.499 287.936 510.744C287.467 510.979 286.944 511.096 286.368 511.096C285.685 511.096 285.083 510.947 284.56 510.648C284.037 510.339 283.632 509.896 283.344 509.32C283.056 508.744 282.912 508.067 282.912 507.288V502.072H285.632V506.92C285.632 507.517 285.787 507.981 286.096 508.312C286.405 508.643 286.821 508.808 287.344 508.808C287.877 508.808 288.299 508.643 288.608 508.312C288.917 507.981 289.072 507.517 289.072 506.92V502.072H291.808ZM296.509 503.336C296.776 502.92 297.144 502.584 297.613 502.328C298.083 502.072 298.632 501.944 299.261 501.944C299.997 501.944 300.664 502.131 301.261 502.504C301.859 502.877 302.328 503.411 302.669 504.104C303.021 504.797 303.197 505.603 303.197 506.52C303.197 507.437 303.021 508.248 302.669 508.952C302.328 509.645 301.859 510.184 301.261 510.568C300.664 510.941 299.997 511.128 299.261 511.128C298.643 511.128 298.093 511 297.613 510.744C297.144 510.488 296.776 510.157 296.509 509.752V515.256H293.773V502.072H296.509V503.336ZM300.413 506.52C300.413 505.837 300.221 505.304 299.837 504.92C299.464 504.525 299 504.328 298.445 504.328C297.901 504.328 297.437 504.525 297.053 504.92C296.68 505.315 296.493 505.853 296.493 506.536C296.493 507.219 296.68 507.757 297.053 508.152C297.437 508.547 297.901 508.744 298.445 508.744C298.989 508.744 299.453 508.547 299.837 508.152C300.221 507.747 300.413 507.203 300.413 506.52Z" fill="#00529E"/>
<ellipse cx="47" cy="21" rx="51" ry="54" fill="#070616"/>
<ellipse cx="92.5" cy="-4" rx="39.5" ry="39" fill="#070616"/>
<circle cx="1" cy="72" r="50" fill="#070616"/>
<ellipse cx="309" cy="47" rx="43" ry="38" fill="#09013A"/>
<path d="M288.597 50V38.3636H291.058V47.9716H296.046V50H288.597ZM307.915 44.1818C307.915 45.4508 307.675 46.5303 307.194 47.4205C306.717 48.3106 306.065 48.9905 305.239 49.4602C304.417 49.9261 303.493 50.1591 302.467 50.1591C301.433 50.1591 300.504 49.9242 299.683 49.4545C298.861 48.9848 298.211 48.3049 297.734 47.4148C297.256 46.5246 297.018 45.447 297.018 44.1818C297.018 42.9129 297.256 41.8333 297.734 40.9432C298.211 40.053 298.861 39.375 299.683 38.9091C300.504 38.4394 301.433 38.2045 302.467 38.2045C303.493 38.2045 304.417 38.4394 305.239 38.9091C306.065 39.375 306.717 40.053 307.194 40.9432C307.675 41.8333 307.915 42.9129 307.915 44.1818ZM305.421 44.1818C305.421 43.3598 305.298 42.6667 305.052 42.1023C304.809 41.5379 304.467 41.1098 304.023 40.8182C303.58 40.5265 303.061 40.3807 302.467 40.3807C301.872 40.3807 301.353 40.5265 300.91 40.8182C300.467 41.1098 300.122 41.5379 299.876 42.1023C299.633 42.6667 299.512 43.3598 299.512 44.1818C299.512 45.0038 299.633 45.697 299.876 46.2614C300.122 46.8258 300.467 47.2538 300.91 47.5455C301.353 47.8371 301.872 47.983 302.467 47.983C303.061 47.983 303.58 47.8371 304.023 47.5455C304.467 47.2538 304.809 46.8258 305.052 46.2614C305.298 45.697 305.421 45.0038 305.421 44.1818ZM317.454 42.125C317.374 41.8485 317.263 41.6042 317.119 41.392C316.975 41.1761 316.799 40.9943 316.59 40.8466C316.386 40.6951 316.151 40.5795 315.886 40.5C315.624 40.4205 315.335 40.3807 315.016 40.3807C314.422 40.3807 313.899 40.5284 313.448 40.8239C313.001 41.1193 312.653 41.5492 312.403 42.1136C312.153 42.6742 312.028 43.3598 312.028 44.1705C312.028 44.9811 312.151 45.6705 312.397 46.2386C312.643 46.8068 312.992 47.2405 313.442 47.5398C313.893 47.8352 314.425 47.983 315.039 47.983C315.596 47.983 316.071 47.8845 316.465 47.6875C316.863 47.4867 317.166 47.2045 317.374 46.8409C317.586 46.4773 317.692 46.0473 317.692 45.5511L318.192 45.625H315.192V43.7727H320.062V45.2386C320.062 46.2614 319.846 47.1402 319.414 47.875C318.982 48.6061 318.388 49.1705 317.63 49.5682C316.872 49.9621 316.005 50.1591 315.028 50.1591C313.937 50.1591 312.978 49.9186 312.153 49.4375C311.327 48.9527 310.683 48.2652 310.221 47.375C309.763 46.4811 309.533 45.4205 309.533 44.1932C309.533 43.25 309.67 42.4091 309.942 41.6705C310.219 40.928 310.605 40.2992 311.102 39.7841C311.598 39.2689 312.175 38.8769 312.835 38.608C313.494 38.339 314.208 38.2045 314.977 38.2045C315.636 38.2045 316.249 38.3011 316.817 38.4943C317.386 38.6837 317.889 38.9527 318.329 39.3011C318.772 39.6496 319.134 40.0644 319.414 40.5455C319.694 41.0227 319.874 41.5492 319.954 42.125H317.454ZM332.603 44.1818C332.603 45.4508 332.362 46.5303 331.881 47.4205C331.404 48.3106 330.753 48.9905 329.927 49.4602C329.105 49.9261 328.181 50.1591 327.154 50.1591C326.12 50.1591 325.192 49.9242 324.37 49.4545C323.548 48.9848 322.898 48.3049 322.421 47.4148C321.944 46.5246 321.705 45.447 321.705 44.1818C321.705 42.9129 321.944 41.8333 322.421 40.9432C322.898 40.053 323.548 39.375 324.37 38.9091C325.192 38.4394 326.12 38.2045 327.154 38.2045C328.181 38.2045 329.105 38.4394 329.927 38.9091C330.753 39.375 331.404 40.053 331.881 40.9432C332.362 41.8333 332.603 42.9129 332.603 44.1818ZM330.109 44.1818C330.109 43.3598 329.986 42.6667 329.739 42.1023C329.497 41.5379 329.154 41.1098 328.711 40.8182C328.268 40.5265 327.749 40.3807 327.154 40.3807C326.559 40.3807 326.04 40.5265 325.597 40.8182C325.154 41.1098 324.809 41.5379 324.563 42.1023C324.321 42.6667 324.2 43.3598 324.2 44.1818C324.2 45.0038 324.321 45.697 324.563 46.2614C324.809 46.8258 325.154 47.2538 325.597 47.5455C326.04 47.8371 326.559 47.983 327.154 47.983C327.749 47.983 328.268 47.8371 328.711 47.5455C329.154 47.2538 329.497 46.8258 329.739 46.2614C329.986 45.697 330.109 45.0038 330.109 44.1818Z" fill="#FCFAFA"/>
<g filter="url(#filter0_d_31_59)">
<rect x="53" y="246" width="254" height="138" rx="25" fill="white" fill-opacity="0.65" shape-rendering="crispEdges"/>
<rect x="51" y="244" width="258" height="142" rx="27" stroke="#070616" stroke-width="4" shape-rendering="crispEdges"/>
<g filter="url(#filter1_d_31_59)">
<rect x="68.5" y="276.5" width="223" height="27" rx="13.5" stroke="#09013A" stroke-width="2" shape-rendering="crispEdges"/>
<path d="M89.962 291.087C89.962 291.399 89.9533 291.637 89.936 291.802H84.047C84.073 292.339 84.203 292.799 84.437 293.18C84.671 293.561 84.9787 293.852 85.36 294.051C85.7413 294.242 86.1573 294.337 86.608 294.337C87.1973 294.337 87.6913 294.194 88.09 293.908C88.4973 293.622 88.766 293.236 88.896 292.751H89.858C89.6847 293.444 89.312 294.012 88.74 294.454C88.1767 294.887 87.466 295.104 86.608 295.104C85.9407 295.104 85.3427 294.957 84.814 294.662C84.2853 294.359 83.8693 293.934 83.566 293.388C83.2713 292.833 83.124 292.188 83.124 291.451C83.124 290.714 83.2713 290.069 83.566 289.514C83.8607 288.959 84.2723 288.535 84.801 288.24C85.3297 287.945 85.932 287.798 86.608 287.798C87.284 287.798 87.8733 287.945 88.376 288.24C88.8873 288.535 89.2773 288.933 89.546 289.436C89.8233 289.93 89.962 290.48 89.962 291.087ZM89.039 291.061C89.0477 290.532 88.9393 290.082 88.714 289.709C88.4973 289.336 88.1983 289.055 87.817 288.864C87.4357 288.673 87.0197 288.578 86.569 288.578C85.893 288.578 85.3167 288.795 84.84 289.228C84.3633 289.661 84.099 290.272 84.047 291.061H89.039ZM94.9549 287.772C95.8042 287.772 96.4976 288.036 97.0349 288.565C97.5722 289.085 97.8409 289.843 97.8409 290.84V295H96.9439V290.944C96.9439 290.173 96.7489 289.583 96.3589 289.176C95.9776 288.769 95.4532 288.565 94.7859 288.565C94.1012 288.565 93.5552 288.782 93.1479 289.215C92.7406 289.648 92.5369 290.285 92.5369 291.126V295H91.6269V287.902H92.5369V289.111C92.7622 288.678 93.0872 288.348 93.5119 288.123C93.9366 287.889 94.4176 287.772 94.9549 287.772ZM101.036 288.669V293.076C101.036 293.509 101.119 293.808 101.283 293.973C101.448 294.138 101.738 294.22 102.154 294.22H102.986V295H102.011C101.37 295 100.893 294.853 100.581 294.558C100.269 294.255 100.113 293.761 100.113 293.076V288.669H99.1255V287.902H100.113V286.121H101.036V287.902H102.986V288.669H101.036ZM110.909 291.087C110.909 291.399 110.901 291.637 110.883 291.802H104.994C105.02 292.339 105.15 292.799 105.384 293.18C105.618 293.561 105.926 293.852 106.307 294.051C106.689 294.242 107.105 294.337 107.555 294.337C108.145 294.337 108.639 294.194 109.037 293.908C109.445 293.622 109.713 293.236 109.843 292.751H110.805C110.632 293.444 110.259 294.012 109.687 294.454C109.124 294.887 108.413 295.104 107.555 295.104C106.888 295.104 106.29 294.957 105.761 294.662C105.233 294.359 104.817 293.934 104.513 293.388C104.219 292.833 104.071 292.188 104.071 291.451C104.071 290.714 104.219 290.069 104.513 289.514C104.808 288.959 105.22 288.535 105.748 288.24C106.277 287.945 106.879 287.798 107.555 287.798C108.231 287.798 108.821 287.945 109.323 288.24C109.835 288.535 110.225 288.933 110.493 289.436C110.771 289.93 110.909 290.48 110.909 291.087ZM109.986 291.061C109.995 290.532 109.887 290.082 109.661 289.709C109.445 289.336 109.146 289.055 108.764 288.864C108.383 288.673 107.967 288.578 107.516 288.578C106.84 288.578 106.264 288.795 105.787 289.228C105.311 289.661 105.046 290.272 104.994 291.061H109.986ZM113.484 289.163C113.684 288.721 113.987 288.379 114.394 288.136C114.81 287.893 115.317 287.772 115.915 287.772V288.721H115.668C115.01 288.721 114.481 288.899 114.082 289.254C113.684 289.609 113.484 290.203 113.484 291.035V295H112.574V287.902H113.484V289.163ZM127.274 291.087C127.274 291.399 127.265 291.637 127.248 291.802H121.359C121.385 292.339 121.515 292.799 121.749 293.18C121.983 293.561 122.29 293.852 122.672 294.051C123.053 294.242 123.469 294.337 123.92 294.337C124.509 294.337 125.003 294.194 125.402 293.908C125.809 293.622 126.078 293.236 126.208 292.751H127.17C126.996 293.444 126.624 294.012 126.052 294.454C125.488 294.887 124.778 295.104 123.92 295.104C123.252 295.104 122.654 294.957 122.126 294.662C121.597 294.359 121.181 293.934 120.878 293.388C120.583 292.833 120.436 292.188 120.436 291.451C120.436 290.714 120.583 290.069 120.878 289.514C121.172 288.959 121.584 288.535 122.113 288.24C122.641 287.945 123.244 287.798 123.92 287.798C124.596 287.798 125.185 287.945 125.688 288.24C126.199 288.535 126.589 288.933 126.858 289.436C127.135 289.93 127.274 290.48 127.274 291.087ZM126.351 291.061C126.359 290.532 126.251 290.082 126.026 289.709C125.809 289.336 125.51 289.055 125.129 288.864C124.747 288.673 124.331 288.578 123.881 288.578C123.205 288.578 122.628 288.795 122.152 289.228C121.675 289.661 121.411 290.272 121.359 291.061H126.351ZM137.388 287.772C138.22 287.772 138.896 288.036 139.416 288.565C139.945 289.085 140.209 289.843 140.209 290.84V295H139.312V290.944C139.312 290.173 139.126 289.583 138.753 289.176C138.381 288.769 137.874 288.565 137.232 288.565C136.565 288.565 136.032 288.786 135.633 289.228C135.235 289.67 135.035 290.311 135.035 291.152V295H134.138V290.944C134.138 290.173 133.952 289.583 133.579 289.176C133.207 288.769 132.695 288.565 132.045 288.565C131.378 288.565 130.845 288.786 130.446 289.228C130.048 289.67 129.848 290.311 129.848 291.152V295H128.938V287.902H129.848V289.124C130.074 288.682 130.394 288.348 130.81 288.123C131.226 287.889 131.69 287.772 132.201 287.772C132.817 287.772 133.354 287.919 133.813 288.214C134.281 288.509 134.619 288.942 134.827 289.514C135.018 288.951 135.343 288.522 135.802 288.227C136.27 287.924 136.799 287.772 137.388 287.772ZM141.814 291.438C141.814 290.71 141.957 290.073 142.243 289.527C142.538 288.972 142.941 288.548 143.452 288.253C143.972 287.95 144.557 287.798 145.207 287.798C145.883 287.798 146.464 287.954 146.949 288.266C147.443 288.578 147.799 288.977 148.015 289.462V287.902H148.925V295H148.015V293.427C147.79 293.912 147.43 294.315 146.936 294.636C146.451 294.948 145.87 295.104 145.194 295.104C144.553 295.104 143.972 294.952 143.452 294.649C142.941 294.346 142.538 293.917 142.243 293.362C141.957 292.807 141.814 292.166 141.814 291.438ZM148.015 291.451C148.015 290.879 147.898 290.376 147.664 289.943C147.43 289.51 147.11 289.176 146.702 288.942C146.304 288.708 145.862 288.591 145.376 288.591C144.874 288.591 144.423 288.704 144.024 288.929C143.626 289.154 143.309 289.484 143.075 289.917C142.85 290.342 142.737 290.849 142.737 291.438C142.737 292.019 142.85 292.53 143.075 292.972C143.309 293.405 143.626 293.739 144.024 293.973C144.423 294.198 144.874 294.311 145.376 294.311C145.862 294.311 146.304 294.194 146.702 293.96C147.11 293.726 147.43 293.392 147.664 292.959C147.898 292.526 148.015 292.023 148.015 291.451ZM151.458 286.563C151.276 286.563 151.12 286.498 150.99 286.368C150.86 286.238 150.795 286.078 150.795 285.887C150.795 285.696 150.86 285.54 150.99 285.419C151.12 285.289 151.276 285.224 151.458 285.224C151.64 285.224 151.796 285.289 151.926 285.419C152.056 285.54 152.121 285.696 152.121 285.887C152.121 286.078 152.056 286.238 151.926 286.368C151.796 286.498 151.64 286.563 151.458 286.563ZM151.913 287.902V295H151.003V287.902H151.913ZM154.884 285.38V295H153.974V285.38H154.884Z" fill="black"/>
</g>
<g filter="url(#filter2_d_31_59)">
<rect x="68.5" y="326.5" width="223" height="27" rx="13.5" stroke="#09013A" stroke-width="2" shape-rendering="crispEdges"/>
<path d="M89.962 341.087C89.962 341.399 89.9533 341.637 89.936 341.802H84.047C84.073 342.339 84.203 342.799 84.437 343.18C84.671 343.561 84.9787 343.852 85.36 344.051C85.7413 344.242 86.1573 344.337 86.608 344.337C87.1973 344.337 87.6913 344.194 88.09 343.908C88.4973 343.622 88.766 343.236 88.896 342.751H89.858C89.6847 343.444 89.312 344.012 88.74 344.454C88.1767 344.887 87.466 345.104 86.608 345.104C85.9407 345.104 85.3427 344.957 84.814 344.662C84.2853 344.359 83.8693 343.934 83.566 343.388C83.2713 342.833 83.124 342.188 83.124 341.451C83.124 340.714 83.2713 340.069 83.566 339.514C83.8607 338.959 84.2723 338.535 84.801 338.24C85.3297 337.945 85.932 337.798 86.608 337.798C87.284 337.798 87.8733 337.945 88.376 338.24C88.8873 338.535 89.2773 338.933 89.546 339.436C89.8233 339.93 89.962 340.48 89.962 341.087ZM89.039 341.061C89.0477 340.532 88.9393 340.082 88.714 339.709C88.4973 339.336 88.1983 339.055 87.817 338.864C87.4357 338.673 87.0197 338.578 86.569 338.578C85.893 338.578 85.3167 338.795 84.84 339.228C84.3633 339.661 84.099 340.272 84.047 341.061H89.039ZM94.9549 337.772C95.8042 337.772 96.4976 338.036 97.0349 338.565C97.5722 339.085 97.8409 339.843 97.8409 340.84V345H96.9439V340.944C96.9439 340.173 96.7489 339.583 96.3589 339.176C95.9776 338.769 95.4532 338.565 94.7859 338.565C94.1012 338.565 93.5552 338.782 93.1479 339.215C92.7406 339.648 92.5369 340.285 92.5369 341.126V345H91.6269V337.902H92.5369V339.111C92.7622 338.678 93.0872 338.348 93.5119 338.123C93.9366 337.889 94.4176 337.772 94.9549 337.772ZM101.036 338.669V343.076C101.036 343.509 101.119 343.808 101.283 343.973C101.448 344.138 101.738 344.22 102.154 344.22H102.986V345H102.011C101.37 345 100.893 344.853 100.581 344.558C100.269 344.255 100.113 343.761 100.113 343.076V338.669H99.1255V337.902H100.113V336.121H101.036V337.902H102.986V338.669H101.036ZM110.909 341.087C110.909 341.399 110.901 341.637 110.883 341.802H104.994C105.02 342.339 105.15 342.799 105.384 343.18C105.618 343.561 105.926 343.852 106.307 344.051C106.689 344.242 107.105 344.337 107.555 344.337C108.145 344.337 108.639 344.194 109.037 343.908C109.445 343.622 109.713 343.236 109.843 342.751H110.805C110.632 343.444 110.259 344.012 109.687 344.454C109.124 344.887 108.413 345.104 107.555 345.104C106.888 345.104 106.29 344.957 105.761 344.662C105.233 344.359 104.817 343.934 104.513 343.388C104.219 342.833 104.071 342.188 104.071 341.451C104.071 340.714 104.219 340.069 104.513 339.514C104.808 338.959 105.22 338.535 105.748 338.24C106.277 337.945 106.879 337.798 107.555 337.798C108.231 337.798 108.821 337.945 109.323 338.24C109.835 338.535 110.225 338.933 110.493 339.436C110.771 339.93 110.909 340.48 110.909 341.087ZM109.986 341.061C109.995 340.532 109.887 340.082 109.661 339.709C109.445 339.336 109.146 339.055 108.764 338.864C108.383 338.673 107.967 338.578 107.516 338.578C106.84 338.578 106.264 338.795 105.787 339.228C105.311 339.661 105.046 340.272 104.994 341.061H109.986ZM113.484 339.163C113.684 338.721 113.987 338.379 114.394 338.136C114.81 337.893 115.317 337.772 115.915 337.772V338.721H115.668C115.01 338.721 114.481 338.899 114.082 339.254C113.684 339.609 113.484 340.203 113.484 341.035V345H112.574V337.902H113.484V339.163ZM121.749 339.462C121.974 338.985 122.329 338.591 122.815 338.279C123.309 337.958 123.894 337.798 124.57 337.798C125.211 337.798 125.787 337.95 126.299 338.253C126.819 338.548 127.222 338.972 127.508 339.527C127.802 340.073 127.95 340.71 127.95 341.438C127.95 342.166 127.802 342.807 127.508 343.362C127.222 343.917 126.819 344.346 126.299 344.649C125.787 344.952 125.211 345.104 124.57 345.104C123.902 345.104 123.322 344.948 122.828 344.636C122.334 344.315 121.974 343.917 121.749 343.44V348.354H120.852V337.902H121.749V339.462ZM127.027 341.438C127.027 340.849 126.91 340.342 126.676 339.917C126.45 339.484 126.138 339.154 125.74 338.929C125.341 338.704 124.89 338.591 124.388 338.591C123.902 338.591 123.456 338.708 123.049 338.942C122.65 339.176 122.334 339.51 122.1 339.943C121.866 340.376 121.749 340.879 121.749 341.451C121.749 342.023 121.866 342.526 122.1 342.959C122.334 343.392 122.65 343.726 123.049 343.96C123.456 344.194 123.902 344.311 124.388 344.311C124.89 344.311 125.341 344.198 125.74 343.973C126.138 343.739 126.45 343.405 126.676 342.972C126.91 342.53 127.027 342.019 127.027 341.438ZM129.208 341.438C129.208 340.71 129.351 340.073 129.637 339.527C129.932 338.972 130.335 338.548 130.846 338.253C131.366 337.95 131.951 337.798 132.601 337.798C133.277 337.798 133.858 337.954 134.343 338.266C134.837 338.578 135.192 338.977 135.409 339.462V337.902H136.319V345H135.409V343.427C135.184 343.912 134.824 344.315 134.33 344.636C133.845 344.948 133.264 345.104 132.588 345.104C131.947 345.104 131.366 344.952 130.846 344.649C130.335 344.346 129.932 343.917 129.637 343.362C129.351 342.807 129.208 342.166 129.208 341.438ZM135.409 341.451C135.409 340.879 135.292 340.376 135.058 339.943C134.824 339.51 134.503 339.176 134.096 338.942C133.697 338.708 133.255 338.591 132.77 338.591C132.267 338.591 131.817 338.704 131.418 338.929C131.019 339.154 130.703 339.484 130.469 339.917C130.244 340.342 130.131 340.849 130.131 341.438C130.131 342.019 130.244 342.53 130.469 342.972C130.703 343.405 131.019 343.739 131.418 343.973C131.817 344.198 132.267 344.311 132.77 344.311C133.255 344.311 133.697 344.194 134.096 343.96C134.503 343.726 134.824 343.392 135.058 342.959C135.292 342.526 135.409 342.023 135.409 341.451ZM140.84 345.104C140.026 345.104 139.358 344.918 138.838 344.545C138.327 344.164 138.041 343.648 137.98 342.998H138.916C138.96 343.397 139.146 343.722 139.475 343.973C139.813 344.216 140.264 344.337 140.827 344.337C141.321 344.337 141.707 344.22 141.984 343.986C142.27 343.752 142.413 343.462 142.413 343.115C142.413 342.872 142.335 342.673 142.179 342.517C142.023 342.361 141.824 342.24 141.581 342.153C141.347 342.058 141.027 341.958 140.619 341.854C140.091 341.715 139.662 341.577 139.332 341.438C139.003 341.299 138.721 341.096 138.487 340.827C138.262 340.55 138.149 340.181 138.149 339.722C138.149 339.375 138.253 339.055 138.461 338.76C138.669 338.465 138.964 338.231 139.345 338.058C139.727 337.885 140.16 337.798 140.645 337.798C141.408 337.798 142.023 337.993 142.491 338.383C142.959 338.764 143.211 339.293 143.245 339.969H142.335C142.309 339.553 142.145 339.219 141.841 338.968C141.547 338.708 141.139 338.578 140.619 338.578C140.16 338.578 139.787 338.686 139.501 338.903C139.215 339.12 139.072 339.388 139.072 339.709C139.072 339.986 139.155 340.216 139.319 340.398C139.493 340.571 139.705 340.71 139.956 340.814C140.208 340.909 140.546 341.018 140.97 341.139C141.482 341.278 141.889 341.412 142.192 341.542C142.496 341.672 142.756 341.863 142.972 342.114C143.189 342.365 143.302 342.699 143.31 343.115C143.31 343.496 143.206 343.839 142.998 344.142C142.79 344.437 142.5 344.671 142.127 344.844C141.755 345.017 141.326 345.104 140.84 345.104ZM147.467 345.104C146.653 345.104 145.985 344.918 145.465 344.545C144.954 344.164 144.668 343.648 144.607 342.998H145.543C145.587 343.397 145.773 343.722 146.102 343.973C146.44 344.216 146.891 344.337 147.454 344.337C147.948 344.337 148.334 344.22 148.611 343.986C148.897 343.752 149.04 343.462 149.04 343.115C149.04 342.872 148.962 342.673 148.806 342.517C148.65 342.361 148.451 342.24 148.208 342.153C147.974 342.058 147.654 341.958 147.246 341.854C146.718 341.715 146.289 341.577 145.959 341.438C145.63 341.299 145.348 341.096 145.114 340.827C144.889 340.55 144.776 340.181 144.776 339.722C144.776 339.375 144.88 339.055 145.088 338.76C145.296 338.465 145.591 338.231 145.972 338.058C146.354 337.885 146.787 337.798 147.272 337.798C148.035 337.798 148.65 337.993 149.118 338.383C149.586 338.764 149.838 339.293 149.872 339.969H148.962C148.936 339.553 148.772 339.219 148.468 338.968C148.174 338.708 147.766 338.578 147.246 338.578C146.787 338.578 146.414 338.686 146.128 338.903C145.842 339.12 145.699 339.388 145.699 339.709C145.699 339.986 145.782 340.216 145.946 340.398C146.12 340.571 146.332 340.71 146.583 340.814C146.835 340.909 147.173 341.018 147.597 341.139C148.109 341.278 148.516 341.412 148.819 341.542C149.123 341.672 149.383 341.863 149.599 342.114C149.816 342.365 149.929 342.699 149.937 343.115C149.937 343.496 149.833 343.839 149.625 344.142C149.417 344.437 149.127 344.671 148.754 344.844C148.382 345.017 147.953 345.104 147.467 345.104ZM161.01 337.902L158.787 345H157.877L155.914 339.046L153.951 345H153.028L150.805 337.902H151.728L153.496 344.077L155.485 337.902H156.395L158.358 344.09L160.113 337.902H161.01ZM165.358 345.104C164.691 345.104 164.088 344.957 163.551 344.662C163.022 344.359 162.602 343.934 162.29 343.388C161.987 342.833 161.835 342.188 161.835 341.451C161.835 340.714 161.991 340.073 162.303 339.527C162.615 338.972 163.04 338.548 163.577 338.253C164.114 337.95 164.717 337.798 165.384 337.798C166.051 337.798 166.654 337.95 167.191 338.253C167.737 338.548 168.162 338.972 168.465 339.527C168.777 340.073 168.933 340.714 168.933 341.451C168.933 342.179 168.777 342.82 168.465 343.375C168.153 343.93 167.724 344.359 167.178 344.662C166.632 344.957 166.025 345.104 165.358 345.104ZM165.358 344.311C165.826 344.311 166.259 344.207 166.658 343.999C167.057 343.782 167.377 343.462 167.62 343.037C167.871 342.604 167.997 342.075 167.997 341.451C167.997 340.827 167.876 340.303 167.633 339.878C167.39 339.445 167.07 339.124 166.671 338.916C166.272 338.699 165.839 338.591 165.371 338.591C164.903 338.591 164.47 338.699 164.071 338.916C163.672 339.124 163.352 339.445 163.109 339.878C162.875 340.303 162.758 340.827 162.758 341.451C162.758 342.075 162.875 342.604 163.109 343.037C163.352 343.462 163.668 343.782 164.058 343.999C164.457 344.207 164.89 344.311 165.358 344.311ZM171.502 339.163C171.701 338.721 172.004 338.379 172.412 338.136C172.828 337.893 173.335 337.772 173.933 337.772V338.721H173.686C173.027 338.721 172.498 338.899 172.1 339.254C171.701 339.609 171.502 340.203 171.502 341.035V345H170.592V337.902H171.502V339.163ZM174.886 341.438C174.886 340.71 175.033 340.073 175.328 339.527C175.622 338.972 176.025 338.548 176.537 338.253C177.057 337.95 177.642 337.798 178.292 337.798C178.916 337.798 179.479 337.95 179.982 338.253C180.484 338.556 180.853 338.951 181.087 339.436V335.38H181.997V345H181.087V343.414C180.87 343.908 180.515 344.315 180.021 344.636C179.527 344.948 178.946 345.104 178.279 345.104C177.629 345.104 177.044 344.952 176.524 344.649C176.012 344.346 175.609 343.917 175.315 343.362C175.029 342.807 174.886 342.166 174.886 341.438ZM181.087 341.451C181.087 340.879 180.97 340.376 180.736 339.943C180.502 339.51 180.181 339.176 179.774 338.942C179.375 338.708 178.933 338.591 178.448 338.591C177.945 338.591 177.494 338.704 177.096 338.929C176.697 339.154 176.381 339.484 176.147 339.917C175.921 340.342 175.809 340.849 175.809 341.438C175.809 342.019 175.921 342.53 176.147 342.972C176.381 343.405 176.697 343.739 177.096 343.973C177.494 344.198 177.945 344.311 178.448 344.311C178.933 344.311 179.375 344.194 179.774 343.96C180.181 343.726 180.502 343.392 180.736 342.959C180.97 342.526 181.087 342.023 181.087 341.451Z" fill="black"/>
</g>
</g>
</g>
<defs>
<filter id="filter0_d_31_59" x="43" y="237" width="284" height="168" filterUnits="userSpaceOnUse" color-interpolation-filters="sRGB">
<feFlood flood-opacity="0" result="BackgroundImageFix"/>
<feColorMatrix in="SourceAlpha" type="matrix" values="0 0 0 0 0 0 0 0 0 0 0 0 0 0 0 0 0 0 127 0" result="hardAlpha"/>
<feMorphology radius="2" operator="dilate" in="SourceAlpha" result="effect1_dropShadow_31_59"/>
<feOffset dx="5" dy="6"/>
<feGaussianBlur stdDeviation="4.5"/>
<feComposite in2="hardAlpha" operator="out"/>
<feColorMatrix type="matrix" values="0 0 0 0 0 0 0 0 0 0 0 0 0 0 0 0 0 0 0.16 0"/>
<feBlend mode="normal" in2="BackgroundImageFix" result="effect1_dropShadow_31_59"/>
<feBlend mode="normal" in="SourceGraphic" in2="effect1_dropShadow_31_59" result="shape"/>
</filter>
<filter id="filter1_d_31_59" x="63.5" y="275.5" width="233" height="37" filterUnits="userSpaceOnUse" color-interpolation-filters="sRGB">
<feFlood flood-opacity="0" result="BackgroundImageFix"/>
<feColorMatrix in="SourceAlpha" type="matrix" values="0 0 0 0 0 0 0 0 0 0 0 0 0 0 0 0 0 0 127 0" result="hardAlpha"/>
<feOffset dy="4"/>
<feGaussianBlur stdDeviation="2"/>
<feComposite in2="hardAlpha" operator="out"/>
<feColorMatrix type="matrix" values="0 0 0 0 0 0 0 0 0 0 0 0 0 0 0 0 0 0 0.16 0"/>
<feBlend mode="normal" in2="BackgroundImageFix" result="effect1_dropShadow_31_59"/>
<feBlend mode="normal" in="SourceGraphic" in2="effect1_dropShadow_31_59" result="shape"/>
</filter>
<filter id="filter2_d_31_59" x="63.5" y="325.5" width="233" height="37" filterUnits="userSpaceOnUse" color-interpolation-filters="sRGB">
<feFlood flood-opacity="0" result="BackgroundImageFix"/>
<feColorMatrix in="SourceAlpha" type="matrix" values="0 0 0 0 0 0 0 0 0 0 0 0 0 0 0 0 0 0 127 0" result="hardAlpha"/>
<feOffset dy="4"/>
<feGaussianBlur stdDeviation="2"/>
<feComposite in2="hardAlpha" operator="out"/>
<feColorMatrix type="matrix" values="0 0 0 0 0 0 0 0 0 0 0 0 0 0 0 0 0 0 0.16 0"/>
<feBlend mode="normal" in2="BackgroundImageFix" result="effect1_dropShadow_31_59"/>
<feBlend mode="normal" in="SourceGraphic" in2="effect1_dropShadow_31_59" result="shape"/>
</filter>
<clipPath id="clip0_31_59">
<rect width="360" height="640" rx="20" fill="white"/>
</clipPath>
</defs>
</svg>
